<svg id="Layer_1" data-name="Layer 1" xmlns="http://www.w3.org/2000/svg" viewBox="0 0 353.83 60.5"><title>on_illustration_Artboard 1</title><path d="M14.39,8.09c-.84-2.09-1.85-2.75-4-2.75-2,0-3.17.77-3.17,2.06s.84,2,3.35,2.44c3.49.73,4.92,1.19,6.1,2a6.51,6.51,0,0,1,3,5.51,7.55,7.55,0,0,1-3.42,6.21A11.5,11.5,0,0,1,10.06,25,10.65,10.65,0,0,1,3.4,23,7.46,7.46,0,0,1,.61,18.59l5-1.15c.66,2.23,2.13,3.24,4.71,3.24,2.3,0,3.73-.94,3.73-2.44s-.94-2-4-2.65a15.6,15.6,0,0,1-5.37-1.81,5.93,5.93,0,0,1-2.82-5.3A6.91,6.91,0,0,1,4.21,3.11a8.61,8.61,0,0,1,6.1-2,9.83,9.83,0,0,1,6.1,1.78A7.19,7.19,0,0,1,19,6.56Z" style="fill:#2e2f3a"/><path d="M37.64,6H31.89V24.69H26.38V6H20.59V1.43h17Z" style="fill:#2e2f3a"/><path d="M45.8,24.69H40.32V1.43H50.54c3,0,4.64.42,6,1.57A7.12,7.12,0,0,1,59,8.41a6.69,6.69,0,0,1-1.74,4.53A6.51,6.51,0,0,1,55,14.44l4.29,10.25h-6l-3.56-9.2H45.8Zm0-13.18h3.35c1.81,0,2.23-.07,2.89-.49A3.09,3.09,0,0,0,53.4,8.48a3,3,0,0,0-1.08-2.3c-.7-.52-1.12-.59-3.31-.59H45.8Z" style="fill:#2e2f3a"/><path d="M78.57,4.47a14.8,14.8,0,0,1,2.65,8.75,14.83,14.83,0,0,1-2.58,8.44A9,9,0,0,1,71.22,25a8.57,8.57,0,0,1-7.15-3.35A14.32,14.32,0,0,1,61.38,13,14,14,0,0,1,64,4.47a9,9,0,0,1,7.39-3.38A8.35,8.35,0,0,1,78.57,4.47ZM68.08,7.53a13.64,13.64,0,0,0-1,5.51c0,5.06,1.43,7.57,4.32,7.57s4.15-2.48,4.15-7.53-1.36-7.57-4.18-7.57A3.36,3.36,0,0,0,68.08,7.53Z" style="fill:#2e2f3a"/><path d="M102.49,24.69H97.82L88.72,9c0,.38,0,.7,0,.8,0,.52.07.87.07,1V24.69H84.6V1.43h5.86l7.92,13.7a15.29,15.29,0,0,1-.1-1.53V1.43h4.22Z" style="fill:#2e2f3a"/><path d="M125.15,24.69h-2.48a16.68,16.68,0,0,0-.8-2.68c-2,2.27-3.59,3-6.35,3-5.86,0-9.59-4.53-9.59-11.68,0-7.53,3.94-12.27,10.15-12.27,5,0,8.23,2.86,9.07,8l-5.16.7a6.2,6.2,0,0,0-.7-2.34A3.66,3.66,0,0,0,116,5.51c-2.89,0-4.5,2.75-4.5,7.74,0,4.74,1.67,7.36,4.74,7.36a3.64,3.64,0,0,0,3-1.43A3.73,3.73,0,0,0,120,16.6H115.6V12.24h9.55Z" style="fill:#2e2f3a"/><path d="M134.9,5.86v4.78h8.72V15H134.9v5.09H146v4.6H129.35V1.43H146V5.86Z" style="fill:#2e2f3a"/><path d="M154.91,24.69h-5.47V1.43h10.22c3,0,4.64.42,6,1.57a7.12,7.12,0,0,1,2.44,5.4,6.69,6.69,0,0,1-1.74,4.53,6.51,6.51,0,0,1-2.27,1.5l4.29,10.25h-6l-3.56-9.2h-3.9Zm0-13.18h3.35c1.81,0,2.23-.07,2.89-.49a3.09,3.09,0,0,0,1.36-2.55,3,3,0,0,0-1.08-2.3c-.7-.52-1.12-.59-3.31-.59h-3.21Z" style="fill:#2e2f3a"/><path d="M185.62,5.72v19h-4.57V1.43h8.47l4.08,13.91,4.32-13.91h8.47V24.69h-5.47v-19l-5.86,19h-3.73Z" style="fill:#2e2f3a"/><path d="M216.45,5.86v4.78h8.72V15h-8.72v5.09h11.09v4.6H210.91V1.43h16.63V5.86Z" style="fill:#2e2f3a"/><path d="M238.06,1.43c4.46,0,6.83.87,9,3.24A12.35,12.35,0,0,1,250,13a12.45,12.45,0,0,1-2.89,8.3A10.18,10.18,0,0,1,239,24.69h-8V1.43Zm-1.74,18.9h2.23a4.81,4.81,0,0,0,4.18-1.88,9.3,9.3,0,0,0,1.67-5.51,8.82,8.82,0,0,0-1.64-5.33,4.67,4.67,0,0,0-4.15-1.88h-2.3Z" style="fill:#2e2f3a"/><path d="M258.76,24.69h-5.44V1.43h5.44Z" style="fill:#2e2f3a"/><path d="M281.87,24.69H276l-1.43-4.78h-7.5l-1.46,4.78h-4.78l7.43-23.26h6.31Zm-8.54-9.07-2.48-8.16-2.48,8.16Z" style="fill:#2e2f3a"/><path d="M129.62,59.39V36.13h14.23v2.54H132.51V46h9.41v2.34h-9.41v11Z" style="fill:#2e2f3a"/><path d="M159.52,59.39l-2.34-6.8h-8.61l-2.06,6.8h-2.44l7.53-23.26H155l7.57,23.26ZM153,39.24l-3.59,11.16h7.15Z" style="fill:#2e2f3a"/><path d="M166.88,59.39V36.13h2.89V59.39Z" style="fill:#2e2f3a"/><path d="M190,59.39l-4.29-10.08H179V59.39h-2.72V36.13h9.14c4.36,0,7.36,2.65,7.36,6.52a6.72,6.72,0,0,1-1.6,4.29,5.61,5.61,0,0,1-2.72,1.67L193,59.39ZM185.1,46.94a4.58,4.58,0,0,0,3.63-1.29,4.39,4.39,0,0,0,1.19-3.07c0-2.41-1.71-3.91-4.46-3.91H179v8.26Z" style="fill:#2e2f3a"/><path d="M213.36,59.39h-15V36.13H213v2.54H201.23V46.1h9.38v2.37h-9.38v8.37h12.13Z" style="fill:#2e2f3a"/><path d="M231.64,59.39l-4.29-10.08h-6.66V59.39H218V36.13h9.14c4.36,0,7.36,2.65,7.36,6.52a6.72,6.72,0,0,1-1.6,4.29,5.61,5.61,0,0,1-2.72,1.67l4.57,10.77Zm-4.88-12.45a4.58,4.58,0,0,0,3.63-1.29,4.39,4.39,0,0,0,1.19-3.07c0-2.41-1.71-3.91-4.46-3.91h-6.42v8.26Z" style="fill:#2e2f3a"/><path d="M266,59.39l-6.94-12.83-5.33,6.63v6.21h-2.89V36.13h2.89V49.63l10.53-13.49h3.14l-6.31,8.16,8.12,15.1Z" style="fill:#2e2f3a"/><path d="M288.6,59.39h-15V36.13h14.71v2.54H276.47V46.1h9.38v2.37h-9.38v8.37H288.6Z" style="fill:#2e2f3a"/><path d="M307.51,59.39l-12-20.26,0,1.53c0,.77,0,1.29,0,1.46V59.39h-2.34V36.13h3.63l11.26,19,0-1.6c0-.87,0-1.46,0-1.71V36.13h2.3V59.39Z" style="fill:#2e2f3a"/><path d="M324.91,49.59v9.8H322v-9.8l-7.78-13.46h3.42l6.17,10.7L330,36.13h2.65Z" style="fill:#2e2f3a"/><path d="M348.27,59.39l-2.34-6.8h-8.61l-2.06,6.8h-2.44l7.53-23.26h3.35l7.57,23.26Zm-6.52-20.15-3.59,11.16h7.15Z" style="fill:#2e2f3a"/></svg>