<svg id="Layer_1" data-name="Layer 1" xmlns="http://www.w3.org/2000/svg" viewBox="0 0 278.17 82.28"><defs><style>.cls-1{fill:#2e2f3a;}</style></defs><title>Artboard 10</title><path class="cls-1" d="M6.63,23.27c1.13,3.35,3.46,4.95,7.17,4.95s5.82-1.67,5.82-4.44c0-1.86-1.35-3.24-3.71-3.82l-4.84-1.24a8.38,8.38,0,0,1-4-1.82,6.26,6.26,0,0,1-2-4.69c0-4,3.27-6.62,8.18-6.62,4.33,0,7.31,2,8.66,6l-2.73.76A4.48,4.48,0,0,0,17.69,9.7a6.87,6.87,0,0,0-4.51-1.64C10.23,8.06,8,9.73,8,12,8,14,9.18,15,12,15.7l4.51,1.09c4.15,1,6.26,3.24,6.26,6.69,0,4.44-3.53,7.31-9,7.31A9.93,9.93,0,0,1,6.7,28.4a10.49,10.49,0,0,1-2.8-4.55Z"/><path class="cls-1" d="M31.71,30.32V8.72H24.77V6.06H41.68V8.72H34.73V30.32Z"/><path class="cls-1" d="M59.66,30.32,55.19,19.81H48.24V30.32H45.4V6.06h9.53c4.55,0,7.68,2.76,7.68,6.8a7,7,0,0,1-1.67,4.47,5.84,5.84,0,0,1-2.84,1.75l4.77,11.24Zm-5.09-13A4.78,4.78,0,0,0,58.35,16a4.58,4.58,0,0,0,1.24-3.2c0-2.51-1.78-4.07-4.66-4.07H48.24v8.62Z"/><path class="cls-1" d="M83.39,30.32H67.71V6.06H83.06V8.72H70.73v7.75h9.79v2.47H70.73v8.73H83.39Z"/><path class="cls-1" d="M102.45,30.32,89.9,9.19l0,1.6c0,.8,0,1.35,0,1.53v18H87.53V6.06h3.78l11.75,19.79,0-1.67c0-.91,0-1.53,0-1.78V6.06h2.4V30.32Z"/><path class="cls-1" d="M129.72,30.65h-1.89l-.8-3.06a7.62,7.62,0,0,1-6.77,3.24,8.66,8.66,0,0,1-6.91-3.09,13.86,13.86,0,0,1-3.09-9.28c0-7.71,4.22-12.88,10.51-12.88a8.34,8.34,0,0,1,6.58,2.8,9.37,9.37,0,0,1,2.11,4.22l-2.87.69A6.56,6.56,0,0,0,125,10.06a6.2,6.2,0,0,0-4.55-1.89,5.89,5.89,0,0,0-5.31,3.13,14.88,14.88,0,0,0-1.6,7.06,14.44,14.44,0,0,0,1.56,6.88,6.4,6.4,0,0,0,5.53,3.13c3.56,0,6-2.55,6-6.4,0-.36,0-.8,0-1.31h-6V18.1h9.09Z"/><path class="cls-1" d="M139.33,30.32V8.72h-6.95V6.06H149.3V8.72h-6.95V30.32Z"/><path class="cls-1" d="M167.32,30.32V18.75H156V30.32h-3V6.06h3v10h11.28v-10h3V30.32Z"/><path class="cls-1" d="M192.22,30.32H176.54V6.06h15.35V8.72H179.56v7.75h9.79v2.47h-9.79v8.73h12.66Z"/><path class="cls-1" d="M211.27,30.32,198.72,9.19l0,1.6c0,.8,0,1.35,0,1.53v18h-2.44V6.06h3.78l11.75,19.79,0-1.67c0-.91,0-1.53,0-1.78V6.06h2.4V30.32Z"/><path class="cls-1" d="M220.41,30.32V6.06h3V30.32Z"/><path class="cls-1" d="M244.48,30.32,231.93,9.19l0,1.6c0,.8,0,1.35,0,1.53v18h-2.44V6.06h3.78L245.1,25.85l0-1.67c0-.91,0-1.53,0-1.78V6.06h2.4V30.32Z"/><path class="cls-1" d="M271.76,30.65h-1.89l-.8-3.06a7.62,7.62,0,0,1-6.77,3.24,8.66,8.66,0,0,1-6.91-3.09,13.86,13.86,0,0,1-3.09-9.28c0-7.71,4.22-12.88,10.51-12.88a8.34,8.34,0,0,1,6.58,2.8,9.37,9.37,0,0,1,2.11,4.22l-2.87.69a6.56,6.56,0,0,0-1.56-3.24,6.2,6.2,0,0,0-4.55-1.89,5.89,5.89,0,0,0-5.31,3.13,14.88,14.88,0,0,0-1.6,7.06,14.44,14.44,0,0,0,1.56,6.88,6.4,6.4,0,0,0,5.53,3.13c3.56,0,6-2.55,6-6.4,0-.36,0-.8,0-1.31h-6V18.1h9.09Z"/><path class="cls-1" d="M11.9,58.07l8.39-12.61h6L19.85,55l8,17.22H21l-5.3-11.6L11.9,66.1v6.14H5.76V45.46H11.9Z"/><path class="cls-1" d="M36.92,50.56v5.5H47v5h-10v5.86H49.69v5.3H30.54V45.46H49.69v5.1Z"/><path class="cls-1" d="M74.2,72.24H68.82L58.34,54.14c0,.44,0,.8,0,.92,0,.6.08,1,.08,1.16v16H53.61V45.46h6.75l9.11,15.78a17.4,17.4,0,0,1-.12-1.77v-14H74.2Z"/><path class="cls-1" d="M90.83,61V72.24H84.57V61l-8.43-15.5h7.27l5.14,10.16,5.06-10.16h5.62Z"/><path class="cls-1" d="M120.23,72.24h-6.74l-1.65-5.5h-8.63l-1.69,5.5H96l8.55-26.78h7.27ZM110.4,61.8l-2.85-9.39L104.7,61.8Z"/><path class="cls-1" d="M143.36,72.24H138L127.5,54.14c0,.44,0,.8,0,.92,0,.6.08,1,.08,1.16v16h-4.86V45.46h6.75l9.11,15.78a17.4,17.4,0,0,1-.12-1.77v-14h4.86Z"/><path class="cls-1" d="M164,50.4V72.24h-5.26V45.46h9.76l4.7,16,5-16H188V72.24h-6.3V50.4l-6.75,21.84h-4.29Z"/><path class="cls-1" d="M199.48,50.56v5.5h10v5h-10v5.86h12.77v5.3H193.09V45.46h19.15v5.1Z"/><path class="cls-1" d="M224.31,45.46c5.14,0,7.87,1,10.36,3.73a14.22,14.22,0,0,1,3.41,9.59,14.33,14.33,0,0,1-3.33,9.55c-2.25,2.61-5.38,3.89-9.39,3.89h-9.19V45.46Zm-2,21.76h2.57a5.54,5.54,0,0,0,4.82-2.17,10.7,10.7,0,0,0,1.93-6.34,10.16,10.16,0,0,0-1.89-6.14A5.37,5.37,0,0,0,225,50.4H222.3Z"/><path class="cls-1" d="M248.09,72.24h-6.26V45.46h6.26Z"/><path class="cls-1" d="M274.65,72.24h-6.74l-1.65-5.5h-8.63l-1.69,5.5h-5.5L259,45.46h7.27ZM264.82,61.8,262,52.41l-2.85,9.39Z"/></svg>