<svg id="Layer_1" data-name="Layer 1" xmlns="http://www.w3.org/2000/svg" viewBox="0 0 305.22 63.93"><title>Artboard 2 copy</title><path d="M5.77,32.1v-20H21c8,0,12.6,3.66,12.6,9.78,0,6.41-5.28,10.2-12.66,10.2ZM39.19,21.68c0-8.87-7-14.7-17.8-14.7H.22V56.23H5.77V37.09H19.85L34.13,56.23H41L25.83,36.11c7.74-1.41,13.37-6.19,13.37-14.43M87.29,51.17H55.72V33.93H80.89a39.29,39.29,0,0,1-.67-5.07H55.72V12H83.06a31.55,31.55,0,0,1,2.48-4.5l.4-.57H50.16V56.23H89.5c-.67-1.65-1.42-3.34-2.22-5.07" style="fill:#867870"/><path d="M190.8,31.75c0,8.44-6.05,15.34-14.78,15.34S161.1,40,161.1,31.61v-.14c0-8.45,6.05-15.34,14.78-15.34s14.91,7,14.91,15.48ZM176,6.13c-15.2,0-26.25,11.47-26.25,25.47v.14c0,14,10.9,25.33,26.11,25.33s26.25-11.47,26.25-25.47v-.14c0-14-10.91-25.33-26.11-25.33M264.19,7V17h15V56.23H290V17h15V7ZM134.92,30.48c3.52-2,6.48-5.07,6.48-10.63v-.14C141.39,12,135.2,7,125.14,7h-23a19.17,19.17,0,0,0,2.14,5.25c.73,1.33,1.59,2.73,2.48,4.25h16.72c4.58,0,7.11,1.83,7.11,5.06v.14c0,3.66-3,5.2-7.81,5.2H111a20.62,20.62,0,0,1,.29,2.89c0,.18,0,.36,0,.55a25.17,25.17,0,0,1-.68,5.57h14.7c5.56,0,8,2,8,5.35v.14c0,3.66-2.88,5.35-7.67,5.35h-19c-.39.86-1,2.25-1.71,3.93s-1.52,3.66-2.25,5.57h23c11.12,0,18.43-4.5,18.43-13.51v-.14c0-6.61-3.52-9.92-9.22-12.1m114.46,1.27c0,8.44-6.05,15.34-14.78,15.34s-14.92-7-14.92-15.48v-.14c0-8.45,6.05-15.34,14.78-15.34s14.92,7,14.92,15.48ZM234.61,6.13c-15.2,0-26.25,11.47-26.25,25.47v.14c0,14,10.91,25.33,26.11,25.33s26.25-11.47,26.25-25.47v-.14c0-14-10.9-25.33-26.1-25.33" style="fill:#bd5828"/><path d="M107,29.88c-.3-11.15-12.38-17.52-8.67-29.52-7.09,5.58-12.89,12.21-13.79,23.1C83.18,40,94,50.14,96.11,63.57,96.2,61.27,98,56.36,99.72,52a11.54,11.54,0,0,0,.24-1.62c.62-8.51-9.82-15.57-9.63-24.06a14.47,14.47,0,0,1,3.53-9c-1.56,11.1,9.39,16,9.31,26.62h0c1.75-4.24,4-9.19,3.85-14.12" style="fill:#bd5828"/></svg>