<svg id="Layer_1" data-name="Layer 1" xmlns="http://www.w3.org/2000/svg" viewBox="0 0 420.9 97.01"><title>Artboard 1</title><path d="M10.22,89.86,8,84.7,5.88,89.86ZM.53,94.2,6,81.88a2.13,2.13,0,0,1,2-1.37h.2a2.1,2.1,0,0,1,2,1.37L15.65,94.2a1.66,1.66,0,0,1,.18.69,1.63,1.63,0,0,1-1.64,1.65,1.75,1.75,0,0,1-1.65-1.18L11.5,92.91H4.61L3.51,95.48a1.69,1.69,0,0,1-1.59,1.07A1.58,1.58,0,0,1,.33,94.94a1.81,1.81,0,0,1,.2-.74" style="fill:#0077c0"/><path d="M26.95,83a2.28,2.28,0,0,1-.13-.65,1.71,1.71,0,0,1,1.77-1.68,1.74,1.74,0,0,1,1.68,1.23l3.11,9.6,3.13-9.51a1.81,1.81,0,0,1,1.75-1.36h.27a1.79,1.79,0,0,1,1.75,1.36l3.13,9.51,3.11-9.6a1.73,1.73,0,0,1,1.65-1.23,1.66,1.66,0,0,1,1.7,1.66,2.39,2.39,0,0,1-.13.67l-4.38,12.3a1.91,1.91,0,0,1-1.79,1.41h-.36a1.85,1.85,0,0,1-1.77-1.41l-3.09-9-3.09,9a1.85,1.85,0,0,1-1.76,1.41h-.36a1.91,1.91,0,0,1-1.79-1.41Z" style="fill:#0077c0"/><path d="M65.72,88.63v0A4.76,4.76,0,0,0,61,83.67a4.68,4.68,0,0,0-4.69,4.87v0A4.76,4.76,0,0,0,61,93.51a4.68,4.68,0,0,0,4.7-4.88m-13,0v0a8.32,8.32,0,0,1,16.64,0v0a8.32,8.32,0,0,1-16.64,0" style="fill:#0077c0"/><path d="M80.66,88.36c1.68,0,2.64-.89,2.64-2.21v0c0-1.47-1-2.24-2.7-2.24H77.17v4.49Zm-6.93-5.88a1.71,1.71,0,0,1,1.72-1.72h5.43a6.24,6.24,0,0,1,4.56,1.59,4.92,4.92,0,0,1,1.34,3.58v0a4.78,4.78,0,0,1-3.13,4.77L86,93.64A2,2,0,0,1,86.61,95,1.6,1.6,0,0,1,85,96.55a2.07,2.07,0,0,1-1.7-.89l-3.35-4.25H77.17v3.42a1.72,1.72,0,0,1-3.44,0Z" style="fill:#0077c0"/><path d="M91.24,82.35a1.72,1.72,0,0,1,3.45,0V93.28h6.37a1.57,1.57,0,0,1,0,3.13H93a1.71,1.71,0,0,1-1.72-1.72Z" style="fill:#0077c0"/><path d="M112.53,93.31a4.46,4.46,0,0,0,4.72-4.68v0a4.5,4.5,0,0,0-4.72-4.72h-2.66v9.44Zm-6.11-10.83a1.71,1.71,0,0,1,1.72-1.72h4.38c4.92,0,8.32,3.38,8.32,7.78v0c0,4.41-3.4,7.83-8.32,7.83h-4.38a1.71,1.71,0,0,1-1.72-1.72Z" style="fill:#0077c0"/><path d="M145.64,88.63v0a4.76,4.76,0,0,0-4.74-4.92,4.68,4.68,0,0,0-4.69,4.87v0a4.76,4.76,0,0,0,4.74,4.92,4.68,4.68,0,0,0,4.7-4.88m-13,0v0a8.32,8.32,0,0,1,16.64,0v0a8.32,8.32,0,0,1-16.64,0" style="fill:#0077c0"/><path d="M153.65,82.48a1.71,1.71,0,0,1,1.72-1.72h8.77a1.56,1.56,0,0,1,0,3.13h-7v3.33h6a1.57,1.57,0,1,1,0,3.13h-6v4.47a1.72,1.72,0,0,1-3.44,0Z" style="fill:#0077c0"/><path d="M183.88,88.66a2.42,2.42,0,0,0,2.73-2.37v0c0-1.54-1.07-2.37-2.8-2.37h-2.67v4.79Zm-6.17-6.17a1.71,1.71,0,0,1,1.72-1.72h4.67c3.74,0,6,2.21,6,5.41v0c0,3.62-2.82,5.5-6.33,5.5h-2.62v3.11a1.72,1.72,0,0,1-3.44,0Z" style="fill:#0077c0"/><path d="M206.33,88.63v0a4.75,4.75,0,0,0-4.74-4.92,4.68,4.68,0,0,0-4.7,4.87v0a4.76,4.76,0,0,0,4.74,4.92,4.68,4.68,0,0,0,4.7-4.88m-13,0v0a8.32,8.32,0,0,1,16.64,0v0a8.32,8.32,0,0,1-16.64,0" style="fill:#0077c0"/><path d="M213.91,94.76a1.61,1.61,0,0,1-.65-1.3,1.58,1.58,0,0,1,1.61-1.59,1.65,1.65,0,0,1,1,.31,6.61,6.61,0,0,0,4,1.41c1.41,0,2.26-.56,2.26-1.47v0c0-.87-.54-1.32-3.15-2-3.15-.81-5.19-1.68-5.19-4.79v0c0-2.84,2.28-4.72,5.48-4.72a9.08,9.08,0,0,1,5,1.39,1.6,1.6,0,0,1-.85,3,1.66,1.66,0,0,1-.87-.25,6.51,6.51,0,0,0-3.29-1.05c-1.32,0-2,.6-2,1.36v0c0,1,.67,1.36,3.38,2.06,3.18.83,5,2,5,4.69v0c0,3.11-2.37,4.85-5.75,4.85a10.11,10.11,0,0,1-5.88-1.88" style="fill:#0077c0"/><path d="M230,82.35a1.72,1.72,0,0,1,3.44,0V94.83a1.72,1.72,0,0,1-3.44,0Z" style="fill:#0077c0"/><path d="M242.38,83.94h-3.31a1.59,1.59,0,0,1,0-3.18h10.07a1.59,1.59,0,0,1,0,3.18h-3.31V94.83a1.72,1.72,0,1,1-3.44,0Z" style="fill:#0077c0"/><path d="M254.72,82.35a1.72,1.72,0,0,1,3.45,0V94.83a1.72,1.72,0,0,1-3.45,0Z" style="fill:#0077c0"/><path d="M267.61,95.3l-5.08-12.15a2.15,2.15,0,0,1-.2-.82,1.69,1.69,0,0,1,1.73-1.7,1.8,1.8,0,0,1,1.74,1.21L269.71,92l4-10.24a1.79,1.79,0,0,1,1.65-1.1,1.66,1.66,0,0,1,1.7,1.66,2,2,0,0,1-.18.76L271.72,95.3a2,2,0,0,1-1.94,1.36h-.23a2,2,0,0,1-1.95-1.36" style="fill:#0077c0"/><path d="M281,94.69V82.48a1.71,1.71,0,0,1,1.72-1.72h8.68a1.55,1.55,0,0,1,1.54,1.54,1.53,1.53,0,0,1-1.54,1.52h-7V87h6a1.54,1.54,0,0,1,1.54,1.54,1.52,1.52,0,0,1-1.54,1.52h-6v3.29h7.09a1.55,1.55,0,0,1,1.54,1.54,1.53,1.53,0,0,1-1.54,1.52h-8.79A1.71,1.71,0,0,1,281,94.69" style="fill:#0077c0"/><path d="M312.31,88.36c1.68,0,2.64-.89,2.64-2.21v0c0-1.47-1-2.24-2.71-2.24h-3.42v4.49Zm-6.93-5.88a1.71,1.71,0,0,1,1.72-1.72h5.43a6.24,6.24,0,0,1,4.56,1.59,4.9,4.9,0,0,1,1.34,3.58v0a4.78,4.78,0,0,1-3.13,4.77l2.39,2.91a2,2,0,0,1,.56,1.32,1.6,1.6,0,0,1-1.63,1.59,2.06,2.06,0,0,1-1.7-.89l-3.36-4.25h-2.75v3.42a1.72,1.72,0,0,1-3.44,0Z" style="fill:#0077c0"/><path d="M322.89,94.69V82.48a1.71,1.71,0,0,1,1.72-1.72h8.68a1.55,1.55,0,0,1,1.54,1.54,1.53,1.53,0,0,1-1.54,1.52h-7V87h6a1.54,1.54,0,0,1,1.54,1.54,1.52,1.52,0,0,1-1.54,1.52h-6v3.29h7.09a1.55,1.55,0,0,1,1.54,1.54,1.53,1.53,0,0,1-1.54,1.52h-8.79a1.71,1.71,0,0,1-1.72-1.72" style="fill:#0077c0"/><path d="M342.86,83.94h-3.31a1.59,1.59,0,0,1,0-3.18h10.07a1.59,1.59,0,0,1,0,3.18H346.3V94.83a1.72,1.72,0,1,1-3.45,0Z" style="fill:#0077c0"/><path d="M354.8,89.71V82.35a1.72,1.72,0,0,1,3.45,0v7.27c0,2.55,1.27,3.87,3.38,3.87S365,92.21,365,89.73V82.35a1.72,1.72,0,0,1,3.44,0v7.25c0,4.74-2.66,7.07-6.87,7.07s-6.78-2.35-6.78-7" style="fill:#0077c0"/><path d="M380.23,88.36c1.68,0,2.64-.89,2.64-2.21v0c0-1.47-1-2.24-2.7-2.24h-3.42v4.49Zm-6.94-5.88A1.71,1.71,0,0,1,375,80.76h5.43A6.25,6.25,0,0,1,385,82.35a4.92,4.92,0,0,1,1.34,3.58v0a4.78,4.78,0,0,1-3.13,4.77l2.39,2.91a2,2,0,0,1,.56,1.32,1.6,1.6,0,0,1-1.63,1.59,2.06,2.06,0,0,1-1.7-.89l-3.36-4.25h-2.75v3.42a1.72,1.72,0,0,1-3.45,0Z" style="fill:#0077c0"/><path d="M390.8,82.39a1.71,1.71,0,0,1,1.72-1.72h.36a2.14,2.14,0,0,1,1.79,1l6.64,8.72V82.33a1.7,1.7,0,1,1,3.4,0V94.79A1.71,1.71,0,0,1,403,96.51h-.11a2.14,2.14,0,0,1-1.79-1l-6.89-9v8.38a1.7,1.7,0,1,1-3.4,0Z" style="fill:#0077c0"/><path d="M409.5,94.76a1.61,1.61,0,0,1-.65-1.3,1.58,1.58,0,0,1,1.61-1.59,1.66,1.66,0,0,1,1,.31,6.6,6.6,0,0,0,4,1.41c1.41,0,2.26-.56,2.26-1.47v0c0-.87-.53-1.32-3.15-2-3.16-.81-5.19-1.68-5.19-4.79v0c0-2.84,2.28-4.72,5.48-4.72a9.07,9.07,0,0,1,5,1.39,1.57,1.57,0,0,1,.76,1.36A1.59,1.59,0,0,1,419,84.88a1.65,1.65,0,0,1-.87-.25,6.52,6.52,0,0,0-3.29-1.05c-1.32,0-2,.6-2,1.36v0c0,1,.67,1.36,3.38,2.06,3.17.83,5,2,5,4.69v0c0,3.11-2.37,4.85-5.75,4.85a10.1,10.1,0,0,1-5.88-1.88" style="fill:#0077c0"/><path d="M91.33,29.66a4.2,4.2,0,1,1-8.4,0V4.51a4.2,4.2,0,0,1,8.4,0Z" style="fill:#0077c0"/><path d="M87.12,55A25.25,25.25,0,0,0,105,11.9a4.21,4.21,0,0,0-5.95,6,16.83,16.83,0,1,1-23.81,0,4.22,4.22,0,0,0-6-6A25.25,25.25,0,0,0,87.12,55" style="fill:#0077c0"/><path d="M161.74,5.57a4.2,4.2,0,0,0-4.2,4.21V38.29L131.08,7.07a4.22,4.22,0,0,0-7.44,2.71v40a4.2,4.2,0,1,0,8.4,0V21.26l26.48,31.22a4.22,4.22,0,0,0,7.42-2.74v-40a4.2,4.2,0,0,0-4.2-4.21" style="fill:#0077c0"/><path d="M211.73,15.55v-.06a6.69,6.69,0,0,0-6.64-6.95,6.6,6.6,0,0,0-6.58,6.89v.05a6.69,6.69,0,0,0,6.64,6.95,6.6,6.6,0,0,0,6.58-6.89m-16.82,0v-.06a10.2,10.2,0,0,1,20.41-.05v.05a10.2,10.2,0,0,1-20.41.06" style="fill:#5f6062"/><polygon points="222.11 25.24 225.48 25.24 225.48 11.3 231.59 20.45 231.7 20.45 237.86 11.25 237.86 25.24 241.29 25.24 241.29 5.73 237.64 5.73 231.7 14.96 225.76 5.73 222.11 5.73 222.11 25.24" style="fill:#5f6062"/><rect x="249.15" y="5.73" width="3.43" height="19.52" style="fill:#5f6062"/><path d="M267.72,22.13c4.1,0,6.77-2.76,6.77-6.58v-.06a6.4,6.4,0,0,0-6.77-6.63h-3.85V22.13ZM260.44,5.73h7.28c6.13,0,10.37,4.21,10.37,9.7v.05c0,5.49-4.24,9.77-10.37,9.77h-7.28Z" style="fill:#5f6062"/><polygon points="288.97 25.25 292.43 25.25 292.43 17.47 300.18 5.73 296.24 5.73 290.73 14.38 285.26 5.73 281.22 5.73 288.97 17.55 288.97 25.25" style="fill:#5f6062"/><path d="M314.19,17.5l-3.38-7.81-3.34,7.81Zm-4.91-11.9h3.18L321,25.24h-3.62l-2-4.71h-9.23l-2,4.71h-3.52Z" style="fill:#5f6062"/><path d="M335.26,15.41c2.45,0,4-1.28,4-3.26v-.06c0-2.09-1.51-3.23-4-3.23h-5v6.55Zm-8.45-9.67h8.7a7.84,7.84,0,0,1,5.63,2,5.87,5.87,0,0,1,1.62,4.21v.05a5.86,5.86,0,0,1-4.66,5.91l5.27,7.39h-4l-4.79-6.8h-4.29v6.8h-3.43Z" style="fill:#5f6062"/><polygon points="196.67 54.67 200.05 54.67 200.05 40.79 210.81 54.67 213.68 54.67 213.68 35.15 210.31 35.15 210.31 48.65 199.85 35.15 196.67 35.15 196.67 54.67" style="fill:#5f6062"/><polygon points="220.9 54.67 235.51 54.67 235.51 51.6 224.33 51.6 224.33 46.37 234.12 46.37 234.12 43.3 224.33 43.3 224.33 38.22 235.37 38.22 235.37 35.15 220.9 35.15 220.9 54.67" style="fill:#5f6062"/><polygon points="247.06 54.67 250.51 54.67 250.51 38.34 256.71 38.34 256.71 35.16 240.87 35.16 240.87 38.34 247.06 38.34 247.06 54.67" style="fill:#5f6062"/><polygon points="267.96 54.81 270.92 54.81 275.72 40.79 280.51 54.81 283.47 54.81 290.27 35.16 286.67 35.16 282.01 49.62 277.22 35.1 274.32 35.1 269.52 49.62 264.87 35.16 261.16 35.16 267.96 54.81" style="fill:#5f6062"/><path d="M310.76,45v-.06A6.7,6.7,0,0,0,304.12,38a6.6,6.6,0,0,0-6.58,6.89v.05a6.69,6.69,0,0,0,6.64,6.95A6.6,6.6,0,0,0,310.76,45m-16.82,0v-.06a10.2,10.2,0,0,1,20.41-.05v.05a10.2,10.2,0,0,1-20.41.06" style="fill:#5f6062"/><path d="M329,44.83c2.45,0,4-1.28,4-3.26v-.06c0-2.09-1.5-3.23-4-3.23h-5v6.55Zm-8.45-9.67h8.7a7.85,7.85,0,0,1,5.63,2,5.87,5.87,0,0,1,1.62,4.21v.05a5.86,5.86,0,0,1-4.66,5.91l5.27,7.39h-4l-4.8-6.8H324v6.8h-3.43Z" style="fill:#5f6062"/><polygon points="343.95 54.67 347.38 54.67 347.38 49.01 350.42 45.89 357.09 54.67 361.24 54.67 352.76 43.55 360.88 35.15 356.67 35.15 347.38 44.97 347.38 35.15 343.95 35.15 343.95 54.67" style="fill:#5f6062"/></svg>