<svg id="Layer_1" data-name="Layer 1" xmlns="http://www.w3.org/2000/svg" viewBox="0 0 283.03 122.15"><title>on_illustration_Artboard 6</title><path d="M18.67,30.38V20.52H9.06v9.86H6.48V9.69H9.06v8.56h9.62V9.69h2.57V30.38Z" style="fill:#2e2f3a"/><path d="M41.79,20A12.71,12.71,0,0,1,39,28.18a7.07,7.07,0,0,1-5.77,2.61,7.28,7.28,0,0,1-5.89-2.67,12.64,12.64,0,0,1-2.54-8c0-6.39,3.47-10.8,8.5-10.8S41.79,13.57,41.79,20Zm-14.27.09c0,5.15,2.3,8.56,5.8,8.56s5.77-3.44,5.77-8.69-2.17-8.59-5.8-8.59S27.52,14.84,27.52,20.11Z" style="fill:#2e2f3a"/><path d="M62.1,30.38H59.49l-4.5-16-4.22,16H48.14L42.9,9.69h2.67l4.16,16.75,4.4-16.75H56.2L61,26.44,64.8,9.69h2.26Z" style="fill:#2e2f3a"/><path d="M19.33,65.87c0,6.68-3.08,9.66-10,9.66a25.92,25.92,0,0,1-5-.48v-6.2a21.67,21.67,0,0,0,3.65.34,4.3,4.3,0,0,0,3.32-1.25,5.06,5.06,0,0,0,.63-3V43h7.5Z" style="fill:#2e2f3a"/><path d="M47.21,47.17a21.27,21.27,0,0,1,.1,23.69,12.46,12.46,0,0,1-10.23,4.66,11.81,11.81,0,0,1-9.85-4.61,19.74,19.74,0,0,1-3.7-12,19.23,19.23,0,0,1,3.6-11.72,12.37,12.37,0,0,1,10.19-4.66C41.64,42.51,44.91,44.05,47.21,47.17ZM32.75,51.4A18.78,18.78,0,0,0,31.36,59c0,7,2,10.43,6,10.43S43,66,43,59s-1.87-10.43-5.77-10.43A4.64,4.64,0,0,0,32.75,51.4Z" style="fill:#2e2f3a"/><path d="M80.57,63c0,5.24-.72,7.54-3,9.56s-5.43,3-9.71,3c-4.52,0-7.78-1.06-10-3.17-2-2-2.83-4.66-2.83-9.37V43h8.12V63c0,2.59.24,3.7.91,4.66.82,1.15,2.45,1.78,4.52,1.78s3.89-.67,4.71-1.73.91-2,.91-4.71V43h6.39Z" style="fill:#2e2f3a"/><path d="M93.87,75H86.33V43H100.4c4.13,0,6.39.58,8.31,2.16a9.81,9.81,0,0,1,3.36,7.45,9.22,9.22,0,0,1-2.4,6.25,9,9,0,0,1-3.12,2.07L112.46,75h-8.31l-4.9-12.69H93.87Zm0-18.16h4.61c2.5,0,3.08-.1,4-.67a4.25,4.25,0,0,0,1.87-3.51,4.09,4.09,0,0,0-1.49-3.17c-1-.72-1.54-.82-4.57-.82H93.87Z" style="fill:#2e2f3a"/><path d="M141.66,75h-6.44L122.68,53.37c0,.53,0,1,0,1.11,0,.72.1,1.2.1,1.39V75H117V43h8.07L136,61.88c-.1-1-.14-1.49-.14-2.11V43h5.81Z" style="fill:#2e2f3a"/><path d="M173.44,75h-8.07l-2-6.58H153.07l-2,6.58h-6.58L154.7,43h8.7ZM161.67,62.55l-3.41-11.24-3.41,11.24Z" style="fill:#2e2f3a"/><path d="M196.69,68.7V75H176.37V43H184V68.7Z" style="fill:#2e2f3a"/><path d="M207.26,75h-7.5V43h7.5Z" style="fill:#2e2f3a"/><path d="M229.41,52.17c-1.15-2.88-2.55-3.8-5.57-3.8-2.79,0-4.37,1.06-4.37,2.83s1.15,2.69,4.61,3.36c4.81,1,6.78,1.63,8.41,2.74a9,9,0,0,1,4.13,7.59,10.4,10.4,0,0,1-4.71,8.55,15.85,15.85,0,0,1-8.46,2.07,14.68,14.68,0,0,1-9.18-2.74c-2-1.58-2.93-3-3.84-6.15L217.35,65c.91,3.08,2.93,4.47,6.49,4.47,3.17,0,5.14-1.3,5.14-3.36s-1.3-2.79-5.57-3.65c-3.56-.72-5.62-1.39-7.4-2.5a8.18,8.18,0,0,1-3.89-7.3,9.52,9.52,0,0,1,3.27-7.4c2.16-1.92,4.8-2.79,8.41-2.79A13.54,13.54,0,0,1,232.2,45c1.68,1.25,2.55,2.5,3.56,5.09Z" style="fill:#2e2f3a"/><path d="M247.31,48.91V75H241V43h11.68l5.62,19.17,6-19.17H276V75h-7.54V48.91L260.33,75h-5.14Z" style="fill:#2e2f3a"/><path d="M17.59,97.22a6.15,6.15,0,0,0-.53-2.64,3,3,0,0,0-2.88-1.77c-2.54,0-3.79,2.3-3.79,6.95,0,4.5,1.21,6.48,3.88,6.48,2,0,3.23-1.27,3.69-3.91l4.68.28a8.26,8.26,0,0,1-1.55,4.31,8.09,8.09,0,0,1-6.86,3.26C8.63,110.18,5,106,5,99.51a11.6,11.6,0,0,1,2.42-7.57,8.31,8.31,0,0,1,6.92-3.07,7.6,7.6,0,0,1,6.55,2.95,9.73,9.73,0,0,1,1.77,5.06Z" style="fill:#2e2f3a"/><path d="M41.7,109.87H36.48l-1.27-4.25H28.54l-1.3,4.25H23L29.6,89.18h5.62Zm-7.6-8.07-2.2-7.26-2.2,7.26Z" style="fill:#2e2f3a"/><path d="M59.64,109.87H55.48l-8.1-14c0,.34,0,.62,0,.71,0,.47.06.78.06.9v12.38H43.72V89.18h5.21l7,12.19c-.06-.65-.09-1-.09-1.36V89.18h3.75Z" style="fill:#2e2f3a"/><path d="M84.63,93.28H79.52v16.6h-4.9V93.28H69.46V89.18H84.63Z" style="fill:#2e2f3a"/><path d="M102.55,109.87H97.8v-8.53H91.32v8.53H86.57V89.18h4.75v8.07H97.8V89.18h4.75Z" style="fill:#2e2f3a"/><path d="M111.46,109.87h-4.87V89.18h9.09c2.67,0,4.13.37,5.37,1.4a6.33,6.33,0,0,1,2.17,4.81,6,6,0,0,1-1.55,4,5.79,5.79,0,0,1-2,1.33l3.82,9.12h-5.37l-3.17-8.19h-3.47Zm0-11.73h3c1.61,0,2-.06,2.58-.43a2.75,2.75,0,0,0,1.21-2.26,2.64,2.64,0,0,0-1-2c-.62-.46-1-.53-2.95-.53h-2.85Z" style="fill:#2e2f3a"/><path d="M131.43,109.87h-4.84V89.18h4.84Z" style="fill:#2e2f3a"/><path d="M144.64,109.87h-5.21l-6.2-20.69h5.15L142.5,104l4.31-14.8h4.06Z" style="fill:#2e2f3a"/><path d="M157.64,93.12v4.25h7.76v3.88h-7.76v4.53h9.87v4.09h-14.8V89.18h14.8v3.94Z" style="fill:#2e2f3a"/></svg>