<svg id="Layer_1" data-name="Layer 1" xmlns="http://www.w3.org/2000/svg" viewBox="0 0 212.04 30.09"><title>on_illustration_Artboard 1</title><path d="M10.58,10.62a1.48,1.48,0,1,1-3,0V1.74a1.48,1.48,0,0,1,3,0Z" style="fill:#0076c0"/><path d="M9.09,19.56A8.91,8.91,0,0,0,15.4,4.35a1.49,1.49,0,0,0-2.1,2.11,5.94,5.94,0,1,1-8.41,0,1.49,1.49,0,1,0-2.1-2.11,8.91,8.91,0,0,0,6.3,15.21" style="fill:#0076c0"/><path d="M35.43,2.11A1.48,1.48,0,0,0,34,3.6V13.66l-9.34-11a1.5,1.5,0,0,0-1.14-.53A1.48,1.48,0,0,0,22,3.6V17.7a1.48,1.48,0,1,0,3,0V7.65l9.34,11a1.49,1.49,0,0,0,2.62-1V3.6a1.49,1.49,0,0,0-1.48-1.49" style="fill:#0076c0"/><path d="M187.33,15h1.52v-2.5l1.34-1.38L193.13,15H195L191.22,10l3.58-3.71h-1.86l-4.1,4.34V6.34h-1.52Zm-6.6-4.35c1.08,0,1.77-.57,1.77-1.44v0c0-.92-.66-1.43-1.79-1.43h-2.2v2.89ZM177,6.34h3.84a3.48,3.48,0,0,1,2.49.86A2.61,2.61,0,0,1,184,9.06v0A2.59,2.59,0,0,1,182,11.7L184.32,15h-1.79l-2.12-3h-1.9v3H177Zm-4.34,4.34v0a3,3,0,0,0-2.93-3.07,2.91,2.91,0,0,0-2.91,3v0a3,3,0,0,0,2.93,3.07,2.91,2.91,0,0,0,2.91-3m-7.43,0v0a4.51,4.51,0,0,1,9,0v0a4.51,4.51,0,0,1-9,0M153.75,15h1.31l2.12-6.2L159.3,15h1.3l3-8.69H162L160,12.73l-2.12-6.42h-1.28l-2.12,6.42-2.06-6.4h-1.64ZM144.52,15H146V7.74h2.73V6.34h-7v1.4h2.73ZM133,15h6.45V13.61h-4.94V11.29h4.32V9.94h-4.32V7.69h4.88V6.34H133Zm-10.7,0h1.49V8.83L128.5,15h1.27V6.34h-1.49v6l-4.62-6h-1.4Zm-10.53-4.35c1.08,0,1.77-.57,1.77-1.44v0c0-.92-.67-1.43-1.79-1.43h-2.21v2.89ZM108,6.34h3.85a3.47,3.47,0,0,1,2.49.86A2.61,2.61,0,0,1,115,9.06v0A2.59,2.59,0,0,1,113,11.7L115.31,15h-1.79l-2.12-3h-1.9v3H108Zm-5.58,5.2-1.49-3.45-1.48,3.45Zm-2.17-5.26h1.41L105.44,15h-1.6L103,12.88H98.89L98,15H96.45Zm-9,8.69H92.8V11.52l3.42-5.19H94.49L92,10.16,89.63,6.34H87.85l3.42,5.22Zm-9.39-1.38a2.81,2.81,0,0,0,3-2.91v0a2.83,2.83,0,0,0-3-2.93h-1.7v5.86ZM78.67,6.34h3.22a4.3,4.3,0,0,1,4.58,4.29v0A4.32,4.32,0,0,1,81.88,15H78.67Zm-5,8.62h1.51V6.34H73.68Zm-12,0h1.49V8.8l2.7,4h0l2.72-4.06V15h1.52V6.34H68.59L66,10.42,63.34,6.34H61.73Zm-4.59-4.29v0a3,3,0,0,0-2.93-3.07,2.91,2.91,0,0,0-2.91,3v0a3,3,0,0,0,2.93,3.07,2.91,2.91,0,0,0,2.91-3m-7.43,0v0a4.51,4.51,0,0,1,9,0v0a4.51,4.51,0,0,1-9,0" style="fill:#5f6062"/><path d="M53.83,27.2l-.83-2-.83,2ZM50.1,28.87l2.1-4.74A.82.82,0,0,1,53,23.6h.08a.81.81,0,0,1,.77.53l2.1,4.74a.64.64,0,0,1,.07.27.63.63,0,0,1-.63.64.68.68,0,0,1-.64-.46l-.4-.95H51.67l-.42,1a.65.65,0,0,1-.61.41.61.61,0,0,1-.61-.62.71.71,0,0,1,.08-.28" style="fill:#0076c0"/><path d="M60.26,24.54a.83.83,0,0,1-.05-.25.66.66,0,0,1,.68-.65.67.67,0,0,1,.65.47l1.2,3.69,1.2-3.66a.7.7,0,0,1,.67-.53h.1a.69.69,0,0,1,.67.53l1.21,3.66,1.19-3.69a.66.66,0,0,1,.64-.47.64.64,0,0,1,.65.64.88.88,0,0,1-.05.26l-1.69,4.73a.73.73,0,0,1-.69.54H66.5a.71.71,0,0,1-.68-.54l-1.19-3.45-1.19,3.45a.71.71,0,0,1-.68.54h-.14a.73.73,0,0,1-.69-.54Z" style="fill:#0076c0"/><path d="M75.17,26.72v0a1.83,1.83,0,0,0-1.82-1.89,1.8,1.8,0,0,0-1.81,1.88v0a1.83,1.83,0,0,0,1.82,1.89,1.8,1.8,0,0,0,1.81-1.87m-5,0v0a3.2,3.2,0,0,1,6.4,0v0a3.2,3.2,0,0,1-6.4,0" style="fill:#0076c0"/><path d="M80.92,26.62c.65,0,1-.34,1-.85v0c0-.57-.4-.86-1-.86H79.58v1.73Zm-2.67-2.26a.66.66,0,0,1,.66-.66H81a2.4,2.4,0,0,1,1.75.61,1.89,1.89,0,0,1,.52,1.38v0a1.84,1.84,0,0,1-1.2,1.83L83,28.65a.77.77,0,0,1,.22.51.62.62,0,0,1-.63.61.79.79,0,0,1-.65-.34l-1.29-1.63H79.58v1.32a.66.66,0,1,1-1.32,0Z" style="fill:#0076c0"/><path d="M85,24.31a.66.66,0,1,1,1.32,0v4.21h2.45a.6.6,0,1,1,0,1.2H85.65a.66.66,0,0,1-.66-.66Z" style="fill:#0076c0"/><path d="M93.17,28.52A1.71,1.71,0,0,0,95,26.72v0a1.73,1.73,0,0,0-1.82-1.82h-1v3.63Zm-2.35-4.16a.66.66,0,0,1,.66-.66h1.69a3,3,0,0,1,3.2,3v0a3,3,0,0,1-3.2,3H91.49a.66.66,0,0,1-.66-.66Z" style="fill:#0076c0"/><path d="M105.91,26.72v0a1.83,1.83,0,0,0-1.82-1.89,1.8,1.8,0,0,0-1.81,1.88v0a1.83,1.83,0,0,0,1.82,1.89,1.8,1.8,0,0,0,1.81-1.87m-5,0v0a3.2,3.2,0,0,1,6.4,0v0a3.2,3.2,0,0,1-6.4,0" style="fill:#0076c0"/><path d="M109,24.36a.66.66,0,0,1,.66-.66H113a.6.6,0,0,1,0,1.2h-2.71v1.28h2.32a.6.6,0,1,1,0,1.21h-2.32v1.72a.66.66,0,0,1-1.33,0Z" style="fill:#0076c0"/><path d="M120.62,26.73a.93.93,0,0,0,1-.91v0c0-.59-.41-.91-1.08-.91h-1v1.84Zm-2.37-2.37a.66.66,0,0,1,.66-.66h1.8a2.06,2.06,0,0,1,2.3,2.08v0a2.15,2.15,0,0,1-2.43,2.12h-1v1.2a.66.66,0,0,1-1.32,0Z" style="fill:#0076c0"/><path d="M129.25,26.72v0a1.83,1.83,0,0,0-1.82-1.89,1.8,1.8,0,0,0-1.81,1.88v0a1.83,1.83,0,0,0,1.82,1.89,1.8,1.8,0,0,0,1.81-1.87m-5,0v0a3.2,3.2,0,0,1,6.4,0v0a3.2,3.2,0,0,1-6.4,0" style="fill:#0076c0"/><path d="M132.17,29.08a.62.62,0,0,1-.25-.5.61.61,0,0,1,.62-.61.63.63,0,0,1,.38.12,2.55,2.55,0,0,0,1.54.54c.54,0,.87-.21.87-.57v0c0-.34-.21-.51-1.21-.77-1.21-.31-2-.64-2-1.84v0a1.88,1.88,0,0,1,2.11-1.81,3.49,3.49,0,0,1,1.91.53.6.6,0,0,1,.29.52.61.61,0,0,1-.62.61.65.65,0,0,1-.33-.09,2.5,2.5,0,0,0-1.26-.4c-.51,0-.77.23-.77.52v0c0,.4.26.52,1.3.79,1.22.32,1.91.76,1.91,1.81v0c0,1.2-.91,1.87-2.21,1.87a3.88,3.88,0,0,1-2.26-.72" style="fill:#0076c0"/><path d="M138.37,24.31a.66.66,0,0,1,1.33,0v4.8a.66.66,0,0,1-1.33,0Z" style="fill:#0076c0"/><path d="M143.12,24.92h-1.27a.61.61,0,0,1,0-1.22h3.87a.61.61,0,0,1,0,1.22h-1.27v4.19a.66.66,0,0,1-1.33,0Z" style="fill:#0076c0"/><path d="M147.86,24.31a.66.66,0,0,1,1.33,0v4.8a.66.66,0,0,1-1.33,0Z" style="fill:#0076c0"/><path d="M152.82,29.29l-2-4.67a.81.81,0,0,1-.08-.32.65.65,0,0,1,.66-.66.69.69,0,0,1,.67.47l1.51,3.9,1.52-3.94a.69.69,0,0,1,.64-.42.64.64,0,0,1,.65.64.78.78,0,0,1-.07.29l-2,4.71a.78.78,0,0,1-.75.52h-.09a.78.78,0,0,1-.75-.52" style="fill:#0076c0"/><path d="M158,29.06v-4.7a.66.66,0,0,1,.66-.66H162a.59.59,0,0,1,.59.59.59.59,0,0,1-.59.58h-2.68V26.1h2.3a.59.59,0,0,1,.59.6.59.59,0,0,1-.59.58h-2.3v1.27H162a.59.59,0,0,1,.59.59.59.59,0,0,1-.59.58h-3.38a.66.66,0,0,1-.66-.66" style="fill:#0076c0"/><path d="M170,26.62c.64,0,1-.34,1-.85v0c0-.57-.4-.86-1-.86h-1.32v1.73Zm-2.67-2.26a.66.66,0,0,1,.66-.66h2.09a2.41,2.41,0,0,1,1.75.61,1.89,1.89,0,0,1,.51,1.38v0a1.84,1.84,0,0,1-1.2,1.83l.92,1.12a.77.77,0,0,1,.21.51.62.62,0,0,1-.63.61.79.79,0,0,1-.65-.34l-1.29-1.63h-1.06v1.32a.66.66,0,0,1-1.33,0Z" style="fill:#0076c0"/><path d="M174.08,29.06v-4.7a.66.66,0,0,1,.66-.66h3.34a.6.6,0,0,1,.59.59.59.59,0,0,1-.59.58h-2.68V26.1h2.3a.6.6,0,0,1,.59.6.59.59,0,0,1-.59.58h-2.3v1.27h2.73a.59.59,0,0,1,.59.59.59.59,0,0,1-.59.58h-3.38a.66.66,0,0,1-.66-.66" style="fill:#0076c0"/><path d="M181.76,24.92h-1.27a.61.61,0,0,1,0-1.22h3.87a.61.61,0,0,1,0,1.22h-1.27v4.19a.66.66,0,0,1-1.33,0Z" style="fill:#0076c0"/><path d="M186.35,27.14V24.31a.66.66,0,1,1,1.32,0v2.8c0,1,.49,1.49,1.3,1.49s1.3-.49,1.3-1.44V24.31a.66.66,0,1,1,1.32,0v2.79A2.42,2.42,0,0,1,189,29.81a2.39,2.39,0,0,1-2.61-2.68" style="fill:#0076c0"/><path d="M196.13,26.62c.65,0,1-.34,1-.85v0c0-.57-.4-.86-1-.86h-1.32v1.73Zm-2.67-2.26a.66.66,0,0,1,.66-.66h2.09a2.4,2.4,0,0,1,1.75.61,1.89,1.89,0,0,1,.52,1.38v0a1.84,1.84,0,0,1-1.2,1.83l.92,1.12a.77.77,0,0,1,.21.51.62.62,0,0,1-.63.61.79.79,0,0,1-.65-.34l-1.29-1.63h-1.06v1.32a.66.66,0,1,1-1.32,0Z" style="fill:#0076c0"/><path d="M200.2,24.32a.66.66,0,0,1,.66-.66H201a.82.82,0,0,1,.69.39l2.56,3.36V24.3a.65.65,0,1,1,1.31,0v4.79a.66.66,0,0,1-.66.66h0a.82.82,0,0,1-.69-.39l-2.65-3.47v3.23a.65.65,0,0,1-1.31,0Z" style="fill:#0076c0"/><path d="M207.39,29.08a.62.62,0,0,1-.25-.5.61.61,0,0,1,.62-.61.63.63,0,0,1,.38.12,2.55,2.55,0,0,0,1.54.54c.54,0,.87-.21.87-.57v0c0-.34-.21-.51-1.21-.77-1.21-.31-2-.64-2-1.84v0a1.88,1.88,0,0,1,2.11-1.81,3.49,3.49,0,0,1,1.91.53.6.6,0,0,1,.29.52.61.61,0,0,1-.62.61.65.65,0,0,1-.34-.09,2.5,2.5,0,0,0-1.26-.4c-.51,0-.77.23-.77.52v0c0,.4.26.52,1.3.79,1.22.32,1.91.76,1.91,1.81v0c0,1.2-.91,1.87-2.21,1.87a3.88,3.88,0,0,1-2.26-.72" style="fill:#0076c0"/></svg>