<svg id="Layer_1" data-name="Layer 1" xmlns="http://www.w3.org/2000/svg" viewBox="0 0 776.33 722"><title>on_illustration_Artboard 5</title><path d="M58.14,331.59,56.74,233c0-1.33-.84-2.65-1.68-2.65H48.62c-.84,0-1.68,1.33-1.68,2.65l-1.4,97.31c0,2.21-1.12,4-2.52,4H40.49c-1.4,0-2.52-1.77-2.52-4-.28-18.58-1.4-97.31-1.4-97.31,0-1.33-.84-2.65-1.68-2.65H28.44c-.84,0-1.68,1.33-1.68,2.65l-1.4,97.31c0,2.21-1.12,4-2.52,4H20.32c-1.4,0-2.52-1.77-2.52-4-.28-18.58-1.4-97.31-1.4-97.31,0-1.33-.84-2.65-1.68-2.65H8.27c-.84,0-1.68,1.33-1.68,2.65l-1.4,98.64V344c0,12.39,2.8,24.33,7.57,31.41L23.12,391.3,15,636.35c-.28,7.52,3.64,13.71,8.13,13.71H39.65c4.76,0,8.41-6.19,8.41-13.71l-8.13-245L50,375.82c4.76-7.08,7.57-19,7.57-31.41Z" style="fill:#ddd"/><path d="M768.49,403.25l.28-170.74c0-11.5-31.66,5.75-35,57.5-3.36,51.31-5.6,80.06-6.72,97.75s6.72,34.06,18.49,36.71l4.76.88-7,210.55c-.28,7.52,3.64,13.71,8.13,13.71h16.53c4.76,0,8.41-6.19,8.41-13.71Z" style="fill:#ddd"/><path d="M702.94,403.54c0,173.09-140.31,313.4-313.4,313.4S76.13,576.63,76.13,403.54s140.32-313.4,313.4-313.4,313.4,140.32,313.4,313.4" style="fill:#fff"/><path d="M702.94,403.54h-1a312.39,312.39,0,1,1-91.5-220.89,311.4,311.4,0,0,1,91.5,220.89h2c0-173.65-140.77-314.42-314.42-314.42S75.12,229.89,75.12,403.54,215.89,718,389.54,718,703.95,577.19,704,403.54h-1" style="fill:#3f3f3f"/><path d="M383.35,415,237.92,610.85a242.57,242.57,0,0,0,67.64,35.35L383.35,415" style="fill:#d7eadb"/><path d="M306.18,650.64h0l1.89.64-1.89-.64h0m80.62-247-154.48,208,1.61,1.19A247.28,247.28,0,0,0,304.29,650l1.28-3.79a242.57,242.57,0,0,1-67.64-35.35L383.35,415l3.7-11-.25-.35" style="fill:#fff"/><path d="M387.14,416.27,309.35,647.48a242.56,242.56,0,0,0,75.25,12.72l2.53-243.93" style="fill:#d7eadb"/><path d="M304.28,650h0l1.9.64-1.9-.64m82.86-233.73-79.07,235a246.89,246.89,0,0,0,76.49,12.92l0-4a242.56,242.56,0,0,1-75.25-12.72l77.79-231.21h0" style="fill:#fff"/><polyline points="383.35 414.99 383.35 414.99 305.56 646.21 305.56 646.21 383.35 414.99" style="fill:#e3f0e6"/><path d="M387.06,404l-3.7,11h0L305.56,646.2h0l-1.28,3.8,1.9.64h0l1.9.63,79.07-235,.1-9.87h0l0-2.1-.21-.3" style="fill:#fff"/><path d="M386.17,664.23h.4l2,0-2,0h-.4" style="fill:#fff"/><path d="M391.21,409.84l-2.4,231-.2,19.41h1.17c54.72,0,101.61-14.83,146.51-46.3L391.21,409.84" style="fill:#bddcc3"/><polyline points="387.34 397.49 387.33 397.95 387.34 397.49 387.34 397.49" style="fill:#fff"/><path d="M541.87,614.89l-1.63,1.16h0l1.63-1.16M391.21,409.84l-2.4,231,2.4-231L536.29,613.95c-44.91,31.46-91.79,46.28-146.51,46.3h-1.17l0,4h1.29c55.43,0,103.28-15.14,148.75-47L391.21,409.84" style="fill:#fff"/><path d="M384.57,664.21h0l1.6,0-1.6,0" style="fill:#fff"/><polyline points="387.14 416.27 387.14 416.27 384.61 660.2 384.61 660.2 387.14 416.27" style="fill:#ebf5ed"/><path d="M389.92,408l-2.77,8.25h0L384.61,660.2h0l0,4,1.6,0h2.4l0-4h0l.2-19.41,2.4-231L389.92,408" style="fill:#fff"/><polyline points="388.49 406 387.25 406.39 387.14 416.27 389.92 408.02 388.49 406" style="fill:#fff"/><path d="M634.7,328.82,392.5,404.75,519.88,584l19.67,27.68C608.43,561.91,646.39,486.34,646.39,406a263.87,263.87,0,0,0-11.69-77.19" style="fill:#95c79f"/><polyline points="519.88 583.95 539.55 611.63 539.55 611.63 519.88 583.95" style="fill:#95c79f"/><path d="M540.24,616.06l-1.63,1.15h0l1.63-1.16M392.5,404.75h0L519.88,584,392.5,404.75m246-77.12-3.82,1.2A263.87,263.87,0,0,1,646.39,406c0,80.33-38,155.9-106.84,205.62l2.32,3.27C611.77,564.46,650.4,487.61,650.39,406a267.88,267.88,0,0,0-11.87-78.38m-1.19-3.82h0l.6,1.91-.6-1.91" style="fill:#fff"/><path d="M392.5,404.75l-1.24.39,0,4.7,147.4,207.38,1.63-1.16h0l1.63-1.16-2.32-3.26h0L519.88,584,392.5,404.75" style="fill:#fff"/><polyline points="391.26 405.13 390.85 405.26 389.92 408.02 391.21 409.83 391.26 405.13" style="fill:#fff"/><polyline points="390.85 405.26 389.87 405.57 388.49 406 389.92 408.02 390.85 405.26" style="fill:#fff"/><polyline points="387.29 402.19 386.05 402.58 386.8 403.64 387.28 402.99 387.29 402.19" style="fill:#fff"/><polyline points="387.28 402.99 386.8 403.64 387.06 403.99 387.28 403.33 387.28 402.99" style="fill:#fff"/><polyline points="387.28 403.33 387.06 403.99 387.27 404.29 387.28 403.33" style="fill:#fff"/><path d="M428.41,281.95a1,1,0,0,0-.81.39c-.6.73-.19,1.62,1.34,2.86a4.11,4.11,0,0,0,2.25,1.17,1,1,0,0,0,.82-.4c.59-.72.16-1.62-1.36-2.86a4.09,4.09,0,0,0-2.25-1.16m13.14-19.64a1.69,1.69,0,0,0-1.28.74l-.85,1,2.65,2.17.85-1a1.59,1.59,0,0,0-.3-2.46,1.71,1.71,0,0,0-1.07-.45M448,258a1.12,1.12,0,0,0-.89.45c-.52.63-.27,1.45.71,2.37l1.73-2.11A2.58,2.58,0,0,0,448,258m7-8.51a1.12,1.12,0,0,0-.9.45c-.52.63-.27,1.45.71,2.37l1.72-2.1a2.58,2.58,0,0,0-1.53-.71m7.14-8.71a1.12,1.12,0,0,0-.9.45c-.52.63-.27,1.45.7,2.37l1.73-2.1a2.58,2.58,0,0,0-1.53-.71m-39.19,56.32a6.66,6.66,0,0,1-4-1.8c-2.69-2.2-3.34-4.52-1.79-6.41a3,3,0,0,1,2.38-1.24,5,5,0,0,1,2.56.87l-.84,1.4a3.86,3.86,0,0,0-1.54-.7l-.28,0a1.42,1.42,0,0,0-1.15.57c-.86,1-.24,2.41,1.89,4.15a5.41,5.41,0,0,0,3.06,1.52,1.56,1.56,0,0,0,1.26-.61c.63-.76.45-1.54-.66-2.8L425,291c1.59,1.73,1.77,3.34.53,4.87a3.25,3.25,0,0,1-2.59,1.3m1.72-10c-.72-1.16-.8-2-.26-2.69a1.14,1.14,0,0,1,.21-.21l1.29,1.06a1.35,1.35,0,0,0-.22.22c-.71.86-.47,1.84.7,2.79l3.05,2.5-1,1.24-6-4.91.9-1.09,1.34,1.1m6.2.75a4.84,4.84,0,0,1-2.94-1.31c-2.09-1.71-2.51-3.39-1.21-5a2.66,2.66,0,0,1,2.1-1.08,4.9,4.9,0,0,1,3,1.33c2.07,1.69,2.47,3.39,1.2,4.94a2.68,2.68,0,0,1-2.12,1.1m1.61-7.47a2.07,2.07,0,0,1-1.31-.49,2.41,2.41,0,0,1-.2-3.5,2.34,2.34,0,0,1,1.86-1,3.28,3.28,0,0,1,1.28.29l-.53,1.19a2.29,2.29,0,0,0-.82-.18,1.13,1.13,0,0,0-.92.47.93.93,0,0,0,.11,1.37.9.9,0,0,0,.57.21.83.83,0,0,0,.24,0,4,4,0,0,0,1.11-.61,4.55,4.55,0,0,1,1.54-.73,1.73,1.73,0,0,1,.42-.05,2.08,2.08,0,0,1,1.31.49,2.56,2.56,0,0,1,.08,3.75,3,3,0,0,1-1.89,1.16l-.28,0a2.68,2.68,0,0,1-1.35-.44l.65-1.22a2,2,0,0,0,.91.26,1.38,1.38,0,0,0,1.08-.59,1.06,1.06,0,0,0,0-1.59.82.82,0,0,0-.54-.22,2.5,2.5,0,0,0-1.23.54,4.65,4.65,0,0,1-1.77.85l-.3,0m3.91-4.77a2.07,2.07,0,0,1-1.31-.49,2.42,2.42,0,0,1-.2-3.5,2.35,2.35,0,0,1,1.86-1,3.28,3.28,0,0,1,1.28.29l-.53,1.19a2.3,2.3,0,0,0-.81-.18,1.13,1.13,0,0,0-.92.47.93.93,0,0,0,.11,1.37.9.9,0,0,0,.57.21.83.83,0,0,0,.24,0,3.93,3.93,0,0,0,1.11-.61,4.55,4.55,0,0,1,1.54-.74,1.74,1.74,0,0,1,.42-.05,2.08,2.08,0,0,1,1.31.5,2.56,2.56,0,0,1,.08,3.75A3,3,0,0,1,439.2,278l-.28,0a2.69,2.69,0,0,1-1.35-.44l.65-1.22a2,2,0,0,0,.91.26,1.37,1.37,0,0,0,1.08-.59,1.06,1.06,0,0,0,0-1.59.83.83,0,0,0-.54-.22,2.5,2.5,0,0,0-1.23.54,4.66,4.66,0,0,1-1.77.85l-.3,0m9.07-4.39-8.12-6.65,2-2.43a3.67,3.67,0,0,1,1.95-1.43,2.41,2.41,0,0,1,.5-.05,3.17,3.17,0,0,1,2,.79,2.83,2.83,0,0,1,1.12,3l4.93,1.48-1.19,1.45-4.43-1.51-1,1.27,3.4,2.78-1.1,1.34m4.91-7.24a4.62,4.62,0,0,1-2.83-1.23c-2-1.64-2.5-3.55-1.27-5a2.66,2.66,0,0,1,2-1,2.4,2.4,0,0,1,.5.05,5.84,5.84,0,0,1,2.65,1.44l-2.78,3.4a3.78,3.78,0,0,0,1.65,1l.29,0a1.29,1.29,0,0,0,1-.5c.47-.57.4-1.14-.25-2l1.08-1a3.14,3.14,0,0,1,.76,1.66,2.71,2.71,0,0,1-.68,2.13,2.76,2.76,0,0,1-2.18,1.11m-.77-8-1-.82.65-.79c-1-.85-1.3-1.21-1.46-1.72a2,2,0,0,1,.54-2,4.8,4.8,0,0,1,.65-.67l1,.82a4.21,4.21,0,0,0-.42.43.87.87,0,0,0-.17,1.12c.12.18.12.18.84.77l.89-1.08,1,.82-.89,1.08,5,4.1-1,1.21-5-4.1-.65.79m7.74-.49a4.62,4.62,0,0,1-2.83-1.23c-2-1.64-2.5-3.55-1.28-5a2.66,2.66,0,0,1,2-1,2.41,2.41,0,0,1,.5.05,5.83,5.83,0,0,1,2.65,1.44l-2.78,3.4a3.79,3.79,0,0,0,1.65,1l.3,0a1.29,1.29,0,0,0,1-.5c.47-.57.4-1.14-.25-2l1.08-1a3.12,3.12,0,0,1,.76,1.66,2.72,2.72,0,0,1-.68,2.13,2.76,2.76,0,0,1-2.18,1.11m1-9.44c-.72-1.16-.8-2-.26-2.69a1.16,1.16,0,0,1,.21-.21l1.29,1.06a1.33,1.33,0,0,0-.22.22c-.71.86-.47,1.83.7,2.79l3.06,2.5-1,1.24L456,246l.9-1.1,1.34,1.1m6.17.73a4.63,4.63,0,0,1-2.83-1.23c-2-1.64-2.5-3.55-1.27-5a2.66,2.66,0,0,1,2-1,2.4,2.4,0,0,1,.5.05,5.83,5.83,0,0,1,2.65,1.44l-2.78,3.4a3.78,3.78,0,0,0,1.65,1l.3,0a1.29,1.29,0,0,0,1-.5c.47-.57.4-1.14-.25-2l1.08-1a3.13,3.13,0,0,1,.76,1.66,2.71,2.71,0,0,1-.68,2.12,2.76,2.76,0,0,1-2.18,1.11m.59-9.83a2.07,2.07,0,0,1,1.62-3.14,1.84,1.84,0,0,1,.44.05,4.48,4.48,0,0,1,1.62,1l3.87,3.17-1,1.24-3.8-3.11a3.31,3.31,0,0,0-1.11-.73l-.18,0a.85.85,0,0,0-.65.36c-.57.69-.3,1.38,1,2.44l3.36,2.75-1,1.24-6-4.91.94-1.14.93.76m8.47-1.12a4.93,4.93,0,0,1-3-1.34c-2-1.68-2.47-3.41-1.23-4.93a2.45,2.45,0,0,1,1.81-1h.14a3.42,3.42,0,0,1,1.94.69l-.85,1.29a2.78,2.78,0,0,0-1.33-.55.89.89,0,0,0-.71.39c-.63.77-.22,1.59,1.41,2.92a3.58,3.58,0,0,0,2,1,1.07,1.07,0,0,0,.86-.43c.46-.56.32-1.08-.56-2l1.09-1.1a3.5,3.5,0,0,1,1.1,1.83,2.67,2.67,0,0,1-.68,2.17,2.55,2.55,0,0,1-2,1m4.32-4.15-6-4.91,1-1.24,6,4.91-1,1.24M471,226.11,469.67,225l1.07-1.3,1.31,1.08-1.07,1.3m4.91-2.47a2.07,2.07,0,0,1,1.62-3.14,1.83,1.83,0,0,1,.44.05,4.47,4.47,0,0,1,1.62,1l3.87,3.17-1,1.24-3.8-3.11a3.35,3.35,0,0,0-1.11-.73l-.18,0a.84.84,0,0,0-.64.37c-.57.69-.3,1.38,1,2.44L481,227.7l-1,1.24L474,224l.94-1.14.93.76m5.91-3.05a2.17,2.17,0,0,1-1.42-.59,2.51,2.51,0,0,1-.25-3.72,3,3,0,0,1,1.19-.91c-.7-.81-.76-1.33-.2-2,.1-.12.18-.2.34-.37l.91.75a1.85,1.85,0,0,0-.26.27c-.31.38-.28.71.12,1.17a2.54,2.54,0,0,1,1.89,4.27,3.39,3.39,0,0,1-.73.66c-.12.45-.09.68.15.88a.54.54,0,0,0,.35.13.63.63,0,0,0,.36-.13,8.42,8.42,0,0,0,1.07-1.08c.93-1,1.25-1.28,1.76-1.45a1.51,1.51,0,0,1,.5-.09,2,2,0,0,1,1.26.51c1.21,1,1.08,2.49-.37,4.25a3.48,3.48,0,0,1-2.44,1.57,1.63,1.63,0,0,1-1-.4,1.44,1.44,0,0,1-.44-1.82,2.14,2.14,0,0,1-.73.15,1.21,1.21,0,0,1-.8-.3,1.69,1.69,0,0,1-.48-1.88,2.78,2.78,0,0,1-.75.12M492.46,210l-3.37-4.35.82-1,4.78,6.4-.86,1-4.91-2.5,3.46,4.27-.86,1-7.24-3.4,1-1.22,4.85,2.49-3.42-4.24.9-1.09,4.85,2.55m4-1.14-6-4.91,1-1.24,6,4.91-1,1.24m-6.83-5.55-1.31-1.08,1.07-1.3,1.31,1.08-1.07,1.3m3.51-.61-1-.82.67-.81-1.52-1.35.81-1.21,1.68,1.37.94-1.14,1,.82-.94,1.14,2.65,2.17c.86.71,1.07.84,1.34.84h0a1.1,1.1,0,0,0,.77-.49,5.87,5.87,0,0,0,.37-.53l1,.81a5.67,5.67,0,0,1-.65,1,2,2,0,0,1-1.53.91,1.44,1.44,0,0,1-.31,0c-.5-.1-.86-.34-1.92-1.21l-2.74-2.24-.64.78m4.06-5.38a1.82,1.82,0,0,1,.23-2.19,1.85,1.85,0,0,1,1.43-.75,1.63,1.63,0,0,1,.44.06,4.74,4.74,0,0,1,1.73,1.11l3.79,3.1-1,1.24-3.79-3.1a3.11,3.11,0,0,0-1.06-.69.9.9,0,0,0-.26,0,.82.82,0,0,0-.64.34c-.54.66-.24,1.41.93,2.37l3.43,2.81-1,1.24-8.12-6.65,1-1.24,2.91,2.38m-103.28-50.2-2.6,250.41,3.86-5.2-2.78,8.26,123.31-38.66L633.51,325c-17.12-53.26-49.06-97.22-90.68-128.13s-92.95-48.76-148.88-49.75" style="fill:#95c79f"/><polyline points="395.2 392.32 391.34 397.53 391.3 400.93 392.42 400.58 395.2 392.32" style="fill:#95c79f"/><path d="M487.52,220a.64.64,0,0,0-.25,0c-.27.1-.5.31-1,.91s-.56.64-.88,1a1.07,1.07,0,0,0,.35,1.14.94.94,0,0,0,.6.24c.42,0,.87-.32,1.42-1,.78-.95.89-1.65.34-2.1a.88.88,0,0,0-.55-.22m-5.8-3.44a.94.94,0,0,0-.75.37c-.46.56-.29,1.2.49,1.84a1.79,1.79,0,0,0,1.09.47,1,1,0,0,0,.77-.38c.44-.54.27-1.2-.47-1.81a1.85,1.85,0,0,0-1.12-.5" style="fill:#95c79f"/><polyline points="633.51 325 515.74 361.92 633.51 325.01 633.51 325" style="fill:#95c79f"/><path d="M387.33,398l0,4.24h0l0-4.24m128.4-36L392.42,400.58h0l123.31-38.66M390,143.07l-2.64,254.41,1.29,1.82,2.77-8.25-.07,6.47h0l2.6-250.41c55.94,1,107.26,18.84,148.88,49.75S616.38,271.75,633.51,325l3.82-1.2c-17.37-54-49.81-98.73-92.12-130.15-42.8-31.78-95.7-50-153.23-50.57l-2,0" style="fill:#fff"/><polyline points="391.34 397.53 391.34 397.53 391.3 400.93 392.42 400.58 392.42 400.58 391.3 400.93 391.34 397.53" style="fill:#fff"/><polyline points="391.41 391.06 388.63 399.3 389.31 400.26 391.34 397.53 391.41 391.06" style="fill:#fff"/><polyline points="391.34 397.53 389.31 400.26 390.06 401.32 391.3 400.93 391.34 397.53" style="fill:#fff"/><polyline points="387.34 397.49 387.33 397.95 387.29 402.19 387.71 402.06 388.63 399.3 387.34 397.49" style="fill:#fff"/><polyline points="388.63 399.3 387.71 402.06 388.06 401.95 389.31 400.26 388.63 399.3" style="fill:#fff"/><polyline points="389.31 400.26 388.06 401.95 390.06 401.32 389.31 400.26" style="fill:#fff"/><path d="M637.93,325.72h0l.59,1.91h0l-.6-1.91h0" style="fill:#fff"/><polyline points="387.27 404.29 387.25 406.39 387.25 406.39 387.27 404.29 387.27 404.29" style="fill:#fff"/><path d="M389.28,403.66l-1.63,1.16-.38-.53,0,2.1,1.24-.39-.84-1.18,1.63-1.16m0,0h0" style="fill:#fff"/><polyline points="634.7 328.82 392.5 404.75 634.7 328.82 634.7 328.82" style="fill:#eaf4ec"/><path d="M387.29,402.19h0v.8h0v-.8m250-78.38-3.82,1.2h0L515.74,361.92,392.42,400.58l-.93,2.75,1,1.41h0l242.2-75.92h0l3.82-1.2-.6-1.91h0l-.61-1.91" style="fill:#fff"/><path d="M387.28,403h0v.33h0V403m5.14-2.41-1.12.35,0,2.1.21.3.93-2.75" style="fill:#fff"/><polyline points="391.3 400.93 390.06 401.32 391.28 403.03 391.3 400.93" style="fill:#fff"/><polyline points="387.28 403.32 387.28 403.33 387.27 404.29 387.27 404.29 387.28 403.64 387.28 403.32" style="fill:#fff"/><polyline points="387.71 402.06 387.29 402.19 387.28 402.99 387.48 402.72 387.71 402.06" style="fill:#fff"/><polyline points="387.48 402.72 387.28 402.99 387.28 403.32 387.38 403.02 387.48 402.72" style="fill:#fff"/><polyline points="391.5 403.33 391.27 404 391.26 405.13 392.5 404.75 391.5 403.33" style="fill:#fff"/><polyline points="391.28 403.03 391.27 404 391.5 403.33 391.28 403.03" style="fill:#fff"/><path d="M391.27,404l-.42,1.26.41-.13V404m-3.21-2.05-.35.11-.22.67.19-.25.39-.52" style="fill:#fff"/><path d="M389.28,403.66l-1.63,1.16,1.63-1.16m0,0h0m.79-2.34-2,.63-.39.52-.19.25-.1.3-.1.3v1l.38.53,1.63-1.16-2,0,2,0-1.9-.64,1.9.64-1.63,1.16.84,1.18,1.39-.43,1-.3.42-1.26v-1l-1.22-1.71" style="fill:#fff"/><path d="M389.28,403.66,235.12,611.27C120.46,526.13,96.53,364.16,181.67,249.5,232.75,180.71,306.28,144.2,392,145.09Z" style="fill:#7bb987"/><path d="M235.53,614.07l-1.61-1.19a260.58,260.58,0,0,1-53.86-364.56c25.61-34.49,56.86-61.05,92.89-78.94S349,142.66,392,143.09l2,0-2.71,261.22Zm153.36-467c-41.17,0-79.56,8.7-114.16,25.88-35.45,17.6-66.22,43.76-91.46,77.74a256.58,256.58,0,0,0,51.44,357.77L387.28,403l2.66-255.91Z" style="fill:#fff"/><path d="M230.55,351.42l-5-1.86,1.76-15.81c-.34.51-.43.66-.76,1.14l-8.06,12.05-5-1.86,2.52-24,5.22,1.94-1.94,14.48a4.45,4.45,0,0,0-.07.79c0,.07,0,.4-.08.72l9-13.41,4.72,1.75-1.79,16.1c.22-.29.34-.51.41-.6s.27-.42.43-.66L240,330l4.2,1.56Z" style="fill:#f7f7f7"/><path d="M247.09,341.66a5,5,0,0,1,5.37-.88,5.35,5.35,0,0,1,3.19,3c.48,1.22.35,2.37-.49,4.63l-4,10.7-4.76-1.77,3.39-9.12c.74-2,.84-2.56.61-3.25a1.78,1.78,0,0,0-1.13-1.09,2.78,2.78,0,0,0-2.62.41,4.47,4.47,0,0,0-1.39,2.25l-3.39,9.12-4.63-1.72L245.4,332l4.63,1.72Z" style="fill:#f7f7f7"/><path d="M263.66,363.72a9.07,9.07,0,0,1,.55-2.19,3.26,3.26,0,0,1,.19-.42c-2.37,1.55-3.91,1.8-6.24.93-3.08-1.15-4.43-3.66-3.4-6.42a5.38,5.38,0,0,1,5.42-3.55c1.45,0,3.06.31,6.81,1.37l.34-.92a2.24,2.24,0,0,0-1.52-3.25,2.68,2.68,0,0,0-3.63,1.34l-4.24-2.06a5.22,5.22,0,0,1,3.11-2.73,10,10,0,0,1,6.38.5c2.63,1,4.48,2.52,5.05,4.19.36,1.14.24,2.07-.65,4.46l-2.72,7.32a8.38,8.38,0,0,0-.83,3.13Zm2.45-7.9a11.88,11.88,0,0,0-3.09-.52c-1.58-.06-2.61.49-3,1.67a2.08,2.08,0,0,0,1.27,2.82c1.71.63,3.57-.47,4.33-2.5Z" style="fill:#f7f7f7"/><path d="M278.42,362.78c-.68,1.84-.44,2.3,1.43,3a14.55,14.55,0,0,0,1.53.5l-1.32,3.54a17.63,17.63,0,0,1-3.19-.77c-4-1.47-4.92-3.43-3.48-7.31l2.8-7.55-2.56-1,1.38-3.71,2.82,1,2.17-4.64,4.22,1.19-1.9,5.12,3.48,1.29-1.38,3.71L281,356Z" style="fill:#f7f7f7"/><path d="M294.41,362.26a3.08,3.08,0,0,0-2.33-3.37c-1.48-.55-2.6-.33-2.93.55s.13,1.47,2.16,2.52c2.64,1.43,3.69,2.12,4.46,3.07a4.76,4.76,0,0,1,.57,4.8c-1.28,3.45-4.87,4.58-9.37,2.91-2.62-1-4.11-2.2-5-4.07a5.43,5.43,0,0,1-.51-3.44l4.24.94c-.14,1.59.74,2.74,2.74,3.48,1.71.63,3.1.4,3.45-.55.28-.75-.11-1.31-1.32-2a26.56,26.56,0,0,1-5-3.25,4.89,4.89,0,0,1-1-5.14c1.21-3.25,4.67-4.32,8.83-2.77,3.41,1.27,4.8,3.17,4.86,6.62Z" style="fill:#f7f7f7"/><path d="M314,382.4l-5.51-2,.32-5-7.05-2.62-3,4-4.5-1.67,15.12-19.29,5.94,2.21Zm-4.87-11.52.52-8.54-5.18,6.81Z" style="fill:#f7f7f7"/><path d="M321.16,366.66l4.4,1.63-.88,2.36a4.55,4.55,0,0,1,5.27-1.11c3.74,1.39,4.81,5.33,2.88,10.55s-5.42,7.66-9.26,6.23a4.34,4.34,0,0,1-3.12-3.55L317.75,390l-4.63-1.72Zm1.25,10.81c-.66,1.77-.79,2.32-.61,3.06a2.8,2.8,0,0,0,1.63,1.95,2.34,2.34,0,0,0,2.32-.52,8.75,8.75,0,0,0,2.14-3.76c1.25-3.38,1-5.26-.69-5.89s-3,.44-3.9,2.77Z" style="fill:#f7f7f7"/><path d="M337.9,372.88l4.4,1.63-.88,2.36a4.55,4.55,0,0,1,5.26-1.11c3.74,1.39,4.81,5.33,2.88,10.55s-5.42,7.66-9.26,6.23a4.34,4.34,0,0,1-3.12-3.55l-2.69,7.25-4.63-1.72Zm1.25,10.81c-.66,1.77-.79,2.32-.61,3.06a2.8,2.8,0,0,0,1.63,1.95,2.34,2.34,0,0,0,2.32-.52,8.76,8.76,0,0,0,2.14-3.76c1.25-3.38,1-5.26-.69-5.89s-3,.44-3.9,2.77Z" style="fill:#f7f7f7"/><path d="M285.9,23l.07-.92.87-.13c.8-.11.8-.51.58-1.72l-.31-1.88h-4.2l-.38,1c-.63,1.47-.51,2.37.25,2.52l.8.18.07.92h-5.29l.07-.92.63-.2c.92-.25,1.16-.42,2.41-3.08l3.89-8.58V9.37l3-.67L290.73,21a1,1,0,0,0,.85.92l.85.2.07.92ZM286,11.52h-.18l-2.48,5.74h3.57Z" style="fill:#2d2f3a"/><path d="M301.51,9.78h2.41L303.25,13h2.81l.07,1.27H303l-1.65,7.33.63.2,1.63-1.14.4.47a4.33,4.33,0,0,1-3.13,2.23c-.56,0-2.08-.56-2-.87l1.72-8-1.83-.18.07-.76,2.08-.83Z" style="fill:#2d2f3a"/><path d="M313.33,19.56l-2,2.75L310,24.81c-1.25,2.52-2.55,3.8-4.22,3.8a2,2,0,0,1-2.19-1.83,1.33,1.33,0,0,1,1.3-1.36,1.6,1.6,0,0,1,1.56,1.79l.4,0,2.81-3.73L308.19,23l-.25-8.71-.65-.13-1.43,1.61-.45-.49c.56-1.23,1.74-2.79,2.9-2.79.56,0,2.14.49,2.17.92l-.16,8.47h.29l3.48-6v-.27a1.71,1.71,0,0,1-1.25-1.45,1.56,1.56,0,0,1,1.54-1.65,1.71,1.71,0,0,1,1.76,1.81C316.17,15.65,314.69,17.79,313.33,19.56Z" style="fill:#2d2f3a"/><path d="M319.49,22.17l-.94,4.67c0,.27.09.45.47.54l1.45.25.09.87h-6.12l.07-.87,1-.25a.64.64,0,0,0,.56-.54l2.79-12.49-.67-.16-1.43,1.61-.47-.49c.58-1.23,1.74-2.79,2.93-2.79.56,0,2.14.63,2.14,1a22.25,22.25,0,0,1-1,3.57h.22c1.59-3.17,2.66-4.6,4.22-4.6,1.38,0,2.46,1.27,2.46,3.24a9,9,0,0,1-2.52,6.05,4.66,4.66,0,0,1-3.08,1.52,2.46,2.46,0,0,1-2.06-1.16Zm2.68.11a1,1,0,0,0,.71-.36,9.42,9.42,0,0,0,1.92-5.45c0-1.09-.38-2-1.07-2s-1.72,1.45-3.35,4.2l-.49,1.74C320.52,21.3,321.55,22.29,322.17,22.29Z" style="fill:#2d2f3a"/><path d="M330.64,23.36c-.56,0-2.08-.63-2-.94l2.14-8.09-.67-.13-1.45,1.61-.45-.49c.56-1.23,1.74-2.79,2.9-2.79.56,0,2.32.58,2.21.94l-2.23,8.13.6.2,1.65-1.14.38.47A4.3,4.3,0,0,1,330.64,23.36ZM333.07,11a1.42,1.42,0,0,1-1.47-1.5,1.82,1.82,0,0,1,1.52-2,1.44,1.44,0,0,1,1.47,1.52A1.8,1.8,0,0,1,333.07,11Z" style="fill:#2d2f3a"/><path d="M339.51,13.8a.84.84,0,0,0-.42.27,9.18,9.18,0,0,0-1.76,5.23c0,1.45.83,2.39,2,2.39a7.57,7.57,0,0,0,2.84-1.47l.36.47c-1.07,1.41-2.39,2.66-4.2,2.66a3.45,3.45,0,0,1-3.49-3.75c0-3.28,2.68-7.06,6.05-7.06,1.56,0,2.79.94,2.79,2.23a1.53,1.53,0,0,1-1.41,1.63A1.14,1.14,0,0,1,341,15.16a1.91,1.91,0,0,1,.27-.89A3.93,3.93,0,0,0,339.51,13.8Z" style="fill:#2d2f3a"/><path d="M352.08,14.27l.6-1.72H355l-1.34,4-1.18,5,.6.2,1.65-1.14.38.47A4.34,4.34,0,0,1,352,23.36c-.56,0-2-.51-2-.92a35.2,35.2,0,0,1,1.25-3.91H351c-1.72,2.88-2.73,4.8-4.29,4.8-1.41,0-2.52-1-2.52-3a9.52,9.52,0,0,1,2.68-6.23A4.7,4.7,0,0,1,350,12.55a2,2,0,0,1,1.94,1.72Zm-2.93-.34a.94.94,0,0,0-.74.36,9.43,9.43,0,0,0-1.76,5.32c0,1.12.45,1.76,1.14,1.76.85,0,1.63-1.32,3.28-4l.51-1.77A3.57,3.57,0,0,0,349.15,13.93Z" style="fill:#2d2f3a"/><path d="M358,23.36c-.56,0-2-.63-2-.94l2.46-11.86c.09-.38,0-.65-.27-.76L357,9.19l.13-.63,4.47-1.14-3.08,14.16.63.2,1.63-1.14.4.47A4.34,4.34,0,0,1,358,23.36Z" style="fill:#2d2f3a"/><path d="M370.15,12.52c.56,0,2.08.74,2.08,1.14a24.25,24.25,0,0,1-1.18,4,13.94,13.94,0,0,0-.71,2.7,1,1,0,0,0,1,.92c.74,0,1.7-1.63,3.4-5.07l.78-3.42h2.7l-.94,3.35s-1,5.16-1.14,5.5l.6.22,1.59-1.14.4.45a4.14,4.14,0,0,1-3.08,2.19c-.56,0-2-.54-2-.94a39,39,0,0,1,1.27-4.94h-.25a20.78,20.78,0,0,1-2.77,4.87,3.08,3.08,0,0,1-2.14,1,1.89,1.89,0,0,1-2-1.88,16.27,16.27,0,0,1,1-4.13c.38-1.14.85-2.61,1-3l-.65-.13-1.43,1.61-.47-.49C367.78,14.09,369,12.52,370.15,12.52Z" style="fill:#2d2f3a"/><path d="M386.39,14.2a49.8,49.8,0,0,0-3.31,5.94l-.54,2.9-2.7,0,.83-3.35,1.09-5.38-.65-.13-1.43,1.61-.47-.49c.58-1.23,1.74-2.79,2.93-2.79.56,0,2.17.38,2.17.8a38.26,38.26,0,0,1-1.45,5.5h.31a23.32,23.32,0,0,1,2.35-4.67c.67-1.21,1.12-1.68,2.21-1.68a1.7,1.7,0,0,1,1.72,1.83A1.57,1.57,0,0,1,388,16a1.25,1.25,0,0,1-1.23-1.7Z" style="fill:#2d2f3a"/><path d="M397.22,21.77a5.23,5.23,0,0,1-3.64,1.59c-1.94,0-3.8-1.47-3.73-1.85l2.21-10.95c.09-.38,0-.65-.27-.76l-1.27-.6.13-.63,4.56-1.14-1.27,5.12-1.21,4.8H393c1.61-3.17,2.75-4.83,4.31-4.83,1.38,0,2.46,1.27,2.46,3.24A8.79,8.79,0,0,1,397.22,21.77Zm-1-7.28c-.94,0-1.72,1.45-3.37,4.2l-.56,2.08a4.09,4.09,0,0,0,2.5,1.52,1,1,0,0,0,.71-.36c1-1,1.79-3.66,1.79-5.45C397.24,15.38,396.86,14.49,396.17,14.49Z" style="fill:#2d2f3a"/><path d="M408.77,14.27l.6-1.72h2.3l-1.34,4-1.18,5,.6.2,1.65-1.14.38.47a4.34,4.34,0,0,1-3.13,2.23c-.56,0-2-.51-2-.92a35,35,0,0,1,1.25-3.91h-.22c-1.72,2.88-2.73,4.8-4.29,4.8-1.41,0-2.52-1-2.52-3a9.52,9.52,0,0,1,2.68-6.23,4.7,4.7,0,0,1,3.11-1.54,2,2,0,0,1,1.94,1.72Zm-2.93-.34a.94.94,0,0,0-.74.36,9.42,9.42,0,0,0-1.77,5.32c0,1.12.45,1.76,1.14,1.76.85,0,1.63-1.32,3.28-4l.51-1.77A3.57,3.57,0,0,0,405.84,13.93Z" style="fill:#2d2f3a"/><path d="M420.85,23.36c-.56,0-2-.51-2-.94a28.75,28.75,0,0,1,1.25-4.22,14.65,14.65,0,0,0,.74-2.81c0-.45-.51-.78-1-.78-.74,0-1.68,1.61-3.33,5.07L415.76,23l-2.7,0,.83-3.35L415,14.4l-.62-.16-1.47,1.56-.45-.49c.58-1.23,1.74-2.79,2.9-2.79.56,0,2.19.38,2.19.8a42.33,42.33,0,0,1-1.23,5h.25a20,20,0,0,1,2.7-4.87,3.08,3.08,0,0,1,2.14-1,1.83,1.83,0,0,1,2,1.79,17.46,17.46,0,0,1-1,4.22l-1,3.06.6.2,1.65-1.14.38.47A4.3,4.3,0,0,1,420.85,23.36Z" style="fill:#2d2f3a"/><path d="M438,23l.07-.89.58-.2c.33-.09.33-.38.13-.78l-2.34-4.71-1.54,1.3-.47,3.62c0,.29.07.45.45.54l1,.25,0,.89h-6.25l.09-.89,1.09-.25c.42-.09.54-.25.58-.54l1.45-10.61c0-.27,0-.45-.45-.54l-1-.25,0-.89h6.25l-.09.89-1.12.25a.69.69,0,0,0-.58.54l-.71,5.52L439,12.55c1-1,1.56-1.56,1.56-1.92s-.16-.42-.54-.56l-.58-.16,0-.87h5.83l-.09.85-.58.16a8.24,8.24,0,0,0-3,1.83l-3.08,2.68,3.42,6.28c.49.94.71,1,1.29,1.18l.4.09,0,.89Z" style="fill:#2d2f3a"/><path d="M447.68,19.49a2,2,0,0,0,2,2.19,7.56,7.56,0,0,0,2.84-1.47l.36.47c-1.07,1.41-2.39,2.66-4.2,2.66-2.26,0-3.48-1.65-3.48-3.75,0-3.35,2.68-7.06,5.9-7.06,1.79,0,2.75,1,2.75,2.23,0,1.54-1.88,2.23-6.12,4.45Zm0-1.07c2.79-1.54,3.89-2.32,3.89-3.55,0-.6-1.16-1-1.65-1a.88.88,0,0,0-.69.25,9.18,9.18,0,0,0-1.61,4.36Z" style="fill:#2d2f3a"/><path d="M462.64,23.36c-.56,0-2-.51-2-.94a28.78,28.78,0,0,1,1.25-4.22,14.6,14.6,0,0,0,.74-2.81c0-.45-.51-.78-1-.78-.74,0-1.67,1.61-3.33,5.07L457.55,23l-2.7,0,.83-3.35,1.09-5.32-.62-.16-1.47,1.56-.45-.49c.58-1.23,1.74-2.79,2.9-2.79.56,0,2.19.38,2.19.8a42.52,42.52,0,0,1-1.23,5h.25a20.06,20.06,0,0,1,2.7-4.87,3.08,3.08,0,0,1,2.14-1,1.83,1.83,0,0,1,2,1.79,17.46,17.46,0,0,1-1,4.22l-1,3.06.6.2,1.65-1.14.38.47A4.3,4.3,0,0,1,462.64,23.36Z" style="fill:#2d2f3a"/><path d="M474.12,19.56l-2,2.75-1.25,2.5c-1.25,2.52-2.55,3.8-4.22,3.8a2,2,0,0,1-2.19-1.83,1.33,1.33,0,0,1,1.3-1.36,1.6,1.6,0,0,1,1.56,1.79l.4,0,2.81-3.73L469,23l-.25-8.71-.65-.13-1.43,1.61-.45-.49c.56-1.23,1.74-2.79,2.9-2.79.56,0,2.14.49,2.17.92l-.16,8.47h.29l3.49-6v-.27a1.71,1.71,0,0,1-1.25-1.45,1.56,1.56,0,0,1,1.54-1.65A1.71,1.71,0,0,1,477,14.31C477,15.65,475.49,17.79,474.12,19.56Z" style="fill:#2d2f3a"/><path d="M485.27,14.27l.6-1.72h2.3l-1.34,4-1.18,5,.6.2,1.65-1.14.38.47a4.34,4.34,0,0,1-3.13,2.23c-.56,0-2-.51-2-.92a35.2,35.2,0,0,1,1.25-3.91h-.22c-1.72,2.88-2.73,4.8-4.29,4.8-1.41,0-2.52-1-2.52-3A9.52,9.52,0,0,1,480,14.09a4.7,4.7,0,0,1,3.11-1.54,2,2,0,0,1,1.94,1.72Zm-2.93-.34a.94.94,0,0,0-.74.36,9.43,9.43,0,0,0-1.76,5.32c0,1.12.45,1.76,1.14,1.76.85,0,1.63-1.32,3.28-4l.51-1.77A3.57,3.57,0,0,0,482.34,13.93Z" style="fill:#2d2f3a"/><path d="M497.35,23.36c-.56,0-2-.51-2-.94a28.75,28.75,0,0,1,1.25-4.22,14.65,14.65,0,0,0,.74-2.81c0-.45-.51-.78-1-.78-.74,0-1.68,1.61-3.33,5.07L492.26,23l-2.7,0,.83-3.35,1.09-5.32-.62-.16-1.47,1.56-.45-.49c.58-1.23,1.74-2.79,2.9-2.79.56,0,2.19.38,2.19.8a42.33,42.33,0,0,1-1.23,5H493a20,20,0,0,1,2.7-4.87,3.08,3.08,0,0,1,2.14-1,1.83,1.83,0,0,1,2,1.79,17.46,17.46,0,0,1-1,4.22l-1,3.06.6.2,1.65-1.14.38.47A4.3,4.3,0,0,1,497.35,23.36Z" style="fill:#2d2f3a"/><polygon points="313.59 40.08 313.59 55.95 309.77 55.95 309.77 36.49 316.85 36.49 320.27 48.13 323.89 36.49 330.98 36.49 330.98 55.95 326.39 55.95 326.39 40.08 321.49 55.95 318.37 55.95 313.59 40.08" style="fill:#2d2f3a"/><polygon points="340.63 40.19 340.63 44.19 347.92 44.19 347.92 47.84 340.63 47.84 340.63 52.09 349.91 52.09 349.91 55.95 335.99 55.95 335.99 36.49 349.91 36.49 349.91 40.19 340.63 40.19" style="fill:#2d2f3a"/><path d="M359.68,36.49c3.73,0,5.72.73,7.53,2.71a10.34,10.34,0,0,1,2.48,7,10.42,10.42,0,0,1-2.42,6.94,8.52,8.52,0,0,1-6.83,2.83h-6.68V36.49ZM358.22,52.3h1.87a4,4,0,0,0,3.5-1.58,7.78,7.78,0,0,0,1.4-4.61,7.38,7.38,0,0,0-1.37-4.46,3.9,3.9,0,0,0-3.47-1.58h-1.92Z" style="fill:#2d2f3a"/><rect x="373.79" y="36.49" width="4.55" height="19.46" style="fill:#2d2f3a"/><path d="M399,55.95h-4.9l-1.2-4h-6.27l-1.23,4h-4l6.21-19.46h5.28Zm-7.15-7.59-2.07-6.83-2.07,6.83Z" style="fill:#2d2f3a"/><path d="M416.59,36.49c3.73,0,5.72.73,7.53,2.71a10.34,10.34,0,0,1,2.48,7,10.42,10.42,0,0,1-2.42,6.94,8.52,8.52,0,0,1-6.83,2.83h-6.68V36.49ZM415.13,52.3H417a4,4,0,0,0,3.5-1.58,7.78,7.78,0,0,0,1.4-4.61,7.38,7.38,0,0,0-1.37-4.46,3.9,3.9,0,0,0-3.47-1.58h-1.93Z" style="fill:#2d2f3a"/><rect x="430.71" y="36.49" width="4.55" height="19.46" style="fill:#2d2f3a"/><polygon points="444.91 40.19 444.91 44.19 452.2 44.19 452.2 47.84 444.91 47.84 444.91 52.09 454.19 52.09 454.19 55.95 440.27 55.95 440.27 36.49 454.19 36.49 454.19 40.19 444.91 40.19" style="fill:#2d2f3a"/><polygon points="470.35 40.34 465.54 40.34 465.54 55.95 460.93 55.95 460.93 40.34 456.08 40.34 456.08 36.49 470.35 36.49 470.35 40.34" style="fill:#2d2f3a"/><path d="M419.48,287.68a3,3,0,0,0-2.38,1.24c-1.54,1.89-.9,4.2,1.79,6.41a6.66,6.66,0,0,0,4,1.8,3.25,3.25,0,0,0,2.59-1.3c1.25-1.52,1.06-3.14-.53-4.87l-1.19,1.1c1.11,1.25,1.29,2,.66,2.8a1.56,1.56,0,0,1-1.26.61,5.41,5.41,0,0,1-3.06-1.52c-2.13-1.74-2.75-3.1-1.89-4.15a1.42,1.42,0,0,1,1.15-.57l.28,0a3.86,3.86,0,0,1,1.54.7l.84-1.4a5,5,0,0,0-2.56-.87" style="fill:#688b6f"/><path d="M424.58,284.19a1.14,1.14,0,0,0-.21.21c-.55.67-.46,1.53.26,2.69l-1.34-1.1-.9,1.09,6,4.91,1-1.24-3.05-2.5c-1.17-1-1.41-1.93-.7-2.79a1.35,1.35,0,0,1,.22-.22l-1.29-1.06" style="fill:#688b6f"/><path d="M431.19,286.37a4.11,4.11,0,0,1-2.25-1.17c-1.52-1.25-1.93-2.13-1.34-2.86a1,1,0,0,1,.81-.39,4.09,4.09,0,0,1,2.25,1.16c1.52,1.25,1.95,2.14,1.36,2.86a1,1,0,0,1-.82.4m-2.41-5.9a2.66,2.66,0,0,0-2.1,1.08c-1.29,1.58-.88,3.26,1.21,5a4.84,4.84,0,0,0,2.94,1.31,2.68,2.68,0,0,0,2.12-1.1c1.28-1.56.87-3.25-1.2-4.94a4.9,4.9,0,0,0-3-1.33" style="fill:#688b6f"/><path d="M432.77,275.41a2.34,2.34,0,0,0-1.86,1,2.41,2.41,0,0,0,.2,3.5,2.07,2.07,0,0,0,1.31.49l.3,0a4.65,4.65,0,0,0,1.77-.85,2.5,2.5,0,0,1,1.23-.54.82.82,0,0,1,.54.22,1.06,1.06,0,0,1,0,1.59,1.38,1.38,0,0,1-1.08.59,2,2,0,0,1-.91-.26l-.65,1.22a2.68,2.68,0,0,0,1.35.44l.28,0a3,3,0,0,0,1.89-1.16,2.56,2.56,0,0,0-.08-3.75,2.08,2.08,0,0,0-1.31-.49,1.73,1.73,0,0,0-.42.05,4.55,4.55,0,0,0-1.54.73,4,4,0,0,1-1.11.61.83.83,0,0,1-.24,0,.9.9,0,0,1-.57-.21.93.93,0,0,1-.11-1.37,1.13,1.13,0,0,1,.92-.47,2.29,2.29,0,0,1,.82.18l.53-1.19a3.28,3.28,0,0,0-1.28-.29" style="fill:#688b6f"/><path d="M436.68,270.64a2.35,2.35,0,0,0-1.86,1,2.42,2.42,0,0,0,.2,3.5,2.07,2.07,0,0,0,1.31.49l.3,0a4.66,4.66,0,0,0,1.77-.85,2.5,2.5,0,0,1,1.23-.54.83.83,0,0,1,.54.22,1.06,1.06,0,0,1,0,1.59,1.37,1.37,0,0,1-1.08.59,2,2,0,0,1-.91-.26l-.65,1.22a2.69,2.69,0,0,0,1.35.44l.28,0a3,3,0,0,0,1.89-1.16,2.56,2.56,0,0,0-.08-3.75,2.08,2.08,0,0,0-1.31-.5,1.74,1.74,0,0,0-.42.05,4.55,4.55,0,0,0-1.54.74,3.93,3.93,0,0,1-1.11.61.83.83,0,0,1-.24,0,.9.9,0,0,1-.57-.21.93.93,0,0,1-.11-1.37,1.13,1.13,0,0,1,.92-.47,2.3,2.3,0,0,1,.81.18l.53-1.19a3.28,3.28,0,0,0-1.28-.29" style="fill:#688b6f"/><path d="M442.08,266.25l-2.65-2.17.85-1a1.69,1.69,0,0,1,1.28-.74,1.71,1.71,0,0,1,1.07.45,1.59,1.59,0,0,1,.3,2.46l-.85,1m-.35-5.6a2.41,2.41,0,0,0-.5.05,3.67,3.67,0,0,0-1.95,1.43l-2,2.43,8.12,6.65,1.1-1.34-3.4-2.78,1-1.27,4.43,1.51,1.19-1.45-4.93-1.48a2.83,2.83,0,0,0-1.12-3,3.17,3.17,0,0,0-2-.79" style="fill:#688b6f"/><path d="M447.8,260.85c-1-.92-1.22-1.73-.71-2.37A1.12,1.12,0,0,1,448,258a2.58,2.58,0,0,1,1.54.71l-1.73,2.11m.46-4.17a2.66,2.66,0,0,0-2,1c-1.23,1.5-.73,3.4,1.27,5a4.62,4.62,0,0,0,2.83,1.23,2.76,2.76,0,0,0,2.18-1.11,2.71,2.71,0,0,0,.68-2.13,3.14,3.14,0,0,0-.76-1.66l-1.08,1c.65.84.72,1.4.25,2a1.29,1.29,0,0,1-1,.5l-.29,0a3.78,3.78,0,0,1-1.65-1l2.78-3.4a5.84,5.84,0,0,0-2.65-1.44,2.4,2.4,0,0,0-.5-.05" style="fill:#688b6f"/><path d="M448.93,250a4.8,4.8,0,0,0-.65.67,2,2,0,0,0-.54,2c.15.51.45.87,1.46,1.72l-.65.79,1,.82.65-.79,5,4.1,1-1.21-5-4.1.89-1.08-1-.82-.89,1.08c-.72-.59-.72-.59-.84-.77a.87.87,0,0,1,.17-1.12,4.21,4.21,0,0,1,.42-.43l-1-.82" style="fill:#688b6f"/><path d="M454.77,252.34c-1-.92-1.22-1.73-.71-2.37a1.12,1.12,0,0,1,.9-.45,2.58,2.58,0,0,1,1.53.71l-1.72,2.1m.46-4.17a2.66,2.66,0,0,0-2,1c-1.22,1.5-.73,3.4,1.28,5a4.62,4.62,0,0,0,2.83,1.23,2.76,2.76,0,0,0,2.18-1.11,2.72,2.72,0,0,0,.68-2.13,3.12,3.12,0,0,0-.76-1.66l-1.08,1c.65.84.72,1.4.25,2a1.29,1.29,0,0,1-1,.5l-.3,0a3.79,3.79,0,0,1-1.65-1l2.78-3.4a5.83,5.83,0,0,0-2.65-1.44,2.41,2.41,0,0,0-.5-.05" style="fill:#688b6f"/><path d="M458.21,243.12a1.16,1.16,0,0,0-.21.21c-.55.67-.46,1.53.26,2.69l-1.34-1.1L456,246l6,4.91,1-1.24L460,247.2c-1.17-1-1.41-1.93-.7-2.79a1.33,1.33,0,0,1,.22-.22l-1.29-1.06" style="fill:#688b6f"/><path d="M461.9,243.63c-1-.92-1.22-1.73-.7-2.37a1.12,1.12,0,0,1,.9-.45,2.58,2.58,0,0,1,1.53.71l-1.73,2.1m.46-4.17a2.66,2.66,0,0,0-2,1c-1.23,1.5-.73,3.4,1.27,5a4.63,4.63,0,0,0,2.83,1.23,2.76,2.76,0,0,0,2.18-1.11,2.71,2.71,0,0,0,.68-2.12,3.13,3.13,0,0,0-.76-1.66l-1.08,1c.65.84.72,1.4.25,2a1.29,1.29,0,0,1-1,.5l-.3,0a3.78,3.78,0,0,1-1.65-1l2.78-3.4a5.83,5.83,0,0,0-2.65-1.44,2.4,2.4,0,0,0-.5-.05" style="fill:#688b6f"/><path d="M466.64,233.78a2.07,2.07,0,0,0-1.62,3.14l-.93-.76-.94,1.14,6,4.91,1-1.24-3.36-2.75c-1.29-1.06-1.56-1.74-1-2.44a.85.85,0,0,1,.65-.36l.18,0a3.31,3.31,0,0,1,1.11.73l3.8,3.11,1-1.24-3.87-3.17a4.48,4.48,0,0,0-1.62-1,1.84,1.84,0,0,0-.44-.05" style="fill:#688b6f"/><path d="M471.22,228.51h-.14a2.45,2.45,0,0,0-1.81,1c-1.25,1.52-.82,3.26,1.23,4.93a4.93,4.93,0,0,0,3,1.34,2.55,2.55,0,0,0,2-1,2.67,2.67,0,0,0,.68-2.17,3.5,3.5,0,0,0-1.1-1.83l-1.09,1.1c.88.88,1,1.41.56,2a1.07,1.07,0,0,1-.86.43,3.58,3.58,0,0,1-2-1c-1.63-1.33-2-2.15-1.41-2.92a.89.89,0,0,1,.71-.39,2.78,2.78,0,0,1,1.33.55l.85-1.29a3.42,3.42,0,0,0-1.94-.69" style="fill:#688b6f"/><path d="M472.82,225.5l-1,1.24,6,4.91,1-1.24-6-4.91m-2.09-1.77-1.07,1.3,1.31,1.08,1.07-1.3-1.31-1.08" style="fill:#688b6f"/><path d="M477.51,220.5a2.07,2.07,0,0,0-1.62,3.14l-.93-.76L474,224l6,4.91,1-1.24L477.68,225c-1.29-1.06-1.56-1.74-1-2.44a.84.84,0,0,1,.64-.37l.18,0a3.35,3.35,0,0,1,1.11.73l3.8,3.11,1-1.24-3.87-3.17a4.47,4.47,0,0,0-1.62-1,1.83,1.83,0,0,0-.44-.05" style="fill:#688b6f"/><path d="M486.31,223.29a.94.94,0,0,1-.6-.24,1.07,1.07,0,0,1-.35-1.14c.31-.33.36-.39.88-1s.76-.8,1-.91a.64.64,0,0,1,.25,0,.88.88,0,0,1,.55.22c.55.45.44,1.15-.34,2.1-.55.67-1,1-1.42,1m-3.76-4.06a1.79,1.79,0,0,1-1.09-.47c-.78-.64-.94-1.28-.49-1.84a.94.94,0,0,1,.75-.37,1.85,1.85,0,0,1,1.12.5c.74.61.91,1.27.47,1.81a1,1,0,0,1-.77.38M481.47,213c-.16.17-.24.25-.34.37-.56.68-.5,1.2.2,2a3,3,0,0,0-1.19.91,2.51,2.51,0,0,0,.25,3.72,2.17,2.17,0,0,0,1.42.59,2.78,2.78,0,0,0,.75-.12,1.69,1.69,0,0,0,.48,1.88,1.21,1.21,0,0,0,.8.3,2.14,2.14,0,0,0,.73-.15,1.44,1.44,0,0,0,.44,1.82,1.63,1.63,0,0,0,1,.4,3.48,3.48,0,0,0,2.44-1.57c1.45-1.77,1.57-3.26.37-4.25a2,2,0,0,0-1.26-.51,1.51,1.51,0,0,0-.5.09c-.51.17-.83.44-1.76,1.45a8.42,8.42,0,0,1-1.07,1.08.63.63,0,0,1-.36.13.54.54,0,0,1-.35-.13c-.24-.2-.28-.43-.15-.88a3.39,3.39,0,0,0,.73-.66,2.54,2.54,0,0,0-1.89-4.27c-.39-.46-.43-.8-.12-1.17a1.85,1.85,0,0,1,.26-.27l-.91-.75" style="fill:#688b6f"/><polyline points="489.9 204.64 489.08 205.64 492.46 209.99 487.61 207.44 486.71 208.54 490.13 212.78 485.28 210.29 484.28 211.51 491.52 214.91 492.38 213.87 488.92 209.59 493.83 212.09 494.69 211.04 489.9 204.64" style="fill:#688b6f"/><path d="M491.5,202.69l-1,1.24,6,4.91,1-1.24-6-4.91m-2.09-1.77-1.07,1.3,1.31,1.08,1.07-1.3-1.31-1.08" style="fill:#688b6f"/><path d="M492.12,198.51l-.81,1.21,1.52,1.35-.67.81,1,.82.64-.78,2.74,2.24c1.06.87,1.42,1.1,1.92,1.21a1.44,1.44,0,0,0,.31,0,2,2,0,0,0,1.53-.91,5.67,5.67,0,0,0,.65-1l-1-.81a5.87,5.87,0,0,1-.37.53,1.1,1.1,0,0,1-.77.49h0c-.28,0-.48-.13-1.34-.84l-2.65-2.17.94-1.14-1-.82-.94,1.14-1.68-1.37" style="fill:#688b6f"/><path d="M498.88,194.38a1.85,1.85,0,0,0-1.43.75,1.82,1.82,0,0,0-.23,2.19l-2.91-2.38-1,1.24,8.12,6.65,1-1.24L499,198.77c-1.17-1-1.47-1.71-.93-2.37a.82.82,0,0,1,.64-.34.9.9,0,0,1,.26,0,3.11,3.11,0,0,1,1.06.69l3.79,3.1,1-1.24-3.79-3.1a4.74,4.74,0,0,0-1.73-1.11,1.63,1.63,0,0,0-.44-.06" style="fill:#688b6f"/><path d="M462.08,304.88l-3.48,4.25-18.06-14.79,6.5-7.93c1.91-2.33,3.27-3.33,5.05-3.69a7.14,7.14,0,0,1,5.75,1.54,6.71,6.71,0,0,1,2.41,4.24,6.55,6.55,0,0,1-.28,2.71l10.69,3.19-3.84,4.69L457.41,296l-2.48,3Zm-10.24-8.38,2.13-2.6c1.15-1.41,1.37-1.78,1.46-2.56a3.1,3.1,0,0,0-1.11-2.68,3,3,0,0,0-2.47-.62c-.85.21-1.17.49-2.57,2.2l-2,2.49Z" style="fill:#f7f7f7"/><path d="M478.78,284.48a9.08,9.08,0,0,1-1.89-1.23,3,3,0,0,1-.33-.31c.7,2.74.43,4.29-1.15,6.21-2.08,2.54-4.9,3-7.17,1.14a5.38,5.38,0,0,1-1.6-6.28c.49-1.37,1.29-2.79,3.51-6l-.76-.62a2.24,2.24,0,0,0-3.57.38,2.68,2.68,0,0,0,.09,3.87L462.58,285a5.21,5.21,0,0,1-1.57-3.82,10,10,0,0,1,2.55-5.88c1.77-2.17,3.84-3.42,5.6-3.42,1.2,0,2,.44,4,2.06l6,4.95a8.42,8.42,0,0,0,2.69,1.8Zm-6.68-4.88a11.89,11.89,0,0,0-1.49,2.76c-.57,1.47-.38,2.62.59,3.42a2.09,2.09,0,0,0,3.08-.28c1.15-1.41.72-3.53-1-4.9Z" style="fill:#f7f7f7"/><path d="M493,267.09l-3,3.66L487.94,269c.89,2.4.72,3.93-.64,5.59-2.44,3-6.45,2.68-10.7-.8-4.52-3.7-5.63-7.6-3-10.79a4.6,4.6,0,0,1,4.36-1.9l-6.12-5L475,252.3Zm-10.87-2.52c-2.08-1.71-3.7-1.89-4.74-.62-1.22,1.49-.36,3.42,2.6,5.84,2.55,2.08,4.55,2.51,5.66,1.15s.6-3-1-4.33Z" style="fill:#f7f7f7"/><path d="M483.76,248.84l-3.22,3.93-3.93-3.22,3.22-3.93Zm14.49,11.86L495,264.63l-13.35-10.93,3.22-3.93Z" style="fill:#f7f7f7"/><path d="M503.48,240.78c4.09,3.35,4.73,8.31,1.61,12.13a7.38,7.38,0,0,1-5.85,3,9.4,9.4,0,0,1-6.36-2.45c-4.09-3.35-4.77-8.16-1.68-11.92S499.25,237.32,503.48,240.78ZM496,249.11c3.33,2.73,5.24,3.21,6.55,1.61s.54-3.31-2.41-5.73c-3.25-2.66-5-3.06-6.31-1.46S493.18,246.78,496,249.11Z" style="fill:#f7f7f7"/><path d="M520.75,213.11a17.12,17.12,0,0,1,3.32,7.65,3.14,3.14,0,0,0,2.37-1.18,9.4,9.4,0,0,0,.8-1.15l3.22,2.64a8.69,8.69,0,0,1-1.24,2,6.06,6.06,0,0,1-4.9,2.5,10.73,10.73,0,0,1-2.68,7.26,9.35,9.35,0,0,1-5.48,3.65,7.28,7.28,0,0,1-5.82-1.46,6.19,6.19,0,0,1-2.31-4.92,11,11,0,0,1,.74-3.83c-2.9-.11-3.79-.34-5-1.32-2.54-2.08-2.43-5.65.34-9s6.13-3.94,8.86-1.7c2.06,1.69,2.51,3.73,1.59,7l4.85-.28a10.32,10.32,0,0,0-2.27-4.52Zm-9.86,8.12c.59-1.82.43-2.9-.52-3.68a2.33,2.33,0,0,0-3.41.51,1.94,1.94,0,0,0,0,2.81,3.27,3.27,0,0,0,2.56.47ZM513,226.1c-.67,2-.46,3.15.79,4.17a3.45,3.45,0,0,0,5-.64,6,6,0,0,0,1.36-3.87Z" style="fill:#f7f7f7"/><path d="M452.93,360.82l-3,3.63-18-2.93c.32.22.56.42.65.48.43.31.72.5.83.59l10.8,8.85-2.68,3.28-18.06-14.79,3.73-4.55,15.68,2.57a15.38,15.38,0,0,1-1.26-.89l-9.45-7.74,2.68-3.28Z" style="fill:#f7f7f7"/><path d="M451.89,349.83a7.42,7.42,0,0,0,.6.54c1.73,1.42,3.71,1.32,5-.22a3,3,0,0,0-.13-4.09l3.17-3.38a8.32,8.32,0,0,1,1.55,3.85,7.48,7.48,0,0,1-1.91,6c-3.24,4-8.12,4.34-12.21,1s-4.92-8.42-1.79-12.23a7.72,7.72,0,0,1,7.1-2.92c2,.3,3.3.94,5.68,2.84Zm1.56-6.6c-2.05-1.41-3.4-1.43-4.58,0s-1,3,.72,4.7Z" style="fill:#f7f7f7"/><polygon points="477.5 330.81 474.64 334.31 464.33 329.39 471.21 338.5 468.48 341.83 451.76 335.02 455.13 330.9 465.05 335.41 458.56 326.7 461.49 323.13 471.29 327.9 464.95 318.9 467.44 315.87 477.5 330.81" style="fill:#f7f7f7"/><path d="M478.17,310.95a3.08,3.08,0,0,0-3.94,1.11c-1,1.22-1.16,2.35-.43,3s1.43.35,3.09-1.23c2.21-2,3.2-2.81,4.36-3.22a4.76,4.76,0,0,1,4.73,1c2.84,2.33,2.75,6.09-.29,9.81-1.77,2.17-3.42,3.17-5.48,3.43a5.43,5.43,0,0,1-3.42-.63l2.27-3.71c1.46.65,2.83.19,4.18-1.46,1.15-1.41,1.39-2.8.6-3.44-.62-.51-1.28-.32-2.3.6a26.68,26.68,0,0,1-4.71,3.7,4.9,4.9,0,0,1-5.17-.75c-2.68-2.2-2.57-5.81.25-9.25,2.31-2.82,4.55-3.51,7.84-2.45Z" style="fill:#f7f7f7"/><path d="M478.17,302.76l3-3.63,2,1.6a4.55,4.55,0,0,1,.66-5.34c2.53-3.09,6.61-2.82,10.92.7s5.48,7.61,2.89,10.78a4.34,4.34,0,0,1-4.37,1.8l6,4.9L496,317.4Zm10.63,2.32c1.46,1.2,1.94,1.5,2.69,1.57a2.8,2.8,0,0,0,2.37-.91,2.33,2.33,0,0,0,.26-2.36,8.76,8.76,0,0,0-2.86-3.25c-2.79-2.28-4.64-2.67-5.8-1.26s-.57,3,1.35,4.59Z" style="fill:#f7f7f7"/><path d="M509.24,292.05a9,9,0,0,1-1.89-1.23,3,3,0,0,1-.33-.31c.7,2.74.43,4.29-1.15,6.21-2.08,2.55-4.9,3-7.18,1.14a5.38,5.38,0,0,1-1.59-6.28c.49-1.37,1.29-2.79,3.51-6l-.76-.62a2.24,2.24,0,0,0-3.57.38,2.68,2.68,0,0,0,.09,3.87L493,292.55a5.22,5.22,0,0,1-1.57-3.82,10.06,10.06,0,0,1,2.55-5.88c1.77-2.17,3.84-3.42,5.61-3.42,1.2,0,2,.44,4,2.06l6,4.95a8.43,8.43,0,0,0,2.69,1.8Zm-6.68-4.88a11.9,11.9,0,0,0-1.49,2.76c-.57,1.48-.39,2.63.59,3.42a2.09,2.09,0,0,0,3.08-.28c1.15-1.41.72-3.53-1-4.9Z" style="fill:#f7f7f7"/><path d="M500.84,275.08l3-3.63,2,1.6a4.55,4.55,0,0,1,.66-5.34c2.53-3.09,6.61-2.82,10.92.7s5.48,7.61,2.89,10.78a4.34,4.34,0,0,1-4.37,1.8l6,4.9-3.13,3.82Zm10.63,2.32c1.46,1.2,1.94,1.5,2.69,1.57a2.8,2.8,0,0,0,2.37-.91,2.34,2.34,0,0,0,.26-2.36,8.77,8.77,0,0,0-2.86-3.25c-2.79-2.28-4.64-2.67-5.8-1.26s-.57,3,1.35,4.59Z" style="fill:#f7f7f7"/><path d="M522.28,263.86a7.29,7.29,0,0,0,.6.54c1.73,1.42,3.71,1.32,5-.22a3,3,0,0,0-.13-4.09l3.17-3.38a8.35,8.35,0,0,1,1.55,3.85,7.48,7.48,0,0,1-1.91,6c-3.24,4-8.12,4.34-12.21,1s-4.92-8.42-1.79-12.23a7.73,7.73,0,0,1,7.1-2.92c2,.3,3.3.94,5.68,2.84Zm1.56-6.6c-2.06-1.41-3.4-1.43-4.58,0s-1,3,.72,4.7Z" style="fill:#f7f7f7"/><path d="M536.72,258.49l-13.35-10.93,2.95-3.6,2.49,2c-1.43-2.12-1.57-3.77-.42-5.18.13-.16.38-.41.63-.66l3.9,3.19a3.05,3.05,0,0,0-.34.36c-1.64,2-1,4.18,1.82,6.51l5.44,4.46Z" style="fill:#f7f7f7"/><path d="M540.27,235.11a3.08,3.08,0,0,0-3.94,1.11c-1,1.22-1.16,2.35-.43,3s1.43.35,3.09-1.23c2.21-2,3.2-2.81,4.36-3.22a4.76,4.76,0,0,1,4.73,1c2.84,2.33,2.75,6.1-.29,9.81-1.77,2.17-3.42,3.18-5.48,3.43a5.44,5.44,0,0,1-3.42-.63l2.27-3.71c1.46.65,2.83.19,4.18-1.46,1.15-1.41,1.39-2.8.6-3.44-.62-.51-1.28-.32-2.3.6a26.64,26.64,0,0,1-4.71,3.7,4.9,4.9,0,0,1-5.17-.75c-2.68-2.2-2.57-5.81.25-9.25,2.31-2.82,4.55-3.51,7.84-2.45Z" style="fill:#f7f7f7"/><polygon points="432.33 483.54 427.52 484.8 429.58 492.73 425.57 493.77 423.5 485.84 415.16 488.01 413.8 482.81 435.22 477.24 439.18 492.45 434.94 493.56 432.33 483.54" style="fill:#f7f7f7"/><path d="M420.54,508.72a8.57,8.57,0,0,1,2-.76,2.71,2.71,0,0,1,.43-.08c-2.49-1-3.52-2.07-4.11-4.35-.79-3,.44-5.43,3.14-6.13a5.1,5.1,0,0,1,5.7,2.29,25,25,0,0,1,2.63,6l.9-.23a2.12,2.12,0,0,0,1.7-2.94,2.54,2.54,0,0,0-3-2.1l-.7-4.41A4.94,4.94,0,0,1,433,497a9.52,9.52,0,0,1,3.07,5.23c.67,2.57.47,4.85-.51,6.2-.69.9-1.47,1.31-3.82,1.92l-7.16,1.86a8,8,0,0,0-2.88,1.06Zm7.47-2.39a11.29,11.29,0,0,0-1.28-2.68c-.81-1.26-1.79-1.76-3-1.46a2,2,0,0,0-1.51,2.52c.43,1.67,2.3,2.52,4.29,2Z" style="fill:#f7f7f7"/><path d="M432,528.26a6.53,6.53,0,0,1-3.92-.42,7.18,7.18,0,0,1-4.23-5.2c-1.19-4.56,1.27-8.42,6.15-9.69s9.17,1,10.38,5.66a7,7,0,0,1-.82,5.94,6.36,6.36,0,0,1-3.46,2.65l-1.39-4.3c1.93-.74,2.61-1.71,2.21-3.21-.49-1.89-2.2-2.38-5.41-1.54s-4.29,1.94-3.81,3.8c.38,1.48,1.47,2.09,3.41,1.89Z" style="fill:#f7f7f7"/><path d="M434.62,533.57a7.18,7.18,0,0,0-.75.16c-2.05.53-3.09,2.11-2.61,3.94a2.8,2.8,0,0,0,3.21,2.18l.81,4.31a7.88,7.88,0,0,1-3.82-1,7.08,7.08,0,0,1-3.55-4.83c-1.22-4.69,1.21-8.64,6.06-9.91s9.19.93,10.37,5.46a7.32,7.32,0,0,1-1.73,7.07c-1.33,1.34-2.56,2-5.35,2.76Zm4.18,4.88c2.23-.79,3-1.81,2.55-3.51s-1.73-2.43-4-2.08Z" style="fill:#f7f7f7"/><path d="M445.72,548.68A4.21,4.21,0,0,1,449,552c.94,3.63-1.61,6.73-6.62,8-5.23,1.36-8.93-.21-10-4.22-.57-2.18-.2-3.41,1.57-5.31a5,5,0,0,0-1.87-.34,6.74,6.74,0,0,1-.84-.06l-.64-2.47,21.41-5.57,1.21,4.66Zm-7.58,2c-2.09.54-3.1,1.8-2.71,3.28a2.43,2.43,0,0,0,2.21,1.76,9.63,9.63,0,0,0,3.49-.43A13.3,13.3,0,0,0,444.5,554a2.45,2.45,0,0,0,1.06-2.64c-.4-1.54-2.09-2.1-4.37-1.5Z" style="fill:#f7f7f7"/><path d="M446.56,576.4c-4.85,1.26-9-1-10.18-5.54a7,7,0,0,1,1-6.15,8.9,8.9,0,0,1,5.43-3.5c4.85-1.26,8.91.9,10.07,5.37C454,571.19,451.56,575.09,446.56,576.4ZM444.34,566c-3.95,1-5.39,2.22-4.89,4.12s2.24,2.26,5.73,1.35c3.85-1,5.14-2.12,4.64-4S447.71,565.16,444.34,566Z" style="fill:#f7f7f7"/><path d="M450.78,592.64c-4.85,1.26-9-1-10.18-5.54a7,7,0,0,1,1-6.15,8.91,8.91,0,0,1,5.43-3.5c4.85-1.26,8.91.9,10.07,5.37C458.27,587.43,455.79,591.34,450.78,592.64Zm-2.21-10.36c-3.95,1-5.39,2.22-4.89,4.12s2.24,2.26,5.73,1.35c3.85-1,5.14-2.12,4.64-4S451.94,581.4,448.57,582.28Z" style="fill:#f7f7f7"/><path d="M447.5,612.28l-1.34-5.17,6.33-5.18L448.62,600l-4,1.05-1.14-4.4,21.41-5.57,1.14,4.4-12.84,3.34c.47.22.89.38,1,.45.62.28,1,.45,1.12.5L462,603l1.19,4.56-6.55-3.16Z" style="fill:#f7f7f7"/><path d="M466.62,637.81a16.23,16.23,0,0,1-7.72-1.73,3,3,0,0,0-.42,2.47,9,9,0,0,0,.43,1.26l-3.82,1a8.18,8.18,0,0,1-.85-2.08,5.74,5.74,0,0,1,.82-5.15,10.17,10.17,0,0,1-4.06-6.11,8.86,8.86,0,0,1,.26-6.24,6.9,6.9,0,0,1,4.37-3.64,5.86,5.86,0,0,1,5.05,1,10.43,10.43,0,0,1,2.52,2.7c1.7-2.16,2.38-2.71,3.79-3.08,3-.79,5.69,1.3,6.73,5.31s-.4,6.89-3.64,7.73c-2.44.64-4.26-.16-6.25-2.69l-2.49,3.87a9.78,9.78,0,0,0,4.73.79ZM461,624.59c-1.18-1.65-2.16-2.11-3.64-1.73A3.26,3.26,0,0,0,455.1,627a5.7,5.7,0,0,0,2.2,3.2Zm4.89,1.13c1.07,1.47,2,2,3.11,1.66a2.21,2.21,0,0,0,1.51-2.9c-.31-1.19-1.2-1.85-2.13-1.6-.64.17-1.17.65-1.79,1.7Z" style="fill:#f7f7f7"/><polygon points="426.2 566.72 424.82 561.42 407.65 565.89 406.32 560.82 423.5 556.35 422.11 551.02 426.35 549.91 430.44 565.61 426.2 566.72" style="fill:#f7f7f7"/><polygon points="413.49 588.36 412.42 584.22 421.94 579.07 411.12 579.24 410.09 575.29 424.65 566.29 425.92 571.17 416.93 576.26 427.22 576.15 428.32 580.39 419.19 585.23 429.62 585.4 430.56 588.99 413.49 588.36" style="fill:#f7f7f7"/><path d="M416.27,599l-1.21-4.66,15.83-4.12,1.21,4.66Zm17.18-4.47-1.21-4.66,4.66-1.21,1.21,4.66Z" style="fill:#f7f7f7"/><path d="M423.92,605.77c-1.8.47-2,.91-1.55,2.73a14.05,14.05,0,0,0,.45,1.46l-3.47.9a16.51,16.51,0,0,1-1.13-2.89c-1-3.88,0-5.69,3.78-6.67l7.38-1.92-.65-2.5,3.63-.94.72,2.76,4.79-.83,1.37,3.93-5,1.3.88,3.4-3.63.94-.88-3.4Z" style="fill:#f7f7f7"/><path d="M426.62,616.13c-1.8.47-2,.91-1.55,2.74a13.88,13.88,0,0,0,.45,1.46l-3.47.9a16.6,16.6,0,0,1-1.13-2.89c-1-3.88,0-5.69,3.78-6.67l7.38-1.92-.65-2.5,3.63-.94.72,2.76,4.79-.83,1.37,3.93-5,1.3.89,3.4-3.63.94-.89-3.4Z" style="fill:#f7f7f7"/><path d="M430.61,624.9a6.58,6.58,0,0,0-.75.16c-2.05.53-3.09,2.1-2.61,3.93a2.8,2.8,0,0,0,3.21,2.18l.81,4.31a7.9,7.9,0,0,1-3.81-1,7.09,7.09,0,0,1-3.56-4.83c-1.22-4.69,1.21-8.64,6.06-9.91s9.19.93,10.37,5.46a7.32,7.32,0,0,1-1.73,7.06c-1.33,1.34-2.57,2-5.35,2.76Zm4.18,4.88c2.23-.79,3-1.81,2.55-3.51s-1.73-2.43-4-2.08Z" style="fill:#f7f7f7"/><path d="M426.66,639l15.83-4.12,1.11,4.27-3,.77c2.42.09,3.77.9,4.2,2.57,0,.19.1.52.15.85l-4.62,1.2a3.05,3.05,0,0,0-.08-.46c-.62-2.37-2.63-3.12-6-2.24l-6.45,1.68Z" style="fill:#f7f7f7"/><path d="M358.8,629.64l-.56,3.47-10.42.87.83.34,8.79,3.67-.56,3.47-15.77,1.42.59-3.61,9.58-.59a3,3,0,0,0,.52-.05s.26,0,.47,0l-9.79-4.13.53-3.27,10.61-.88c-.22-.11-.37-.15-.44-.19s-.31-.12-.48-.19l-8.89-3.66.47-2.9Z" style="fill:#7bb987"/><path d="M355,621.31a4.71,4.71,0,0,0,.52.11,2.19,2.19,0,0,0,2.76-1.76,1.94,1.94,0,0,0-1.42-2.28l.69-3a5.48,5.48,0,0,1,2.15,1.68,4.91,4.91,0,0,1,.9,4.06c-.54,3.31-3.19,5.14-6.62,4.58s-5.57-3.16-5-6.36a5.07,5.07,0,0,1,3.07-4,7.11,7.11,0,0,1,4.17-.25ZM353.7,617c-1.63-.13-2.4.31-2.6,1.51s.42,2,2,2.44Z" style="fill:#7bb987"/><path d="M352.18,608.62a2.92,2.92,0,0,1-1.18-3c.42-2.56,2.9-3.81,6.45-3.24,3.7.6,5.6,2.64,5.14,5.47-.25,1.54-.83,2.22-2.48,2.93a3.43,3.43,0,0,0,1.09.74,5.11,5.11,0,0,1,.51.27l-.28,1.75L346.29,611l.54-3.29Zm5.36.87c1.48.24,2.47-.27,2.64-1.32a1.69,1.69,0,0,0-.91-1.73,6.68,6.68,0,0,0-2.33-.7,9.22,9.22,0,0,0-2.49-.15A1.7,1.7,0,0,0,353,607c-.18,1.09.74,1.91,2.35,2.18Z" style="fill:#7bb987"/><path d="M350.18,587.09a5.19,5.19,0,0,1,1.57-3.47,3.64,3.64,0,0,1,3.16-.93c1.7.28,2.65,1.34,2.91,3.29a4,4,0,0,1,1.24-1.78,3.85,3.85,0,0,1,3-.77,4.09,4.09,0,0,1,2.79,1.88,6,6,0,0,1,.47,4.25l-1.15,7.06L349,594.15Zm5.42,4.49.44-2.68a2.48,2.48,0,0,0-.08-1.64,1.71,1.71,0,0,0-1.25-.88,1.55,1.55,0,0,0-1.29.33c-.43.33-.52.59-.73,1.91l-.4,2.43Zm6.35,1,.44-2.72a3.23,3.23,0,0,0,0-1.8,1.92,1.92,0,0,0-1.41-1c-1.13-.18-1.93.57-2.18,2.09L358.3,592Z" style="fill:#7bb987"/><path d="M366.45,582.65l-11.19-1.82.49-3,2.09.34c-1.51-.74-2.14-1.63-1.94-2.81,0-.14.08-.36.14-.58l3.27.53a2,2,0,0,0-.07.31c-.27,1.68.79,2.71,3.18,3.1l4.56.74Z" style="fill:#7bb987"/><path d="M363.7,564.45c3.43.56,5.43,3.17,4.91,6.37a4.84,4.84,0,0,1-2.34,3.63,6.17,6.17,0,0,1-4.42.7c-3.43-.56-5.4-3.07-4.88-6.22S360.16,563.87,363.7,564.45Zm-1.5,7.19c2.79.45,4,.1,4.26-1.24s-.79-2.06-3.26-2.46c-2.72-.44-3.85-.09-4.07,1.25S359.82,571.25,362.2,571.64Z" style="fill:#7bb987"/><polygon points="371.35 552.5 370.87 555.43 363.39 556.03 370.3 558.95 369.85 561.74 358.09 563.37 358.65 559.92 365.78 559.22 359.23 556.4 359.71 553.41 366.86 552.89 360.29 549.87 360.7 547.33 371.35 552.5" style="fill:#7bb987"/><path d="M365.18,541a2,2,0,0,0-1.87,1.93c-.17,1,.12,1.72.73,1.82s.93-.27,1.35-1.71a9,9,0,0,1,1.42-3.26,3.12,3.12,0,0,1,3-1c2.38.39,3.57,2.56,3.06,5.67a5.34,5.34,0,0,1-2,3.75,3.57,3.57,0,0,1-2.15.77l.07-2.85c1-.11,1.67-.82,1.9-2.21.19-1.18-.13-2-.79-2.16s-.83.24-1.11,1.1a17.51,17.51,0,0,1-1.46,3.65,3.22,3.22,0,0,1-3.19,1.28c-2.25-.37-3.37-2.46-2.91-5.34.38-2.36,1.43-3.5,3.65-4Z" style="fill:#7bb987"/><path d="M362.07,532.89l-.54,3.29-3.29-.54.54-3.29Zm12.14,2-.53,3.29-11.19-1.82L363,533Z" style="fill:#7bb987"/><path d="M375.6,526.35l-6.29-1a4,4,0,0,0-1.87-.09,1.26,1.26,0,0,0-.92,1.08c-.18,1.13.62,1.9,2.28,2.16l6.29,1-.54,3.29L363.36,531l.5-3.06,1.88.31c-1.48-1.22-1.83-2-1.58-3.61a3.36,3.36,0,0,1,1.52-2.48,4.9,4.9,0,0,1,3.28-.24l7.17,1.17Z" style="fill:#7bb987"/><path d="M367.35,508a5.22,5.22,0,0,0-.23.87,1.15,1.15,0,0,0,.75,1.43,2.9,2.9,0,0,1,2.28-.54c2.18.35,3.17,2.45,2.65,5.6a9.43,9.43,0,0,1-.46,1.79c.18.47.38.67.75.73.77.13,1-.28,1.49-2.6a14.6,14.6,0,0,1,1-3.84,2.71,2.71,0,0,1,2.93-1.55,3.24,3.24,0,0,1,2.44,2c.52,1.25.57,2.68.19,5a11,11,0,0,1-1.29,4.22,2.26,2.26,0,0,1-2.27,1.19c-1-.17-1.56-.88-1.71-2.26a2.16,2.16,0,0,1-2.23,1.11,2.25,2.25,0,0,1-1.66-1.25,6.5,6.5,0,0,1-.47-1.4,2.84,2.84,0,0,1-3,1.53c-2.16-.35-3.19-2.57-2.68-5.72a8.37,8.37,0,0,1,1-2.87c-1.64-.52-2-1.17-1.77-2.9a4.48,4.48,0,0,1,.24-.89Zm1.63,8.72a1.63,1.63,0,0,0,2-1.52,1.75,1.75,0,0,0-1.39-2.21,1.71,1.71,0,0,0-2,1.64A1.63,1.63,0,0,0,369,516.75Zm7.94,1.31a1.49,1.49,0,0,0-.1.36,1,1,0,0,0,.8,1c.79.13,1.23-.71,1.61-3,.35-2.18.2-3.11-.57-3.24s-1,.72-1.59,4.19Z" style="fill:#7bb987"/><polygon points="275.99 609.17 274.25 612.54 285.17 618.2 283.5 621.42 272.57 615.76 270.82 619.15 268.12 617.75 273.3 607.77 275.99 609.17" style="fill:#7bb987"/><path d="M286.94,602.54c3.08,1.6,4.17,4.7,2.68,7.58a4.84,4.84,0,0,1-3.35,2.72,6.17,6.17,0,0,1-4.42-.71c-3.08-1.6-4.17-4.6-2.7-7.43S283.75,600.88,286.94,602.54Zm-3.66,6.36c2.51,1.3,3.81,1.35,4.43.15s-.1-2.2-2.33-3.36c-2.45-1.27-3.63-1.29-4.26-.08S281.13,607.79,283.28,608.9Z" style="fill:#7bb987"/><path d="M292.6,603.86l-10.07-5.21,1.41-2.72,1.88,1c-1.21-1.17-1.52-2.21-1-3.27.06-.12.19-.32.32-.51l2.94,1.52a2.14,2.14,0,0,0-.17.28c-.78,1.51-.09,2.83,2.05,3.94l4.1,2.13Z" style="fill:#7bb987"/><path d="M296,597.37l-10.07-5.22,1.41-2.71,1.88,1c-1.21-1.17-1.52-2.21-1-3.27.06-.12.19-.32.32-.51l2.94,1.52a1.88,1.88,0,0,0-.17.28c-.78,1.51-.09,2.83,2.05,3.94l4.1,2.13Z" style="fill:#7bb987"/><path d="M296.13,586a4.55,4.55,0,0,0,.46.26,2.19,2.19,0,0,0,3.17-.82,1.94,1.94,0,0,0-.64-2.61l1.58-2.6a5.48,5.48,0,0,1,1.52,2.26,4.91,4.91,0,0,1-.41,4.14c-1.54,3-4.63,3.89-7.71,2.3s-4.3-4.74-2.81-7.62a5.08,5.08,0,0,1,4.17-2.84,7.11,7.11,0,0,1,4,1.06Zm.11-4.45c-1.51-.63-2.38-.46-2.94.63s-.24,2.05,1.1,2.93Z" style="fill:#7bb987"/><path d="M307.69,574.74,302,571.81c-1.06-.55-1.32-.66-1.75-.67a1.26,1.26,0,0,0-1.21.74c-.53,1,0,2,1.49,2.77l5.65,2.93-1.53,3-10.07-5.21,1.43-2.76,1.7.88c-1-1.62-1.11-2.51-.37-3.92a3.36,3.36,0,0,1,2.22-1.88,4.9,4.9,0,0,1,3.19.8l6.45,3.34Z" style="fill:#7bb987"/><path d="M308.4,564.77c1.14.59,1.46.47,2.07-.69a9.49,9.49,0,0,0,.45-1l2.21,1.14a11.43,11.43,0,0,1-.76,2c-1.28,2.47-2.63,2.94-5,1.69l-4.7-2.43-.83,1.59-2.31-1.2.91-1.76-2.85-1.79,1.12-2.66,3.18,1.65,1.12-2.16,2.31,1.2-1.12,2.16Z" style="fill:#7bb987"/><path d="M310.4,558.4a4.75,4.75,0,0,0,.46.26,2.19,2.19,0,0,0,3.17-.82,1.94,1.94,0,0,0-.64-2.61l1.58-2.6a5.5,5.5,0,0,1,1.52,2.26,4.92,4.92,0,0,1-.41,4.14c-1.54,3-4.63,3.89-7.71,2.29s-4.3-4.74-2.81-7.62a5.07,5.07,0,0,1,4.17-2.84,7.12,7.12,0,0,1,4,1.06Zm.11-4.45c-1.51-.63-2.38-.46-2.94.63s-.24,2.05,1.1,2.93Z" style="fill:#7bb987"/><path d="M323.39,544.44,322,547.19l-1.57-.81a3.27,3.27,0,0,1,.35,3.68c-1.16,2.25-3.78,2.6-7,.94-3.41-1.77-4.65-4.12-3.4-6.53a3,3,0,0,1,2.55-1.81l-4.62-2.39,1.49-2.88Zm-7.33-.15c-1.57-.82-2.63-.72-3.13.24-.58,1.12.24,2.25,2.46,3.4,1.92,1,3.27,1,3.8,0s0-2-1.25-2.64Z" style="fill:#7bb987"/><polygon points="317.04 529.49 328.15 535.25 326.76 537.92 313.15 530.86 315.72 525.9 325.1 527.73 318.27 520.98 320.84 516.02 334.45 523.08 332.79 526.28 321.69 520.53 331.02 529.71 329.88 531.9 317.04 529.49" style="fill:#7bb987"/><path d="M335.18,509.44c3.08,1.6,4.17,4.7,2.68,7.58a4.85,4.85,0,0,1-3.35,2.72,6.17,6.17,0,0,1-4.42-.71c-3.08-1.6-4.17-4.59-2.7-7.43S332,507.79,335.18,509.44Zm-3.66,6.36c2.51,1.3,3.81,1.35,4.43.15s-.1-2.2-2.33-3.36c-2.45-1.27-3.63-1.29-4.26-.08S329.37,514.69,331.52,515.8Z" style="fill:#7bb987"/><polygon points="343.15 506.29 341.96 508.6 330.1 506.83 331.7 503.75 339.08 505.11 333.73 499.83 334.88 497.62 343.15 506.29" style="fill:#7bb987"/><path d="M335.91,493.52l-1.53,3-3-1.53,1.53-3Zm10.92,5.66-1.53,3-10.07-5.22,1.53-3Z" style="fill:#7bb987"/><path d="M344.6,492.4a4.55,4.55,0,0,0,.46.26,2.19,2.19,0,0,0,3.17-.82,1.94,1.94,0,0,0-.64-2.61l1.58-2.6a5.48,5.48,0,0,1,1.52,2.26,4.92,4.92,0,0,1-.41,4.14c-1.54,3-4.63,3.89-7.71,2.3s-4.3-4.74-2.81-7.62a5.07,5.07,0,0,1,4.17-2.84,7.11,7.11,0,0,1,4,1.06Zm.11-4.45c-1.51-.63-2.38-.46-2.94.63s-.24,2.05,1.1,2.93Z" style="fill:#7bb987"/><path d="M348.89,478a2,2,0,0,0-2.38,1.25c-.48.92-.42,1.67.13,2s1,0,1.82-1.21a9,9,0,0,1,2.36-2.66,3.12,3.12,0,0,1,3.18,0c2.14,1.11,2.59,3.54,1.14,6.34a5.33,5.33,0,0,1-3.05,2.95,3.57,3.57,0,0,1-2.28.06l1-2.69c1,.22,1.84-.26,2.49-1.51.55-1.06.51-2-.08-2.29s-.86,0-1.4.7a17.39,17.39,0,0,1-2.52,3,3.22,3.22,0,0,1-3.43.22c-2-1-2.44-3.39-1.1-6,1.1-2.12,2.45-2.87,4.71-2.64Z" style="fill:#7bb987"/><polygon points="471.37 423.45 465.84 421.77 460.4 439.69 455.11 438.09 460.55 420.17 454.99 418.48 456.33 414.06 472.71 419.03 471.37 423.45" style="fill:#f7f7f7"/><path d="M473.44,435.54a7.35,7.35,0,0,0-.27.76c-.65,2.14.2,3.94,2.1,4.52a3,3,0,0,0,3.73-1.68l4.33,1.65a8.32,8.32,0,0,1-3,2.9,7.48,7.48,0,0,1-6.31.54c-4.89-1.49-7.11-5.86-5.57-10.91s5.91-7.75,10.63-6.32a7.72,7.72,0,0,1,5.41,5.45c.47,1.94.39,3.41-.46,6.33Zm6.69-1.08c.52-2.44,0-3.69-1.75-4.23s-3.14.22-4.08,2.46Z" style="fill:#f7f7f7"/><rect x="478.06" y="433.87" width="23.35" height="5.08" transform="translate(-70.2 778.12) rotate(-73.1)" style="fill:#f7f7f7"/><path d="M498.3,443.09a7.38,7.38,0,0,0-.27.76c-.65,2.14.19,3.94,2.1,4.52a3,3,0,0,0,3.73-1.68l4.33,1.64a8.33,8.33,0,0,1-3,2.9,7.48,7.48,0,0,1-6.31.53c-4.89-1.49-7.11-5.86-5.57-10.91s5.91-7.75,10.63-6.32a7.72,7.72,0,0,1,5.41,5.45c.47,1.94.39,3.41-.46,6.33ZM505,442c.52-2.44,0-3.69-1.75-4.23s-3.14.22-4.08,2.46Z" style="fill:#f7f7f7"/><polygon points="516.1 456.62 512.32 455.47 511.67 437.24 516.73 438.77 516.74 450.19 523.16 440.73 526.78 441.83 516.1 456.62" style="fill:#f7f7f7"/><path d="M527.76,460.16l-4.86-1.47,5-16.51,4.86,1.47Zm5.44-17.92-4.86-1.48,1.48-4.86,4.86,1.48Z" style="fill:#f7f7f7"/><path d="M543.13,452.21a3.08,3.08,0,0,0-2.53-3.22c-1.51-.46-2.62-.17-2.89.73s.22,1.46,2.31,2.39c2.73,1.27,3.82,1.89,4.64,2.8a4.76,4.76,0,0,1,.86,4.76c-1.07,3.52-4.59,4.86-9.18,3.47-2.68-.81-4.24-1.95-5.26-3.76a5.43,5.43,0,0,1-.72-3.4l4.29.68c0,1.6.9,2.69,2.95,3.31,1.74.53,3.12.22,3.41-.75.23-.77-.19-1.3-1.44-1.9a26.66,26.66,0,0,1-5.22-2.94,4.89,4.89,0,0,1-1.28-5.07c1-3.32,4.39-4.59,8.65-3.3,3.48,1.06,5,2.87,5.25,6.32Z" style="fill:#f7f7f7"/><path d="M550.53,467.08l-4.86-1.47,5-16.51,4.86,1.47ZM556,449.16l-4.86-1.48,1.48-4.86,4.86,1.48Z" style="fill:#f7f7f7"/><path d="M570.95,464.32c-1.54,5.06-5.87,7.54-10.6,6.11a7.38,7.38,0,0,1-5-4.26,9.4,9.4,0,0,1-.16-6.82c1.54-5.06,5.72-7.52,10.38-6.1C570.39,454.71,572.53,459.09,570.95,464.32ZM560.4,460.6c-1.25,4.12-1,6.07,1,6.67s3.27-.76,4.38-4.41c1.22-4,.92-5.79-1.06-6.39S561.47,457.09,560.4,460.6Z" style="fill:#f7f7f7"/><path d="M580,476l2.82-9.28c.53-1.74.62-2.15.52-2.8a1.92,1.92,0,0,0-1.45-1.61c-1.67-.51-3,.56-3.73,3l-2.82,9.28-4.86-1.47,5-16.51,4.52,1.37-.84,2.78c2.14-2,3.46-2.35,5.77-1.65a5.12,5.12,0,0,1,3.43,2.8c.48,1.21.4,2.65-.31,5l-3.21,10.58Z" style="fill:#f7f7f7"/></svg>