<svg xmlns="http://www.w3.org/2000/svg" xmlns:xlink="http://www.w3.org/1999/xlink" viewBox="0 0 751.05 349.9"><defs><clipPath id="clip-path"><path d="M564.93,132.81a31.66,31.66,0,0,0,9.49,1.59c.61,0,1.41.13,1.5.73a1,1,0,0,1-.19.68c-.8,1.27-2.53,1.53-4,1.65a6.33,6.33,0,0,1-2.35-.1c-1.77-.54-3.08-2.58-4.32-3.43S563.89,132.48,564.93,132.81Z" style="fill:none"/></clipPath><clipPath id="clip-path-2"><path d="M249,72.88a1.91,1.91,0,0,1-1.42,1,5.65,5.65,0,0,1-1.81,0l-5.2-.7c-2.7-.37-5.63-.84-7.5-2.84,4.14-1.94,9.55-2.7,13.59,0a6.49,6.49,0,0,1,1.73,1.89Z" style="fill:none"/></clipPath><clipPath id="clip-path-3"><path d="M201.63,66.48c2.7,2.56,7.84,3.28,11.62,2.05a6.23,6.23,0,0,0-1.16-2.66,5,5,0,0,0-2.23-1.3,12.34,12.34,0,0,0-8.29.25A1.82,1.82,0,0,0,201.63,66.48Z" style="fill:none"/></clipPath></defs><title>on_illustration_csos</title><g id="CSOs"><g id="Woman_on_phone" data-name="Woman on phone"><g id="Head-6" data-name="Head"><path d="M492.75,130.62a66.37,66.37,0,0,1-6.53,51.82c-1.89,3.19-4.07,6.24-5.54,9.64-5.27,12.14-.83,26.22,5,38.11a175.18,175.18,0,0,0,41.22,54.13,2.12,2.12,0,0,0,1.22.66,2.1,2.1,0,0,0,1.36-.66c14.14-12,21.39-30,28.12-47.27,2.73-7,5.48-14.1,6.28-21.57a78.55,78.55,0,0,0,0-13.39c-.87-13.55-2.46-27.6-9.61-39.15-4.32-7-10.48-12.67-17.06-17.58a119.64,119.64,0,0,0-24.92-14.29Z" style="fill:#62647a;stroke:#000;stroke-miterlimit:10;stroke-width:0.5px"/><path d="M506.8,82c-3.06,3.67-4.55,8.4-6.82,12.6a83,83,0,0,0-5,10.32,59.26,59.26,0,0,0-3.27,16.87,55.65,55.65,0,0,0,1.18,17.45,65.4,65.4,0,0,0,2.73,8c2.71,6.81,5.78,13.55,10.16,19.42s11,10.76,18.27,14.63q9.34,5.37,19.12,9.93c4,1.88,8.2,3.67,12.63,4.08s9.22-.78,12.21-4.06c1.54-1.69,2.51-3.81,3.84-5.65S574.68,182,577,182a10.31,10.31,0,0,0,.16-4.41c-.22-1.46,0-3.22,1.24-4a11.14,11.14,0,0,1,2.37-.68c2-.64,3.06-2.85,3.07-4.92a14.91,14.91,0,0,0-1.67-5.92,13.52,13.52,0,0,0,5.26.2,4.6,4.6,0,0,0,3.66-3.4,6.52,6.52,0,0,0-.39-2.9,87.71,87.71,0,0,0-4.78-12.42c-1.07-2.25-2-5.45.1-6.79a9,9,0,0,0,1.19-.7,3.57,3.57,0,0,0,.82-2.39c.89-8.15,7-15.19,7.17-23.39.11-4.83-1.86-9.43-3.8-13.86L585,81.86c-1.06-2.42-2.2-4.95-4.33-6.51a25.1,25.1,0,0,0-4.12-2.09A19,19,0,0,1,570,68.13S531.33,52.54,506.8,82Z" style="fill:#62647a;stroke:#000;stroke-miterlimit:10;stroke-width:0.5px"/><path d="M496.78,137.12l1.12-7.65a20.18,20.18,0,0,1,1.75-6.6,6.84,6.84,0,0,1,5.3-3.87c5.59-.34,7.9,7.77,13.21,9.55a6.82,6.82,0,0,0,8.51-5.12c.21-1.29,0-2.61.15-3.91a17.81,17.81,0,0,1,1.46-5c1.87-4.67,4-9.62,8.14-12.42a29.79,29.79,0,0,0,3.08-2,43.19,43.19,0,0,0,2.85-3.27,10.27,10.27,0,0,1,12.42-1.67c3.2-3,4-8,7.42-10.65,2.82-2.17,6.73-2.19,10.25-1.67A42.36,42.36,0,0,1,588.93,89c3.09-1.21,3-5.7,1.58-8.69s-3.75-5.9-3.33-9.19a3.25,3.25,0,0,0,0-1.56,2.56,2.56,0,0,0-1-1.07l-12-8.41a6.13,6.13,0,0,1-1.78-1.64c-.45-.71-.61-1.62-1.25-2.17-1-.83-2.41-.43-3.68-.48s-2.73-1.43-1.88-2.38a5.12,5.12,0,0,1-6.83-3.64,5.76,5.76,0,0,1-6.66-1.33,5.69,5.69,0,0,0-1.49-1.5c-1.12-.57-2.44.08-3.69.16-1.69.11-3.25-.82-4.86-1.36a21.74,21.74,0,0,0-4.85-.85l-6.73-.66c-4.08-.4-8.78-.57-11.59,2.41A5.07,5.07,0,0,1,517.35,48c-.94.4-2,0-3-.23-4.6-.91-8.53,3.16-11.44,6.83l-3-1.2c-1,2.13-.47,4.78-1.6,6.85a9.41,9.41,0,0,1-1.72,2.08l-9,8.95a6.45,6.45,0,0,0-1.85,2.58,2.22,2.22,0,0,0,1.08,2.71,48.53,48.53,0,0,0-7.37,18.94c-.51,3.18-.7,6.39-.89,9.61-.24,4-.46,8.23,1,12a12.23,12.23,0,0,1,.88,2.73c.14,1.17-.2,2.37,0,3.54.26,1.45,1.34,2.68,1.51,4.14.09.79-.09,1.6,0,2.39a6.83,6.83,0,0,0,1,2.42c1.25,2.25,3.12,4.83,5.67,4.51,1.23-.15,2.26-1,3.43-1.37s2.83,0,3,1.2C495,136.7,496.5,139,496.78,137.12Z"/><path d="M515.89,119.85a5.35,5.35,0,0,0-.77-6.25,7.86,7.86,0,0,0-6.14-2.31,15.26,15.26,0,0,0-6.41,2,11,11,0,0,0-4.91,4.37c-1.52,3-.65,6.59.85,9.55s3.62,5.62,4.74,8.75a51.55,51.55,0,0,1,1.56,7.08,36.35,36.35,0,0,0,2.47,7.61c.88,2,2.17,4,4.25,4.53s4.34-.84,5.54-2.67a17.94,17.94,0,0,0,2.07-6.18,15.22,15.22,0,0,0,.47-3.1,14.14,14.14,0,0,0-.34-2.74l-.81-4.2" style="fill:#62647a;stroke:#000;stroke-miterlimit:10;stroke-width:0.5px"/><path d="M513.22,119.05a3.65,3.65,0,0,0-1.92-4.3,6.21,6.21,0,0,0-5,0,8.48,8.48,0,0,0-4.2,3.44,6.73,6.73,0,0,0-.75,5.32,12,12,0,0,0,1.21,2.53l1.61,2.77" style="fill:none;stroke:#000;stroke-miterlimit:10;stroke-width:0.25px"/><path d="M577.08,177.18H577a2.16,2.16,0,0,0-.35-.46,5.19,5.19,0,0,0-2.79-1.1,18.44,18.44,0,0,1-6.63-2.49,20.9,20.9,0,0,0,10.55.8l.17,0A4,4,0,0,0,577.08,177.18Z" style="fill:#fff"/><path d="M580.07,152.85a4.28,4.28,0,0,0-3.61,0,4,4,0,0,0-1,1,6.51,6.51,0,0,0-1.56,4.08,4,4,0,0,0,2.23,3.58,5.54,5.54,0,0,0,2.14.32,8.09,8.09,0,0,0,2.38-.15c.74-.14,1.08-.2,1.48.43" style="fill:none;stroke:#000;stroke-miterlimit:10;stroke-width:0.5px"/><path d="M564.93,132.81a31.66,31.66,0,0,0,9.49,1.59c.61,0,1.41.13,1.5.73a1,1,0,0,1-.19.68c-.8,1.27-2.53,1.53-4,1.65a6.33,6.33,0,0,1-2.35-.1c-1.77-.54-3.08-2.58-4.32-3.43S563.89,132.48,564.93,132.81Z" style="fill:#e0d5d8;stroke:#000;stroke-miterlimit:10;stroke-width:0.25px"/><path d="M579.22,132.39a8.68,8.68,0,0,0-3.16-5.36,4,4,0,0,0-1.17-.68,4.68,4.68,0,0,0-2-.1,24.36,24.36,0,0,0-7.52,2.06,6.58,6.58,0,0,1-2.83.87" style="fill:none;stroke:#000;stroke-miterlimit:10;stroke-width:0.25px"/><path d="M584.81,127.11A27.79,27.79,0,0,0,588.1,148" style="fill:none;stroke:#000;stroke-miterlimit:10;stroke-width:0.5px"/><path d="M584.3,123.08a17.52,17.52,0,0,0-9.55-3.21c-3.17-.1-6.48.65-9.42-.54" style="fill:none;stroke:#000;stroke-linecap:round;stroke-miterlimit:10;stroke-width:2px;opacity:0.30000000000000004"/><g style="clip-path:url(#clip-path)"><circle cx="574.17" cy="135.75" r="3.28"/></g><path d="M566,175.56a13.34,13.34,0,0,0,3.54,6.11,7.22,7.22,0,0,0,5.11,2.36,2.9,2.9,0,0,0,1.82-.63,4.14,4.14,0,0,0,1-3c.08-1.3.09-2.77-.82-3.7a5.12,5.12,0,0,0-2.79-1.1,18.56,18.56,0,0,1-6.63-2.49,20.94,20.94,0,0,0,10.55.8,9.73,9.73,0,0,0,4.1-1.59,4.76,4.76,0,0,0,2-3.75,1.41,1.41,0,0,0-.32-1c-.44-.45-1.19-.3-1.78-.1-2.48.84-4.85,2-7.35,2.71a13.86,13.86,0,0,1-7.72.39" style="fill:#62647a;stroke:#000;stroke-miterlimit:10;stroke-width:0.5px"/></g><g id="Shirt-4" data-name="Shirt"><path d="M567.07,185.13a45.67,45.67,0,0,1,6.11-1.27A45.58,45.58,0,0,0,567.07,185.13Zm67.66,208.61A222,222,0,0,0,621,369l-8.42-8.35c-1.77-6.17-3.55-12.38-4.16-18.77-.43-4.47-.28-9-1.34-13.4-1.28-5.31-4.29-10.1-5.32-15.46-.81-4.21-.37-8.54.08-12.8,1-9.83,2.11-19.87,6.29-28.83,3.86-8.26,10.12-15.11,15.95-22.11a3.56,3.56,0,0,0,1-4.19c-1.22-4.25-2.45-8.49-3.91-12.66a103.43,103.43,0,0,1-3.87-12c-1-4.53-1.1-9.24-2.39-13.69-3-10.17-12-17.82-22-21.21a43.31,43.31,0,0,0-19.67-1.76,17.33,17.33,0,0,0-1.34,1.66c-1.34,1.85-2.31,4-3.84,5.65-3,3.29-7.78,4.47-12.21,4.07a25.94,25.94,0,0,1-5.48-1.16c-.21.18-.43.35-.64.54a35,35,0,0,1-1,29.43c-2.91,5.66-7.33,10.44-10.06,16.18-3.77,7.92-4,17-4.19,25.77a18.24,18.24,0,0,1-4.51-3.77l-24.09-33.64a26.05,26.05,0,0,0-4.29-5c-1.36-1.13-3-2-4.2-3.24a12.44,12.44,0,0,1-3.24-7.86c-.19-2.38.05-4.78-.12-7.16-.43-5.94-3.43-11.36-4.92-17.12s-.91-12.92,4-16.24c0,0-1.86-.36-4.94,3.18-2.11,2.43-4.28,4.88-7.09,6.44a41.87,41.87,0,0,1-4.4,2l-9.56,3.93c-3,1.23-6.1,2.49-9.35,2.43a25.71,25.71,0,0,0-3.23-.06c-2.11.23-3.93,1.51-5.91,2.29-3.64,1.43-7.7,1.13-11.58,1.55-6,.65-12,3.27-15.53,8.12a26.28,26.28,0,0,0-4,9.59A59.55,59.55,0,0,0,416,226.92c.24,8.12,2.05,16.77-1.62,24a1.84,1.84,0,0,0-.29,1c.1.94,1.42,1,2.36.88l4.26-.76,34,6.75A775.6,775.6,0,0,1,473,430.7c31.52-1.3,62.24-10.5,93.7-12.93,20.87-1.61,42.32-.29,62.27-6.64,2.58-.82,5.28-1.89,6.85-4.1C638.53,403.22,636.73,398,634.73,393.74Z" style="fill:#414e68"/><path d="M567.14,185.37a49.07,49.07,0,0,1,6.11-1.27l-.13-.48a49,49,0,0,0-6.11,1.27.25.25,0,0,0,.13.48,49,49,0,0,1,6.11-1.27c.32,0,.18-.53-.13-.48a49.07,49.07,0,0,0-6.11,1.27A.25.25,0,0,0,567.14,185.37Z"/><path d="M634.94,393.61q-3.55-7.44-7.62-14.62c-1.94-3.41-3.82-7.47-6.42-10.41-1.59-1.79-3.43-3.41-5.13-5.09-.78-.78-1.65-1.52-2.37-2.36-1-1.18-1.19-2.7-1.61-4.22a84.84,84.84,0,0,1-3.27-17.24c-.32-5-.5-9.78-2.18-14.51-1.75-4.92-4.24-9.52-4.67-14.82s.48-11,1.13-16.35c1.33-11,3.92-21.31,10.28-30.51,2.91-4.21,6.25-8.1,9.54-12,1-1.17,2.47-2.47,2.87-4,.46-1.76-.63-3.93-1.11-5.58-1.52-5.21-3.34-10.28-5.1-15.41s-2.34-10.33-3.25-15.66a30.92,30.92,0,0,0-12.5-20,39.1,39.1,0,0,0-13.18-6.27,42.46,42.46,0,0,0-7.64-1.28c-2.66-.2-6.47-.62-9,.23-1.39.46-2.16,2-3,3.27-1.74,2.73-3.31,5.25-6.31,6.74a16.21,16.21,0,0,1-8.57,1.43c-1.61-.14-3.4-1-5-1-1,0-.24-.45-1.33.46a.24.24,0,0,0-.06.24A35.33,35.33,0,0,1,552,212.3c-.74,6.5-3.47,12.17-7.11,17.52-3.29,4.85-6.64,9.53-8.34,15.21s-2.08,11.58-2.25,17.43c0,.57-.08,1.19,0,1.76a7.46,7.46,0,0,1,.1,1.39c-.55,0-2.15-1.52-2.44-1.76-2.45-2.07-4.18-5.19-6-7.78l-11.76-16.42-5.73-8A60.89,60.89,0,0,0,503,224.5c-1.8-1.86-4.27-3-5.94-4.95-2.53-3-2.73-6.95-2.71-10.68a31.4,31.4,0,0,0-1.16-9.3c-1-3.3-2.33-6.46-3.33-9.75-1.8-5.9-2.15-13.64,3.43-17.68.15-.11.18-.42-.06-.46-3.21-.46-6.09,4.41-7.89,6.22-5,5-12.63,7.09-19.06,9.67a24.44,24.44,0,0,1-10.07,2c-3.26-.06-5.43,1.64-8.43,2.61-3.44,1.11-7.12.85-10.67,1.24a26.72,26.72,0,0,0-7.43,1.89c-12.14,5.13-14.28,19.81-13.93,31.58.2,6.64,1.55,13.53-.16,20.08-.38,1.44-1.4,2.86-1.64,4.28-.09.52-.21.75.12,1.23.64.91,2.12.57,3,.43,2.09-.33,3.26-.71,5.21-.33l8,1.6,20.79,4.12a19.82,19.82,0,0,1,2.67.53c.19.07.51,0,.68.14.42.27.51,2.12.64,2.71q2.38,10.94,4.44,21.94,4.3,22.93,7.21,46.08a779,779,0,0,1,6,101,.25.25,0,0,0,.25.25c25.24-1.11,49.86-7.12,74.78-10.76a350.89,350.89,0,0,1,37.43-3.1c12-.46,24.07-1,35.82-3.58,4.69-1,11.91-2.06,15-6.3s.83-9.54-1.06-13.59c-.14-.29-.57,0-.43.25,2.51,5.4,4.34,12.36-2.19,15.69-4.78,2.44-10.67,3.44-15.91,4.37-11.06,2-22.32,2.32-33.51,2.75-10.86.42-21.64,1.14-32.41,2.63-11.38,1.57-22.67,3.71-34,5.7s-22.89,3.88-34.45,4.87q-2.14.18-4.28.32c-.9.06-3.06.65-3.82.21-1.22-.7-.69-2.9-.69-4.09q0-2.43,0-4.87-.05-8.52-.3-17-1-34.78-5.09-69.38-4.56-38.45-12.94-76.32a.24.24,0,0,0-.17-.17l-29.85-5.92a27.55,27.55,0,0,0-4.15-.82,9,9,0,0,0-1.81.28c-.68.12-1.36.25-2,.36a4.26,4.26,0,0,1-1.1.16c-2.21-.54-1-2.1-.57-3.07,2-5,1.74-10.55,1.38-15.82-.43-6.28-.64-12.4.42-18.64s3-12.74,8.33-16.74c5.13-3.84,11-4.29,17.13-4.76a21.08,21.08,0,0,0,7-1.54,22.64,22.64,0,0,1,4.34-1.82c1.73-.36,3.51,0,5.26-.12,5.75-.48,11.52-3.79,16.79-6a34.46,34.46,0,0,0,6.69-3.24,30.91,30.91,0,0,0,5.26-5,15.33,15.33,0,0,1,3.13-3c.49-.31,1.55-.42,1.95-.76.23-.19-.28-.17-.49,0a6.41,6.41,0,0,0-1,.86,10.55,10.55,0,0,0-1.85,2.64c-5,9.93,3.44,19.85,4.16,29.67.41,5.57-.7,11.56,4,15.71,2.44,2.16,4.93,3.7,6.93,6.36,2.3,3.07,4.48,6.24,6.71,9.36l12.9,18c3,4.19,5.54,8.74,10,11.47a.25.25,0,0,0,.38-.22c.14-6.69.28-13.5,2.07-20,1.74-6.3,5.44-11.3,9-16.65C552,220,554.55,209,551.22,198a10.12,10.12,0,0,1-.66-1.95l-.3-.77a1.17,1.17,0,0,1,1.81-.47c1.21,0,2.51.55,3.75.66a17.3,17.3,0,0,0,7.41-.9,12.61,12.61,0,0,0,5-3.25c1.92-2.08,3.08-6.51,5.9-7.35,2.66-.79,6.34-.38,9-.14a41.25,41.25,0,0,1,10.71,2.38,36.8,36.8,0,0,1,14.32,9.45,29.76,29.76,0,0,1,7.44,15.73c.5,3.05.76,6.14,1.42,9.17a74.31,74.31,0,0,0,3,9.42q1.67,4.61,3.09,9.3.75,2.49,1.47,5a11.5,11.5,0,0,1,.44,1.56c.28,2.12-1,3.2-2.17,4.61a164.11,164.11,0,0,0-10.65,13.47c-6.93,10.28-9,22-10.33,34.09-.67,6.2-1.4,12.38.58,18.42.9,2.74,2.13,5.35,3.14,8a36.41,36.41,0,0,1,2.17,10.25A109.94,109.94,0,0,0,611,356.12c.47,1.73.69,3.79,1.82,5.19a44.27,44.27,0,0,0,3.42,3.39l3.73,3.7a27.82,27.82,0,0,1,3.78,5.57q5.87,9.67,10.72,19.9C634.65,394.15,635.08,393.9,634.94,393.61Z"/><path d="M536.4,273.27l5.17-20c1.42-5.49,2.86-11,5.43-16.08a57.21,57.21,0,0,1,5.87-9c1.51-2,3.17-4.07,3.13-6.54a23.31,23.31,0,0,0-.61-3.44c-.37-2.24.07-4.54-.1-6.8a12.76,12.76,0,0,0-3.8-8.11,26.62,26.62,0,0,0-.48,7.12,24.63,24.63,0,0,1,.16,4.58,16.88,16.88,0,0,1-2.23,5.79l-10.29,19.27a41.2,41.2,0,0,0-2.82,6,21.64,21.64,0,0,0-1.14,6.87c0,1.34.11,2.69,0,4a20.05,20.05,0,0,1-1.79,7.92s3.9,1.82,3.47,8.3" style="fill:#323d4f"/><path d="M536.64,273.33l-.49-.08c.42-6.24-3.29-8-3.33-8.06l-.22-.1.09-.22a19.71,19.71,0,0,0,1.77-7.83c0-.81,0-1.65,0-2.45,0-.52,0-1,0-1.56a21.82,21.82,0,0,1,1.15-6.95,41.5,41.5,0,0,1,2.83-6.07l10.29-19.27a12.4,12.4,0,0,0,2.13-9.14c0-.37-.07-.74-.09-1.1a26.83,26.83,0,0,1,.48-7.19l.09-.45.33.32a13,13,0,0,1,3.88,8.27,25.8,25.8,0,0,1,0,3,18.82,18.82,0,0,0,.11,3.82c.07.4.16.8.25,1.2a10.75,10.75,0,0,1,.36,2.28c0,2.53-1.66,4.72-3.15,6.64a56.79,56.79,0,0,0-5.88,9c-2.57,5-4,10.63-5.41,16Zm-3.39-8.48c.74.43,3.09,2.15,3.4,6.45l4.68-18.08c1.41-5.42,2.86-11,5.45-16.13a57,57,0,0,1,5.89-9c1.55-2,3.11-4,3.08-6.38a10.18,10.18,0,0,0-.35-2.17c-.1-.41-.19-.82-.26-1.23a19.38,19.38,0,0,1-.11-3.92,25.48,25.48,0,0,0,0-2.9,12.55,12.55,0,0,0-3.4-7.62,26.37,26.37,0,0,0-.38,6.59c0,.36.06.73.09,1.09a12.88,12.88,0,0,1-2.19,9.42l-10.29,19.27a41.15,41.15,0,0,0-2.8,6,21.32,21.32,0,0,0-1.12,6.79c0,.52,0,1,0,1.55,0,.82,0,1.66,0,2.5A20.24,20.24,0,0,1,533.25,264.86Z"/><path d="M491.07,194.4c-2.34,2.32-5.42,4-8.26,5.61-3.82,2.17-7.75,4.15-11.76,5.94-9.33,4.18-19.45,5.18-29.45,7-.16,0-.09.27.07.24,10-1.8,20.16-2.81,29.51-7,4.1-1.83,8.11-3.86,12-6.09a37.83,37.83,0,0,0,8.06-5.5.13.13,0,0,0-.18-.18Z"/><path d="M432.28,204.07c14.84,10.31,17.65,29.24,19.73,45.85,0,.16.27.16.25,0-2.09-16.71-4.94-35.7-19.85-46.07-.13-.09-.26.12-.13.22Z"/><g style="opacity:0.5"><path d="M457.24,261.89c-.91-27.42-6.61-41.18-10.83-49.14l.22-.12c8.82,16.67,10.42,36.09,10.86,49.25Z"/><path d="M469,289.9c-1-11-3.29-22-5.5-32.63l-1.68-8.08c-.59-2.83-1.19-5.75-2-8.58-.61-2.29-1.33-4.6-2-6.82l-.5-1.58c-2-6.39-3.82-12.92-5.42-19.42l.24-.06c1.61,6.49,3.43,13,5.42,19.4l.5,1.58c.7,2.23,1.43,4.54,2,6.83.76,2.84,1.36,5.76,2,8.59v0l1.67,8.05c2.21,10.64,4.5,21.64,5.51,32.66Z"/><path d="M475.91,300.71c-2.29-17.33-5.31-34.78-9-51.88-.54-2.51-1.08-5-1.68-7.68-1.46-6.61-3-13.44-4.6-20.13l-.26-1c-.7-2.87-1.43-5.83-1.91-8.79l.25,0c.48,3,1.21,5.91,1.91,8.77l.26,1c1.63,6.69,3.14,13.52,4.61,20.13.6,2.72,1.14,5.17,1.68,7.68,3.68,17.11,6.7,34.57,9,51.9Z"/><path d="M479.63,291.32c-1.62-12.93-4.61-25.87-7.5-38.38-3.29-14.23-6.69-28.95-8.09-43.72l.25,0c1.4,14.76,4.79,29.46,8.08,43.69,2.89,12.52,5.88,25.46,7.5,38.41Z"/><path d="M484.19,287.59c-2-6.46-3.58-13.16-5.1-19.64-4.67-19.88-9.48-40.41-10.28-61.18h.25c.79,20.75,5.61,41.26,10.27,61.1,1.53,6.5,3.1,13.19,5.1,19.65Z"/><path d="M488.86,278.78a195.81,195.81,0,0,1-13-46.36,202,202,0,0,1-2.27-27.65h.25a201.72,201.72,0,0,0,2.26,27.62,195.5,195.5,0,0,0,13,46.3Z"/><path d="M492.39,271.82c-7.18-11.82-9.67-25.91-11.44-38.19-1.43-9.9-2.56-20-3.37-30l.25,0c.81,10,1.94,20.06,3.37,30,1.76,12.26,4.25,26.32,11.4,38.1Z"/><path d="M493,264.45a189.92,189.92,0,0,1-12.07-63.06h.25a189.68,189.68,0,0,0,12.05,63Z"/><path d="M495,256.62c-6.69-18.27-10.82-40.4-10.79-57.73h.25c0,17.31,4.09,39.4,10.77,57.64Z"/><path d="M497.78,250.58a98.86,98.86,0,0,1-8.07-31.83c0-.36-.05-.71-.08-1.07-.09-1.3-.18-2.64-.38-3.94-.16-1-.38-2.07-.6-3.07-.12-.53-.23-1.06-.34-1.59a47.64,47.64,0,0,1-.89-11h.25a47.31,47.31,0,0,0,.88,10.9c.1.53.22,1.06.33,1.58.22,1,.44,2,.6,3.09.2,1.31.29,2.66.38,4,0,.35,0,.71.08,1.06a98.63,98.63,0,0,0,8,31.75Z"/><path d="M504.92,245.48A57.9,57.9,0,0,1,495.6,225c-.52-2.22-.92-4.51-1.3-6.72-.16-.93-.32-1.86-.49-2.79-.26-1.42-.55-2.87-.83-4.28-1.08-5.42-2.2-11-2-16.64h.25c-.2,5.58.92,11.17,2,16.58.28,1.4.57,2.85.83,4.28.17.93.33,1.86.49,2.79.38,2.21.77,4.49,1.29,6.71a57.63,57.63,0,0,0,9.28,20.36Z"/><path d="M504.91,238.34a80,80,0,0,1-7.49-21.53l.25,0a79.62,79.62,0,0,0,7.47,21.46Z"/><path d="M564.63,416.46c-2.1-9-4.52-18.13-7.17-27l-.49-1.62c-1.8-6-3.67-12.17-4.08-18.49-.09-1.46-.11-2.95-.13-4.38a38.19,38.19,0,0,0-2.6-15.22,48.84,48.84,0,0,1-3-17c-.23-4.54-.48-9.23-2-13.57-.2-.57-.42-1.14-.63-1.69A16.82,16.82,0,0,1,543.39,307a16.64,16.64,0,0,0-1.63-11.38c-.23-.51-.47-1-.69-1.58a33.47,33.47,0,0,1-1.82-19.54l.24.05a33.23,33.23,0,0,0,1.81,19.39c.22.53.46,1.06.68,1.57A16.87,16.87,0,0,1,543.64,307a16.59,16.59,0,0,0,1.15,10.4c.22.55.44,1.13.64,1.7,1.52,4.37,1.76,9.08,2,13.64a48.59,48.59,0,0,0,3,16.91,38.38,38.38,0,0,1,2.62,15.3c0,1.43,0,2.92.13,4.37.41,6.29,2.27,12.47,4.07,18.44l.49,1.62c2.66,8.88,5.07,18,7.18,27Z"/><path d="M555.17,424l-.25,0c1.42-12.32-2.49-24.48-6.27-36.23-3.06-9.52-6.23-19.37-6.64-29.38,0-1.1-.06-2.22-.07-3.3a34.05,34.05,0,0,0-1.84-12.79,29.45,29.45,0,0,1-1.72-11.4c0-1.5,0-3-.15-4.55a44.34,44.34,0,0,0-1-5.48c-.35-1.55-.71-3.11-1.07-4.67-2.89-12.48-5.88-25.38-2.77-37.77l.24.06c-3.09,12.33-.11,25.2,2.78,37.65.36,1.56.72,3.12,1.07,4.67a44.46,44.46,0,0,1,1,5.51c.15,1.52.15,3.07.15,4.57a29.25,29.25,0,0,0,1.71,11.33,34.27,34.27,0,0,1,1.85,12.86c0,1.08,0,2.2.07,3.29.4,10,3.57,19.81,6.62,29.31C552.68,399.48,556.6,411.66,555.17,424Z"/><path d="M536.6,359.71c-4.87-10.64-6.09-22.54-7.27-34-.91-8.89-1.85-18.08-4.46-26.68-.19-.64-.4-1.28-.6-1.92-.4-1.26-.82-2.56-1.15-3.86a35,35,0,0,1-.45-15.31l.25,0a34.79,34.79,0,0,0,.44,15.2c.33,1.29.74,2.59,1.14,3.84.2.64.41,1.28.6,1.92,2.62,8.63,3.56,17.83,4.47,26.73,1.17,11.49,2.39,23.36,7.25,34Z"/><path d="M532.39,364.08c-6.1-12.87-7.8-27.37-9.44-41.4-.33-2.79-.66-5.67-1-8.48-1.75-13.44-4.4-27-7-40l.25,0c2.56,13.08,5.21,26.61,7,40.06.37,2.82.7,5.7,1,8.49,1.64,14,3.34,28.49,9.42,41.32Z"/><path d="M528.46,367c-8.25-18.07-10.75-38-13.16-57.32l-3.21-25.66.25,0,3.21,25.66c2.41,19.28,4.9,39.21,13.14,57.25Z"/><path d="M517.13,374.09c-1.48-6.33-1.63-13-1.77-19.36-.07-3.2-.15-6.51-.39-9.74-.46-6.17-1.54-12.38-2.58-18.38-.47-2.69-1-5.47-1.38-8.22-1.22-7.92-2-16-2.75-23.85l.25,0c.75,7.83,1.53,15.92,2.75,23.83.42,2.74.91,5.52,1.37,8.21,1,6,2.13,12.22,2.59,18.4.24,3.24.32,6.55.39,9.76.15,6.39.3,13,1.77,19.31Z"/><path d="M509.12,371.56h-.25a554.32,554.32,0,0,0-3.46-68.64l.25,0A554.63,554.63,0,0,1,509.12,371.56Z"/><path d="M505.68,372.87c-2.89-7.94-2.72-16.6-2.55-25,.08-3.77.16-7.68,0-11.47A151.66,151.66,0,0,0,500.57,318l.25,0a152.07,152.07,0,0,1,2.52,18.49c.2,3.8.12,7.71,0,11.49-.17,8.35-.34,17,2.53,24.88Z"/><path d="M502.08,376.91c-7.09-15.3-7-32.81-6.38-48H496c-.63,15.19-.72,32.67,6.35,47.92Z"/><path d="M539.18,283.23h-.25c.18-5,.39-10.75,3.14-15.45.3-.52.64-1,1-1.53s.78-1.18,1.12-1.79c2-3.53,2.24-7.78,2.49-11.53l.69-10.3.25,0-.69,10.3c-.25,3.78-.54,8.06-2.52,11.64-.35.62-.75,1.23-1.13,1.81s-.66,1-1,1.52C539.57,272.54,539.36,278.22,539.18,283.23Z"/><path d="M558.42,361.39l-.24-.06c1.88-8.2,1-16.93,0-24.38-.77-5.38-1.75-10.8-2.7-16l-5.06-28c-.66-3.65-1.35-7.43-2-11.15a46.3,46.3,0,0,1-.86-11.71,49.81,49.81,0,0,1,1.32-7c.25-1.06.51-2.16.74-3.24,1.42-6.9,1.44-14.05,1.47-21h.25c0,6.93-.05,14.1-1.47,21-.22,1.09-.49,2.18-.74,3.25a49.64,49.64,0,0,0-1.31,7,46.19,46.19,0,0,0,.85,11.64c.61,3.72,1.3,7.5,2,11.15l5.06,28c1,5.25,1.93,10.67,2.7,16.06C559.47,344.39,560.3,353.14,558.42,361.39Z"/><path d="M570.51,366.16a418.23,418.23,0,0,1-11.09-49.92,67.66,67.66,0,0,1-1.11-11.52c0-1.17.09-2.37.16-3.52a36.23,36.23,0,0,0,0-7.13,36.92,36.92,0,0,0-3.31-9.77c-1.66-3.72-3.38-7.58-3.45-11.69a30.65,30.65,0,0,1,1-7l.17-.76a135.73,135.73,0,0,0,2.89-36.71H556a136,136,0,0,1-2.89,36.78l-.17.76a30.44,30.44,0,0,0-1,7c.07,4.07,1.77,7.89,3.43,11.59a37.13,37.13,0,0,1,3.33,9.83,36.52,36.52,0,0,1,0,7.18c-.07,1.15-.14,2.34-.16,3.51a67.54,67.54,0,0,0,1.1,11.48,418.12,418.12,0,0,0,11.09,49.9Z"/><path d="M575.71,367.15l-9-40.09a88.75,88.75,0,0,1-2-10.91c-.2-2.08-.26-4.2-.31-6.25,0-1.08-.06-2.19-.11-3.28a84.1,84.1,0,0,0-3.51-20.53c-.28-.93-.59-1.88-.88-2.8-1.21-3.76-2.45-7.64-2.56-11.63a42,42,0,0,1,1.1-9.09c.34-1.75.7-3.57.91-5.37a64.56,64.56,0,0,0,.08-10.93c-.26-4.67-.61-9.38-1-14l.25,0c.44,4.63.79,9.35,1,14a64.67,64.67,0,0,1-.08,11c-.21,1.81-.57,3.63-.91,5.39a41.84,41.84,0,0,0-1.09,9c.1,4,1.34,7.82,2.54,11.56.29.92.6,1.87.88,2.81a84.4,84.4,0,0,1,3.52,20.59c0,1.1.08,2.21.11,3.29.05,2,.11,4.16.31,6.23a88.76,88.76,0,0,0,2,10.88l9,40.09Z"/><path d="M584.81,359.37C576.19,342.94,573,324.22,570,306.12c-1.29-7.68-2.63-15.62-4.37-23.29l-.41-1.78a74.3,74.3,0,0,1-1.86-10.18,74.21,74.21,0,0,1,0-9.44c.05-1.27.11-2.57.13-3.86.23-11.85-1.92-23.74-4-35.24-1.46-8.08-3-16.44-3.65-24.74l.25,0c.68,8.29,2.19,16.64,3.65,24.72,2.08,11.51,4.23,23.41,4,35.29,0,1.29-.08,2.6-.13,3.87a73.88,73.88,0,0,0,0,9.4A73.89,73.89,0,0,0,565.46,281l.41,1.78c1.74,7.67,3.08,15.62,4.37,23.3,3,18.08,6.19,36.78,14.79,53.17Z"/><path d="M589.24,351.69c-8.84-13.15-14.38-29.9-16.48-49.8-.25-2.42-.46-4.88-.66-7.26-.29-3.48-.59-7.08-1-10.59-.28-2.15-.62-4.33-1-6.43-.31-1.92-.62-3.91-.89-5.87-1.41-10.43-1.52-21.24-1.63-31.69-.19-17.49-.38-35.58-6.69-52.07l.23-.09c6.33,16.53,6.52,34.64,6.71,52.16.11,10.44.23,21.24,1.63,31.66.26,2,.58,3.95.88,5.87.33,2.11.68,4.29,1,6.44.46,3.52.76,7.12,1,10.61.2,2.38.4,4.84.66,7.25,2.09,19.85,7.62,36.57,16.43,49.69Z"/><path d="M592.64,354.5c-11.39-24.27-13.75-51.27-16-77.38L575.21,261c-.5-5.8-1-11.8-1.1-17.72,0-2.49,0-5,.06-7.45,0-2.6.1-5.29.05-7.93-.23-13.47-2.92-26.53-5.24-36.39l.24-.06c2.32,9.88,5,22.95,5.24,36.45,0,2.65,0,5.34-.05,7.94,0,2.44-.09,5-.06,7.44.08,5.91.6,11.91,1.1,17.7v.05l1.4,16c2.27,26.09,4.63,53.07,16,77.3Z"/><path d="M597.67,351.07c-2.87-4.47-4.66-9.45-6.45-15.55a229.47,229.47,0,0,1-8.8-49.88c-.46-7.27-.58-14.68-.7-21.84l0-1.6c-.42-25.59-1.35-48.54-8.56-70.3l.24-.08c7.22,21.8,8.16,44.77,8.58,70.38l0,1.6c.12,7.16.24,14.57.7,21.83a229.16,229.16,0,0,0,8.79,49.83c1.78,6.08,3.56,11,6.42,15.48Z"/><path d="M601,344.08c-8.77-18.46-11-39-12-54.83-.42-6.67-.66-13.47-.88-20-.41-11.92-.84-24.25-2.38-36.27-1.78-13.9-5.09-27.76-8.29-41.17l.24-.06c3.2,13.42,6.51,27.29,8.29,41.2,1.54,12,2,24.37,2.38,36.29.23,6.57.46,13.37.88,20,1,15.81,3.26,36.32,12,54.74Z"/><path d="M610.1,361.6c-3.52-6.29-5.44-13.33-7.3-20.14l-5.53-20.27a127.7,127.7,0,0,1-4-18,128,128,0,0,1-.69-12.83q0-1.46-.06-2.92c-.18-6.94-.62-14-1.05-20.8l-2.14-33.83a152,152,0,0,0-2.08-19.46c-1.38-7.06-3.71-13.79-6.4-21.23l.23-.08c2.69,7.45,5,14.18,6.41,21.26a152.32,152.32,0,0,1,2.08,19.49l2.14,33.83c.43,6.82.88,13.86,1.05,20.81q0,1.46.06,2.92a127.77,127.77,0,0,0,.69,12.8,127.61,127.61,0,0,0,4,18L603,341.39c1.86,6.79,3.77,13.82,7.28,20.09Z"/><path d="M611.12,358.76a281.53,281.53,0,0,1-14.26-71.17c-.57-8.36-.79-17-1-25.26-.57-23-1.17-46.71-9.41-68.34l.23-.09c8.26,21.67,8.85,45.44,9.43,68.42.21,8.3.42,16.89,1,25.25a281.21,281.21,0,0,0,14.25,71.1Z"/><path d="M610.29,335.72a97.2,97.2,0,0,1-8.94-39c0-1.07,0-2.17,0-3.22a74.74,74.74,0,0,0-.31-8.29c-.22-1.95-.6-3.91-1-5.8-.29-1.5-.59-3.05-.81-4.6-1-6.91-.42-14,.13-20.86.23-2.88.47-5.85.59-8.77a118.78,118.78,0,0,0-.48-16.37,125.35,125.35,0,0,0-8-33.38l.23-.09a125.59,125.59,0,0,1,8,33.45,119,119,0,0,1,.49,16.41c-.12,2.93-.36,5.9-.59,8.78-.55,6.85-1.11,13.92-.13,20.81.22,1.54.52,3.08.81,4.58.37,1.9.75,3.86,1,5.82a74.82,74.82,0,0,1,.31,8.32c0,1.06,0,2.15,0,3.22a97,97,0,0,0,8.92,38.88Z"/><path d="M603.83,276.44c-3.12-10.23-2-21.13-.93-31.67.79-7.74,1.61-15.74.77-23.49-.92-8.52-3.82-16.73-6.62-24.66l.24-.08c2.81,7.95,5.71,16.17,6.63,24.72.84,7.78,0,15.79-.77,23.55-1.07,10.52-2.18,21.39.92,31.57Z"/></g><path d="M602.44,346.56a.5.5,0,0,0,0-1,.5.5,0,0,0,0,1Z"/><path d="M602.5,347.48l.5,1c.29.58,1.15.07.86-.5l-.5-1c-.29-.58-1.15-.07-.86.5Z"/><path d="M469.22,293c1,1.71,2.37,3.18,3.54,4.79a10.27,10.27,0,0,1,2.23,5.43c.1,2.4-1.13,4.64-2.31,6.73a77.56,77.56,0,0,1-5.65,9,77.56,77.56,0,0,1-7.25,7.85,52.78,52.78,0,0,1-3.91,3.61,4.85,4.85,0,0,1-1.93,1.08c-1.35.29-2.67-.47-3.84-1.21-1.83-1.16-3.74-2.39-4.81-4.27a10.57,10.57,0,0,1-1.14-4.48,21.29,21.29,0,0,1,.75-7.62,33.5,33.5,0,0,1,4.39-8.5,42,42,0,0,1,6.76-8.5,22.81,22.81,0,0,1,7.65-4.54A3.86,3.86,0,0,1,465,292a4.21,4.21,0,0,1,1,.2l2.6.73" style="fill:#62647a"/><path d="M469,293.12c2.29,3.63,6.41,6.88,5.59,11.63-.67,3.87-3.63,7.9-5.75,11.14a59.28,59.28,0,0,1-8,9.43c-1.26,1.25-2.5,2.53-3.83,3.71-1.85,1.65-3.64,2.73-6.1,1.42a20.53,20.53,0,0,1-1.94-1.22c-8.06-5.55-4.31-16.25,0-23a43.52,43.52,0,0,1,7.19-9.18,22.68,22.68,0,0,1,5.35-3.57,10.37,10.37,0,0,1,3.48-1.19,13.89,13.89,0,0,1,3.57.92.25.25,0,0,0,.13-.48c-1.38-.39-2.92-1.1-4.39-.86a14.39,14.39,0,0,0-4.13,1.73,25.49,25.49,0,0,0-7.79,6.83c-4.68,6-9,12.76-8.56,20.63.18,3.17,1.1,5.71,3.63,7.72,1.89,1.5,4.68,3.72,7.21,2.65a14.23,14.23,0,0,0,3.64-2.95q2.42-2.3,4.74-4.71a53.59,53.59,0,0,0,7.12-9.12c2-3.2,5-7.11,5-11,.06-4.3-3.69-7.39-5.8-10.74-.17-.27-.6,0-.43.25Z"/><g id="arm"><path d="M638.19,408.64c-.12-.35-.22-.69-.34-1q-.48-.41-.94-.86C632,402,639.48,415.33,638.19,408.64Zm21.44-4c-1.16-15.37-.76-24.72-1.1-40.14-.34-15.24-6.21-30.21-6.59-34.49-.66-7.3-2.05-12.56-3.69-19.7-2.6-11.31-6.19-16-8.79-27.28-2.47-10.76-2.59-14.39-8-24-2.1-3.76-4.62-7.28-6.79-11l.17.3a8.33,8.33,0,0,1-.76,1c-5.83,7-12.09,13.86-15.95,22.12a61.07,61.07,0,0,0-4.57,15.43c2.19,1.52,5.33,2.79,7.06,4.53,2,2,3.18,4.64,4.33,7.21,3.45,7.75,6.94,15.64,7.93,24.06.56,4.8.29,9.67.82,14.48s2.91,17,3.79,21.65c3.32,17.64,4.78,31.9,10.34,48.8,4.87,4.17,11.78,6.22,17.81,4.14a6.21,6.21,0,0,0,3.17-2.09C659.82,408.23,659.76,406.36,659.63,404.64Z" style="fill:#62647a"/><path d="M650.69,412.8a20.24,20.24,0,0,1-12.34-4.46l.08.22v0c.27,1.38.2,2-.23,2.19-.79.3-2-1.88-2.4-2.55-.56-1-1.12-2.33-.64-2.69s.9,0,1.92,1l.24.23c-3.92-12.16-5.77-23.13-7.74-34.74-.72-4.24-1.46-8.62-2.32-13.21l-.38-2c-1-5.42-2.95-15.52-3.4-19.64-.26-2.37-.33-4.79-.4-7.13s-.14-4.91-.42-7.34c-1-8.46-4.51-16.35-7.91-24-1.07-2.41-2.29-5.15-4.28-7.14a19.65,19.65,0,0,0-4.19-2.8c-1-.54-2-1.11-2.84-1.7l-.13-.09,0-.16a60.48,60.48,0,0,1,4.59-15.49c3.35-7.17,8.56-13.35,13.59-19.32l2.39-2.85a9.22,9.22,0,0,0,.66-.86l-.1-.17.43-.25h0c1,1.67,2,3.33,3.07,4.93,1.26,2,2.56,4,3.72,6.07,4.5,8,5.36,12,6.92,19.18.32,1.47.67,3.09,1.09,4.9a91.86,91.86,0,0,0,4.39,13.61,91.91,91.91,0,0,1,4.41,13.68l.66,2.83a114.36,114.36,0,0,1,3,16.91,52.15,52.15,0,0,0,1.62,6.76c1.89,6.86,4.74,17.23,5,27.74.11,4.87.14,9.09.17,13.17.07,8.82.13,16.44.93,27h0c.14,1.81.19,3.7-.84,5.17a6.36,6.36,0,0,1-3.29,2.18A15.48,15.48,0,0,1,650.69,412.8Zm-12.62-5.34c5.13,4.36,12,6,17.52,4a5.89,5.89,0,0,0,3-2c.93-1.33.88-3.12.75-4.85h0c-.8-10.53-.86-18.15-.93-27,0-4.08-.07-8.3-.17-13.16-.23-10.45-3.07-20.78-5-27.62a52.22,52.22,0,0,1-1.63-6.85,112.38,112.38,0,0,0-3-16.84c-.21-.92-.43-1.86-.66-2.83a91.71,91.71,0,0,0-4.39-13.61,92,92,0,0,1-4.41-13.68c-.42-1.82-.77-3.43-1.09-4.91-1.55-7.14-2.41-11.07-6.86-19-1.15-2.06-2.45-4.09-3.71-6-.9-1.4-1.83-2.85-2.7-4.31-.17.24-.37.47-.56.71l-2.39,2.85c-5,6-10.2,12.11-13.52,19.21a59.8,59.8,0,0,0-4.52,15.21c.8.55,1.75,1.08,2.67,1.59a20,20,0,0,1,4.3,2.88c2.05,2.06,3.29,4.84,4.38,7.29,3.42,7.67,7,15.6,7.95,24.14.29,2.45.36,5,.43,7.38s.13,4.74.4,7.09c.45,4.09,2.37,14.18,3.4,19.6l.38,2c.87,4.6,1.61,9,2.33,13.22C632.08,383.82,634,395,638.06,407.46Zm-2.59-1.5a7.66,7.66,0,0,0,1.36,3c.72,1.09,1.13,1.33,1.21,1.33h0s.17-.21-.1-1.6l-.18-.57-.13-.39c-.31-.26-.61-.54-.9-.82A3.75,3.75,0,0,0,635.47,406Z"/></g></g><g id="Hand"><g id="Phone"><path d="M496.27,130.77c1.73-.82,16.29-8.88,19.06-10.55s6.39-3.33,10.33,3.17,30.94,53,31.94,54.5,4,5.67-.83,8.67-25,15.17-25,15.17-32-54.83-35.5-61.5C492.94,134.39,493.73,132,496.27,130.77Z" style="fill:#777882"/><path d="M531.68,202.07l-.13-.22c-.32-.55-32-54.91-35.51-61.51-1.92-3.36-2.59-5.81-2.07-7.5a3.79,3.79,0,0,1,2.18-2.29c1.71-.82,16.31-8.89,19-10.54,2.23-1.34,6.38-3.83,10.67,3.25,2.05,3.39,10.52,17.9,18,30.7,6.92,11.87,13.47,23.07,13.94,23.79l.09.14c.71,1.05,2.18,3.25,1.69,5.5a5.43,5.43,0,0,1-2.7,3.39c-4.78,3-24.8,15-25,15.17ZM519.55,119a8.19,8.19,0,0,0-4.09,1.45c-2.74,1.65-17.37,9.74-19.08,10.56h0a3.33,3.33,0,0,0-1.92,2c-.49,1.55.18,3.88,2,7.11,3.35,6.38,33.15,57.48,35.37,61.28,2.2-1.33,20.27-12.24,24.78-15a5,5,0,0,0,2.47-3.07c.44-2-1-4.11-1.62-5.11l-.09-.14c-.48-.72-6.73-11.42-14-23.81-7.47-12.8-15.94-27.31-18-30.7S521.39,119,519.55,119Z"/></g><path d="M506.06,134.89c1-.71,6.38-4.25,7.75-5s2.25-1.87,3.63,0,2.63,4.13,3.38,5-.25,2.38-.75,2.63-7.12,4.88-7.87,5.38-3.37,2.47-4.7.14c-1.71-3-2.73-4-3.18-5C503.4,136,504.63,135.88,506.06,134.89Z" style="fill:#777882"/><path d="M509.25,144.39a2.25,2.25,0,0,1-.51-.06,2.28,2.28,0,0,1-1.47-1.18,41,41,0,0,0-2.25-3.54,10.36,10.36,0,0,1-.94-1.49c-.83-1.81.06-2.35,1.09-3,.23-.14.48-.29.74-.47,1.09-.75,6.42-4.27,7.77-5,.23-.13.45-.26.66-.4,1-.66,2-1.27,3.29.47.68.93,1.33,1.94,1.9,2.84a22.79,22.79,0,0,0,1.46,2.14,1.49,1.49,0,0,1,.29,1.31,2.74,2.74,0,0,1-1.12,1.7c-.33.17-3.78,2.55-5.84,4l-2,1.38-.13.09A5.82,5.82,0,0,1,509.25,144.39Zm6.69-15.28a2.75,2.75,0,0,0-1.33.58c-.22.14-.44.28-.69.41-1.34.73-6.65,4.24-7.73,5h0c-.27.18-.53.34-.77.48-1.06.64-1.54.93-.9,2.33a9.94,9.94,0,0,0,.89,1.42,41.81,41.81,0,0,1,2.27,3.58,1.77,1.77,0,0,0,1.14.94c1.1.25,2.47-.67,3.06-1.07l.14-.09,2-1.38c2.92-2,5.57-3.85,5.9-4a2.33,2.33,0,0,0,.85-1.35,1,1,0,0,0-.18-.89,23.07,23.07,0,0,1-1.5-2.2c-.57-.89-1.21-1.9-1.88-2.81C516.74,129.37,516.34,129.12,515.94,129.12Z"/><path d="M515.33,167.76a9.58,9.58,0,0,1-3.15-1.59c-1.11-.85-2-1.95-3.22-2.7a3.81,3.81,0,0,0-4-.37,3.38,3.38,0,0,0-1.35,3.17,8.39,8.39,0,0,0,1.27,3.37,35.16,35.16,0,0,0,2.52,3.8,10.11,10.11,0,0,1,1,1.44c.81,1.56.62,3.43.42,5.17l.64.86Z" style="fill:#62647a"/><path d="M509.54,181.38l-1-1.28V180c.18-1.55.41-3.48-.39-5a8.57,8.57,0,0,0-.84-1.24l-.12-.16a35.59,35.59,0,0,1-2.54-3.82,8.65,8.65,0,0,1-1.3-3.47,3.62,3.62,0,0,1,1.47-3.4,4.05,4.05,0,0,1,4.23.37,14,14,0,0,1,1.92,1.57c.42.39.86.79,1.32,1.15a9.24,9.24,0,0,0,3.07,1.55l.28.08ZM509.1,180l.33.44L515,167.92a9.75,9.75,0,0,1-3-1.55c-.48-.37-.92-.78-1.35-1.18a13.62,13.62,0,0,0-1.84-1.52,3.61,3.61,0,0,0-3.7-.37,3.11,3.11,0,0,0-1.24,2.93,8.21,8.21,0,0,0,1.24,3.26,35,35,0,0,0,2.51,3.77l.12.16a9,9,0,0,1,.89,1.32C509.5,176.39,509.29,178.36,509.1,180Z"/><path d="M444.75,339.48c2.42-11.77,12.12-20.38,19.84-29.59,9.77-11.66,16.86-25.3,23.29-39.09q8.75-18.76,16-38.16l1.78-6.27a38.5,38.5,0,0,0,.82-16c-.73-4.57-2.29-9.11-1.82-13.71.45-4.4,2.72-8.42,3.53-12.76.37-2,.43-4,1-6s1.49-3.5,2.07-5.32a26.67,26.67,0,0,0,.94-5.61,256.39,256.39,0,0,0,1.62-28c0-3,.19-6.61,2.86-7.9,2.43-1.17,5.45.64,6.59,3.09s.93,5.28.77,8a159.5,159.5,0,0,0,.51,25.56l.93,2.06c2.16.42,4-1.45,5.42-3.14l6.09-7.35a4.32,4.32,0,0,1,4.77-1.87l3.66.26c2.18.16,4.49.35,6.28,1.61a8.25,8.25,0,0,1,3.08,4.94,24.52,24.52,0,0,1,.42,5.92,15.28,15.28,0,0,1,0,2.31,5.25,5.25,0,0,1-.36,1.22c-.5,2.2-3.18,3.39-5.08,4.6-3.23,2.05-6.59,4.13-8.79,7.27-.1.14-.2.34-.09.48a1.35,1.35,0,0,0,.08.28,53.89,53.89,0,0,0,8.83-1.92,10,10,0,0,1,3.17-.64,3,3,0,0,1,2.69,1.52,4.23,4.23,0,0,1,.16,2.33,56.44,56.44,0,0,1-2.39,10.54,14.54,14.54,0,0,1-1.69,3.74c-.79,1.15-1.85,2.08-2.63,3.24s-.23,3.06-.83,4.26c-1.85,3.73-4.19,6.6-6.67,9.93-2.88,7-14.43,16.54-19,26,0,0-4.2,37.88-22.24,95.88-7.66,22.93-14,25.33-18.37,30.33a31.32,31.32,0,0,0-6.5,11,11.64,11.64,0,0,1-10.17,6.83c-5.5,0-19.5-10.67-27.17-33s-13.5-46.33-12.83-61.67-2.5-34.83-5-41.17,19.67,1.67,19.67,1.67l15.67,3.83,16,37.33" style="fill:#62647a"/><path d="M465.27,389.64c-5.75,0-19.82-11.08-27.4-33.17-8.76-25.52-13.44-48-12.85-61.76.67-15.4-2.56-34.91-5-41.06a1.78,1.78,0,0,1,.19-2c2.68-2.76,19.09,3.11,19.79,3.36l15.76,3.86,0,.11,16,37.33-.46.2-16-37.22-15.55-3.8c-4.69-1.69-17.25-5.6-19.29-3.49-.32.33-.35.82-.08,1.49,2.44,6.19,5.69,25.8,5,41.27-.59,13.67,4.08,36.11,12.82,61.58,7.5,21.86,21.31,32.83,26.93,32.83a11.36,11.36,0,0,0,9.93-6.67,31.55,31.55,0,0,1,6.55-11.08c.83-1,1.75-1.83,2.71-2.75,4.2-4,9.43-9,15.61-27.5,17.82-57.3,22.18-95.45,22.23-95.83l0-.08c2.37-4.89,6.5-9.68,10.5-14.32,3.67-4.26,7.13-8.28,8.51-11.66l0-.05,1.14-1.52a52.64,52.64,0,0,0,5.5-8.37,5,5,0,0,0,.32-1.92,4.68,4.68,0,0,1,.52-2.37,16.13,16.13,0,0,1,1.36-1.69,16.65,16.65,0,0,0,1.27-1.55,14.12,14.12,0,0,0,1.66-3.67,56.42,56.42,0,0,0,2.38-10.5,4,4,0,0,0-.14-2.19,2.79,2.79,0,0,0-2.47-1.38,8.82,8.82,0,0,0-2.87.56l-.22.07A54.24,54.24,0,0,1,541,186.6c-.23,0-.29-.18-.35-.43a.65.65,0,0,1,.12-.72c2.15-3.07,5.39-5.13,8.53-7.12l.33-.21,1-.63c1.66-1,3.54-2.1,3.93-3.82a1.77,1.77,0,0,1,.15-.43,2.2,2.2,0,0,0,.21-.77A7.81,7.81,0,0,0,555,171c0-.25,0-.5,0-.8a24.38,24.38,0,0,0-.41-5.86,8,8,0,0,0-3-4.79c-1.79-1.25-4.21-1.42-6.16-1.56l-3.66-.26a5.68,5.68,0,0,0-3,.33,5.54,5.54,0,0,0-1.55,1.45l-6.09,7.35c-1.44,1.74-3.38,3.67-5.66,3.23l-.13,0-1-2.25a160.1,160.1,0,0,1-.51-25.6V142c.16-2.61.32-5.31-.76-7.64a6,6,0,0,0-3.31-3.05,3.75,3.75,0,0,0-3,.08c-2.48,1.2-2.77,4.55-2.72,7.67a257.79,257.79,0,0,1-1.62,28,20.24,20.24,0,0,1-1.95,8.19,17.59,17.59,0,0,0-1.72,6.42c-.09.75-.19,1.53-.33,2.29a39.7,39.7,0,0,1-1.68,5.73,31.42,31.42,0,0,0-1.85,7c-.33,3.23.37,6.5,1,9.66.28,1.31.57,2.66.78,4a38.89,38.89,0,0,1-.83,16.08l-1.78,6.27c-4.84,12.89-10.24,25.74-16,38.2C481.94,284.13,474.85,298,464.78,310c-1.55,1.85-3.2,3.7-4.8,5.49-6.42,7.2-13.06,14.64-15,24l-.49-.1c2-9.48,8.63-17,15.1-24.22,1.6-1.79,3.25-3.64,4.79-5.48,10-12,17.11-25.84,23.26-39,5.8-12.45,11.2-25.28,16-38.14l1.77-6.25a38.39,38.39,0,0,0,.81-15.86c-.21-1.32-.5-2.67-.78-4-.68-3.2-1.39-6.5-1.05-9.81a31.75,31.75,0,0,1,1.88-7.13,39.3,39.3,0,0,0,1.66-5.66c.14-.74.24-1.51.33-2.26a18.06,18.06,0,0,1,1.76-6.56,19.77,19.77,0,0,0,1.91-8,257.26,257.26,0,0,0,1.62-28c0-3.28.27-6.81,3-8.13a4.25,4.25,0,0,1,3.33-.1,6.54,6.54,0,0,1,3.59,3.31c1.13,2.44,1,5.21.8,7.88v.22a159.4,159.4,0,0,0,.5,25.48l.86,1.9c2,.29,3.73-1.48,5.05-3.08l6.09-7.35a4.55,4.55,0,0,1,5-2l3.66.26c2,.14,4.5.32,6.41,1.65a8.47,8.47,0,0,1,3.18,5.09,24.79,24.79,0,0,1,.43,6c0,.29,0,.54,0,.78a8.19,8.19,0,0,1-.06,1.56,2.6,2.6,0,0,1-.25.92,1.24,1.24,0,0,0-.11.32c-.44,1.93-2.42,3.1-4.17,4.14l-1,.62-.33.21c-3.1,2-6.3,4-8.39,7-.1.14-.09.19-.09.19l0,.09v.06a53.75,53.75,0,0,0,8.58-1.88l.22-.07a9.5,9.5,0,0,1,3-.58,3.25,3.25,0,0,1,2.91,1.67,4.44,4.44,0,0,1,.18,2.47,56.84,56.84,0,0,1-2.4,10.59,14.57,14.57,0,0,1-1.72,3.8,17,17,0,0,1-1.3,1.6,15.62,15.62,0,0,0-1.32,1.63,4.35,4.35,0,0,0-.43,2.12,5.47,5.47,0,0,1-.38,2.11A53,53,0,0,1,542.9,218l-1.12,1.49c-1.43,3.46-4.9,7.5-8.59,11.77-4,4.6-8.06,9.36-10.41,14.17-.17,1.5-4.68,39.39-22.24,95.88C494.33,359.92,489,365,484.8,369c-1,.91-1.86,1.78-2.68,2.72a31.09,31.09,0,0,0-6.45,10.92A11.9,11.9,0,0,1,465.27,389.64Z"/><path d="M534.46,176.59l-.34-.37a55.71,55.71,0,0,0,6.58-6.93,12.26,12.26,0,0,1,4.46-3.09l.22-.11c1.46-.72,3.68-.36,5.64,0,1.55.25,3,.48,3.56.08a.55.55,0,0,0,.23-.39l.49.08a1.05,1.05,0,0,1-.43.71c-.73.53-2.21.28-3.94,0-1.89-.3-4-.65-5.33,0l-.22.11a11.9,11.9,0,0,0-4.29,2.94A56.26,56.26,0,0,1,534.46,176.59Z"/><path d="M534.84,177.64l-.24-.44a31.27,31.27,0,0,0,5.8-4.16l.81-.75a21.09,21.09,0,0,1,2.6-2.19,10.61,10.61,0,0,1,5.31-1.78c.26,0,.59-.05,1-.09,1.27-.14,2.85-.32,3.67.11a3.18,3.18,0,0,1,1.74,2.61l-.5.06a2.68,2.68,0,0,0-1.48-2.23c-.68-.35-2.24-.18-3.38-.05l-1,.09a10.1,10.1,0,0,0-5.06,1.7,20.71,20.71,0,0,0-2.54,2.14l-.82.76A31.86,31.86,0,0,1,534.84,177.64Z"/><path d="M522.72,194.53l-.24-.08,3.08-8.75a14.48,14.48,0,0,1,1.26-2.89,14.3,14.3,0,0,1,2.37-2.67l.17.18a10.53,10.53,0,0,0-3.56,5.46Z"/><path d="M525.7,205.09l-.23-.1L532,190.41c1.22-2.74,2.51-5.29,4.93-6.49l.11.22c-2.34,1.16-3.61,3.67-4.81,6.37Z"/><rect x="515.81" y="208.2" width="6.82" height="0.25" transform="translate(202.44 669.45) rotate(-77.37)"/><path d="M514.72,155.47l-.11-.22a2.58,2.58,0,0,1,1.72-.21l-.05.24A2.36,2.36,0,0,0,514.72,155.47Z"/><polygon points="514.2 156.97 514.15 156.72 516.66 156.25 516.71 156.5 514.2 156.97"/><rect x="514.69" y="158.14" width="0.88" height="0.25"/><path d="M541.51,162.62a4.79,4.79,0,0,1-2.2-2.09c-.17-.32-.35-.66-.64-.68l0-.25c.42,0,.65.46.82.79a4.56,4.56,0,0,0,2.1,2Z"/><path d="M542.54,161.36a16.27,16.27,0,0,0-1.73-2.22L541,159a16.4,16.4,0,0,1,1.76,2.25Z"/><path d="M515.3,134.33c0,1.19.26,2.71,1.32,3.16a4,4,0,0,0,1.19.25,4.37,4.37,0,0,0,1.75-.09,3.16,3.16,0,0,0,1.88-2,9.36,9.36,0,0,0,.39-2.82,1.66,1.66,0,0,0-.15-.94,1.52,1.52,0,0,0-.66-.51,9.15,9.15,0,0,0-2.16-.73,2.78,2.78,0,0,0-2.83.66A4.72,4.72,0,0,0,515.3,134.33Z" style="fill:#e8e8e8"/><path d="M518.6,137.91c-.27,0-.54,0-.8,0a4.11,4.11,0,0,1-1.23-.25c-1.28-.54-1.4-2.47-1.4-3.28a4.81,4.81,0,0,1,.76-3.12c.77-1,2.32-.83,3-.7a9.27,9.27,0,0,1,2.19.74,1.65,1.65,0,0,1,.72.56,1.77,1.77,0,0,1,.17,1,9.44,9.44,0,0,1-.4,2.85,3.29,3.29,0,0,1-2,2.1A3.25,3.25,0,0,1,518.6,137.91Zm-.71-7.26a2.11,2.11,0,0,0-1.75.71,4.6,4.6,0,0,0-.71,3c0,.75.1,2.56,1.25,3a3.93,3.93,0,0,0,1.16.24,4.32,4.32,0,0,0,1.7-.08,3,3,0,0,0,1.8-1.94,9.23,9.23,0,0,0,.38-2.78,1.54,1.54,0,0,0-.13-.87,1.42,1.42,0,0,0-.61-.46,9,9,0,0,0-2.13-.72A4.89,4.89,0,0,0,517.88,130.65Z"/><path d="M508,164.17a11.26,11.26,0,0,1,1.64,4.21c.13,1.05-.17,2.35-1.17,2.68a2.25,2.25,0,0,1-2.17-.78,5.22,5.22,0,0,1-1.3-5,2.86,2.86,0,0,1,1-1.6,1.54,1.54,0,0,1,1.78-.08Z" style="fill:#e8e8e8"/><path d="M508,171.26a2.65,2.65,0,0,1-1.81-.89,5.32,5.32,0,0,1-1.33-5.07,2.94,2.94,0,0,1,1-1.66,1.66,1.66,0,0,1,1.93-.07l0,0,.23.51a11.5,11.5,0,0,1,1.66,4.25c.14,1.11-.2,2.47-1.26,2.82A1.59,1.59,0,0,1,508,171.26Zm-1-7.73a1.61,1.61,0,0,0-.92.3,2.7,2.7,0,0,0-.94,1.53,5.07,5.07,0,0,0,1.27,4.83,2.22,2.22,0,0,0,2,.75c.93-.3,1.21-1.53,1.09-2.55a11.26,11.26,0,0,0-1.63-4.16h0l-.22-.48A1.17,1.17,0,0,0,507,163.53Z"/><g style="opacity:0.23"><path d="M555.22,170.19v0l-.14,0a2.83,2.83,0,0,0-1.45-1.69c-1-.51-3.4-.05-4.5,0a10.41,10.41,0,0,0-5.19,1.74,31.05,31.05,0,0,0-3.38,2.92,31.12,31.12,0,0,1-4.9,3.64c-.27-.27-.51-.69-.8-1a50.39,50.39,0,0,0,6.05-6.42c1.08-1.43,3-2.33,4.59-3.12,2.89-1.44,9.22,1.65,9.56-.54A33.93,33.93,0,0,1,555.22,170.19Z"/></g><g style="opacity:0.23"><path d="M552.35,200.79a8.53,8.53,0,0,1-.66,1.13c-.79,1.15-1.85,2.08-2.63,3.24s-.23,3.06-.82,4.25c-1.85,3.73-4.19,6.6-6.67,9.94-1.37,3.33-4.68,7.23-8.27,11.39v0c0-5.1,1.82-10,3.65-14.75q1.92-5,3.83-9.91a16.76,16.76,0,0,1,2.78-5.23s1.52-2.39,5.88-2.19A3.37,3.37,0,0,1,552.35,200.79Z"/></g><path d="M557.12,190.07a3.4,3.4,0,0,1,.55,3.35,8.44,8.44,0,0,1-1.64,2.27,62.22,62.22,0,0,0-4.29,6.45,3.29,3.29,0,0,1-2.22,1.76c-1.11.08-2-.9-2.52-1.87a4.74,4.74,0,0,1-.63-1.88,4.19,4.19,0,0,1,1-2.86,12.45,12.45,0,0,1,2.32-2.06l6.82-5.12" style="fill:#62647a"/><path d="M549.39,204.16c-1.37,0-2.27-1.39-2.61-2a4.9,4.9,0,0,1-.65-2,4.41,4.41,0,0,1,1.08-3,12.65,12.65,0,0,1,2.36-2.11l6.82-5.12.3.4-6.82,5.12a12.23,12.23,0,0,0-2.27,2,3.92,3.92,0,0,0-1,2.68,4.43,4.43,0,0,0,.6,1.77c.3.55,1.1,1.84,2.29,1.74.87-.07,1.52-.87,2-1.65s.91-1.43,1.33-2.14a32.48,32.48,0,0,1,3-4.34l.31-.36a6.55,6.55,0,0,0,1.28-1.84,3.16,3.16,0,0,0-.51-3.1l.38-.32a3.67,3.67,0,0,1,.59,3.6,6.92,6.92,0,0,1-1.37,2l-.31.35a32.14,32.14,0,0,0-2.92,4.27c-.43.71-.88,1.45-1.34,2.15a3.53,3.53,0,0,1-2.41,1.87Z"/><path d="M545.31,198.64a31.34,31.34,0,0,0,5.15-2.77c3-1.77,6.21-1.84,7.28-4.62a5.77,5.77,0,0,0-.12-5,5.2,5.2,0,0,0-4.42-2.95,9.8,9.8,0,0,0-4.64,1.47c-2.65,1.36-5.29,1.82-7.94,3.18" style="fill:#62647a"/><path d="M545.39,198.88l-.16-.47a22,22,0,0,0,4-2.1l1.08-.65a20.51,20.51,0,0,1,3-1.38c1.87-.73,3.48-1.36,4.16-3.12a5.5,5.5,0,0,0-.12-4.76,5,5,0,0,0-4.2-2.81,9.57,9.57,0,0,0-4.52,1.44,29.81,29.81,0,0,1-4,1.61,29.29,29.29,0,0,0-3.94,1.58l-.23-.45a29.81,29.81,0,0,1,4-1.61,29.29,29.29,0,0,0,3.94-1.58,10.22,10.22,0,0,1,4.76-1.5,5.47,5.47,0,0,1,4.64,3.09,6,6,0,0,1,.13,5.16c-.76,2-2.46,2.63-4.44,3.41a20.17,20.17,0,0,0-2.95,1.34l-1.08.65A22.39,22.39,0,0,1,545.39,198.88Z"/></g></g><g id="Man"><g id="Head-7" data-name="Head"><g id="Neck"><path d="M200.7,123.22s9.14,23.44-4.9,69.61c0,0,69.23-46.94,76.73-78.27Z" style="fill:#62647a"/><path d="M195.36,193.43l.21-.68c13.85-45.56,5-69.21,4.9-69.44l-.12-.3.32,0,72.19-8.71-.08.35c-7.44,31.07-76.14,78-76.83,78.42Zm5.68-70c1,2.88,8,26.27-4.79,68.79,6.71-4.64,68.52-48,76-77.37Z"/></g><path d="M236.53,15.64c-4,.83-7.51,3.15-11.11,5.15-2,1.09-3.81,2.34-5.66,3.6A27.29,27.29,0,0,0,215,28.64c-2.32,0-3.67,2.31-4.48,3.33-6.83,8.64-13.17,21.29-14,29a31.59,31.59,0,0,1-.42,4.75c-1,4.73-4.88,9-3.67,13.65a212.94,212.94,0,0,0,4.67,44.71l.07.13c3.79,5.61,8.79,8.85,15.3,10.67a54.82,54.82,0,0,0,10,1.54C235.24,137.57,249,138,259.69,131a60.7,60.7,0,0,0,9.78-8.66c5.21-5.33,10.56-10.86,13.26-17.81,1.59-4.09,2.19-8.49,2.77-12.84l3-22.49c1.21-9,3.3-18.55.25-27.12a45.18,45.18,0,0,0-14.24-19.42c-7.46-5.92-15.08-8.33-24.83-8.83C245.32,13.58,237.88,15.36,236.53,15.64Z" style="fill:#62647a"/><path d="M234.84,137.35c-4.18,0-8.35-.3-12.34-.65a54.59,54.59,0,0,1-10-1.55c-6.86-1.92-11.77-5.35-15.44-10.77l-.11-.22a212,212,0,0,1-4.67-44.73c-.77-3,.54-5.94,1.81-8.75a25.77,25.77,0,0,0,1.86-5,20.67,20.67,0,0,0,.35-3.49c0-.41,0-.82.06-1.22.77-7.5,6.79-20,14-29.16l.34-.45c.86-1.16,2.14-2.89,4.22-3a27.17,27.17,0,0,1,4.72-4.21c1.83-1.24,3.72-2.52,5.68-3.61l1.88-1.07c2.92-1.68,5.94-3.41,9.31-4.11h0l.65-.14c2.37-.52,8.65-1.9,12.58-1.7,10.32.53,17.79,3.19,25,8.89A45.19,45.19,0,0,1,289,42c2.64,7.43,1.45,15.57.3,23.44-.19,1.27-.37,2.54-.54,3.79l-3,22.49c-.58,4.3-1.17,8.76-2.78,12.9-2.76,7.11-8.37,12.84-13.32,17.89a61,61,0,0,1-9.82,8.69C252.43,136,243.6,137.35,234.84,137.35ZM197.39,124l.05.1c3.59,5.3,8.41,8.66,15.15,10.55a54,54,0,0,0,9.95,1.54c12.24,1.09,26.21,1.65,37-5.43a60.66,60.66,0,0,0,9.74-8.62c4.91-5,10.48-10.71,13.21-17.73,1.59-4.09,2.18-8.51,2.75-12.79l3-22.49c.17-1.26.35-2.52.54-3.79,1.14-7.81,2.33-15.89-.27-23.2a44.66,44.66,0,0,0-14.16-19.31c-7.1-5.63-14.48-8.26-24.69-8.78-3.87-.21-10.1,1.17-12.45,1.69l-.66.14h0c-3.29.68-6.28,2.39-9.16,4.05L225.54,21c-1.95,1.08-3.83,2.36-5.64,3.59a26.74,26.74,0,0,0-4.7,4.21l-.07.08H215c-1.9,0-3.13,1.68-3.94,2.78l-.35.46c-7.17,9.06-13.15,21.48-13.91,28.89,0,.39,0,.8-.06,1.21a21.1,21.1,0,0,1-.36,3.57,26.11,26.11,0,0,1-1.89,5.08c-1.3,2.86-2.52,5.56-1.77,8.45v.06A211.57,211.57,0,0,0,197.39,124Z"/><path d="M249,72.88a1.91,1.91,0,0,1-1.42,1,5.65,5.65,0,0,1-1.81,0l-5.2-.7c-2.7-.37-5.63-.84-7.5-2.84,4.14-1.94,9.55-2.7,13.59,0a6.49,6.49,0,0,1,1.73,1.89Z" style="fill:#f2f2f2"/><path d="M246.92,74.07a8.83,8.83,0,0,1-1.18-.11l-5.2-.7c-2.95-.4-5.74-.92-7.57-2.87l-.12-.13.16-.07c5.06-2.36,10.18-2.35,13.71,0a6.62,6.62,0,0,1,1.77,1.92l.65.7,0,.08A2,2,0,0,1,247.58,74,3.54,3.54,0,0,1,246.92,74.07Zm-13.65-3.73c1.78,1.79,4.47,2.29,7.3,2.67l5.2.7a5.54,5.54,0,0,0,1.77,0,1.8,1.8,0,0,0,1.3-.86l-.55-.6a6.38,6.38,0,0,0-1.71-1.87C243.15,68.12,238.19,68.08,233.26,70.34Z"/><path d="M201.63,66.48c2.7,2.56,7.84,3.28,11.62,2.05a6.23,6.23,0,0,0-1.16-2.66,5,5,0,0,0-2.23-1.3,12.34,12.34,0,0,0-8.29.25A1.82,1.82,0,0,0,201.63,66.48Z" style="fill:#f2f2f2"/><path d="M209.38,69.24a11.74,11.74,0,0,1-7.84-2.67l0,0a1.93,1.93,0,0,1-.05-1.78l0,0h0a12.55,12.55,0,0,1,8.38-.25,5.17,5.17,0,0,1,2.28,1.34,6.33,6.33,0,0,1,1.18,2.71l0,.11-.11,0A12.68,12.68,0,0,1,209.38,69.24Zm-7.65-2.83c2.52,2.37,7.48,3.26,11.36,2A5.91,5.91,0,0,0,212,66a4.93,4.93,0,0,0-2.17-1.26,12.27,12.27,0,0,0-8.17.23A1.82,1.82,0,0,0,201.73,66.41Z"/><g id="Nose"><path d="M223.76,90.27a8.19,8.19,0,0,1-5,0c-2.23-.81-3.22-2.06-3-3.31s6.37.75,6.37.75Z"/><path d="M210.71,88.41c-.63-.14-2.26.61-3.38.2s-2.56-1.86-2.19-2.51,3.56,0,3.56,0Z"/><path d="M215.48,64.86c.53,1.75,1.06,3.69.32,5.36-.87,2-3.21,2.91-4.44,4.7-.62.9-.94,2-1.62,2.86-1.48,1.88-4.44,2.34-5.5,4.49a6.75,6.75,0,0,0-.5,2.77A3.63,3.63,0,0,0,204,87a1.3,1.3,0,0,0,1.65.59c2.11-1,3-.32,3.12-.18,1,1,1.58,2.62,3,3a3.77,3.77,0,0,0,3.68-1.21,4.07,4.07,0,0,1,4.55-.87c3.47,1.88,3.06,3.43,4.1,3.76,1.88.77,4.37-1.25,4.68-3.26s.15-4.48-2.35-5.36a3.47,3.47,0,0,0-3.5.54" style="fill:#62647a"/><path d="M224.95,92.47a2.54,2.54,0,0,1-1-.19c-.46-.15-.68-.5-1-.94a7.34,7.34,0,0,0-3.16-2.83,3.8,3.8,0,0,0-4.26.84l-.05,0a4,4,0,0,1-3.85,1.21,4.44,4.44,0,0,1-2.25-2,10.34,10.34,0,0,0-.83-1.07s-.76-.78-2.83.24a1.56,1.56,0,0,1-2-.69,3.87,3.87,0,0,1-.31-2.05,7,7,0,0,1,.53-2.87,6.88,6.88,0,0,1,3-2.63,8.53,8.53,0,0,0,2.52-1.9,8,8,0,0,0,.87-1.5,10.33,10.33,0,0,1,.74-1.35,10.54,10.54,0,0,1,2.09-2.07,7.46,7.46,0,0,0,2.32-2.58c.68-1.55.23-3.34-.33-5.19l.48-.14c.59,1.95,1.06,3.83.31,5.54a7.91,7.91,0,0,1-2.46,2.77,10.18,10.18,0,0,0-2,2,9.94,9.94,0,0,0-.71,1.28,8.51,8.51,0,0,1-.92,1.59,8.9,8.9,0,0,1-2.66,2,6.42,6.42,0,0,0-2.82,2.42A6.58,6.58,0,0,0,204,85a3.48,3.48,0,0,0,.24,1.79,1,1,0,0,0,1.32.48c2.36-1.16,3.31-.24,3.41-.13a10.65,10.65,0,0,1,.87,1.12,4,4,0,0,0,2,1.81A3.48,3.48,0,0,0,215.21,89l.05,0a4.3,4.3,0,0,1,4.83-.89,7.79,7.79,0,0,1,3.34,3c.27.43.42.65.71.74a2.59,2.59,0,0,0,2.27-.27,4.21,4.21,0,0,0,2.09-2.79c.42-2.72-.31-4.43-2.19-5.08a3.23,3.23,0,0,0-3.24.49l-.35-.36a3.7,3.7,0,0,1,3.76-.6c2.1.74,3,2.69,2.51,5.63A4.73,4.73,0,0,1,226.67,92,3.53,3.53,0,0,1,224.95,92.47Z"/></g><path d="M236.32,106.73a71.27,71.27,0,0,0-5.18-20.58l.23-.1a71.5,71.5,0,0,1,5.19,20.65Z"/><path d="M222.12,52a5.42,5.42,0,0,1-.76-.05,10.07,10.07,0,0,1-4.55-2.42l-.66-.5a27.84,27.84,0,0,0-7.7-4.09l.08-.24a28.07,28.07,0,0,1,7.77,4.13l.66.51a7.28,7.28,0,0,0,8.26,1.87l.35-.09a47.8,47.8,0,0,1,15.78-1.43l0,.25a47.47,47.47,0,0,0-15.7,1.42l-.35.09A12.52,12.52,0,0,1,222.12,52Z"/><path d="M224.27,47a3.39,3.39,0,0,1-1.86-.81l-.28-.19A8.22,8.22,0,0,0,219,44.75l0-.25a8.45,8.45,0,0,1,3.22,1.29l.28.19a3.22,3.22,0,0,0,1.72.76h.09a2.86,2.86,0,0,0,.78-.2c.16-.06.32-.12.49-.16a5.27,5.27,0,0,1,1.43-.1l8.3.19v.25l-8.3-.19a5.09,5.09,0,0,0-1.37.09c-.16,0-.31.1-.47.15a3.14,3.14,0,0,1-.85.22Z"/><path d="M250,71.62a18,18,0,0,0-4.15-3.53,9.41,9.41,0,0,0-5.17-1.41,15.26,15.26,0,0,0-2.63.44,19.56,19.56,0,0,1-2.13.4l0-.25a19.46,19.46,0,0,0,2.1-.4,15.56,15.56,0,0,1,2.68-.45,9.67,9.67,0,0,1,5.31,1.44,18.3,18.3,0,0,1,4.21,3.58Z"/><path d="M248.34,67.44a9,9,0,0,1-2-1.68A7.11,7.11,0,0,0,244,63.95a5.82,5.82,0,0,0-1.93-.32,15.39,15.39,0,0,0-5.42.82l-.08-.24a15.44,15.44,0,0,1,5.51-.83,6.15,6.15,0,0,1,2,.34,7.38,7.38,0,0,1,2.44,1.87,8.76,8.76,0,0,0,2,1.64Z"/><path d="M212.54,64.92c-.14-.87-1-1.53-2.52-2a18.34,18.34,0,0,0-7.48-.92l0-.25a18.74,18.74,0,0,1,7.58.92c1.66.5,2.54,1.22,2.69,2.2Z"/><path d="M212.24,62.12a1,1,0,0,1-.66-.34,8,8,0,0,0-5.52-2.22h-.36a2.75,2.75,0,0,1-1.79-.34l.15-.2a2.61,2.61,0,0,0,1.63.3h.36a8.27,8.27,0,0,1,5.69,2.29c.07.07.43.39.6.23l.17.18A.41.41,0,0,1,212.24,62.12Z"/><g style="opacity:0.35000000000000003"><path d="M255.49,65.63a1.5,1.5,0,0,1-.84-.26l-6.92-4.72a6.88,6.88,0,0,0-1.7-1,6.1,6.1,0,0,0-2.45,0,40.4,40.4,0,0,0-9,2.24,1.5,1.5,0,0,1-1.05-2.81,43.41,43.41,0,0,1,9.62-2.4,8.69,8.69,0,0,1,3.72.13,9.26,9.26,0,0,1,2.52,1.35l6.92,4.72a1.5,1.5,0,0,1-.85,2.74Z"/></g><g style="opacity:0.35000000000000003"><path d="M210.71,58.89a1.5,1.5,0,0,1-1.35-.84c-.7-1.44-2.3-2.37-4.18-3.36a3.45,3.45,0,0,0-.8-.35,3.83,3.83,0,0,0-1.6.34,4.82,4.82,0,0,1-3.86.16,1.5,1.5,0,0,1,1.31-2.7c.3.14.94-.08,1.57-.29a6.07,6.07,0,0,1,3.13-.46,5.7,5.7,0,0,1,1.66.65c1.81,1,4.29,2.26,5.47,4.7a1.5,1.5,0,0,1-1.35,2.16Z"/></g><path d="M218.05,25.7c1.84,1.25,4.39,1.61,6.7,1.76,7.92.51,16.1.23,23.52,3.06a24.76,24.76,0,0,0,6,2c1.4.15,2.84,0,4.22.22a13.41,13.41,0,0,1,3.86,1.55L267,36.68a25.17,25.17,0,0,1,5.32,3.39,8.43,8.43,0,0,1,2.95,5.43,9.78,9.78,0,0,1-.45,3.39,21.63,21.63,0,0,1-2.92,6.25A14.84,14.84,0,0,0,270.13,58c-.9,2.27-.23,4.82.44,7.17,1.18,4.11,2.36,8.31,2.2,12.59-.19,5.07-2.25,10.27-.62,15.08,1.07-3.09,1.31-6.41,2.09-9.6s2.29-6.42,5.09-8.11c0,0,4.51-2.47,8.47-.57l.72-5.36c1.21-9,3.3-18.55.25-27.12a45.15,45.15,0,0,0-14.24-19.42c-7.46-5.92-15.08-8.33-24.83-8.83-4.38-.23-11.82,1.55-13.17,1.83-4,.83-7.51,3.15-11.11,5.15-1.95,1.09-3.81,2.34-5.66,3.6A20,20,0,0,0,218.05,25.7Z"/><path d="M281,76a6.37,6.37,0,0,1,11,1.77,10.46,10.46,0,0,1,.42,4.18,57.3,57.3,0,0,1-1.75,9.85c-.54,2.26-1.17,4.68-2.93,6.2a21.44,21.44,0,0,1-3,1.86,39.76,39.76,0,0,0-3.89,3,10.56,10.56,0,0,1-4.31,2.27A4.74,4.74,0,0,1,272,103.8a3.1,3.1,0,0,1,.27-4.37" style="fill:#62647a"/><path d="M275.39,105.45A4.72,4.72,0,0,1,271.8,104a3.57,3.57,0,0,1-.8-2.71,2.86,2.86,0,0,1,1.12-2l.29.4a2.36,2.36,0,0,0-.92,1.68,3.07,3.07,0,0,0,.69,2.32,4.49,4.49,0,0,0,4.27,1.21,10.47,10.47,0,0,0,4.21-2.22c.37-.29.74-.6,1.1-.9a23.79,23.79,0,0,1,2.81-2.12c.33-.2.67-.39,1-.57a10.86,10.86,0,0,0,2-1.26c1.63-1.41,2.26-3.58,2.85-6.07a57.24,57.24,0,0,0,1.75-9.81,10.39,10.39,0,0,0-.41-4.08,6.12,6.12,0,0,0-10.58-1.7l-.39-.31a6.62,6.62,0,0,1,11.44,1.84,10.86,10.86,0,0,1,.44,4.28,57.66,57.66,0,0,1-1.76,9.89c-.62,2.57-1.27,4.83-3,6.33a11.37,11.37,0,0,1-2.06,1.32c-.33.18-.67.36-1,.56a23.36,23.36,0,0,0-2.75,2.07L281,103a10.93,10.93,0,0,1-4.42,2.32A5.87,5.87,0,0,1,275.39,105.45Z"/><path d="M287.56,93l-.3-.4c2-1.48,2.54-4.27,2.79-6.53.08-.7.14-1.42.19-2.13a8.47,8.47,0,0,0-.57-4.51,4.42,4.42,0,0,0-6.39-1.61l-.28-.41a4.92,4.92,0,0,1,7.11,1.79,8.89,8.89,0,0,1,.63,4.78c-.05.72-.12,1.45-.2,2.15C290.29,88.51,289.71,91.42,287.56,93Z"/><path d="M276.57,94.2a3.67,3.67,0,0,1-1.45-.29l.2-.46a3.33,3.33,0,0,0,3.23-.41l.11-.09a1.75,1.75,0,0,1,.69-.39,1.73,1.73,0,0,1,1,.14,1.91,1.91,0,0,0,.61.14,1.68,1.68,0,0,0,1-.67c1.35-1.44,2.85-3.36,2.43-5.36a1.71,1.71,0,0,0-.73-1.16,2.37,2.37,0,0,0-.68-.2,4.79,4.79,0,0,1-.51-.12,2.39,2.39,0,0,1-1.6-2.51l.5.06a1.9,1.9,0,0,0,1.25,2,3.82,3.82,0,0,0,.46.11,2.8,2.8,0,0,1,.83.25,2.13,2.13,0,0,1,1,1.5c.47,2.23-1.12,4.27-2.55,5.81a2.1,2.1,0,0,1-1.38.82,2.48,2.48,0,0,1-.79-.17,1.36,1.36,0,0,0-.7-.13,1.34,1.34,0,0,0-.49.3l-.12.09A3.77,3.77,0,0,1,276.57,94.2Z"/><g style="clip-path:url(#clip-path-2)"><circle cx="242.48" cy="70.36" r="3.06" style="fill:#1e1e1e"/><circle cx="242.9" cy="70.22" r="1.05" style="fill:#fff"/></g><g style="clip-path:url(#clip-path-3)"><circle cx="208.49" cy="65.83" r="3.06" style="fill:#1e1e1e"/><circle cx="209.13" cy="65.57" r="1.05" style="fill:#fff"/></g><g id="Mouth"><path d="M225.26,106.38A25.31,25.31,0,0,0,212,102c-7.37,0-10.87-1.29-7.69,5.09s12.25,4.64,14.31,4,9.44-1.76,9.44-1.76v-2.5Z"/><path d="M225.16,107.32a3.35,3.35,0,0,1-3-.06,2.8,2.8,0,0,0-.71-.33,2.89,2.89,0,0,0-1.26.21,6.27,6.27,0,0,1-2.56-.08l-.75-.13-1.56-.27-2.07-.35-.81-.14a18.63,18.63,0,0,1-3-.69,4.43,4.43,0,0,0-2.08-.45.75.75,0,0,1-.24,0l-.66-.18a1.27,1.27,0,0,1-.49-.76c-.14-.82-1-1.4-1-2.24,0,0,10.29-.9,15,.77s5.94,3.69,5.94,3.69Z" style="fill:#fff"/><path d="M223.72,107.77a3.43,3.43,0,0,1-1.61-.39l-.16-.09a1.83,1.83,0,0,0-.51-.23,1.88,1.88,0,0,0-.91.12l-.3.08a6.39,6.39,0,0,1-2.61-.08l-5.19-.88a18.74,18.74,0,0,1-3-.7l-.31-.11a3.57,3.57,0,0,0-1.71-.33.83.83,0,0,1-.29,0l-.67-.18,0,0a1.39,1.39,0,0,1-.54-.84,2.7,2.7,0,0,0-.46-1,2.36,2.36,0,0,1-.5-1.28v-.11H205c.1,0,10.37-.88,15.05.78s6,3.66,6,3.74l0,.08-.89,1.08A3.42,3.42,0,0,1,223.72,107.77Zm-2.48-1a1.17,1.17,0,0,1,.25,0,2,2,0,0,1,.58.25l.16.09a3.23,3.23,0,0,0,2.85.06l.71-.88c-.27-.37-1.72-2.11-5.82-3.56-4.36-1.54-13.67-.87-14.83-.77a2.39,2.39,0,0,0,.45,1,2.92,2.92,0,0,1,.49,1.07,1.12,1.12,0,0,0,.42.66l.64.17a.52.52,0,0,0,.18,0,3.68,3.68,0,0,1,1.84.34l.3.11a18.54,18.54,0,0,0,3,.69l5.19.88a6.23,6.23,0,0,0,2.51.08l.29-.08A2.74,2.74,0,0,1,221.24,106.79Z"/><path d="M213.09,106.58h-.25l0-.51a31.2,31.2,0,0,1,.31-3.32l.25,0a31,31,0,0,0-.3,3.29Z"/><path d="M219.26,108c0-.43,0-.86-.06-1.29a11.23,11.23,0,0,1,.06-2.87l.25,0a11.08,11.08,0,0,0-.06,2.8c0,.42.06.86.06,1.3Z"/><path d="M215.83,107.4l-.25,0c0-.38,0-.77.07-1.15a12,12,0,0,1,.37-2.95s0-.09,0-.11a.05.05,0,0,0,.06,0l-.24-.07a.19.19,0,0,1,.17-.13.24.24,0,0,1,.23.12.39.39,0,0,1,0,.3,11.83,11.83,0,0,0-.36,2.88C215.88,106.62,215.86,107,215.83,107.4Z"/><path d="M209.37,106a10,10,0,0,1,.11-3.27c0-.21.06-.41.09-.62l.05-.41.25,0-.05.41c0,.2-.06.41-.09.62a9.59,9.59,0,0,0-.11,3.19Z"/><path d="M206.87,105.49l-.24-.07a12.21,12.21,0,0,0,.36-4h.25A12.44,12.44,0,0,1,206.87,105.49Z"/><path d="M213.33,111c-2.94-.37-9.47-4.05-9.47-4.05a33,33,0,0,1,9.85.85l8.37,1.58A17.19,17.19,0,0,1,213.33,111Z" style="fill:#fff"/><path d="M214.81,111.21a11.88,11.88,0,0,1-1.5-.09h0c-2.93-.37-9.25-3.92-9.52-4.07l-.33-.19.38,0a33.11,33.11,0,0,1,9.89.85l8.73,1.65-.33.17A18.32,18.32,0,0,1,214.81,111.21Zm-1.47-.34a17,17,0,0,0,8.33-1.45l-8-1.51a34.35,34.35,0,0,0-9.42-.89c1.39.76,6.59,3.53,9.08,3.85Z"/><polygon points="209.36 110.36 209.13 110.28 210.35 106.61 210.59 106.69 209.36 110.36"/><polygon points="211.93 110.91 211.69 110.86 212.44 107.18 212.68 107.23 211.93 110.91"/><path d="M214,110.42l-.24-.05c.2-.95.37-1.91.52-2.87l.25,0C214.38,108.49,214.2,109.46,214,110.42Z"/><polygon points="216.18 111.97 215.94 111.94 216.32 108.31 216.57 108.34 216.18 111.97"/><path d="M218.87,112.47l-.25,0c.17-1,.3-2.11.4-3.18l.25,0C219.18,110.35,219,111.42,218.87,112.47Z"/><path d="M228.71,108.37c-3-.29-5.34-2.73-8.11-4a21.07,21.07,0,0,0-6.59-1.34l-6.13-.58a9.85,9.85,0,0,0-2.88,0c-.56.06-2.21,1.21-2.77,1.17-2.11-.18-3.26-3.24-2.19-5.06.67-1.65,3.38-3.12,5.4-2.92a20,20,0,0,1,5.8,1.78,6.2,6.2,0,0,0,2.11.62c.56,0,1.12-.1,1.68-.13a8,8,0,0,1,2.17.28,31.25,31.25,0,0,1,7.93,3.06c2.37,1.31,4.73,3.15,5.38,5.78" style="fill:#62647a"/><path d="M228.69,108.61a12.26,12.26,0,0,1-5.29-2.32,21.87,21.87,0,0,0-2.89-1.66,20.81,20.81,0,0,0-6.51-1.32l-6.59-.62a8.38,8.38,0,0,0-2.36,0,5.33,5.33,0,0,0-1.14.51,4.06,4.06,0,0,1-1.68.65,3,3,0,0,1-2.34-1.73,3.93,3.93,0,0,1,0-3.71c.7-1.73,3.5-3.24,5.64-3a20,20,0,0,1,5.87,1.8,6,6,0,0,0,2,.6,5.73,5.73,0,0,0,1-.06c.23,0,.47-.05.7-.07a8.19,8.19,0,0,1,2.24.29,31.49,31.49,0,0,1,8,3.08c3.14,1.74,4.94,3.68,5.5,5.94l-.48.12c-.53-2.12-2.25-4-5.26-5.62a31,31,0,0,0-7.86-3,7.56,7.56,0,0,0-2.1-.27c-.22,0-.44,0-.66.06a6.55,6.55,0,0,1-1,.07,6.4,6.4,0,0,1-2.19-.64,19.63,19.63,0,0,0-5.72-1.76c-1.92-.2-4.51,1.21-5.14,2.77a3.49,3.49,0,0,0,0,3.25,2.49,2.49,0,0,0,1.94,1.46,5.33,5.33,0,0,0,1.4-.6,4.87,4.87,0,0,1,1.32-.57,8.84,8.84,0,0,1,2.47,0l6.59.62a21.2,21.2,0,0,1,6.67,1.37,22.3,22.3,0,0,1,3,1.69,11.71,11.71,0,0,0,5.07,2.24Z"/><path d="M228.71,108.37c-3-.62-7.5.81-10.58,1.11s-6.36.32-9.06-1.19c-2-1.11-3.62-3-5.86-3.29a1,1,0,0,0-.75.13,1,1,0,0,0-.26.4,7.2,7.2,0,0,0,1.62,7.41,11.33,11.33,0,0,0,7.13,3.26,27.84,27.84,0,0,0,8-.57c3.95-.72,8.13-1.82,10.75-4.86" style="fill:#62647a"/><path d="M212.85,116.56a17.92,17.92,0,0,1-1.93-.1,11.55,11.55,0,0,1-7.28-3.34,7.41,7.41,0,0,1-1.67-7.67,1,1,0,0,1,1.27-.69,8.94,8.94,0,0,1,4.07,2,18.57,18.57,0,0,0,1.88,1.27c2.72,1.52,6,1.44,8.92,1.16,1-.1,2.14-.31,3.36-.54,2.44-.46,5.21-1,7.3-.56l-.1.49c-2-.41-4.71.11-7.11.56-1.22.23-2.38.45-3.4.55-3,.29-6.37.37-9.21-1.22a18.76,18.76,0,0,1-1.93-1.3,8.44,8.44,0,0,0-3.84-2,.73.73,0,0,0-.56.08.8.8,0,0,0-.19.31,6.91,6.91,0,0,0,1.57,7.14,11,11,0,0,0,7,3.19,27,27,0,0,0,7.89-.57c4-.73,8-1.81,10.6-4.78l.38.33c-2.66,3.09-6.81,4.2-10.89,4.95A34.33,34.33,0,0,1,212.85,116.56Z"/></g><path d="M238.09,127.32c-1.59,3-5,3.92-8,5-3.18,1.11-6.41,2.51-9.8,2.74-6.92.46-13.25-3.49-18.29-7.81-.12-.1-.3.07-.18.18,5.29,4.54,12,8.65,19.28,7.81,3.66-.42,7.22-2,10.67-3.23,2.6-.93,5.19-2,6.54-4.52.08-.14-.14-.27-.22-.13Z"/></g><g id="Body-4" data-name="Body"><path d="M127.2,253.09c-10,12.88-13.86,29.45-21.95,43.63-5.73,10-13.67,19.07-16.76,30.2-1.83,6.59-1.91,13.77-5.19,19.78-3.53,6.45-10.23,10.56-14.38,16.63-4.54,6.64-5.6,15-7.7,22.73a83.21,83.21,0,0,1-17,32.27l110.51-3.78L147,238.89Z" style="fill:#fff;stroke:#000;stroke-miterlimit:10;stroke-width:0.5px"/><path d="M194.81,140.44c-2.57,1.44-9.46,5-12.18,6.16-10.83,4.55-17.54,15.27-23.55,25.36a186.77,186.77,0,0,0-11.4,21.16c-1.92,4.45-2,3.82-3.9,7.49-7.71,13-15.62,26.61-16.51,41.68-.49,8.3,1.2,16.55,2.43,24.78a232.32,232.32,0,0,1,2,51.43c-.63,8.61-1.73,17.19-1.87,25.82a114.83,114.83,0,0,0,3,27.77c1.45,6.23,3.89,12.94,9.5,16l199.93-2a132.46,132.46,0,0,1,21.39-35.28,56.17,56.17,0,0,0,6.56-8.61c4.93-8.85,3.58-19.69,2.87-29.8q-.67-9.55-.38-19.14c.14-4.72,1.58-8.32,1.86-13.13,1.13-11.08,2.27-22.32.47-33.32-.74-4.53-2-9-2.08-13.58s1-9.28,1.34-13.94c.59-7.42-.77-15.29-5.39-21.11-2.23-2.81-5.11-5-7.65-7.55-5.09-5.08-8.75-11.39-13.08-17.13-11.44-15.18-27.4-26.2-43.07-37-4.77-3.27-9.6-6.58-15-8.52l-11.23.17s-48.84,32.53-59.84,39.19c-7.06,6-21.43,24.1-21.43,24.1l4.27-49.23-7-1.79" style="fill:#fff;stroke:#000;stroke-miterlimit:10;stroke-width:0.5px"/><path d="M175,158.46a22.53,22.53,0,0,0,.47,5.83c.66,2.41,7.13-3.87,7.13-3.87l1.5-4.91Z" style="fill:#c9c9c9;stroke:#000;stroke-miterlimit:10;stroke-width:0.5px"/><path d="M288.66,128.16a55.21,55.21,0,0,1-6.35-21.77,95.13,95.13,0,0,1-10.86,12.76c-7,7-16.5,21.75-27,29.25s-22,15.37-25.5,19c-3.24,3.28,8-4.72,12.33-6.22a23.68,23.68,0,0,1,13.61-1,35.58,35.58,0,0,1,8.58,4l8.7,5" style="fill:#fff;stroke:#000;stroke-miterlimit:10;stroke-width:0.5px"/><path d="M289,128.16c.17,2.84-2.33,5-4.5,6.88a73.88,73.88,0,0,0-22.36,33.58" style="fill:none;stroke:#000;stroke-miterlimit:10;stroke-width:0.5px"/><path d="M182.08,157.5c-1.09,1-3.94,3.33-2.23,5a7.14,7.14,0,0,0,1.74,1.33c3.53,2.29,5.85,6,7.91,9.67a51.07,51.07,0,0,1,5.63,13.33,22.06,22.06,0,0,1-1.07,14.21c12-28,12.31-37.14,13.93-45.22a47.2,47.2,0,0,0,1.18-9,27.39,27.39,0,0,0-3.25-12.48,11.12,11.12,0,0,0-2.09-2.71,32.65,32.65,0,0,0-7.93,7.32,49.16,49.16,0,0,1-3.91,4.95c-3.14,3.13-7.57,4.6-11.07,7.32a22.92,22.92,0,0,0-5.93,7.21Z" style="fill:#fff;stroke:#000;stroke-miterlimit:10;stroke-width:0.5px"/><path d="M194,202.27c-6.86,13.26-12.09,24.28-15.88,37-4,13.38-4.75,27.75-10.48,40.48-1.92,4.26-4.36,8.27-6.3,12.52-5,10.87-6.47,22.94-7.92,34.8a84.63,84.63,0,0,0-.94,15.31c.35,5.89,1.93,11.62,3.15,17.39a145.31,145.31,0,0,1,3.13,30.48" style="fill:none;stroke:#000;stroke-miterlimit:10;stroke-width:0.5px"/><path d="M276.89,268.31c-.47,11.79-.69,24.51,6,34.24a3.33,3.33,0,0,1,.74,1.63,3.25,3.25,0,0,1-1.22,2.22c-4.53,4.7-8.44,10.16-10.36,16.4s-1.64,13.34,1.72,18.93c.73,1.21,1.63,2.44,1.67,3.85a6.85,6.85,0,0,1-1.13,3.35c-1.53,2.79-3.13,5.68-5.71,7.55-2.09,1.52-4.64,2.23-7,3.18a37.06,37.06,0,0,0-19.62,18.21c-2,4.24-3.31,8.94-6.32,12.56-2.69,3.23-6.54,5.29-9.47,8.31-1.69,1.74-3.06,3.77-4.81,5.45a34,34,0,0,1-7.93,5.17l-18.81,9.9" style="fill:none;stroke:#000;stroke-miterlimit:10;stroke-width:0.5px"/><path d="M281.38,142.87A87.41,87.41,0,0,1,322,175.35" style="fill:none;stroke:#000;stroke-miterlimit:10;stroke-width:0.25px"/><path d="M355.67,186.94c-8.63-4.69-17.8-9.52-27.61-9.15a27.94,27.94,0,0,0-21.86,12.28c-2.94,4.44-4.52,9.61-6.07,14.71l-15.9,52.43c-.63,2.09-1.24,4.46-.17,6.36" style="fill:none;stroke:#000;stroke-miterlimit:10;stroke-width:0.25px"/><path d="M300.59,168.77c-9.54,14.39-19.32,29.39-21.86,46.46-1.06,7.11-.82,14.4-2.3,21.43" style="fill:none;stroke:#000;stroke-miterlimit:10;stroke-width:0.25px"/><path d="M264,199.52c1.79,10.92.14,22.06-.7,33.09s-.77,22.6,4.12,32.52" style="fill:none;stroke:#000;stroke-miterlimit:10;stroke-width:0.25px"/><path d="M330.15,230.9c.4,2.54-.42,5.1-1.29,7.52a170.46,170.46,0,0,1-37.4,60.27" style="fill:none;stroke:#000;stroke-miterlimit:10;stroke-width:0.25px"/><path d="M349.75,193.5c2.86,4.36,2.32,10.1,4.17,15,.47,1.25,1.1,2.43,1.55,3.69a25.36,25.36,0,0,1,1.12,5.42q.56,4.47.87,9" style="fill:none;stroke:#000;stroke-miterlimit:10;stroke-width:0.25px"/><path d="M357.16,198.77a15.24,15.24,0,0,1,4.77,6.64c1.92,5.26.86,11.34,3.28,16.39" style="fill:none;stroke:#000;stroke-miterlimit:10;stroke-width:0.25px"/><path d="M339.43,244.91c-2.93,18-8.67,35.93-7,54.1a42.29,42.29,0,0,1,.36,6.74c-.43,6.14-4.26,11.42-6.73,17.05s-3.22,13.11,1.41,17.16c1.29,1.13,3,1.95,3.69,3.49,1.31,2.71-.92,5.68-2.5,8.24a21.38,21.38,0,0,0-2,17.77" style="fill:none;stroke:#000;stroke-miterlimit:10;stroke-width:0.25px"/><path d="M184,178.54c-3.51,7.9-8.73,14.89-13,22.4a104.69,104.69,0,0,0-13.66,52" style="fill:none;stroke:#000;stroke-miterlimit:10;stroke-width:0.25px"/><path d="M179.72,173.81a1.26,1.26,0,0,1,.06,1.25c-1.39,4.14-4.51,7.47-7.87,10.27s-7,5.22-10.11,8.33" style="fill:none;stroke:#000;stroke-miterlimit:10;stroke-width:0.25px"/><path d="M175.21,172.15a33,33,0,0,1-6.36,10.15c-2.42,2.63-5.26,4.87-7.51,7.64-2.89,3.56-4.7,7.86-6.47,12.09l-6,14.35" style="fill:none;stroke:#000;stroke-miterlimit:10;stroke-width:0.25px"/><path d="M147.8,236.5a39.71,39.71,0,0,1-7.56,15.35c-3.87,4.82-9,9.05-10.48,15.06" style="fill:none;stroke:#000;stroke-miterlimit:10;stroke-width:0.25px"/><path d="M150.66,247.9c-2.69,18.54-8.81,37.23-5.24,55.62" style="fill:none;stroke:#000;stroke-miterlimit:10;stroke-width:0.25px"/><path d="M270.05,278.54l.55.68a65.94,65.94,0,0,1-13.08-3.42A22.13,22.13,0,0,1,247,267.55" style="fill:none;stroke:#000;stroke-miterlimit:10;stroke-width:0.25px"/><path d="M269.78,291.46A194.72,194.72,0,0,1,243,298.83" style="fill:none;stroke:#000;stroke-miterlimit:10;stroke-width:0.25px"/></g><path d="M207.78,138.78c.3,3.1-1.38,3.32-3.74,5.36-6,5.13-17.86,13.71-24.19,18.37" style="fill:none;stroke:#000;stroke-miterlimit:10;stroke-width:0.25px"/><path d="M187.2,157.31c2.34-.88,3.8.09,5.48,1.95A18.9,18.9,0,0,1,196,165.9c2.36,6.78,4.75,13.66,5.19,20.82" style="fill:none;stroke:#000;stroke-miterlimit:10;stroke-width:0.25px"/></g></g></svg>