<svg xmlns="http://www.w3.org/2000/svg" xmlns:xlink="http://www.w3.org/1999/xlink" viewBox="0 0 1010.94 349.9"><defs><clipPath id="clip-path"><path d="M145.52,153.79c.68.38,1.49-.14,2.09-.64l4-3.38a3.25,3.25,0,0,1,1.12-.7,3.58,3.58,0,0,1,1.79.13A11.1,11.1,0,0,0,161,149c1.71-.66,3.35-1.93,5.16-1.64,2.44.39,3.93,3.47,6.39,3.46-2.59,1.49-6,1.66-8.89,2.57-1.42.46-2.78,1.12-4.23,1.48a5.66,5.66,0,0,1-4.34-.44,3.62,3.62,0,0,0-1.17-.64,5.5,5.5,0,0,0-1.54.18c-1.54.15-3.75-1.51-5-.61" style="fill:none"/></clipPath><clipPath id="clip-path-2"><path d="M130.85,114.33c2.73,1.48,6.08,1.12,9.09.38q1.5-.37,3-.85a15,15,0,0,0,2.48-1,9.12,9.12,0,0,0,2.31-1.77,11.44,11.44,0,0,1-2.76-1.53c-.93-.49-2-.67-2.9-1.22a4.74,4.74,0,0,0-.73-.41,2.6,2.6,0,0,0-.83-.14,9.75,9.75,0,0,0-6.22,1.95,19.33,19.33,0,0,0-1.63,1.43,6.12,6.12,0,0,0-2,2.8A.28.28,0,0,0,130.85,114.33Z" style="fill:none"/></clipPath><clipPath id="clip-path-3"><path d="M166.67,109.29,168.8,107a10.34,10.34,0,0,1,3.27-2.63,9.58,9.58,0,0,1,2.14-.56c2-.36,4.24-.6,6.09.34a25.72,25.72,0,0,0,2.56,1.5c.76.28,1.77.46,2,1.25a1.26,1.26,0,0,1-.5,1.22,3.39,3.39,0,0,1-1.26.55,37.18,37.18,0,0,1-5.89,1,16.66,16.66,0,0,1-5.27-.07c-.49-.11-1-.25-1.48-.33a5.93,5.93,0,0,0-3.34.43.43.43,0,0,1-.38,0,.33.33,0,0,1,0-.53" style="fill:none"/></clipPath><clipPath id="clip-path-4"><path d="M460.88,154a1.47,1.47,0,0,0,.64,1.31c1.68,1.45,4,1.72,6.25,1.92a13.11,13.11,0,0,0,7.69-1.15c.61-.23,1.37-.76,1.1-1.36-.19-.42-.74-.49-1.17-.63a7,7,0,0,1-1.82-1.23,8.41,8.41,0,0,0-6.4-1.27,21.31,21.31,0,0,0-6.24,2.39Z" style="fill:none"/></clipPath><clipPath id="clip-path-5"><path d="M499.38,156.63c1.53-1.67,3.14-3.4,5.24-4.24a7.58,7.58,0,0,1,9.48,3.43.27.27,0,0,1-.09.42,7.33,7.33,0,0,1-3.92,1.54,21.85,21.85,0,0,1-4.26-.07l-5.27-.43a1.72,1.72,0,0,1-.78-.19C499.55,157,499.32,156.84,499.38,156.63Z" style="fill:none"/></clipPath><clipPath id="clip-path-6"><path d="M499.77,247.08l6.8,53.83-5.4,35c-4.78.07-4.16,58-8.95,58q-17,.24-34,.41c-9.83.09-3.41-24.22-13.25-24.2l-9.55-25.75-6.7-114,.08,0a21,21,0,0,1,5.36-1.11c-1,16,9.58,32.66,22.35,42.25a36.55,36.55,0,0,0,12.09,6.43,18,18,0,0,0,13.38-1.16c4.87-2.7,7.76-8.13,8.63-13.63.86-5.35,0-11.89-1-17.26C495.18,246.64,494.17,246.54,499.77,247.08Z" style="fill:none"/></clipPath><clipPath id="clip-path-7"><path d="M784.26,116.62a16.14,16.14,0,0,0,3.54-1.83,14.12,14.12,0,0,1,7.73-1.91A11.37,11.37,0,0,1,802.8,116c.63.62,1.3,1.37,2.18,1.37-5.37.08-10.81,1.26-16.06.12a14.67,14.67,0,0,0-4.82-.71" style="fill:none"/></clipPath><clipPath id="clip-path-8"><path d="M741.2,113.28a19.48,19.48,0,0,1,5.47-2.7,12,12,0,0,1,6.49.32,22.19,22.19,0,0,1,5.84,3,3.31,3.31,0,0,1,1.41,1.52,19.88,19.88,0,0,0-3.74,0c-1,.1-1.9.27-2.86.38a23,23,0,0,1-13.16-2.44" style="fill:none"/></clipPath><clipPath id="clip-path-9"><path d="M763.08,261.59c.44.12,0,.87-.45.68s-.49-.73-.53-1.18a21.42,21.42,0,0,0-5.1-12.17c-1.44-1.67-3.15-3.12-4.52-4.85-2.83-3.56-4.11-8.13-6.76-11.82-1.47-2-3.82-3.55-4.73-5.9s-4.06-7.08-4.81-8.93c-2-4.94-3.71-10-5.57-15a53.66,53.66,0,0,1-2.2-6.84,24.44,24.44,0,0,1,2.39-17.37l-8.06,11.67c-1.7,2.46-3.46,5-5.92,6.69s-5.5,2.5-8.44,3.27c-8.38,2.21-16.76,4.75-24.37,8.89-5.06,2.76-9.72,6.19-14.68,9.13-14.3,8.51-31.74,13.61-41.1,27.36a67.4,67.4,0,0,0-5.72,11.11c-8.82,20.21-17.18,41.14-18.4,63.15-.09,1.67-.71,38.53-.05,40.07H940.59l-11.8-50.31a86,86,0,0,0-4.68-15.49,86,86,0,0,0-5.55-10l-8.18-13.28c-1.61-2.61-3.33-5.33-6-6.78.77.37-1.14-4.73-1.21-5.58-.36-4.37-3-8.3-6.36-11.14s-7.35-4.77-11.29-6.69q-20.28-9.89-40-20.88l-.76-1.15-29.51-17.76a6.09,6.09,0,0,1-3.64-4.86L809,185.49c.28,6.39.56,12.84-.4,19.17s-3.24,12.61-7.52,17.37c-2,2.23-4.39,4.07-6.52,6.18a86.11,86.11,0,0,0-6.2,7.15c-8.39,10.31-15.57,17.17-25.3,26.23" style="fill:none"/></clipPath></defs><title>on_illustration_media</title><g style="isolation:isolate"><g id="Media"><g id="Editor"><g id="Head-2" data-name="Head"><path d="M132.24,169.72c-.56,2.16.65,4.33,1.42,6.43a32.64,32.64,0,0,1,1.47,8.15l2.28,24.36,1.78,23L229,226.41l-21.44-42.62a81.12,81.12,0,0,1-4.57-38.1Z" style="fill:#62647a"/><path d="M132.12,169.69c-.56,3.46,1.74,6.71,2.33,10.06.83,4.69,1,9.56,1.46,14.3.52,5.62,1.1,11.23,1.54,16.85l1.61,20.76a.13.13,0,0,0,.13.13L169.43,230l48.51-2.83,11.09-.65a.13.13,0,0,0,.11-.19L218.42,205l-7.29-14.48c-1.2-2.39-2.57-4.76-3.59-7.24-4.78-11.66-5.83-25.21-4.4-37.63a.13.13,0,0,0-.16-.12l-62,21.06-8.77,3c-.15.05-.09.29.07.24l54.49-18.5,12.52-4.25a14.57,14.57,0,0,1,3.19-1.08c.13,0,.42-.23.55-.19-.13,0-.65,6.52-.67,7.22-.29,10.16,1,21.48,5.16,30.87,1.25,2.84,2.8,5.58,4.2,8.34l15.5,30.81c.43.85,1.51,2.23,1.61,3.19,0,.38.21,0,.16,0s-.55,0-.64,0c-2.74,0-5.53.32-8.27.48l-68.4,4-10.34.6c-.44,0-1.61.32-2,.12s.23.31,0-.2a8.12,8.12,0,0,1-.18-2.38q-1.62-20.88-3.57-41.72c-.23-2.51-.39-5.05-.83-7.54-.58-3.24-2.87-6.59-2.33-9.93C132.39,169.6,132.15,169.53,132.12,169.69Z"/><path d="M119.14,125.5c-.16.25-.53.12-.82.07a1.52,1.52,0,0,0-1.51.88,4.1,4.1,0,0,0-.34,1.81,14.41,14.41,0,0,0,.29,3.68,25.56,25.56,0,0,0,1.57,4.08c.81,1.9,1.44,3.88,2.06,5.86l1.28,4a43.19,43.19,0,0,1,1.91,7.57,2.28,2.28,0,0,0,.45,1.34c.33.35,1,.35,1.19-.1" style="fill:#62647a;stroke:#000;stroke-miterlimit:10;stroke-width:0.25px"/><path d="M210.5,123.38a14.33,14.33,0,0,0,0,3.07,23.93,23.93,0,0,1-.59,6.85c-.61,2.56-1.63,5-1.72,7.66a23.17,23.17,0,0,1-.1,3,3.18,3.18,0,0,1-1.58,2.42,1.75,1.75,0,0,1-2.44-.95,9.54,9.54,0,0,1,0,2.52c-2.36,10.52-8.57,19.76-15.52,28a61.52,61.52,0,0,1-10.1,10,26.92,26.92,0,0,1-13,5.43c-1.3.13-2.92,0-3.42-1.25l.41-1.94c-1.17,1.8-3.4,2.53-5.46,3.12-3,.88-6.44,1.72-9.17.16a12.07,12.07,0,0,1-3.48-3.63L131,169.25a71.88,71.88,0,0,1-6.56-10.37,53.53,53.53,0,0,1-2.92-7.84,104.76,104.76,0,0,1,4.65-72.1c.68-1.53,1.4-3,2.18-4.52a94.87,94.87,0,0,1,9-8.27,17,17,0,0,1,7.32-4.06c4.64-1.59,9.34-3.19,14.23-3.6,7.12-.58,14.2,1.4,20.93,3.82a20,20,0,0,0,4.88,1.3l.3.3a38.82,38.82,0,0,0,4.11,3.25A39.59,39.59,0,0,1,196,74.7l3,3.94a21.12,21.12,0,0,1,2.09,3.08,21.67,21.67,0,0,1,1.27,3.34l2.69,8.48a35.41,35.41,0,0,1,1.86,7.91,30.45,30.45,0,0,1-.73,8.61c-.11.52-.19,1.6-.3,2.39.87-1.34,3-1.43,4.34-.58a5.14,5.14,0,0,1,2.16,4.08,11.24,11.24,0,0,1-1,4.66A13.93,13.93,0,0,0,210.5,123.38Z" style="fill:#62647a"/><path d="M210.38,123.38c-.17,1.74.1,3.48,0,5.22a26.69,26.69,0,0,1-1.06,6.36,31,31,0,0,0-1.2,5.09c-.06.56-.06,1.1-.08,1.66s0,1,0,1.51q.11,3-3.87,2.15a.13.13,0,0,0-.23.06c.51,5.1-2.67,11.11-5,15.46a88,88,0,0,1-10,14.32c-3.73,4.48-7.73,8.9-12.7,12a26.77,26.77,0,0,1-8.4,3.59c-1.76.39-3.09.73-4.65-.2-1.35-.81-1-1.1-.68-2.42a.13.13,0,0,0-.23-.1c-2.29,3-8.74,4.61-12.34,3.94-4.47-.84-7.16-6.53-9.6-9.94-4.92-6.87-10.43-13.6-14.59-21-4.05-7.17-6-15.75-7.22-23.83a105.26,105.26,0,0,1,4-48.51,99.14,99.14,0,0,1,4.65-11.7c1.91-4,5.48-6.8,8.81-9.65a26,26,0,0,1,5.3-3.92,51.54,51.54,0,0,1,6.46-2.36,45,45,0,0,1,13-2.66,44.42,44.42,0,0,1,13.26,2c2,.56,3.87,1.22,5.78,1.9,1.59.56,3.68.71,5.12,1.57a43.55,43.55,0,0,1,4.1,3.26,31.15,31.15,0,0,1,4.8,4.84c3,3.68,6.6,7.6,8.18,12.15a129.73,129.73,0,0,1,4.33,14.12c1.07,4.8,0,9.32-.54,14.09a.13.13,0,0,0,.21.09c1.65-1.93,4.35-1.08,5.53.86a6,6,0,0,1,.64,4.12c-.29,2-1.34,3.83-1.8,5.83,0,.16.2.22.24.07.78-3.38,4.42-10.78-1.46-12.12-1-.22-1.52.18-2.42.26-.75.06-.46,1-.55-.4-.09-1.56.6-3.32.77-4.9a24.67,24.67,0,0,0,0-5.74c-.46-3.69-1.85-7.25-3-10.78-1-3.13-1.72-6.58-3.54-9.35a59.14,59.14,0,0,0-13.33-14.85c-.69-.52-1.61-1.58-2.37-2s-3-.66-4.12-1a90,90,0,0,0-11.57-3.41A39.62,39.62,0,0,0,149,60.51c-3,.93-6.23,1.76-8.91,3.39a53.28,53.28,0,0,0-7.8,6.47,27.11,27.11,0,0,0-4,4,24,24,0,0,0-1.86,3.78,101.27,101.27,0,0,0-3.87,9.79,105.43,105.43,0,0,0-5.2,40.72,103.25,103.25,0,0,0,3.34,19.92,59.36,59.36,0,0,0,9.2,19.34c4.55,6.42,9.15,12.81,13.74,19.2,1.33,1.85,2.64,3.93,4.83,4.84,2.48,1,5.3.39,7.78-.28a21.49,21.49,0,0,0,3.53-1.18c.91-.43,1.52-1.2,2.34-1.65.39-.22.19-.72,0,.31a3.69,3.69,0,0,0-.2,1,1.71,1.71,0,0,0,.71.93c1.43,1,3.79.41,5.33.06a27.54,27.54,0,0,0,9.16-4.07c6.06-4,10.89-9.91,15.26-15.65A66,66,0,0,0,203,152.08a22.18,22.18,0,0,0,1.22-4.75c0-.1-.06-1.71,0-1.72-.47.22.61.91.49.82,1.18.87,2.62-.25,3.14-1.27.66-1.3.4-2.8.47-4.2a33.82,33.82,0,0,1,1.5-6.78c1-3.67.44-7.12.79-10.8C210.64,123.22,210.39,123.22,210.38,123.38Z"/><path d="M184.71,63.61a20,20,0,0,1-4.88-1.3c-6.73-2.42-13.81-4.4-20.93-3.82-4.89.41-9.59,2-14.23,3.6a17,17,0,0,0-7.32,4.06,94.87,94.87,0,0,0-9,8.27,51.46,51.46,0,0,1,10.42-14.27c5.57-5.17,12.94-9,20.53-8.89H160c4.21.16,8.13,2.11,11.89,4,1.87,1,3.75,1.9,5.54,3a45.06,45.06,0,0,1,5.49,3.94C183.57,62.73,184.17,63.11,184.71,63.61Z"/><g id="Lips"><path d="M142.15,151.81a24.15,24.15,0,0,1,6.4-6.41,11.63,11.63,0,0,1,8.7-1.76,7,7,0,0,0,2,.35,6.48,6.48,0,0,0,2.3-.87,11.7,11.7,0,0,1,14,3.37c.82,1.09,1.44,2.31,2.23,3.42-2,3.12-4.8,5.59-7.58,8a8.6,8.6,0,0,1-2,1.45c-2.37,1.06-5.18-.17-7.69.47-.78.2-1.5.57-2.25.85a9.46,9.46,0,0,1-8.25-.94,18.63,18.63,0,0,1-2.32-1.89c-2.09-1.89-4.18-3.79-6.07-5.87" style="opacity:0.13"/><path d="M142.25,151.87c2.43-3.28,5.34-6.47,9.33-7.77a11.22,11.22,0,0,1,6-.26,4.89,4.89,0,0,0,2.56.09c1.4-.39,2.6-1.25,4.06-1.54a11.82,11.82,0,0,1,5.28.21A11.59,11.59,0,0,1,177,149c1.1,2.73-4.32,6.66-6.25,8.31a8,8,0,0,1-6.39,2.37,14.74,14.74,0,0,0-3.55,0c-1.68.32-3.14,1.25-4.88,1.42a9.57,9.57,0,0,1-5.9-1.43c-3.1-1.93-5.9-5.08-8.36-7.74-.11-.12-.29.06-.18.18,2.62,2.83,5.63,6.33,9.09,8.17,3.21,1.71,5.94,1,9.16,0,3.45-1.08,6.82.66,9.92-1.66a35.53,35.53,0,0,0,8.24-8.57.12.12,0,0,0,0-.13c-2-3-3.57-5.66-7.08-7a11.85,11.85,0,0,0-8.66-.08c-1.6.63-2,1.17-4.21,1-.78-.07-1.53-.36-2.33-.41a11.55,11.55,0,0,0-4.91.88c-3.68,1.47-6.36,4.48-8.67,7.59-.1.13.12.25.22.13Z"/><path d="M145.52,153.79c.68.38,1.49-.14,2.09-.64l4-3.38a3.25,3.25,0,0,1,1.12-.7,3.58,3.58,0,0,1,1.79.13A11.1,11.1,0,0,0,161,149c1.71-.66,3.35-1.93,5.16-1.64,2.44.39,3.93,3.47,6.39,3.46-2.59,1.49-6,1.66-8.89,2.57-1.42.46-2.78,1.12-4.23,1.48a5.66,5.66,0,0,1-4.34-.44,3.62,3.62,0,0,0-1.17-.64,5.5,5.5,0,0,0-1.54.18c-1.54.15-3.75-1.51-5-.61" style="fill:#e5e6ea"/><path d="M145.49,153.91c1.64.27,2.71-1.09,3.89-2.08,1.81-1.52,2.8-2.67,5.54-2.43a27.44,27.44,0,0,0,2.88.3,9.68,9.68,0,0,0,3.21-.58c1.14-.42,2.44-1.44,3.64-1.56,2.18-.22,3.25.78,4.83,2,.55.42,1.36.74,1.84,1.18,0,0,.59.15.6.18.09.24-1.34.66-1.5.72a34.91,34.91,0,0,1-3.81.93c-2.68.58-5.25,2-7.95,2.33-1.93.24-3-.7-4.69-1.17-.8-.22-1.85.18-2.68,0-1.41-.23-2.59-1.14-4-.48-.15.07,0,.28.13.22,1.47-.68,4.27.6,6,.66,1.9.06,3.19,1.31,5.29,1,2.46-.36,4.75-1.65,7.19-2.2a26.81,26.81,0,0,0,6.69-2c.12-.06,0-.22-.06-.23-2.46-.24-3.56-2.61-5.77-3.31-1.87-.59-3.46.48-5.12,1.19a10.87,10.87,0,0,1-6.25.66,6.25,6.25,0,0,0-2.64-.3c-2.44.7-4.38,5.19-7.19,4.73-.16,0-.23.22-.07.24Z"/><g style="clip-path:url(#clip-path)"><path d="M153.44,148.58c0,1.06.08,2.11.15,3.17,0,.49.06,1,.06,1.46q0,.36,0,.72a1,1,0,0,0,.07,1.23c0-.16-.22-.23-.24-.07l0,.23c0,.16.21.23.24.07.49-2.26,0-4.53,0-6.81a.13.13,0,0,0-.25,0Z"/><path d="M157.75,148.7q.09,3.83.25,7.67c0,.16.26.16.25,0q-.16-3.83-.25-7.67a.13.13,0,0,0-.25,0Z"/><path d="M162.91,147.28a62.1,62.1,0,0,0,.24,8.26c0,.16.26.09.24-.07a61.67,61.67,0,0,1-.23-8.19.13.13,0,0,0-.25,0Z"/><path d="M167.11,146.66q.08,2.26.2,4.51a9,9,0,0,0,.28,3,.13.13,0,0,0,.17,0l.07,0a.13.13,0,0,0,.06-.14l0-.06c-.05-.15-.29-.09-.24.07a10.56,10.56,0,0,1,0-1.79q-.06-1-.12-2-.1-1.83-.16-3.67c0-.16-.26-.16-.25,0Z"/><path d="M150.13,149.78a26.64,26.64,0,0,1,.18,6.17c0,.16.24.16.25,0a26.91,26.91,0,0,0-.18-6.23c0-.16-.26-.09-.24.07Z"/></g></g><path d="M198.09,98.36a19.8,19.8,0,0,0-3.94-2.2,17.33,17.33,0,0,0-6.51-.77,68.35,68.35,0,0,0-23.7,4.9c-3.55,1.43-7.1,3.18-10.92,3.28a5.65,5.65,0,0,1-1.74-.17,11.72,11.72,0,0,1-1.51-.65,16.24,16.24,0,0,0-6.83-1.08,59.88,59.88,0,0,0-24.2,5.3l-1,.32v1.42l1.71-.85c1,4.66,1.79,8.28,2,10.43a8.44,8.44,0,0,0,1.41,4c.89,1.39,2.42,1.46,4,1.9,3.41.94,6.8.62,10.33.5a42.36,42.36,0,0,0,8.63-1.46,8.39,8.39,0,0,0,4.51-3.8,21,21,0,0,0,1.53-5.57c.29-1.63.1-2.79,1.21-4.62s5.27-1.26,6.05-.15a61.57,61.57,0,0,0,5,7.54,11.4,11.4,0,0,0,4.12,2.43,20.87,20.87,0,0,0,5,.49,53.67,53.67,0,0,0,11.78-.83,8.55,8.55,0,0,0,5.31-2.26,8.35,8.35,0,0,0,1.73-2.76c1.2-3.46,1.32-7.87,1.11-12.53.91.41,3.52,1.25,4.44,1.66l5.35,2.39,4.31,1.93.66-2.25Zm-47.8,10.21a39.53,39.53,0,0,1-1.07,8,5.49,5.49,0,0,1-.89,2.33,5.32,5.32,0,0,1-2.47,1.51,33.38,33.38,0,0,1-13.61,1.93,26.34,26.34,0,0,1-6.13-1.1,4.27,4.27,0,0,1-2.57-1.68,4.69,4.69,0,0,1-.46-2l-.62-7.23a3.43,3.43,0,0,1,.56-2.75A39.69,39.69,0,0,1,136.4,104c4.05-.42,8.27-1.14,12,.5a4.17,4.17,0,0,1,2,1.41C150.66,106.42,150.31,107.94,150.29,108.57Zm40.25,2.4a6.11,6.11,0,0,1-2.66,4.44,7.76,7.76,0,0,1-2.06.74,41.1,41.1,0,0,1-15,.87,11.21,11.21,0,0,1-4.21-1.19,9.54,9.54,0,0,1-3.27-3.45c-1.77-2.92-3.11-5.55-3-9a45.86,45.86,0,0,1,13.84-4.81c2.68-.47,5.79-1,8.5-1.25a17.74,17.74,0,0,1,4.28-.06,3.64,3.64,0,0,1,3.1,1.75c.76,1.66.49,4.75.51,6.57A32.57,32.57,0,0,1,190.54,111Z"/><g style="opacity:0.62"><path d="M147,97.39c-3.12-2.47-6.18-3.82-10.2-2.74-4.78,1.28-9.25,4.56-13.54,7-1.69.94-.18,3.53,1.51,2.59,3.27-1.83,6.51-3.79,9.86-5.46,3.81-1.9,6.85-1.9,10.23.78,1.5,1.19,3.63-.92,2.12-2.12Z"/></g><g style="opacity:0.62"><path d="M167.14,96.87a14.11,14.11,0,0,1,10.21-5.76c2.3-.17,4,.85,6.15,1.52A46.11,46.11,0,0,0,189.64,94c1.89.33,2.7-2.56.8-2.89a41.76,41.76,0,0,1-8.58-2.31,11.35,11.35,0,0,0-6.37-.44,17.3,17.3,0,0,0-10.94,7c-1.14,1.56,1.46,3.06,2.59,1.51Z"/></g><g id="Nose"><path d="M149.54,124a6.43,6.43,0,0,0-6.55,6c-.15,3,2,6.58,5.38,5.53.31-.1.18-.58-.13-.48-3.66,1.14-5.29-3.52-4.55-6.27a6,6,0,0,1,5.86-4.3.25.25,0,0,0,0-.5Z"/><path d="M148.08,135.51a2.18,2.18,0,0,1-1.23-1.9,1.67,1.67,0,0,1,.4-1.15,2,2,0,0,1,1.5-.54c1.55,0,2.89,1,4.2,1.87s3,1.52,4.38.85a7.27,7.27,0,0,0,2.23-2.27,9.57,9.57,0,0,1,2.67-2.27,3.81,3.81,0,0,1,3.12-.54,1.78,1.78,0,0,1,.94,2.62" style="fill:none;stroke:#000;stroke-miterlimit:10;stroke-width:0.5px"/><path d="M166.12,132.76c3.21,1.93,5.46-1.66,5.76-4.47.17-1.65.23-3.51-.82-4.89a8.34,8.34,0,0,0-2.15-1.8c-1.13-.73-3.69-1.24-4.18-2.44-.12-.29-.6-.17-.48.13.76,1.86,3.21,1.93,4.74,3a5.16,5.16,0,0,1,2.46,4.82c-.05,2.45-1.53,7.39-5.08,5.25a.25.25,0,0,0-.25.43Z"/><ellipse cx="149.2" cy="133.73" rx="2.29" ry="1.8"/><ellipse cx="164.47" cy="131.29" rx="2.43" ry="1.89" transform="translate(-17.97 26.4) rotate(-8.7)"/></g><path d="M130.85,114.33c2.73,1.48,6.08,1.12,9.09.38q1.5-.37,3-.85a15,15,0,0,0,2.48-1,9.12,9.12,0,0,0,2.31-1.77,11.44,11.44,0,0,1-2.76-1.53c-.93-.49-2-.67-2.9-1.22a4.74,4.74,0,0,0-.73-.41,2.6,2.6,0,0,0-.83-.14,9.75,9.75,0,0,0-6.22,1.95,19.33,19.33,0,0,0-1.63,1.43,6.12,6.12,0,0,0-2,2.8A.28.28,0,0,0,130.85,114.33Z" style="fill:#e0d7d7;stroke:#000;stroke-miterlimit:10;stroke-width:0.25px"/><path d="M166.67,109.29,168.8,107a10.34,10.34,0,0,1,3.27-2.63,9.58,9.58,0,0,1,2.14-.56c2-.36,4.24-.6,6.09.34a25.72,25.72,0,0,0,2.56,1.5c.76.28,1.77.46,2,1.25a1.26,1.26,0,0,1-.5,1.22,3.39,3.39,0,0,1-1.26.55,37.18,37.18,0,0,1-5.89,1,16.66,16.66,0,0,1-5.27-.07c-.49-.11-1-.25-1.48-.33a5.93,5.93,0,0,0-3.34.43.43.43,0,0,1-.38,0,.33.33,0,0,1,0-.53" style="fill:#e0d7d7;stroke:#000;stroke-miterlimit:10;stroke-width:0.25px"/><g style="clip-path:url(#clip-path-2)"><circle cx="137.66" cy="111.28" r="3.5"/><circle cx="138.07" cy="111.16" r="1.05" style="fill:#fff"/></g><g style="clip-path:url(#clip-path-3)"><circle cx="176.24" cy="106.4" r="3.5"/><circle cx="175.91" cy="106.28" r="1.05" style="fill:#fff"/></g><path d="M207.08,116.33c.59-.58,1-1.56,1.78-1.63a1.33,1.33,0,0,1,1.27.92,3.37,3.37,0,0,1,.06,1.67c-.45,3.05-1.78,6-1.47,9.1.07.67.22,1.34.26,2a13.73,13.73,0,0,1-.8,4.75,2.38,2.38,0,0,1-.24.61,4.91,4.91,0,0,1-.37.46,2.56,2.56,0,0,0-.43.81,6.12,6.12,0,0,1-.32,1,.86.86,0,0,1-.84.51c-.35-.06-.55-.58-.26-.79" style="fill:none;stroke:#000;stroke-miterlimit:10;stroke-width:0.25px"/><path d="M205.35,115.22q-.32,6.74-1,13.45-.12,1.29-.25,2.58l-.24,2.4-.61,6.13" style="fill:none;stroke:#000;stroke-miterlimit:10;stroke-width:0.25px"/><path d="M157.94,140.07a8,8,0,0,0-1.77-1.47,3,3,0,0,0-2.33-.33,5.69,5.69,0,0,0-1.62,1.07c-2.26,1.77-5.19,2.45-7.61,4a12.79,12.79,0,0,0-5,6.25c-.72,1.92-.94,4.23.24,5.91.84-.7.74-2,1.08-3a6.79,6.79,0,0,1,1.37-2.13l1.61-1.92a17.81,17.81,0,0,1,2.17-2.29,16.65,16.65,0,0,1,3.3-2c2-1,4.06-1.93,6.24-1.76,1.34.11,2.71.63,4,.22a23.13,23.13,0,0,0,2.22-1.18,7.73,7.73,0,0,1,3.86-.29,16.89,16.89,0,0,1,3.59.6c3.91,1.25,6.63,5.24,10.67,5.93a5.58,5.58,0,0,0,0-2.22,10.77,10.77,0,0,0-2.52-4.41,7.89,7.89,0,0,0-2.82-2.47,3.51,3.51,0,0,0-2-.25c-.38.06-.74.2-1.12.23a4.29,4.29,0,0,1-2.1-.55l-3.31-1.51a5.74,5.74,0,0,0-3.43-.76c-1.91.39-2.84,2.49-4,4.09-.16.23-.53.51-.66.37Z" style="opacity:0.13"/><path d="M191.56,172.22h0q-1.48,1.9-3,3.73a61.52,61.52,0,0,1-10.1,10,26.92,26.92,0,0,1-13,5.43c-1.3.13-2.92,0-3.42-1.25l.41-1.94c-1.17,1.8-3.4,2.53-5.46,3.12-3,.88-6.44,1.72-9.17.16a12.07,12.07,0,0,1-3.48-3.63l-9.28-13a15.32,15.32,0,0,1-.42-1.9l.63.11c3.36,0,5.91,2.82,8.5,5a14.77,14.77,0,0,0,6.21,3.2,8.54,8.54,0,0,0,6.74-1.25c.92-.68,1.66-1.57,2.54-2.29a4.16,4.16,0,0,1,3.13-1.11c1.41.21,2.4,1.47,3.64,2.19a7.5,7.5,0,0,0,5.92.34,53.09,53.09,0,0,0,5.58-2.46c4.05-1.78,8.56-2.51,12.32-4.84.56-.36,1.51-.62,1.72,0A.58.58,0,0,1,191.56,172.22Z" style="opacity:0.13"/></g><g id="Shirt"><path d="M174.37,212.8c-4.65,2.62-3.25,3.41-8.51,5.26-7.18,2.53-14.95-1.46-21.12-5.92-2.43-1.76-4.88-3.71-6.14-6.43a19.16,19.16,0,0,1-1.32-6.72l-1.2-16.25c-5.15,3.67-7.42,10.6-12.92,13.72-3.2,1.81-7,2-10.63,2.79-7.34,1.53-21.12,5.73-26.14,11.29-10.64,11.77-12.25,28.89-13.33,44.73-1,15.11.59,79.82-.44,94.93-.19,2.84-.37,5.8.74,8.42,2.59,6.15,17.55,7.26,24.22,7.29,10.36,0,20.68-1.09,31-1.67,53.87-3,119.84,7.43,172.39-4.79,3.83-22.41-1.81-95.13-7.8-117.07a71.12,71.12,0,0,0-4.88-13.62,68.65,68.65,0,0,0-8.09-11.87c-10.51-13-34.14-23.86-49.85-29.55-4.33-1.57-9.13-2.83-12-6.42s-3.11-8.69-4.75-13.06-6.52-8.5-10.61-6.24c0,0,2.79,12,2.6,15.15s-7.14,13.92-8.23,15.17a42.08,42.08,0,0,1-4.17,3.5c-1.25,1.08-3.58,3-4.5,4s-1.22,3-3.86,4.33-5.72,2.63-6.51,3.75S174.37,212.8,174.37,212.8Z" style="fill:#d9dce2"/><path d="M126.75,193.88a49.23,49.23,0,0,0-9.5,24.63,85.58,85.58,0,0,1,5-11.77,3.46,3.46,0,0,1,1.52-1.76c1.15-.48,2.41.35,3.3,1.22,2,1.93,3.47,4.27,5.37,6.26,5.08,5.34,12.46,7.69,18.72,11.59a42.74,42.74,0,0,1,18.42,24.75l-.06-1.65" style="fill:none;stroke:#000;stroke-miterlimit:10;stroke-width:0.5px"/><path d="M177.1,209.71c-5,6.75-7.1,15.12-9.12,23.25-.89,3.6-1.77,7.48-.37,10.92" style="fill:none;stroke:#000;stroke-miterlimit:10;stroke-width:0.5px"/><path d="M169.49,246.88c4.32,22.09-3.23,95.08,2.87,116.74" style="fill:none;stroke:#000;stroke-miterlimit:10;stroke-width:0.5px"/><path d="M217,179.83c3.26,8,4.41,16.29,6.55,24.55,1.09,4.21,2.4,8.35,3.73,12.49.57,1.79,1.12,3.6,1.81,5.35a12.22,12.22,0,0,1,.86,2c.2,1.29.13.28.23.28-.28,0-1.15-.79-1.4-1a46.6,46.6,0,0,0-9.54-4.79c-1.74-.64-3.51-1.1-5.29-1.59a6.7,6.7,0,0,1-3.67-2.34,21.5,21.5,0,0,0-1.53-1.57,33.15,33.15,0,0,1-6.76-8.69c-1.2-2.09-2.64-5.36-5.12-6.23-2.83-1-5.82,2.58-7.7,4.2-3.4,2.93-6.8,5.85-11.23,7a.25.25,0,0,0,.13.48c4.77-1.27,8.39-4.52,12-7.67a21.37,21.37,0,0,1,3.62-2.92c3.18-1.61,4.73.35,6.21,2.66s2.68,4.81,4.26,7.07a36.28,36.28,0,0,0,4.73,4.91c1.81,1.78,2.35,2.9,4.88,3.55a49.44,49.44,0,0,1,16.81,7.79c.22.16.45-.14.34-.34-1.85-3.48-2.89-7.34-4.07-11.08s-2.37-7.69-3.32-11.6c-1.86-7.68-3.06-15.32-6.08-22.68-.12-.29-.6-.17-.48.13Z"/></g></g><g id="Freelancer"><g id="Head-3" data-name="Head"><path d="M471.85,85.9a93.76,93.76,0,0,0-13.56.78,33.79,33.79,0,0,0-7.68,2.24c-11.49,4.57-22.42,12.08-27.91,23.16-4.45,9-4.92,19.53-3.13,29.39s5.68,19.2,9.66,28.4c4.51,10.42,9.22,20.87,16.06,29.93a32.32,32.32,0,0,0,6.75,7c3.74,2.68,8.24,4,12.66,5.31l17,5c5.47,1.6,11.69,3.12,16.58.19s6.43-8.89,8.27-14.17a74,74,0,0,1,7.66-15.7,42,42,0,0,0,4.29-7.43c3.6-9.36-1.86-19.6-2.22-29.63-.12-3.29.33-6.58.32-9.88,0-12.41-6.43-24-14.2-33.64a63.68,63.68,0,0,0-7.4-8c-6-5.29-13.3-8.83-20.5-12.29A4.9,4.9,0,0,0,472,85.9Z" style="fill:#62647a"/><path d="M471.85,85.77c-6.94,0-13.89.2-20.45,2.7a67,67,0,0,0-14.58,7.63c-9.12,6.39-15.68,15.4-17.65,26.49-2.28,12.88,1.23,25.84,5.94,37.76s9.87,24.3,17,35.12c3,4.64,6.49,9.43,11.32,12.36,5.64,3.42,12.55,4.76,18.82,6.59,9.12,2.67,23.17,9.28,30-.87,3.09-4.56,4.15-10.28,6.3-15.29a74,74,0,0,1,4.37-8.57c1.69-2.84,3.76-5.48,5.16-8.49,2.41-5.17,1.88-10.83.81-16.27-.57-2.87-1.28-5.72-1.8-8.6a50.37,50.37,0,0,1-.54-11.92c.75-14-5-26.21-13.57-37a59.19,59.19,0,0,0-15.53-14.17c-2.93-1.8-6-3.38-9.06-4.89-2-1-4.26-2.56-6.57-2.55a.13.13,0,0,0,0,.25c2.46,0,5.06,1.82,7.22,2.9,2.56,1.28,5.1,2.6,7.55,4.07a55.59,55.59,0,0,1,14,11.81c7.75,9.1,14.61,20.13,15.73,32.29.54,5.87-.61,11.71.28,17.58s2.84,11.55,3,17.49a19.72,19.72,0,0,1-1.88,9.3c-1.33,2.72-3.19,5.14-4.75,7.72a76.39,76.39,0,0,0-6.74,14.54c-1.68,4.86-3.27,10.61-8,13.43-5.61,3.36-12.63.92-18.38-.76-6.15-1.8-12.34-3.49-18.45-5.43a29.72,29.72,0,0,1-15-10c-7.63-9.54-12.61-20.92-17.41-32.05-5-11.6-9.87-23.67-10.22-36.47-.37-13.33,4.75-25.4,15.14-33.84a63.58,63.58,0,0,1,16-9.3C457,86.44,464.29,86,471.85,86A.13.13,0,0,0,471.85,85.77Z"/><g id="Hair"><path d="M511,119.76a9.8,9.8,0,0,0-.87-8.79c-1.16-1.78-2.93-3.2-3.7-5.18-.51-1.32-.54-2.79-.95-4.15s-1.43-2.72-2.85-2.81c-.73,0-1.51.26-2.19,0a2.73,2.73,0,0,1-1-1l-2.8-3.66a2.68,2.68,0,0,0-.72-.73c-.95-.56-2.11.2-2.91,1a14.3,14.3,0,0,0-2.62-4.93,2.59,2.59,0,0,0-.75-.69c-1.07-.57-2.3.37-3.15,1.24l-.27-.51c-.6.63-1.73,0-2-.79a10,10,0,0,1-.12-2.58,4.48,4.48,0,0,0-3-3.79,5.17,5.17,0,0,0-4.81.86c-.8.63-1.43,1.48-2.28,2a2.32,2.32,0,0,1-2.83,0,6.88,6.88,0,0,1-.9-1.74,2.88,2.88,0,0,0-3.42-1.27c-1.43.54-2.32,2.2-3.83,2.43-1.06.17-2.07-.44-3.08-.8s-2.37-.37-2.91.56L457,83.29l-5.25.93-1.42.25a10.42,10.42,0,0,0-4.7,1.65c-1.26,1-2,2.49-3.1,3.65a7.67,7.67,0,0,1-5.61,2.34,2.08,2.08,0,0,0-1,.13c-.61.32-.66,1.17-1.09,1.71a3.12,3.12,0,0,1-1.26.78,21.46,21.46,0,0,0-7.94,6.39c-.64.8-1.24,1.62-1.84,2.45l-1.07,1.47-6.26,8.61a3.47,3.47,0,0,0-.9,2.16c0,.57.36,1.11.27,1.67s-.67,1-1.09,1.49a4.06,4.06,0,0,0,.26,5.53c-2,2.37-4.19,5.42-3.08,8.34l0,.43a5.81,5.81,0,0,0-.62,7.58c-1.38.19-2,1.83-2.15,3.22-.19,1.75,0,3.76,1.42,4.86a4.18,4.18,0,0,0-1.44,4,9.94,9.94,0,0,0,1.92,4.06c-1.44,2.19-2.95,4.66-2.51,7.24s2.55,4.47,2.58,7a19.34,19.34,0,0,1-.48,3,3.3,3.3,0,0,0,.68,2.86,2.64,2.64,0,0,1,.61.65,1.61,1.61,0,0,1,0,1,14.25,14.25,0,0,1-.35,1.73c-.21.73-.54,1.43-.7,2.17-.45,2.16.64,4.31,1.71,6.25a52.61,52.61,0,0,0-1.76,13.79c0,2.9.25,5.91-.89,8.58a23.85,23.85,0,0,0-1.45,3.22c-.16.6-.2,1.22-.38,1.82-.4,1.34-1.42,2.41-2,3.7a27.21,27.21,0,0,0-1,4.15c-1.12,4.38-5.13,7.65-6,12.1l-.57.22a29.45,29.45,0,0,0,9.27-1l9-1.92c3.28-.7,6.77-1.51,9.06-4,2-2.12,2.7-5.08,3.66-7.81a15.49,15.49,0,0,1,3.61-6.2,7.27,7.27,0,0,1,6.32-2.07,1.57,1.57,0,0,0,.18.36l5.74.26c-.92-9.72-4.64-18.92-8.31-28l-9.84-24.23c-1.82-4.48-3.66-9.25-3.49-14a10.4,10.4,0,0,1,3.79,1.61l1.12.34a13.08,13.08,0,0,0,4.71,2.5,4.47,4.47,0,0,0,4.76-1.66,5.94,5.94,0,0,0,.66-2.89,29.43,29.43,0,0,0-.26-5.05c-.41-2.89-1-6.48,1.39-8.17.83-.59,1.88-.8,2.76-1.32s1.6-1.6,1.15-2.52c-.31-.66-1.11-1-1.46-1.61-.57-1.05.31-2.3,1.27-3s2.15-1.3,2.51-2.43c.56-1.71-1.09-3.27-2.55-4.32a3.35,3.35,0,0,0,2.18-3.44,2.38,2.38,0,0,0-3.3-1.76,28,28,0,0,0,2.21-6.08c.37-1,1.91,0,2.92-.31.63-.18,1-.85,1.4-1.34,1.78-2,5.15-1,7.62-2.11s3.82-3.9,6.38-4.16c1.24-.13,2.44.41,3.68.47s2.74-.73,2.63-2a3.1,3.1,0,0,0,4.29-.36c.06,1,1.09,1.72,2.09,1.94a30.35,30.35,0,0,1,3,.46,15.69,15.69,0,0,1,3.13,2c1,.66,2.51,1,3.47.24a2.5,2.5,0,0,0,4.1,1.38,11.78,11.78,0,0,0,6.32,3.61c2,.4,4.12.32,5.84,1.35a10.31,10.31,0,0,1,2.33,2.19l5.5,6.41c.79,1.26,1.47,2.15,1.47,2.15s.07-.21.11-.31l.06.08Zm-5-8.2a4.64,4.64,0,0,1,1.2,1.76h0Q506.58,112.43,506,111.56Zm-96.52,51.18a3.64,3.64,0,0,0-1.72,4.53c-.37-.15-.7.28-.83.66a5.19,5.19,0,0,0,0,3.31c-.53-.09-.82.6-.85,1.13a6.47,6.47,0,0,0,.47,2.82,2.71,2.71,0,0,0-.46,3.83c-1.07.93-.93,2.61-.7,4,.1.58.4,1.32,1,1.24a3.14,3.14,0,0,0,.6,4.57,4.77,4.77,0,0,0-.47,2,1.63,1.63,0,0,0,1.13,1.54,3.11,3.11,0,0,0-.21,1.6,1.07,1.07,0,0,0,1.17.88,3.15,3.15,0,0,0,1.61,3.27,2.83,2.83,0,0,1,1.09.68,7,7,0,0,0,.41-3.19,7.82,7.82,0,0,0-1.36-3.58c-.28-.41-.73-.84-1.2-.69l-.2-2.8,0-.57c0-.37-.05-.74-.11-1.1a6.32,6.32,0,0,0-1.19-2.8,6.79,6.79,0,0,0,.25-4.14,1.62,1.62,0,0,1-.08-.5,1.74,1.74,0,0,1,.2-.58,4.36,4.36,0,0,0,.24-2.85,1.83,1.83,0,0,1-.1-.62,1.89,1.89,0,0,1,.23-.62,3.79,3.79,0,0,0,.14-2.9,2.77,2.77,0,0,0,.73-2,1.52,1.52,0,0,1,0-.5,1.38,1.38,0,0,1,.42-.56,4.4,4.4,0,0,0,1.28-2.61m-13.55,65.55a2.59,2.59,0,0,0,1.21,1.77,2.75,2.75,0,0,0,1.1-2.93,2.51,2.51,0,0,0,1.46-1.53,7.44,7.44,0,0,0,.37-2.15,3.67,3.67,0,0,0,1.45-3.74,3.19,3.19,0,0,0,1.4-2.64,1.94,1.94,0,0,1,.07-.8,1.4,1.4,0,0,1,.37-.45,5.08,5.08,0,0,0,1.69-2.36,5.59,5.59,0,0,0,.12-1.51,2.57,2.57,0,0,0,1.27-3.06,2.66,2.66,0,0,0,1.51-3.81,2.81,2.81,0,0,0,1.68-3.23.8.8,0,0,1,0-.52.82.82,0,0,1,.18-.22,2.31,2.31,0,0,0,.64-1.39,2.41,2.41,0,0,1,.07-.57,1.88,1.88,0,0,1,.39-.57,5,5,0,0,0,1.15-3.46,1.76,1.76,0,0,0-.3-1,.79.79,0,0,0-.94-.27l-1.73-.28a4.69,4.69,0,0,0-1,4.08,2.62,2.62,0,0,0-.67,3.14c-1,.66-.91,2.1-.72,3.27a2,2,0,0,0-2,1.55,4.3,4.3,0,0,0,.32,2.69,2.17,2.17,0,0,0-1,3.53,2.78,2.78,0,0,0-1.77,3.57,3,3,0,0,0-1.7,3.73,2.34,2.34,0,0,0-1.34,3.4A2.47,2.47,0,0,0,399,229.8c-.27-.37-1.23.48-1.38.66a2.57,2.57,0,0,0-.5,1.18c-.24,1.14-.92,2.14-.11,3.24a3.93,3.93,0,0,0-1.94,3.28,1.65,1.65,0,0,0,.56,1.41,1.86,1.86,0,0,0,1.68,0,1.68,1.68,0,0,0,.71-.42,1.72,1.72,0,0,0,.33-.93,10.5,10.5,0,0,0,0-2.3,1.82,1.82,0,0,0,.8-1.69,5.37,5.37,0,0,0-.57-1.88m128.58,22.15a3.32,3.32,0,0,0-2.87-3,29.44,29.44,0,0,0-2.22-10.56c-.6-1.43-1.85-3.08-3.32-2.59a4.74,4.74,0,0,0,1.21-4.11c-.39-1.43-2.24-2.44-3.45-1.59a9.89,9.89,0,0,0,1.1-4.66c-.17-1.61-1.43-3.23-3-3.19a5.33,5.33,0,0,0-.66-6.72c-.38-.37-.85-.72-.95-1.24a2.46,2.46,0,0,1,.4-1.44,6.62,6.62,0,0,0-1.54-7.48,13.57,13.57,0,0,0,2.26-5.53,6,6,0,0,0-.17-3.19,2.81,2.81,0,0,0-2.42-1.86,9,9,0,0,0,.33-6,73.13,73.13,0,0,0-4.52,9.61,12.64,12.64,0,0,0,1,2.62,4.91,4.91,0,0,1,.6,1.58c.18,1.48-1.18,2.84-.92,4.3s2,2.41,1.88,3.87a4.79,4.79,0,0,1-.56,1.44,6.92,6.92,0,0,0-2.61-2,9.94,9.94,0,0,0-.73-7.89,35.72,35.72,0,0,1-3.91,8.8,9.23,9.23,0,0,0,1.54,1.82,3.11,3.11,0,0,1,.8.9,4.06,4.06,0,0,1,.21,1.52,4,4,0,0,0,2.52,3.29,8,8,0,0,0-.57,3.71c-2-3.27-3.77-6.55-4-10.3l-1.32.13a11.58,11.58,0,0,1-2.95,2.57,11.11,11.11,0,0,1-2.34,1c-.67,2.69-.37,5.73-.1,8.56.62,6.56.8,13.16.8,19.76,0,2.81.19,6.08,2.49,7.7L515.52,256a15.44,15.44,0,0,1,.45,2.87,1.32,1.32,0,0,0,.27.9c.22.23.73.17.76-.15l2.32.38a5.45,5.45,0,0,0,2.43,1.57L526,258.8A6.82,6.82,0,0,0,527.22,254.51ZM512.1,223.14a4.07,4.07,0,0,0-1.53-1.22,6.21,6.21,0,0,0,.4-1.58,18.07,18.07,0,0,0,1.65,1.63A7.17,7.17,0,0,0,512.1,223.14Zm1.81,9.19a2.72,2.72,0,0,1-.33-.57,2.66,2.66,0,0,1-.15-1,7.73,7.73,0,0,0,.93,1A4,4,0,0,0,513.91,232.33Zm2.48,8.27a2.17,2.17,0,0,0-1.91-.66c.15-.47.3-1,.43-1.46a4.74,4.74,0,0,0,1.84.94C516.61,239.81,516.49,240.2,516.39,240.6Z"/></g><g id="Ear"><path d="M428.8,152.17c-1.47-1.79-3.14-3.7-5.41-4.15a6.2,6.2,0,0,0-6.09,2.85,10.19,10.19,0,0,0-1.33,6.86,30.31,30.31,0,0,0,2,6.84l1.39,3.72c1.24,3.3,2.57,6.73,5.21,9.06a10.87,10.87,0,0,0,7,2.68,4.68,4.68,0,0,0,2.88-.74,2.24,2.24,0,0,0,.81-2.67" style="fill:#62647a;stroke:#000;stroke-miterlimit:10;stroke-width:0.25px"/><path d="M426.18,159.6c-1.32.85-3.28.46-3.92,2.18-.58,1.54.29,4,1,5.34,1.05,1.87,2.56,1.64,4.28,2.44,1.33.61,3.31,2.67,4.81,1.66.13-.09,0-.31-.13-.22-1.59,1.08-3.35-1.47-4.55-1.94-1.55-.6-2.88-.1-4-1.75a8.49,8.49,0,0,1-1.32-4.4c.25-2.75,2.44-2.13,3.94-3.09.13-.09,0-.3-.13-.22Z"/><path d="M427,153.32c-1.24-.86-1.86-2.38-3.3-3a3.7,3.7,0,0,0-3.23.19c-2.74,1.54-2.08,5.48-1.91,8.07,0,.16.26.16.25,0-.17-2.56-.83-6.59,2-7.94,3-1.42,4.1,1.51,6.08,2.87.13.09.26-.13.13-.22Z"/></g><g id="Neck"><path d="M491.18,218.92c-.5,11.68-.5,14.87-1.74,26.5,2.48,4.6,8.17,34.16-10.49,36.21a21.56,21.56,0,0,1-7.84-.9q-5.43-1.43-10.73-3.3a37.72,37.72,0,0,1-9.26-4.41c-4-2.81-13.69-20.14-16.52-24.11-1.74-2.43-.52-10.89-2.26-13.33-.37-.51,1.51-4.22,1.41-4.84a4.18,4.18,0,0,1,.43-2.15,83.11,83.11,0,0,0,5.52-33.5,37.35,37.35,0,0,0-.42-4.46,91.06,91.06,0,0,0,6,9.17,32.21,32.21,0,0,0,6.76,7c3.73,2.68,8.24,4,12.65,5.31l17,5A38.47,38.47,0,0,0,491.18,218.92Z" style="fill:#62647a"/><path d="M491.05,218.92c-.2,4.63-.35,9.26-.63,13.89q-.17,2.79-.42,5.57-.15,1.73-.32,3.46c-.1,1-.57,2.65-.37,3.62.32,1.54,1.14,3.07,1.5,4.64a51.28,51.28,0,0,1,1.14,7.64c.43,5.76.14,12.22-2.86,17.32a12.85,12.85,0,0,1-7,5.77c-5.15,1.73-10.48,0-15.47-1.48-5.2-1.56-11.35-3.14-15.65-6.59-2.26-1.81-3.91-4.52-5.51-6.89-3.65-5.41-7.05-11-10.47-16.58-1.82-3-1.28-6.75-1.61-10.1a24,24,0,0,0-.77-3.37c-.41-1.67.86-3.26,1.23-4.85,1.13-4.94,3.07-9.72,4.15-14.73a83.42,83.42,0,0,0,1.88-16.53c0-.73.22-8.11-.36-8.22.67.13,1.6,2.46,2,3.11q1.36,2.12,2.83,4.16c3.07,4.23,6.53,8,11.32,10.29,5.5,2.62,11.67,3.95,17.5,5.65s11.85,4,18,4.34c.16,0,.16-.24,0-.25-5.18-.26-10.16-2.05-15.09-3.5S466,212.45,461,210.84s-9.26-3.83-12.78-7.67a72.08,72.08,0,0,1-8.85-12.6c-.08-.13-.25,0-.23.1,1.49,10.16.08,21.08-2.74,30.89-.68,2.38-1.57,4.66-2.36,7-.47,1.39-.53,2.74-1,4.12a7.34,7.34,0,0,0-.85,2.73c.07,1,.79,2.15.92,3.25.37,3,0,6.13.84,9,.52,1.75,1.91,3.34,2.86,4.87,3.28,5.28,6.43,10.67,10.06,15.73a23,23,0,0,0,4,4.69c3,2.37,6.87,3.68,10.4,4.9,6.7,2.32,15.07,5.83,22.06,2.78,8.9-3.89,9.63-15.69,8.82-24a51.18,51.18,0,0,0-1.1-6.76c-.34-1.44-1.09-2.87-1.36-4.29-.41-2.11.41-5,.6-7.2q.26-2.93.44-5.87c.27-4.52.42-9.05.61-13.58C491.31,218.76,491.06,218.76,491.05,218.92Z"/></g><path d="M460.88,154a1.47,1.47,0,0,0,.64,1.31c1.68,1.45,4,1.72,6.25,1.92a13.11,13.11,0,0,0,7.69-1.15c.61-.23,1.37-.76,1.1-1.36-.19-.42-.74-.49-1.17-.63a7,7,0,0,1-1.82-1.23,8.41,8.41,0,0,0-6.4-1.27,21.31,21.31,0,0,0-6.24,2.39Z" style="fill:#e8e9ed;stroke:#000;stroke-miterlimit:10;stroke-width:0.25px"/><path d="M499.38,156.63c1.53-1.67,3.14-3.4,5.24-4.24a7.58,7.58,0,0,1,9.48,3.43.27.27,0,0,1-.09.42,7.33,7.33,0,0,1-3.92,1.54,21.85,21.85,0,0,1-4.26-.07l-5.27-.43a1.72,1.72,0,0,1-.78-.19C499.55,157,499.32,156.84,499.38,156.63Z" style="fill:#e8e9ed;stroke:#000;stroke-miterlimit:10;stroke-width:0.25px"/><g style="clip-path:url(#clip-path-4)"><circle cx="467.28" cy="153.6" r="3.36"/><circle cx="467.28" cy="153.18" r="1.33" style="fill:#fff"/></g><g style="clip-path:url(#clip-path-5)"><circle cx="505.48" cy="154" r="3.36"/><circle cx="504.99" cy="154" r="1.33" style="fill:#fff"/></g><path d="M460.78,151.58a15.09,15.09,0,0,1,9.12-2.3,6.74,6.74,0,0,1,3.35,1c1,.68,1.82,1.81,3,1.82" style="fill:none;stroke:#000;stroke-miterlimit:10;stroke-width:0.25px"/><path d="M499.77,153.12a12.38,12.38,0,0,1,8.47-2.95,6.94,6.94,0,0,1,1.32.16c1.29.3,2.49,1.14,3.8,1" style="fill:none;stroke:#000;stroke-miterlimit:10;stroke-width:0.25px"/><g style="opacity:0.5"><path d="M481.6,142.18c-3.23-3.1-9.19-5.3-13.64-4.59-2.78.45-5.33,1.76-8.08,2.34-2.49.52-4.93.86-7.09,2.3-1.06.71-.06,2.45,1,1.73,1.92-1.28,4-1.57,6.23-2a59.55,59.55,0,0,0,6-1.8,15.14,15.14,0,0,1,14.16,3.46c.93.89,2.34-.52,1.41-1.41Z"/></g><g style="opacity:0.5"><path d="M502,146.08c1.23-2,4.46-3.2,6.68-3.36a16.22,16.22,0,0,1,6.29,1.1c1.22.41,1.75-1.52.53-1.93-4.92-1.65-12.05-1.88-15.23,3.17-.69,1.09,1,2.1,1.73,1Z"/></g><path d="M485.77,168.17a2.88,2.88,0,0,0-3.2-.32,6,6,0,0,0-2.35,2.43c-.91,1.54-1.41,3.73-.1,5,1,1,2.67.81,4,.38s2.7-1.08,4.1-.89c1.68.22,3,1.6,4.63,2,2.55.66,5.07-1.06,7.68-1.38a4.73,4.73,0,0,0,2.58-.66,3.55,3.55,0,0,0,.89-1.5c.4-1,.8-2.25.25-3.22s-1.62-1.23-2.53-1.71a8.6,8.6,0,0,1-3.74-4.44,25.57,25.57,0,0,1-1.38-5.74" style="fill:none;stroke:#000;stroke-miterlimit:10;stroke-width:0.5px"/><path d="M471.47,186.79c6.46-1.51,13-3,19.67-2.57,3.32.23,3.73,1,7.06.83a9.81,9.81,0,0,1,3.66.21c1.16.41,2.12,1.65,1.68,2.76" style="fill:none;stroke:#000;stroke-miterlimit:10;stroke-width:0.5px"/><path d="M472.39,188.87a21.32,21.32,0,0,0,11.81,7,41.39,41.39,0,0,0,5.75.68c3.13.21,6.35.38,9.34-.55a6.69,6.69,0,0,0,2.94-1.68,3.22,3.22,0,0,0,.85-3.07c-.48-1.53-2.33-2.31-4-2.33a47.47,47.47,0,0,0-4.95.67c-2.59.25-5.17-.42-7.75-.78-1.83-.26-3.68-.36-5.53-.46l-6.49-.35" style="fill:none;stroke:#000;stroke-miterlimit:10;stroke-width:0.5px"/></g><g id="Shirt-2" data-name="Shirt"><path d="M570.41,373.19c-.37,3.77-.93,7.72-3.25,10.71-2.79,3.6-7.52,5-12,6-15.21,3.24-22.23,3.49-37.77,3.72-53.21.79-106.43,1.58-159.63.28-1.54,0-3.23-.14-4.33-1.21s-1.25-2.77-1.31-4.31a414.65,414.65,0,0,1,5.18-86.27c2.43-14.61,5.74-29.37,13.3-42.1s20-23.29,34.69-25.29c6.41-.87,7.88-.36,10-1.1s11.09-2.18,13.42-3.23a21,21,0,0,1,5.36-1.11c-1,16,9.58,32.66,22.35,42.25a36.55,36.55,0,0,0,12.09,6.43,18,18,0,0,0,13.38-1.16c4.87-2.7,7.76-8.13,8.63-13.63.86-5.35,0-11.89-1-17.26,5.67.76,11.49-6.33,17.11-5.74,9.85,1,19.58,5.94,29.16,8.46s11,11,17.14,18.81c4.15,5.23,5.88,15.31,8,21.65A203.43,203.43,0,0,1,570.41,373.19Z" style="fill:#838daa"/><path d="M433.67,228.59c-1.09,15.2,7.39,29.93,18.36,39.88,5.46,5,12.21,9.73,19.73,10.58A16.57,16.57,0,0,0,488.9,270c3.76-7.4,3.26-17,1.69-25-.13-.63-1.09-.36-1,.27,1.35,6.81,1.84,15-.5,21.61-2.66,7.56-9.22,12.07-17.3,11.14-7.51-.86-14.26-5.79-19.65-10.8a60.19,60.19,0,0,1-12.33-16.08,42.36,42.36,0,0,1-5.17-22.57c0-.64-1-.64-1,0Z"/><path d="M499.77,247.08l6.8,53.83-5.4,35c-4.78.07-4.16,58-8.95,58q-17,.24-34,.41c-9.83.09-3.41-24.22-13.25-24.2l-9.55-25.75-6.7-114,.08,0a21,21,0,0,1,5.36-1.11c-1,16,9.58,32.66,22.35,42.25a36.55,36.55,0,0,0,12.09,6.43,18,18,0,0,0,13.38-1.16c4.87-2.7,7.76-8.13,8.63-13.63.86-5.35,0-11.89-1-17.26C495.18,246.64,494.17,246.54,499.77,247.08Z" style="fill:#f0f1f2"/><g style="clip-path:url(#clip-path-6)"><g style="opacity:0.54"><path d="M419.64,259.24c7.63,2.79,15.92,3.44,23.93,4.43q13.29,1.64,26.62,3,26.66,2.62,53.43,3.9c.32,0,.32-.48,0-.5q-26.26-1.27-52.44-3.8-12.84-1.25-25.64-2.81c-8.61-1-17.57-1.65-25.77-4.65-.3-.11-.43.37-.13.48Z"/><path d="M421.91,269.23c34.54,4.51,69.15,9.51,104,10.18a.25.25,0,0,0,0-.5c-34.88-.67-69.49-5.67-104-10.18-.32,0-.32.46,0,.5Z"/><path d="M423.49,278.77l52.37,6.3c17.2,2.07,34.42,4.6,51.75,5.29.32,0,.32-.49,0-.5-17.32-.69-34.55-3.22-51.75-5.29l-52.37-6.3c-.32,0-.32.46,0,.5Z"/><path d="M423.7,290.3a192.39,192.39,0,0,0,24.65,3.7c8.7.91,17.27,2.22,25.87,3.76,17,3,34.19,3.89,51.38,4.68.32,0,.32-.49,0-.5-17.47-.8-34.94-1.69-52.18-4.83-7.86-1.43-15.7-2.62-23.65-3.46-8.7-.92-17.42-1.8-25.95-3.84-.31-.07-.45.41-.13.48Z"/><path d="M423.07,303.9c35.73-.72,70.38,10.46,106,10.82a.25.25,0,0,0,0-.5c-35.66-.36-70.31-11.54-106-10.82a.25.25,0,0,0,0,.5Z"/><path d="M426.27,314.87c16.39.9,32.88,2.8,49.11,5.28,7.71,1.18,15.21,3.23,22.86,4.71a153.69,153.69,0,0,0,22.87,2.63c.32,0,.32-.49,0-.5a152.83,152.83,0,0,1-24.62-3c-7.63-1.57-15.13-3.5-22.85-4.61-15.69-2.26-31.54-4.15-47.37-5-.32,0-.32.48,0,.5Z"/><path d="M425.94,325.42q25.32,3.1,50.64,6.19c16.73,2,33.49,3.87,50.36,4.13a.25.25,0,0,0,0-.5c-16.86-.26-33.63-2.1-50.36-4.13q-25.32-3.07-50.64-6.19c-.32,0-.32.46,0,.5Z"/><path d="M423.27,337q56.7,5.57,113.66,7.61c.32,0,.32-.49,0-.5q-56.93-2-113.66-7.61c-.32,0-.32.47,0,.5Z"/><path d="M420.78,248.92c17.13,2.24,34.28,4.4,51.38,6.88,16.16,2.34,32.38,5.77,48.78,5.44a.25.25,0,0,0,0-.5c-17,.34-33.85-3.3-50.61-5.7-16.49-2.36-33-4.45-49.55-6.61-.32,0-.32.46,0,.5Z"/><path d="M416,237.89q57.79,9.64,116.28,14c.32,0,.32-.48,0-.5q-58.36-4.35-116.14-14c-.31-.05-.45.43-.13.48Z"/><path d="M425.21,351.4c1.09-2,6-.94,7.82-.83L440,351l13.89.78,26.8,1.5,54.58,3.06c.32,0,.32-.48,0-.5l-58.55-3.28-28.78-1.61L433,350.07c-2.19-.12-6.93-1.4-8.25,1.08-.15.28.28.54.43.25Z"/></g></g><path d="M468.73,421.64c-4.39-38.84-18.37-76.13-22.49-115-1.32-12.46-1.62-25.08-4.31-37.33-2.86-13-8.42-25.74-7.82-39.06,0,0,3-4.62,2.49-5.61s-2.24-1-3.44-.65c-4.11,1.06-7.4,4.31-9.38,8.06s-2.82,8-3.44,12.19c-4.78,32.18,1.7,64.85,8.15,96.74a155.65,155.65,0,0,0,4.16,17.19c3.19,9.84,8.32,19,11.61,28.78,2.11,6.3,3.48,12.9,6.42,18.86,2.12,4.3,5,8.16,7.68,12.15a132.86,132.86,0,0,1,10.08,17.93l.12-17" style="fill:#838daa"/><path d="M469,421.64c-3.43-29.85-12.36-58.63-18.24-88-3.07-15.33-4.47-30.67-5.94-46.21a143.64,143.64,0,0,0-3.47-21.71c-1.78-7.08-4.13-14-5.62-21.18a62.82,62.82,0,0,1-1.37-10.65,10,10,0,0,1,.22-3.88c.38-.94,1.09-1.81,1.53-2.73.36-.74,1.06-1.89.71-2.74-.65-1.6-3.3-.93-4.44-.56-12.25,3.95-12.82,21.45-13.54,31.89-2.11,30.44,4.19,61.07,10.54,90.68a120.79,120.79,0,0,0,7.36,22.83c3.39,7.84,6.74,15.53,9.15,23.74a97.91,97.91,0,0,0,3.46,10.37,62.35,62.35,0,0,0,6.27,10.9A155.4,155.4,0,0,1,468.23,436c.11.23.46.11.47-.13l.12-17a.25.25,0,0,0-.5,0l-.08,12c0,.74.34,3.6,0,4,.34-.46-2.6-5.21-2.94-5.85-3.35-6.26-7.43-12-11.27-17.94-4-6.2-6.1-12.89-8.19-19.9a166.94,166.94,0,0,0-7.59-19.6,124,124,0,0,1-7.37-20.68c-1.77-7.28-3.12-14.67-4.56-22-3-15.18-5.64-30.47-6.8-45.91a194.91,194.91,0,0,1-.44-22.81c.32-7.48.82-15.32,2.81-22.57a22.38,22.38,0,0,1,4.62-9.12,14.81,14.81,0,0,1,4-3.22c1-.55,5.55-2.68,5.8.1.14,1.53-1.84,3.18-2.32,4.55-.82,2.36-.1,6,.19,8.41.78,6.65,2.66,13.11,4.49,19.54a151.29,151.29,0,0,1,4.78,21.86c1.9,14.59,2.42,29.26,4.9,43.79,5.62,32.92,16.3,64.84,20.12,98.09,0,.32.54.32.5,0Z"/><path d="M487.72,421.48c.86,3.41,5.1,5.18,8.46,4.14s5.72-4.19,6.76-7.54,1-6.94.89-10.45c-.67-30.89-.75-61.95,4-92.48.89-5.74,1.94-11.48,2.12-17.29a102.51,102.51,0,0,0-.84-14.37c-1.37-12.36-3.21-32.48-8.52-43.72-1.25-2.64-3-5.44-5.81-6.16s-5.73,9.71-4.85,12.49a4.89,4.89,0,0,1,.59,2.13c.05,5.27-1,54.74-1.56,82.11l-.46,24.27-1.28,67.63" style="fill:#838daa"/><path d="M487.48,421.55c1.42,4.47,6.93,5.76,10.72,3.43,5.44-3.34,6-10.3,5.9-16-.26-17.37-.6-34.72.1-52.08.35-8.77.94-17.52,1.85-26.25.9-8.55,2.43-17,3.51-25.53,1-8.2.35-16.19-.54-24.36-.68-6.29-1.38-12.57-2.37-18.82a99.69,99.69,0,0,0-4.43-18.76,25.08,25.08,0,0,0-3.57-7.06c-1-1.2-3-3.22-4.74-2.65-2.91,1-4,7.08-4.29,9.53-.36,2.73.63,5.25.6,8-.24,20.79-.79,41.59-1.21,62.38q-1,47.73-1.82,95.46l-.25,13.43a.25.25,0,0,0,.5,0q1.51-79.48,3.08-159,.1-5.18.18-10.37c0-1.92.33-4.14-.19-6a10.74,10.74,0,0,1,0-5.9c.48-2.06,1.18-5.2,2.91-6.62,2.94-2.41,6.25,4,7.19,6a55.2,55.2,0,0,1,3,8.71c3.12,11.81,4.21,24.13,5.48,36.25a92.3,92.3,0,0,1-.57,23.94c-1.18,7.73-2.33,15.43-3.11,23.22a513.58,513.58,0,0,0-2.09,53.59c0,8.61.65,17.29.33,25.88-.16,4.27-1.12,8.87-4.57,11.74s-9.52,2.45-11.06-2.36c-.1-.31-.58-.17-.48.13Z"/></g></g><g id="Correspondent"><g id="Head-4" data-name="Head"><path d="M808.18,161.92,805.63,205c-.48,8.15-1,16.31-1,24.48a242.59,242.59,0,0,0,2.53,37.07l-80.25-20.72a552.06,552.06,0,0,0,5.81-85.94" style="fill:#62647a"/><path d="M808.05,161.92q-1.27,21.55-2.55,43.1c-.83,14-1.45,28-.55,42.08q.31,4.88.82,9.75c.05.51,1.39,9.57,1.37,9.59-.31.15-1.61-.42-1.92-.5L793,262.81,753.49,252.6l-17.23-4.45-5.94-1.53c-.75-.19-2.48-.29-3.08-.8s.15-2.74.3-3.81q.75-5.35,1.39-10.72,1.4-11.67,2.29-23.4,1.83-23.94,1.58-48a.13.13,0,0,0-.25,0,558,558,0,0,1-5.81,85.91.13.13,0,0,0,.09.15l70.23,18.13,10,2.59a.13.13,0,0,0,.15-.15c-5-34.69-1-69.83,1.06-104.62,0-.16-.24-.16-.25,0Z"/><path d="M735.17,174.93c3.85,3.84,6,9.05,9.44,13.28,8.3,10.25,23.51,13.34,36,9.25s22.41-14.33,28.42-26.07a69.59,69.59,0,0,0,6.45-18.88c1.86-9.93,1.54-20.15,3.07-30.14,1.28-8.37,3.86-16.54,4.57-25s-.73-17.58-6.44-23.83l-.9-1.51c-8.7-11.18-18.42-18.65-31.63-23.77-2.18-.84-7.34-2.72-8.56-2.44s-5.9.48-5.9.48c-12.21.82-18.89,5.95-29,12.89-6.88,6.13-13.45,11.88-14.45,20.07-.37,3.33-1.56,8-1.8,11.33-.25,3.58-1.4,7.06-1.45,10.65,0,3.08.73,6.1,1.14,9.15a101,101,0,0,1,.52,11.34,163.5,163.5,0,0,0,9.59,51.88Z" style="fill:#62647a;stroke:#000;stroke-miterlimit:10;stroke-width:0.25px"/><path d="M818.06,119.73c1.17-1.52,2.56-3.16,4.47-3.37a4.63,4.63,0,0,1,4,2,10,10,0,0,1,1.61,4.39,31.34,31.34,0,0,1-1.11,13.87,60.7,60.7,0,0,1-5.72,12.78,7.1,7.1,0,0,1-2.76,3.12c-1.27.61-3.13.2-3.54-1.15" style="fill:#62647a;stroke:#000;stroke-miterlimit:10;stroke-width:0.25px"/><path d="M820.16,122.79a26.93,26.93,0,0,0,2.19-2.08,2.48,2.48,0,0,1,2.78-.53c.88.55,1,1.76,1,2.8.06,4.39.11,8.83-1,13.09" style="fill:none;stroke:#000;stroke-miterlimit:10;stroke-width:0.25px"/><path d="M820.47,126.35a2.08,2.08,0,0,1,2.71.57,3.9,3.9,0,0,1,.5,1.41,23,23,0,0,1,.64,5.52,10.13,10.13,0,0,1-1.53,5.28" style="fill:none;stroke:#000;stroke-miterlimit:10;stroke-width:0.25px"/><path d="M818,140l.36,0a2.72,2.72,0,0,0,1.21-.25,2.39,2.39,0,0,0,.8-.87,9.94,9.94,0,0,0,1.37-6.58" style="fill:none;stroke:#000;stroke-miterlimit:10;stroke-width:0.25px"/><path d="M724.81,114.48c-.71-.27-1-1.15-1.57-1.61a2.13,2.13,0,0,0-2.83.7,6.06,6.06,0,0,0-.84,3.1q-.49,5.85-.66,11.72a31.39,31.39,0,0,0,.44,7.59,33.76,33.76,0,0,0,2,5.75l1.9,4.57a5.77,5.77,0,0,0,.86,1.57,2.88,2.88,0,0,0,5.06-1.83" style="fill:#62647a;stroke:#000;stroke-miterlimit:10;stroke-width:0.25px"/><path d="M724,118.65a4.33,4.33,0,0,0-.53-2.77,2.62,2.62,0,0,0-1.25-1.44c-.61-.24-1.47.18-1.42.83" style="fill:none;stroke:#000;stroke-miterlimit:10;stroke-width:0.25px"/><path d="M724.61,121.89a.7.7,0,0,0-.72-.18,3.07,3.07,0,0,0-2.12,1.93,8.42,8.42,0,0,0-.47,2.94c-.07,2.08,0,4.28,1.06,6.06.08.13.27.27.36.14" style="fill:none;stroke:#000;stroke-miterlimit:10;stroke-width:0.25px"/><path d="M722.71,134.39a1.87,1.87,0,0,0,2.84.14" style="fill:none;stroke:#000;stroke-miterlimit:10;stroke-width:0.25px"/><path d="M720.46,133.53a10.84,10.84,0,0,0,1.21,2.65" style="fill:none;stroke:#000;stroke-miterlimit:10;stroke-width:0.25px"/><path d="M750,156.81a28.58,28.58,0,0,1,11.08-2.43c3.27,0,6.35,1.13,9.56,1.18,1.55,0,3.07-.36,4.61-.42a19.07,19.07,0,0,1,5.5.65,49.66,49.66,0,0,1,10.1,4.24c.29.15.54-.29.25-.43a52.16,52.16,0,0,0-9.8-4.18,20.52,20.52,0,0,0-5.18-.79c-1.84,0-3.64.46-5.48.43a39.84,39.84,0,0,1-5.14-.87,28.11,28.11,0,0,0-5.76-.26,29.38,29.38,0,0,0-10,2.44c-.29.13,0,.56.25.43Z"/><path d="M750.09,159.3c3.09,2.3,4.56,6.09,7.65,8.39,2.9,2.16,6.62,2.47,10.11,2.59,4,.13,8.29.84,12.21-.25,4.07-1.13,7.57-3.7,10.93-6.17.26-.19,0-.62-.25-.43-3.32,2.45-6.78,5-10.81,6.12-3.85,1.07-8.13.35-12.08.23-4.2-.14-8.36-.68-11.37-3.92-2.14-2.3-3.57-5.08-6.13-7-.26-.19-.51.24-.25.43Z"/><path d="M752.93,158.87c6.19-.51,11.68,2.69,17.69,3.45,3,.37,5.15-.32,8-1,3-.7,6,1.07,8.92-.28.29-.14,0-.57-.25-.43-2.75,1.29-6.24-.47-9.24.35a18.69,18.69,0,0,1-9.66.42c-5.17-1.15-10.06-3.49-15.47-3-.32,0-.32.53,0,.5Z"/><path d="M767.1,123.59c.3,1.8-2.38,4.13-3.45,5.45a11.78,11.78,0,0,1-1.41,1.73,18.45,18.45,0,0,1-2.79,1.33,6.91,6.91,0,0,0-3.55,5.18c-.46,4.86,4.45,7.16,8.43,5.25.57-.27,1.41-1.09,2.09-.89a10.61,10.61,0,0,1,.78.9,5.33,5.33,0,0,0,5.08,1c1.45-.53,1.58-.61,3.15.14,2,.95,4.82,2,7,1.16s3.44-3.59,3.79-5.83a5.27,5.27,0,0,0-2.3-5.56c-2.15-1.52-3.5-2.65-4.08-5.33a18.38,18.38,0,0,0-1.33-4.56c-.15-.29-.58,0-.43.25,1,2,1,4.18,1.76,6.22.72,1.85,2,2.6,3.54,3.67,3.11,2.11,3,6.18.8,9-2.64,3.44-7.41,1.33-10.42-.53a.26.26,0,0,0-.3,0,4.51,4.51,0,0,1-6.9-1.29.25.25,0,0,0-.34-.09c-1.51,1-3.27,2.15-5.18,2.08a5,5,0,0,1-4.48-3.71,5.53,5.53,0,0,1,1.11-4.85c1.08-1.43,2.4-1.76,3.9-2.53,1.74-.89,2.88-2.93,4.08-4.42,1-1.19,2.2-2.27,1.93-3.9-.05-.32-.53-.18-.48.13Z"/><path d="M784.26,116.62a16.14,16.14,0,0,0,3.54-1.83,14.12,14.12,0,0,1,7.73-1.91A11.37,11.37,0,0,1,802.8,116c.63.62,1.3,1.37,2.18,1.37-5.37.08-10.81,1.26-16.06.12a14.67,14.67,0,0,0-4.82-.71" style="fill:#d6d6d6"/><path d="M784.32,116.86c3.34-1.17,5.88-3.46,9.59-3.73,4-.28,7.18,1.53,10,4.15.5.46.23-.11-.39-.13a25.48,25.48,0,0,0-2.85.19c-1.9.15-3.79.32-5.7.37a26.34,26.34,0,0,1-6.42-.56,16.18,16.18,0,0,0-4.48-.63c-.32,0-.32.52,0,.5,3.31-.16,6.6,1.2,10,1.2,3.65,0,7.27-.52,10.92-.61.27,0,.35-.43.07-.49-1.88-.37-3.64-2.76-5.47-3.55a12.13,12.13,0,0,0-4.45-1,13.89,13.89,0,0,0-5.2.9c-2,.75-3.7,2.15-5.73,2.86-.3.11-.17.59.13.48Z"/><path d="M741.2,113.28a19.48,19.48,0,0,1,5.47-2.7,12,12,0,0,1,6.49.32,22.19,22.19,0,0,1,5.84,3,3.31,3.31,0,0,1,1.41,1.52,19.88,19.88,0,0,0-3.74,0c-1,.1-1.9.27-2.86.38a23,23,0,0,1-13.16-2.44" style="fill:#d6d6d6"/><path d="M741.33,113.49c3.18-2,6.32-3.47,10.17-2.75,1,.18,8.69,2.73,8,4.37-.06.13-3.5.18-3.83.22a32.53,32.53,0,0,1-4.8.39,23.35,23.35,0,0,1-10.06-2.54c-.29-.14-.54.29-.25.43a24.22,24.22,0,0,0,8.62,2.52c3.79.35,7.47-.69,11.26-.47a.25.25,0,0,0,.22-.38c-1.53-2.74-6-4.47-9-5-4-.76-7.22.71-10.55,2.8-.27.17,0,.6.25.43Z"/><path d="M739.13,111.67c4.54-3,12.92-4.5,17.5-.79.12.1.3-.08.18-.18-4.71-3.82-13.11-2.34-17.81.75-.13.09,0,.3.13.22Z"/><path d="M741.09,118.51c4.79.84,8.88.92,13.53-.6.15,0,.09-.29-.07-.24-4.65,1.51-8.62,1.43-13.4.6-.16,0-.22.21-.07.24Z"/><path d="M744.53,122.36a20.15,20.15,0,0,0,13.92-3.63c.13-.09,0-.31-.13-.22a20,20,0,0,1-13.8,3.6c-.16,0-.16.23,0,.25Z"/><path d="M787.72,120.24c4.86,3.54,10.84,3.25,16.56,2.8.16,0,.16-.26,0-.25-5.67.45-11.6.76-16.43-2.76-.13-.09-.26.12-.13.22Z"/><path d="M786.3,122.43c3,1.56,4.87,4.57,8.34,5.2,3,.55,6.8.64,9.23-1.44.12-.1-.06-.28-.18-.18-2.59,2.22-8.14,2.18-11.13.7-2.29-1.14-3.86-3.31-6.13-4.5-.14-.07-.27.14-.13.22Z"/><g style="opacity:0.6"><path d="M778.24,107.21c3-2.76,8.19-4,12.18-4.46,4.18-.44,9.23-.73,12.55,2.3,1.43,1.3,3.55-.82,2.12-2.12-4-3.65-9.55-3.68-14.67-3.17-4.88.48-10.6,2-14.31,5.33-1.43,1.3.7,3.42,2.12,2.12Z"/></g><g style="opacity:0.6"><path d="M764.19,102.3c-.42-2.16-3.12-3.07-4.92-3.81a26.19,26.19,0,0,0-8-1.89,22.59,22.59,0,0,0-8.06.71c-2.55.76-4.4,2.45-6.19,4.35-1.33,1.4.79,3.53,2.12,2.12s2.83-3,4.87-3.58a19.17,19.17,0,0,1,6-.67,22.92,22.92,0,0,1,6.1,1c1.07.33,4.91,1.3,5.15,2.56.37,1.89,3.26,1.09,2.89-.8Z"/></g><g style="clip-path:url(#clip-path-7)"><circle cx="794.06" cy="115.53" r="3.38" style="fill:#020202"/><circle cx="793.3" cy="114.38" r="1.25" style="fill:#fff"/></g><g style="clip-path:url(#clip-path-8)"><circle cx="750.21" cy="112.91" r="3.38" style="fill:#020202"/><circle cx="749.73" cy="111.66" r="1.25" style="fill:#fff"/></g><path d="M784.28,114.12c2.58-2.46,6.7-3,10.13-3.2,3.61-.19,7,1.78,9.91,3.73.13.09.26-.13.13-.22-3.22-2.19-6.78-4-10.78-3.69-3.36.3-7,.77-9.56,3.19-.12.11.06.29.18.18Z"/><path d="M766.35,141c-1.8,1.28-3.94,2.43-6.12,2a4.92,4.92,0,0,1-3.1-2.09,5.65,5.65,0,0,1,4.61-1.72C763.58,139.27,765,139.4,766.35,141Z" style="opacity:0.54"/><path d="M785,141.83a5.15,5.15,0,0,1-3.39,3,6.12,6.12,0,0,1-2.37-.11c-2-.4-1.63-1.11-3.33-2.23,0,0,2.58-2.4,4.75-2.42A6.45,6.45,0,0,1,785,141.83Z" style="opacity:0.54"/></g><g id="Shirt-3" data-name="Shirt"><path d="M763.08,261.59c.44.12,0,.87-.45.68s-.49-.73-.53-1.18a21.42,21.42,0,0,0-5.1-12.17c-1.44-1.67-3.15-3.12-4.52-4.85-2.83-3.56-4.11-8.13-6.76-11.82-1.47-2-3.82-3.55-4.73-5.9s-4.06-7.08-4.81-8.93c-2-4.94-3.71-10-5.57-15a53.66,53.66,0,0,1-2.2-6.84,24.44,24.44,0,0,1,2.39-17.37l-8.06,11.67c-1.7,2.46-3.46,5-5.92,6.69s-5.5,2.5-8.44,3.27c-8.38,2.21-16.76,4.75-24.37,8.89-5.06,2.76-9.72,6.19-14.68,9.13-14.3,8.51-31.74,13.61-41.1,27.36a67.4,67.4,0,0,0-5.72,11.11c-8.82,20.21-17.18,41.14-18.4,63.15-.09,1.67-.71,38.53-.05,40.07H940.59l-11.8-50.31a86,86,0,0,0-4.68-15.49,86,86,0,0,0-5.55-10l-8.18-13.28c-1.61-2.61-3.33-5.33-6-6.78.77.37-1.14-4.73-1.21-5.58-.36-4.37-3-8.3-6.36-11.14s-7.35-4.77-11.29-6.69q-20.28-9.89-40-20.88l-.76-1.15-29.51-17.76a6.09,6.09,0,0,1-3.64-4.86L809,185.49c.28,6.39.56,12.84-.4,19.17s-3.24,12.61-7.52,17.37c-2,2.23-4.39,4.07-6.52,6.18a86.11,86.11,0,0,0-6.2,7.15c-8.39,10.31-15.57,17.17-25.3,26.23" style="fill:#70788c"/><path d="M762.65,261.84a11.37,11.37,0,0,1-.26-2.54,21.52,21.52,0,0,0-.67-2.85,22.08,22.08,0,0,0-2.08-4.71c-2.07-3.5-5.4-5.86-7.65-9.21-2.1-3.12-3.27-6.75-5.37-9.87a31,31,0,0,0-3.11-3.6,17.74,17.74,0,0,1-2.76-4.42c-1.41-2.78-3.26-5.32-4.43-8.22-1.64-4.07-3.06-8.22-4.57-12.34s-3.13-8.12-3.41-12.51a23.9,23.9,0,0,1,2.9-13.08.5.5,0,0,0-.86-.5c-3,4.34-5.93,8.73-9,13a19.19,19.19,0,0,1-5.85,5.82,31.66,31.66,0,0,1-7.7,2.68c-9.79,2.6-19.32,5.77-28,11.12-4.25,2.62-8.34,5.5-12.69,8-3.73,2.11-7.57,4-11.41,5.9-7.45,3.71-15,7.5-21.3,13.05-7.23,6.4-10.81,14.93-14.54,23.63a273.45,273.45,0,0,0-10.72,28.58,122.36,122.36,0,0,0-5.55,29.75c-.14,3.21-.14,6.43-.18,9.64-.09,6.42-.17,12.84-.17,19.26,0,2.54,0,5.09.06,7.63a12.81,12.81,0,0,0,.25,3.67.52.52,0,0,0,.48.37H940.59a.51.51,0,0,0,.48-.63l-6.87-29.27-4-17c-2.09-8.9-4.09-17.54-8.73-25.51-2.77-4.76-5.75-9.41-8.64-14.1-2.29-3.72-4.37-8-8.25-10.28l-.25.93h.11a.5.5,0,0,0,.43-.25c.74-1.15-.73-3.83-1-5-.85-3.26-1.35-6.07-3.44-8.86-5.05-6.75-13.86-9.81-21.14-13.44Q866,230.07,852.9,223c-2.1-1.14-4.28-2.21-6.31-3.47-1-.62-1.41-1.49-2.44-2.12-4.21-2.55-8.43-5.08-12.65-7.61l-14.33-8.63c-1.53-.92-3.17-1.69-4.13-3.23a14,14,0,0,1-1.43-4.19l-2.11-8.34a.5.5,0,0,0-1,.13c.36,8.26.73,16.73-1.64,24.76A30,30,0,0,1,801.3,221c-2.48,3-5.64,5.23-8.27,8-5.08,5.43-9.49,11.47-14.62,16.88s-10.35,10.3-15.69,15.27c-.47.44.24,1.15.71.71,5.74-5.34,11.46-10.72,16.81-16.46s9.74-12.21,15.35-17.55c2.7-2.57,5.59-4.87,7.77-7.93a32.22,32.22,0,0,0,4.49-9.49c2.41-8.1,2-16.68,1.68-25l-1,.13,1.64,6.48c.49,1.94.76,4.21,1.7,6A7.87,7.87,0,0,0,815,201c2.23,1.39,4.5,2.71,6.74,4.06l12.65,7.61,5.9,3.55,3,1.78a8.88,8.88,0,0,1,1.67,1.47,17.69,17.69,0,0,0,3.71,2.3q3.15,1.74,6.32,3.45,6.34,3.42,12.73,6.73c8.12,4.21,16.76,7.79,24.59,12.5,4.41,2.66,8.67,6.43,10,11.6.34,1.29.44,2.59.82,3.87.21.7.43,1.39.63,2.1a4.25,4.25,0,0,0,.17.65c.38.81-.2.53.47.59-.51,0-.65.69-.25.93,4,2.35,6.07,7,8.4,10.75,2.49,4,5,8.06,7.46,12.13,4.87,8.16,7.05,16.83,9.2,26l6.14,26.15,4.81,20.52.48-.63H610.9c-2.06,0-4.46-.34-6.5,0a1.08,1.08,0,0,1-.33,0c.84.17.26.36.37-.45a12.92,12.92,0,0,0-.09-2c-.14-4.73-.09-9.47-.06-14.2.06-9.28-.23-18.72.73-28,2.15-20.67,10.15-40.25,18.46-59.1a52,52,0,0,1,7.32-12.72,46.78,46.78,0,0,1,9.41-8.37c6.82-4.7,14.43-8.08,21.78-11.84,8.51-4.35,16.09-10.28,24.65-14.51a93.18,93.18,0,0,1,14.09-5.41c4.43-1.35,9.17-2.15,13.44-4,3.63-1.54,6.06-4.26,8.29-7.41,3-4.2,5.85-8.45,8.77-12.67l-.86-.5a25.37,25.37,0,0,0-2.34,18.2,108.94,108.94,0,0,0,3.87,11.26c1.26,3.47,2.4,7.05,3.93,10.42,1.06,2.34,2.56,4.47,3.76,6.74a30.35,30.35,0,0,0,1.89,3.64,42.51,42.51,0,0,0,2.92,3.2c2.46,2.77,3.73,6.33,5.48,9.54a36.29,36.29,0,0,0,5.93,7.39c3.51,3.73,4.86,7.83,5.79,12.73.22,1.14,1.12,2.51,2.08,1a.49.49,0,0,0,0-.5l-.17-.27c-.34-.54-1.21,0-.86.5Z"/><path d="M752.87,360.45c-.4-17.48,1.36-34.88,3.18-52.24.9-8.59,1.76-17.19,2.71-25.77.84-7.59,2.08-15.52,7.07-21.6.41-.49-.3-1.2-.71-.71-4.46,5.43-6.07,12.2-7,19-1.15,8.67-1.88,17.4-2.79,26.1-1.93,18.34-3.92,36.72-3.49,55.19a.5.5,0,0,0,1,0Z" style="fill:#222a38"/><path d="M717.31,204.25c-6.74,1.3-13,5-19.17,7.9q-10.68,5-21.35,10.07a171.13,171.13,0,0,0-20.47,10.89c-6.65,4.33-13.22,8.79-19.82,13.19-.53.36,0,1.22.5.86,6.47-4.31,12.92-8.66,19.42-12.92a164.66,164.66,0,0,1,20-10.73q10.27-4.87,20.56-9.7c6.61-3.11,13.39-7.19,20.62-8.59.63-.12.36-1.09-.27-1Z" style="fill:#838daa"/><g style="clip-path:url(#clip-path-9)"><g id="Stripes:_PATHS" data-name="Stripes: PATHS" style="opacity:0.5;mix-blend-mode:multiply"><path d="M638,242.23c-1.72,4.61-1.79,10.56-1.39,15.4.47,5.66,1.74,11.33,2.66,16.93l2.92,17.74c.66,4,.56,62.32,3.84,65.3.48.43,1.19-.27.71-.71-1.72-1.56-2.16-56.26-2.53-58.45-.45-2.62-.87-5.26-1.3-7.88L640.2,274.3c-.89-5.38-2-10.79-2.58-16.21-.49-4.87-.41-11,1.31-15.58.23-.6-.74-.86-1-.27Z" style="fill:#838daa"/><path d="M694.42,211.29c.21,7.85-1.16,15.57-2.39,23.29l-3.69,23.33c-1.2,7.59-2.47,15.11-2.65,22.81-.18,7.86-.09,68.26,0,76.11.05,3.21,5.05,3.22,5,0-.13-7.86-.21-68.26,0-76.11s1.54-15.63,2.77-23.42L697.17,234c1.19-7.51,2.46-15,2.26-22.68-.09-3.21-5.09-3.22-5,0Z" style="fill:#6d768c"/><path d="M690.07,214.94q-1.89,25-5.86,49.74c-2.44,15.12-5.39,83-2.79,98.29.11.63,1.07.36,1-.27-2.73-16.11.77-84.77,3.26-100.67q3.66-23.42,5.44-47.09c0-.64-1-.64-1,0Z" style="fill:#838daa"/><path d="M712.16,204.23c-5.08,16.55-6.26,34.38-8.08,51.52-.93,8.74-1.72,17.51-2.15,26.29-.42,8.49-1.08,69.94.82,78.3.14.63,1.11.36,1-.27-1.94-8.56-1.19-70.32-.73-79,.44-8.46,1.2-16.89,2.1-25.31,1.82-17.06,3-34.78,8-51.26.19-.62-.78-.88-1-.27Z" style="fill:#838daa"/><path d="M657.34,232.52c-2.75,5.06-3.58,10.7-3.8,16.39-.25,6.63-.14,13.3,0,19.94.24,13.35,1.27,79.26,4.82,92.18a.5.5,0,0,0,1-.27c-3.44-12.52-4.49-78-4.76-91q-.19-9.13-.07-18.28c.09-6.37.63-12.79,3.73-18.49.31-.57-.56-1.07-.86-.5Z" style="fill:#838daa"/><path d="M649,235.6c-7.53,22.93-3.42,99.74,1.81,122.67.71,3.14,5.54,1.81,4.82-1.33-5-22.09-9.07-97.92-1.81-120,1-3.06-3.82-4.38-4.82-1.33Z" style="fill:#6d768c"/><path d="M785.91,242.77c-.41,11-2.71,21.88-3.51,32.89-.77,10.66-.11,73.9,1.81,84.41.12.63,1.08.36,1-.27-2-10.74-2.57-74.22-1.7-85.11.85-10.68,3-21.21,3.43-31.92,0-.64-1-.64-1,0Z" style="fill:#838daa"/><path d="M791.82,235.13c-2.31,11.26-4.61,22.54-5.74,34s-.46,75.27.62,86.7c.3,3.18,5.3,3.21,5,0-1.05-11.09-1.75-74.6-.72-85.73,1.05-11.33,3.37-22.5,5.66-33.64.65-3.14-4.17-4.48-4.82-1.33Z" style="fill:#6d768c"/><path d="M804.8,243.34c-1.63,10-.8,19.93-1.38,30-.62,10.59-2.18,73.64-2.08,84.27,0,3.22,5,3.22,5,0-.09-10.3,1.37-73,2-83.29.63-9.89-.34-19.8,1.26-29.62.51-3.15-4.3-4.5-4.82-1.33Z" style="fill:#6d768c"/><path d="M860.18,234.41c-.07,2.81.91,5.28,1.68,7.93.85,2.88.67,5.82.83,8.78s.45,5.93.37,8.92c-.09,3.17-.4,6.33-.54,9.5-.56,12.68.22,77.9,2.14,90.44.48,3.17,5.3,1.82,4.82-1.33-1.9-12.42-2.53-77.55-1.91-90.1a167.71,167.71,0,0,0,.13-17.43,57.12,57.12,0,0,0-.58-8.49c-.57-2.78-2-5.32-1.93-8.22.08-3.22-4.92-3.22-5,0Z" style="fill:#6d768c"/><path d="M874.91,242.11c.34,2.63,1.58,4.85,2.37,7.36a37.6,37.6,0,0,1,1.59,7.91c.54,5.9-.13,11.82-.69,17.69-6.18,64,5.16,75.58-.53,35.15.45,3.17,5.27,54.36,4.82,51.21-1.63-11.55-.3-75.79.8-87.32.53-5.55,1.11-11.14.6-16.72a46.68,46.68,0,0,0-1.17-7.14c-.68-2.69-2.44-5.42-2.79-8.13-.4-3.15-5.41-3.19-5,0Z" style="fill:#6d768c"/><path d="M883.25,246.06a57.29,57.29,0,0,1,2.32,15.51c0,4.77-.29,9.54-.5,14.3-.45,10-1.29,72.62-.23,82.6.07.63,1.07.64,1,0-1.1-10.3-.19-73.27.28-83.59.23-5.05.58-10.12.42-15.18a56.74,56.74,0,0,0-2.33-13.91.5.5,0,0,0-1,.27Z" style="fill:#838daa"/><path d="M636.6,259.42c11.87-5,24.07-10.11,37-11.58,6.1-.69,11.9.09,18,.33a18.3,18.3,0,0,0,7.54-1.05c2.8-1.11,5.19-3.26,8.35-3.15,1.29,0,1.29-2,0-2-2.66-.09-4.8,1.12-7.08,2.33a17,17,0,0,1-9.24,1.86c-6.45-.33-12.57-1-19-.13-12.75,1.7-24.73,6.71-36.49,11.67-1.18.5-.16,2.22,1,1.73Z" style="fill:#838daa"/><path d="M715.19,244.33c6.26,1.72,12.83.68,19,2.73s12.38,1.33,18.71,1.22a1,1,0,0,0,0-2l-9.52.17a28.67,28.67,0,0,1-9.49-1.59C728,243,721.69,244,715.72,242.4a1,1,0,0,0-.53,1.93Z" style="fill:#838daa"/><path d="M778.45,250a56.79,56.79,0,0,1,12.86.86c3.55.79,6.93,2.23,10.55,2.71,3.46.46,6.49-.39,9.76-1.43a19,19,0,0,1,6.07-1.18,41.58,41.58,0,0,1,6.32.9,23.07,23.07,0,0,0,4.67.41c2.27-.08,4.36-.64,6.62,0,3.7,1,7,2.62,10.85,3.26,7.25,1.19,14.63.84,21.92,1.51,9.46.87,18.51,4.51,27.5,7.38,1.23.39,1.75-1.54.53-1.93-7.93-2.54-16-5.77-24.24-7-7.42-1.11-15-.69-22.4-1.51a42.2,42.2,0,0,1-11.18-2.71,14.28,14.28,0,0,0-4.9-1.34c-2-.06-4,.45-6,.36-3.84-.17-7.54-1.64-11.42-1.22s-7.11,2.36-10.86,2.66c-4.56.36-8.88-1.81-13.23-2.78a59.12,59.12,0,0,0-13.4-.93,1,1,0,0,0,0,2Z" style="fill:#838daa"/><path d="M641.51,283.09c3.79-.91,7.62-1.74,11.38-2.75a31.16,31.16,0,0,0,8.93-4.25c3.19-2,6.94.38,10.43-.76a26.36,26.36,0,0,0,4.06-2.24c1.84-1,3.82-.65,5.81-.48a40.09,40.09,0,0,0,10.78-1,99.62,99.62,0,0,1,12.41-1.56c7.88-.49,15.84-.7,23.74-.59,9.06.12,18,1,26.65,4,3,1.05,4.36-3.78,1.33-4.82-15.3-5.27-32-4.45-47.91-3.8-4,.17-8.07.45-12.07,1s-8.2,1.77-12.36,1.83c-3.48,0-6.91-.9-10.19.69-1.64.8-3,2.24-4.9,2.34s-3.83-.71-5.79-.58c-3.91.27-6.64,3.56-10.26,4.76-4.34,1.44-8.92,2.28-13.36,3.34-3.13.75-1.8,5.57,1.33,4.82Z" style="fill:#838daa"/><path d="M764.25,271.61,791.11,273c9,.45,18,.5,26.84,2.45,4,.88,8,1.87,12.13,1.77,2.06-.05,3.88-.72,5.87-1,1.66-.21,3,1.64,4.54,2.38,3.49,1.71,7.4,1.8,11.2,1.71a31.85,31.85,0,0,1,12.52,1.93c4.6,1.72,9.16,3.52,13.75,5.26,4.1,1.55,8.44,2.84,12.74,1.3,3-1.08,1.71-5.91-1.33-4.82-3.89,1.39-7.79-.42-11.42-1.81-4.14-1.58-8.26-3.2-12.41-4.75a31.9,31.9,0,0,0-11.92-2.16c-3.81.05-8.27.64-11.65-1.56-1.3-.84-2.32-2.09-3.88-2.5-1.76-.46-3.4.26-5.08.63-4.41,1-9-.18-13.28-1.14-8.33-1.85-16.72-2.13-25.21-2.56l-30.28-1.53c-3.22-.16-3.21,4.84,0,5Z" style="fill:#838daa"/><path d="M634,249c-5.16,7.33-8.37,16.35-11.77,24.59s-7.7,16.68-8.54,25.58c-.06.64.94.64,1,0,.84-8.79,5.18-17.24,8.51-25.31s6.55-17.1,11.67-24.36c.37-.53-.5-1-.86-.5Z" style="fill:#a7b3d1"/><path d="M634.5,260.81l-6.14,20.05c-1.87,6.1-4.71,12.58-4.29,19.07,0,.64,1,.64,1,0-.43-6.65,2.62-13.47,4.54-19.73l5.85-19.12c.19-.62-.78-.88-1-.27Z" style="fill:#a7b3d1"/><path d="M671.44,225.47c.46-6.07,4-10.35,6.72-15.53.3-.57-.57-1.08-.86-.5-2.8,5.37-6.39,9.78-6.86,16,0,.64,1,.64,1,0Z" style="fill:#838daa"/><path d="M687.09,217.4a61.46,61.46,0,0,1,9.11-14.21c.42-.49-.29-1.2-.71-.71a62.4,62.4,0,0,0-9.27,14.41c-.27.58.59,1.09.86.5Z" style="fill:#838daa"/><path d="M830.7,218.37A69.31,69.31,0,0,1,847,221.05c4.78,1.36,9.5,2.86,14.47,3.35.64.06.64-.94,0-1-5.5-.54-10.68-2.39-16-3.81a67.36,67.36,0,0,0-14.76-2.22c-.64,0-.64,1,0,1Z" style="fill:#838daa"/><path d="M817.23,209.58c3,1.62,4.87,4.57,7.56,6.63,2.47,1.89,5.49,2.86,8.35,4,7.45,3,14.64,6.62,21.79,10.28,6.78,3.48,13.54,7,20.49,10.16s14.69,5.39,20.82,10.2c.5.39,1.21-.31.71-.71-5.74-4.51-12.75-6.7-19.35-9.61-7.26-3.2-14.29-6.87-21.34-10.49-6.82-3.5-13.66-7-20.73-9.93-3.81-1.6-8-2.73-11.13-5.56-2.22-2-3.95-4.41-6.64-5.85-.57-.3-1.07.56-.5.86Z" style="fill:#838daa"/><path d="M895.6,270.83q3.1-2.9,5.91-6.09c.42-.48-.28-1.19-.71-.71q-2.81,3.19-5.91,6.09c-.47.44.24,1.15.71.71Z" style="fill:#a7b3d1"/><path d="M893.35,281.32l10.75-11.75c.43-.47-.27-1.18-.71-.71l-10.75,11.75c-.43.47.27,1.18.71.71Z" style="fill:#a7b3d1"/><path d="M893.25,287.44a54.44,54.44,0,0,0,13-11.43c.41-.49-.3-1.2-.71-.71a53.6,53.6,0,0,1-12.83,11.28c-.54.34,0,1.21.5.86Z" style="fill:#a7b3d1"/><path d="M901.23,292.95l10.53-9.72c.47-.44-.23-1.14-.71-.71l-10.53,9.72c-.47.44.23,1.14.71.71Z" style="fill:#a7b3d1"/><path d="M898.58,260.75a228,228,0,0,1,14.88,34.54c.2.61,1.17.35,1-.27a229.57,229.57,0,0,0-15-34.78c-.3-.57-1.17-.06-.86.5Z" style="fill:#838daa"/><path d="M637.64,265.37c9.47-1.3,19.08-2.17,28.09-5.57,5-1.87,9.72-3.71,15-4.38,5-.63,10.06-.85,15.09-1.11a490.39,490.39,0,0,1,61.42.63c.64,0,.64-1,0-1a490.33,490.33,0,0,0-62.4-.57c-5,.28-10.08.49-15.06,1.19a61,61,0,0,0-13.48,4c-9.31,3.58-19.13,4.55-28.94,5.9-.63.09-.36,1.05.27,1Z" style="fill:#a7b3d1"/><path d="M775.47,257c15.45-1.87,30.65,2.53,46.08,2.42,3.86,0,7.71-.81,11.55-.75s7.33,1.66,10.91,2.81a20.84,20.84,0,0,0,9.35,1,33.41,33.41,0,0,1,11.92.87l27,5.95c.63.14.9-.83.27-1L868.39,263c-3.52-.78-7.14-1.87-10.77-1.92-4-.06-7.44,1-11.4,0-3.29-.85-6.39-2.33-9.72-3-3.63-.76-7.17,0-10.8.21-7.86.53-15.72-.42-23.52-1.34-8.87-1-17.79-2-26.7-.94-.63.08-.64,1.08,0,1Z" style="fill:#a7b3d1"/><path d="M637.19,268.72c3.22.86,6.44.25,9.64-.42,3.87-.8,7.68-1.84,11.46-3,7.67-2.33,15.18-5.46,23.16-6.63,8.34-1.22,16.8-.75,25.19-1.2,8.21-.45,16.37-1.69,24.6-1.89,9.51-.23,19,.94,28.39,2.1.64.08.63-.92,0-1a224.32,224.32,0,0,0-24.47-2.12c-8.1-.11-16.13,1-24.18,1.61s-16.31.34-24.45,1c-7.73.59-14.86,2.77-22.18,5.19-4.2,1.39-8.43,2.72-12.71,3.82-4.45,1.15-9.62,2.83-14.19,1.61a.5.5,0,0,0-.27,1Z" style="fill:#a7b3d1"/><path d="M775.18,261.18c10.11-.23,20.24-.33,30.36-.1a89.08,89.08,0,0,1,15,1.92c4.44.85,8.84.34,13.32.68,5.11.39,10.19,1.62,15.22,2.56q7.31,1.37,14.62,2.75c10.06,1.92,20.09,4,30,6.61a.5.5,0,0,0,.27-1c-10.05-2.68-20.25-4.76-30.47-6.7-9.48-1.8-19.09-4.21-28.69-5.17-5-.5-9.89.11-14.85-.91a76.93,76.93,0,0,0-13.46-1.76c-10.41-.29-20.85-.16-31.27.08a.5.5,0,0,0,0,1Z" style="fill:#a7b3d1"/><path d="M636.6,328.2c11.87-4.64,24.07-9.37,37-10.73,6.1-.64,11.9.08,18,.31a19.64,19.64,0,0,0,7.54-1c2.8-1,13.23-2.58,16.39-2.48a.93.93,0,1,0,0-1.85c-2.66-.08-12.83.6-15.12,1.72a18.15,18.15,0,0,1-9.24,1.72c-6.45-.31-12.57-.92-19-.12-12.75,1.58-24.73,6.21-36.49,10.81-1.18.46-.16,2.06,1,1.6Z" style="fill:#838daa"/><path d="M715.19,314.23c6.26,1.6,12.83.63,19,2.52s12.38,1.23,18.71,1.13a.93.93,0,1,0,0-1.85l-9.52.15a30.75,30.75,0,0,1-9.49-1.47c-5.93-1.73-12.25-.75-18.21-2.27a.93.93,0,1,0-.53,1.79Z" style="fill:#838daa"/><path d="M754.31,317.78c4.3,0,32.79,1.66,37,2.53,3.55.73,6.93,2.07,10.55,2.51,3.46.43,6.49-.36,9.76-1.33a20.3,20.3,0,0,1,6.07-1.09,44.69,44.69,0,0,1,6.32.83,24.86,24.86,0,0,0,4.67.38c2.27-.08,4.36-.59,6.62,0,3.7.92,7,2.43,10.85,3,7.25,1.11,14.63.78,21.92,1.4,9.46.81,18.51,4.18,27.5,6.84a.93.93,0,1,0,.53-1.79c-7.93-2.35-16-5.35-24.24-6.49-7.42-1-15-.64-22.4-1.4a45,45,0,0,1-11.18-2.51,15.17,15.17,0,0,0-4.9-1.24c-2-.06-4,.42-6,.33-3.84-.16-7.54-1.52-11.42-1.13s-7.11,2.19-10.86,2.47c-4.56.34-8.88-1.67-13.23-2.57s-33.06-2.63-37.53-2.6a.93.93,0,1,0,0,1.85Z" style="fill:#838daa"/><path d="M641.51,350.13c3.79-.84,7.62-1.61,11.38-2.55a32.31,32.31,0,0,0,8.93-3.93c3.19-1.89,6.94.35,10.43-.7a27.05,27.05,0,0,0,4.06-2.07c1.84-.9,3.82-.6,5.81-.45a43.18,43.18,0,0,0,10.78-.9,107.19,107.19,0,0,1,12.41-1.45c7.88-.45,15.84-.64,23.74-.54,9.06.12,18,1,26.65,3.72,3,1,4.36-3.5,1.33-4.47-15.3-4.88-32-4.13-47.91-3.52-4,.15-8.07.42-12.07.93s-8.2,1.64-12.36,1.69c-3.48,0-6.91-.84-10.19.64-1.64.74-3,2.08-4.9,2.17s-3.83-.66-5.79-.53c-3.91.25-6.64,3.29-10.26,4.4-4.34,1.33-8.92,2.11-13.36,3.09-3.13.7-1.8,5.16,1.33,4.47Z" style="fill:#838daa"/><path d="M756.75,341.29c9,.42,25.41-1,34.36-.54s18,.46,26.84,2.27c4,.82,8,1.74,12.13,1.64,2.06,0,3.88-.66,5.87-.9,1.66-.19,3,1.52,4.54,2.21,3.49,1.58,7.4,1.67,11.2,1.59a34.17,34.17,0,0,1,12.52,1.79c4.6,1.59,9.16,3.26,13.75,4.87,4.1,1.44,8.44,2.63,12.74,1.2,3-1,1.71-5.47-1.33-4.47-3.89,1.29-7.79-.39-11.42-1.68-4.14-1.47-8.26-3-12.41-4.4a34.17,34.17,0,0,0-11.92-2c-3.81,0-8.27.59-11.65-1.44-1.3-.78-2.32-1.94-3.88-2.31-1.76-.42-3.4.24-5.08.58-4.41.91-9-.17-13.28-1.06-8.33-1.72-16.72-2-25.21-2.37-10.09-.47-27.69.85-37.78.38-3.22-.15-3.21,4.48,0,4.63Z" style="fill:#838daa"/><path d="M637.64,333.72c9.47-1.2,19.08-2,28.09-5.16,5-1.74,9.72-3.43,15-4.06,5-.59,10.06-.78,15.09-1a529.38,529.38,0,0,1,61.42.58c.64,0,.64-.88,0-.93a529.31,529.31,0,0,0-62.4-.53c-5,.26-10.08.45-15.06,1.1a64.66,64.66,0,0,0-13.48,3.67c-9.31,3.31-19.13,4.22-28.94,5.46-.63.08-.36,1,.27.89Z" style="fill:#a7b3d1"/><path d="M757.44,323.85c15.45-1.73,48.69,4.46,64.12,4.36,3.86,0,7.71-.75,11.55-.7s7.33,1.53,10.91,2.6a22.41,22.41,0,0,0,9.35.92,36,36,0,0,1,11.92.8l27,5.51c.63.13.9-.76.27-.89l-24.13-4.93c-3.52-.72-7.14-1.73-10.77-1.78-4-.05-7.44,1-11.4,0-3.29-.79-6.39-2.16-9.72-2.8-3.63-.7-7.17,0-10.8.19-7.86.49-15.72-.39-23.52-1.24-8.87-1-35.82-4-44.74-3-.63.07-.64,1,0,.93Z" style="fill:#a7b3d1"/><path d="M637.19,336.82c3.22.8,6.44.23,9.64-.39,3.87-.75,7.68-1.71,11.46-2.77,7.67-2.16,15.18-5.06,23.16-6.14,8.34-1.13,16.8-.69,25.19-1.11,8.21-.41,16.37-1.57,24.6-1.75,9.51-.21,19,.87,28.39,1.95.64.07.63-.85,0-.93a241.78,241.78,0,0,0-24.47-2c-8.1-.1-16.13.88-24.18,1.49s-16.31.32-24.45.89c-7.73.54-14.86,2.57-22.18,4.81-4.2,1.29-8.43,2.52-12.71,3.54-4.45,1.06-9.62,2.62-14.19,1.49a.47.47,0,1,0-.27.89Z" style="fill:#a7b3d1"/><path d="M759.13,326.6c10.11-.22,36.3,2.93,46.41,3.14a95.82,95.82,0,0,1,15,1.78c4.44.79,8.84.32,13.32.63A152.94,152.94,0,0,1,849,334.53q7.31,1.27,14.62,2.54c10.06,1.77,20.09,3.68,30,6.12a.47.47,0,1,0,.27-.89c-10.05-2.48-20.25-4.4-30.47-6.2-9.48-1.67-19.09-3.9-28.69-4.79-5-.46-9.89.1-14.85-.84a82.74,82.74,0,0,0-13.46-1.63c-10.41-.27-36.91-3.38-47.32-3.16a.46.46,0,1,0,0,.93Z" style="fill:#a7b3d1"/></g></g><path d="M820.14,234.95c-.37,3.43-1.27,6.78-1.75,10.19a81.72,81.72,0,0,0-.54,11.5,19,19,0,0,1-7.28-6,25.4,25.4,0,0,1-3-8l-2.81-11.09a9.8,9.8,0,0,0-1.13-3c-.76-1.17-4.68-2.19-6.71-2.45a54.91,54.91,0,0,0,4.19-4c4.27-4.76,6.56-11,7.51-17.37s.68-12.77.4-19.17l2.58,10.19a8.29,8.29,0,0,0,1.1,2.82,5.34,5.34,0,0,0,1.2,1.17,14,14,0,0,0,1,2.58,19.07,19.07,0,0,1,1,1.85c.65,1.64.42,3.47.43,5.22,0,5.33,2.35,10.35,3.39,15.57A33.29,33.29,0,0,1,820.14,234.95Z" style="fill:#70788c"/><path d="M819.89,234.95c-.69,5.69-2.1,11.12-2.25,16.89,0,.6.33,3.51,0,3.84-.65.6-2-.62-2.7-1.12a15.81,15.81,0,0,1-5.91-7.87c-1.8-5-2.67-10.46-4.08-15.62-1-3.78-3.1-4-6.56-5-.38-.11-.68-.11-.74-.27s1.27-1.15,1.34-1.22c.81-.75,1.61-1.52,2.34-2.35a27.45,27.45,0,0,0,3.8-5.51,38.54,38.54,0,0,0,3.92-13,67.65,67.65,0,0,0,.53-8.13c0-1.44,0-2.88,0-4.32,0-1.17.39-3.76-.18-4.81s.31,3.25-.06,1c.1.61.32,1.25.47,1.85l1.06,4.17a16.31,16.31,0,0,0,2,5.56c1.86,2.7,3.3,5.66,3.27,9a30.42,30.42,0,0,0,1,7.93c1.63,6.42,3.48,12.29,2.85,19,0,.32.47.32.5,0a36.36,36.36,0,0,0-1.07-12.72c-1.15-4.42-2.77-8.71-2.77-13.35a19,19,0,0,0-2.48-9.39,4.82,4.82,0,0,1-1.81-2.41q-.24-.72-.42-1.47c-.25-.92-.47-1.85-.7-2.78l-1.88-7.41a.25.25,0,0,0-.49.07c.33,7.6.68,15.34-1.11,22.8-1.74,7.24-5.45,12.66-10.92,17.58a.25.25,0,0,0,.11.42,22.2,22.2,0,0,1,3.83.89c2.26.76,3.08,1.62,3.74,4,1,3.81,1.93,7.66,2.91,11.48.77,3,1.57,6.14,3.48,8.69a20.49,20.49,0,0,0,6.91,5.48.25.25,0,0,0,.38-.22,82.62,82.62,0,0,1,.54-11.46c.48-3.43,1.33-6.79,1.75-10.23C820.42,234.63,819.92,234.63,819.89,234.95Z"/><path d="M738.38,221.45c-5,3.21-10.22,9.66-13.93,14-4.26,5-9.47,9.11-14.72,13.08-1.3,1-2.79,2-4.41,1.8q2.38-15,4.76-29.91c1-6.07,2-12.2,4.22-17.92a62.24,62.24,0,0,1,3.27-6.49,27.48,27.48,0,0,0,5.17-6.12l8.07-11.66a24.39,24.39,0,0,0-2.39,17.37,51.89,51.89,0,0,0,2.2,6.84c1.85,5,3.57,10,5.57,15A39.41,39.41,0,0,0,738.38,221.45Z" style="fill:#70788c"/><path d="M738.25,221.23c-5.68,3.77-9.85,9.31-14.27,14.39a70.33,70.33,0,0,1-8.41,8c-1.6,1.32-3.24,2.59-4.89,3.85a24.86,24.86,0,0,1-2.43,1.77c-.67.39-1.25.83-2,.42s-.47-.82-.33-1.7q2-12.78,4.07-25.57c1.22-7.68,2.28-15.6,5.81-22.63,1.83-3.65,4.8-6.42,7.13-9.77q4-5.82,8.07-11.66l-.43-.25A25.76,25.76,0,0,0,729,198.7c1.32,4.11,2.92,8.15,4.41,12.21a64.72,64.72,0,0,0,4.73,10.67.25.25,0,0,0,.43-.25c-3.79-6.5-6-14-8.51-21.05-2.61-7.31-2.88-14.95.94-21.9a.25.25,0,0,0-.43-.25l-5.92,8.55c-1.91,2.75-3.69,5.75-6.09,8.11-3.61,3.55-5.4,9.42-6.6,14.25-1.64,6.57-2.46,13.34-3.52,20q-1.69,10.61-3.38,21.23a.25.25,0,0,0,.24.32c3.2,0,5.78-2.75,8.15-4.61a85.63,85.63,0,0,0,9.05-8c5.26-5.5,9.54-12,16-16.29C738.77,221.49,738.52,221.06,738.25,221.23Z"/></g></g></g></g></svg>