<svg xmlns="http://www.w3.org/2000/svg" xmlns:xlink="http://www.w3.org/1999/xlink" viewBox="0 0 751.05 349.9"><defs><clipPath id="clip-path"><path d="M242.35,92.37a10.93,10.93,0,0,0,4,4A14.41,14.41,0,0,0,252.2,98a17.34,17.34,0,0,0,6.58-.76c-.87-.87-1.33-2.08-2.18-3a8.91,8.91,0,0,0-1.38-1.09,18.78,18.78,0,0,0-2.07-1.31C249.82,90.19,245.67,90.64,242.35,92.37Z" style="fill:none"/></clipPath><clipPath id="clip-path-2"><path d="M281.06,99.71A28.29,28.29,0,0,1,284,98a14,14,0,0,1,2.33-1.05,8.17,8.17,0,0,1,5.92.57,4.24,4.24,0,0,1,1,.65,23.2,23.2,0,0,1,1.58,2.19,8,8,0,0,1-4.35,3.13,6.51,6.51,0,0,1-1.85.11,8.9,8.9,0,0,1-2.41-.51,17.71,17.71,0,0,1-5.23-3.36Z" style="fill:none"/></clipPath><clipPath id="clip-path-3"><path d="M592.44,67a5.6,5.6,0,0,0,3,2.18,16.65,16.65,0,0,0,3.75.62,19.49,19.49,0,0,0,6.56-.16,14.9,14.9,0,0,1,2.19-.53,8.44,8.44,0,0,1,2.42.23l.38.2h.5a5.6,5.6,0,0,1-2.45-1.44c-3.92-3.06-9.47-3.36-14.23-1.92a3.27,3.27,0,0,0-1.74,1" style="fill:none"/></clipPath><clipPath id="clip-path-4"><path d="M557.31,66.91a9.83,9.83,0,0,1,4.39-1.64,15.11,15.11,0,0,1,5.43-.06,8.19,8.19,0,0,1,4.68,2.6l-3.42,1.64a4.38,4.38,0,0,1-2.93.51,18.71,18.71,0,0,1-5.4-.93,18.32,18.32,0,0,1-3.26-1.79" style="fill:none"/></clipPath></defs><title>on_illustration_government</title><g id="Kenyatta"><g id="Body"><g id="Shirt"><g id="Shirt-2" data-name="Shirt"><path d="M218.55,138.45q42.58,3.27,84.85,9.53c3.6.53,7.74,1.45,9.37,4.71a11.29,11.29,0,0,1,.74,5.46c-1.08,32.38-7.3,64.89-2.68,97,1.43,9.95,3.9,19.73,5,29.72,1.2,11.09.68,22.29.16,33.44l-1.52,32.51c-.18,3.8-.77,8.29-4.14,10.05a11,11,0,0,1-5.06.85q-43.67.34-87.29-2.57c-2.29-.15-4.76-.39-6.45-1.93s-2.16-4-2.49-6.26c-9.17-63.32,13.84-126.8,14.93-190.77.13-7.68-.26-16-5-22" style="fill:#f9f4f0"/></g><path d="M263.45,198.4c-1.7,1.67-14.22,26.5-15.05,36.5s-1.5,16.25-9.5,132.5c25-.75,44.75,0,44.75,0-1.84-36.5,0-156.75-8.67-171.44" style="fill:#24252d"/><path d="M241.06,175.9c-.55,1.44,13.91,25.17,24.87,25.17s13.63-16.5,15.13-18.5,1.5-17.67-7.67-17.67S245.06,165.4,241.06,175.9Z" style="fill:#24252d;stroke:#fff;stroke-miterlimit:10;stroke-width:0.5px"/><path d="M259.07,171.11a50.17,50.17,0,0,1,23.24,10.63,27.33,27.33,0,0,1,5.42,5.7,18.86,18.86,0,0,1,3.13,8.73c1.74-3.44,3.79-6.93,4-10.78s2.41-23.33-2.09-25-42.5-.92-42.5-.92l-30.83,2.67,3.76,23.24c.53,3.82,2.3,7.34,4,10.78a18.86,18.86,0,0,1,3.13-8.73,27.33,27.33,0,0,1,5.42-5.7,50.17,50.17,0,0,1,23.24-10.63" style="fill:#f9f4f0"/><path d="M259.07,171.11a50.17,50.17,0,0,0-23.24,10.63,27.33,27.33,0,0,0-5.42,5.7,18.86,18.86,0,0,0-3.13,8.73c-1.74-3.44-3.51-7-4-10.78" style="fill:none;stroke:#000;stroke-miterlimit:10;stroke-width:0.75px"/><path d="M259.07,171.11a50.17,50.17,0,0,1,23.24,10.63,27.33,27.33,0,0,1,5.42,5.7,18.86,18.86,0,0,1,3.13,8.73c1.74-3.44,3.51-7,4-10.78" style="fill:none;stroke:#000;stroke-miterlimit:10;stroke-width:0.75px"/></g><g id="Jacket"><path d="M306.69,142.51l23.46,3.41,5,.73,33.91,4.93c5.51.8,11.49,1.84,15.22,6,2.55,2.83,3.61,6.67,4.54,10.37q3,11.82,5.28,23.8A17.42,17.42,0,0,0,395.7,197a27.81,27.81,0,0,0,2.95,3.78c4.64,5.7,6.14,13.28,9.53,19.81A37.61,37.61,0,0,0,421,234.75c6,3.89,13.83,7.08,15.13,14.09a7.72,7.72,0,0,0,.68,2.62,6.08,6.08,0,0,0,2.92,2,33.19,33.19,0,0,1,15.21,14.19c1.43,2.63,2.5,5.45,4.08,8,2.53,4.06,6.23,7.21,9.57,10.63,18.11,18.55,25.4,45.2,27.81,71a382.48,382.48,0,0,1-63.34-.57c-.52-12.76-11.46-22.44-22.19-29.35S388,314,382.45,302.51c-4.23-8.75-5.17-20.73-14.12-24.51a546,546,0,0,0,.91,83.88,213.65,213.65,0,0,1-57.53,3.82c-2.24-.16-4.58-.38-6.49-1.57s-3.21-3.67-2.34-5.74" style="fill:#474a56"/><path d="M207.08,133.62c-8.51-2.78-17.52,1.28-26.16,3.63-14.29,3.88-29.43,3.07-44,5.77-5,.92-10.25,2.49-13.38,6.47-2.44,3.1-3.18,7.17-3.85,11.07l-2.4,14c-.41,2.42-.72,5.22.94,7,1.11,1.21,3,1.85,3.38,3.45.81,3.53-5.87,3.43-7.65,6.58a8.13,8.13,0,0,0-.61,3.51c-.67,9.8-11.32,16-14.22,25.37-1.33,4.31-2.5,10.51-7,10.25a11.05,11.05,0,0,0-2.83-.27c-2.34.48-2.43,3.71-3.1,6s-2.28,4-3.87,5.65L67.11,258.29c-2.62,2.78-5.28,5.6-7.07,9-.84,1.59-1.48,3.27-2.33,4.85a46.48,46.48,0,0,1-4.62,6.47c-14.29,18.12-23.61,39.57-32.77,60.75-1.27,2.92-2.55,6.22-1.41,9.2,1.92,5.05,8.83,5.38,14.21,4.85,10.9-1.09,22.17-2.1,32.59,1.28,3.55,1.15,8.05,2.58,10.52-.22A10,10,0,0,0,78,350.07c4.51-18.13,22.93-28.46,36-41.8a29.93,29.93,0,0,0,5.71-7.5c.94-1.91,1.54-4,2.36-5.94a28.55,28.55,0,0,1,13.72-14.53c1.73-.84,3.61-1.56,4.85-3,1.87-2.23,1.7-5.49,2.66-8.24s4.66-5.11,6.61-2.94a5.34,5.34,0,0,1,.94,3.52,394.49,394.49,0,0,1-7.76,87.72l81.31,5.52,3.74-57.78c.54-8.35,1.08-16.7,1.37-25.06,1.81-52.92.25-107.28-6.48-158.65" style="fill:#474a56"/><path d="M223.79,362.7c-2.89-19.76-11.39-38.19-17.08-57.33-4.57-15.35-7.33-31.17-11.57-46.62-4.54-16.54-10.77-32.68-13.36-49.63-1.94-12.72-1.89-26.1-7.54-37.66l.57-1.39A91.67,91.67,0,0,0,192.68,163a1.14,1.14,0,0,0,.63-.58c.12-.39-.18-.76-.47-1.06l-9.41-9.69,34-26.28a56.08,56.08,0,0,0,5-4.16" style="fill:#474a56;stroke:#000;stroke-miterlimit:10;stroke-width:0.25px"/><path d="M333.69,162.68l-9.64,10.67a33.41,33.41,0,0,1,15.78,3,4.43,4.43,0,0,1,2,1.43,4.72,4.72,0,0,1,.43,3c-1.95,27-7.89,53.53-13.81,79.94L314.68,322c-2.06,9.18-4.12,18.36-6.81,27.37-.35,1.18-3.78,11.71-5,11.38v-.83c-1.24.54-3.58-15.64-3.65-17-.43-8.66-.73-17.32-1.15-26-3-62-12.2-124.5-2.24-185.76l-1.16.33c2.06,2,4.83,3.21,7.14,5,1.81,1.38,3.33,3.1,5.11,4.53a69,69,0,0,0,6,3.92,89,89,0,0,1,9.69,7.57l6.16,5.29c1.59,1.37,4.54,2.85,4.91,4.92" style="fill:#474a56;stroke:#000;stroke-miterlimit:10;stroke-width:0.25px"/></g><path d="M135.51,145.26c4.29,4.22,6.62,10.06,8,15.93s1.81,11.9,3,17.79c1.54,7.47,3.92,14.92,8.09,21.31,5,7.61,3.68,35,0,54.07" style="fill:none;stroke:#000;stroke-miterlimit:10;stroke-width:0.25px"/><path d="M259.79,172.94a1.5,1.5,0,0,0,0-3,1.5,1.5,0,0,0,0,3Z"/></g><g id="Head"><path d="M221.73,117.39c-1.21,1.55-3.09,3.29-4.86,2.43a3.18,3.18,0,0,1-1.55-2.74,23.11,23.11,0,0,1,.28-3.28c.26-3.28-1-6.46-1.84-9.65a35.47,35.47,0,0,1,.8-20.22c.46-1.34,1.29-2.87,2.7-2.92s2.21,1.17,2.89,2.25c0,0,3.16,4.6,5.49,6S221.73,117.39,221.73,117.39Z" style="fill:#62647a"/><path d="M311.21,107.68a1.8,1.8,0,0,0-.19,1.13.91.91,0,0,0,.64.62,126,126,0,0,1-16.18,37.78,96.66,96.66,0,0,1-7.67,10.5c-5.42,6.4-12.14,12.06-20.19,14.41A30.53,30.53,0,0,1,235.9,162a52.8,52.8,0,0,1-5.79-9.78,101.39,101.39,0,0,1-6.67-16.45c-4.34-15.06-3-31.19,0-46.58.84,0,1.1-1.33,1.06-2.24-.31-7.18,2.57-14.07,5.62-20.57a121.64,121.64,0,0,1,11.28-20c1.74-2.4,3.94-4.88,6.89-5.14,2.71-.24,5.17,1.48,7.81,2.09,3,.68,6.06-.06,9.07-.57,3.84-.66,8-.91,11.43.91,1.14.61,2.17,1.43,3.33,2a18,18,0,0,0,4.74,1.34c3.58.67,7.16,1.33,10.77,1.73a15.55,15.55,0,0,1,4.4.86,10.67,10.67,0,0,1,3.89,3.08c3.31,3.88,5.15,8.8,6.35,13.76,2.61,10.78,2.42,22,2.21,33.1A24.3,24.3,0,0,1,311.21,107.68Z" style="fill:#62647a;stroke:#000;stroke-miterlimit:10;stroke-width:0.25px"/><path d="M242.35,92.37a10.93,10.93,0,0,0,4,4A14.41,14.41,0,0,0,252.2,98a17.34,17.34,0,0,0,6.58-.76c-.87-.87-1.33-2.08-2.18-3a8.91,8.91,0,0,0-1.38-1.09,18.78,18.78,0,0,0-2.07-1.31C249.82,90.19,245.67,90.64,242.35,92.37Z" style="fill:#ede3df"/><g style="clip-path:url(#clip-path)"><circle cx="249.64" cy="93.09" r="3.13"/><circle cx="250.25" cy="92.53" r="0.79" style="fill:#fff"/></g><path d="M319.23,90.54A61.12,61.12,0,0,1,316.85,104L314,108.07a3.43,3.43,0,0,1-1.37,1.33,1.47,1.47,0,0,1-.95,0,.91.91,0,0,1-.64-.62,1.8,1.8,0,0,1,.19-1.13,24.3,24.3,0,0,0,1.08-8.07c.21-11.09.4-22.32-2.21-33.1-1.2-5-3-9.88-6.35-13.76a10.67,10.67,0,0,0-3.89-3.08,15.55,15.55,0,0,0-4.4-.86c-3.61-.4-7.19-1.06-10.77-1.73a18,18,0,0,1-4.74-1.34c-1.16-.57-2.19-1.39-3.33-2-3.44-1.82-7.59-1.57-11.43-.91-3,.51-6.09,1.25-9.07.57-2.64-.61-5.1-2.33-7.81-2.09-3,.26-5.15,2.74-6.89,5.14a121.64,121.64,0,0,0-11.28,20c-3,6.5-5.93,13.39-5.62,20.57,0,.91-.22,2.2-1.06,2.24h-.17c-.49-.07-.8-.55-1-1a84.62,84.62,0,0,1-4-8.33c-.16-8.49,3.91-17.08,7.92-24.58,3.44-6.45,7.1-13,12.74-17.66,4.31-3.55,9.55-5.79,14.87-7.47,12.32-3.88,26.51-4.77,37.53,2,5.29,3.24,9.47,8,13.27,12.89,4.16,5.37,8,11.06,10.44,17.4a67.28,67.28,0,0,1,3.65,16.37A69.74,69.74,0,0,1,319.23,90.54Z" style="fill:#111010"/><path d="M255.41,110.71a17.22,17.22,0,0,0-2.7,3.76,5.8,5.8,0,0,0-.37,4.5,2.6,2.6,0,0,0,1.44,1.57,5.71,5.71,0,0,0,2,.09c3.28,0,5.89,3,9.15,3.31,2.53.24,5-1.21,7.52-1.12,1,0,1.93.29,2.9.25a4.72,4.72,0,0,0,4.17-6.5" style="fill:none;stroke:#000;stroke-miterlimit:10;stroke-width:0.75px"/><path d="M262.09,85l-4.56-3.67a8.94,8.94,0,0,0-7.45-2.45c-2.59,0-5.31.05-7.53,1.38" style="fill:none;stroke:#000;stroke-linecap:round;stroke-miterlimit:10;stroke-width:2px"/><path d="M282.33,88.84a8.38,8.38,0,0,1,5.47-1.57c4.93.08,9.49,2.51,13.81,4.88" style="fill:none;stroke:#000;stroke-linecap:round;stroke-miterlimit:10;stroke-width:2px"/><path d="M220.67,95.27c-.26-.45-.68-1-1.18-.82a1,1,0,0,0-.56.91,2.78,2.78,0,0,0,.2,1.3,4.92,4.92,0,0,1,.5,1.24,3.2,3.2,0,0,1-.87,2,7.29,7.29,0,0,0-1.12,2.68.72.72,0,0,0,.09.64c.18.19.5.14.76.2a1.13,1.13,0,0,1,.77.82,3.32,3.32,0,0,1,0,1.18,3.42,3.42,0,0,1-.87,2.43l.2.47" style="fill:none;stroke:#000;stroke-miterlimit:10;stroke-width:0.25px"/><path d="M240.35,91.4c1.17-1,3.58-4.27,9.63-4.14,3.33,0,6.88,3.3,8.58,5.26" style="fill:none;stroke:#000;stroke-miterlimit:10;stroke-width:0.5px"/><path d="M281.06,97.28C283.14,96.07,285,93.4,291,94c5.42.44,7,4.58,7.75,6" style="fill:none;stroke:#000;stroke-miterlimit:10;stroke-width:0.5px"/><path d="M281.06,99.71A28.29,28.29,0,0,1,284,98a14,14,0,0,1,2.33-1.05,8.17,8.17,0,0,1,5.92.57,4.24,4.24,0,0,1,1,.65,23.2,23.2,0,0,1,1.58,2.19,8,8,0,0,1-4.35,3.13,6.51,6.51,0,0,1-1.85.11,8.9,8.9,0,0,1-2.41-.51,17.71,17.71,0,0,1-5.23-3.36Z" style="fill:#ede3df"/><g style="clip-path:url(#clip-path-2)"><circle cx="288.83" cy="98.74" r="2.96"/><circle cx="288.52" cy="98.07" r="0.79" style="fill:#fff"/></g><path d="M254.73,68a18.32,18.32,0,0,1,6.79,1c3.53,1,7.34,2.2,9.42,5.22a4,4,0,0,0,.89,1.08c1.14.8,2.64-.14,4-.48a13.5,13.5,0,0,1,3.76,0c2.19.08,4.38-.37,6.57-.37a29.55,29.55,0,0,1,5.48.67,40.83,40.83,0,0,1,7.8,2.08,10.25,10.25,0,0,0,4,1.14" style="fill:none;stroke:#000;stroke-miterlimit:10;stroke-width:0.25px"/><path d="M263.45,66.07q5.1,1.45,10.05,3.38a22,22,0,0,0,3.19,1.08,20,20,0,0,0,4,.34c1.17,0,2.35,0,3.52,0a19.67,19.67,0,0,1,4.22-.07,15.35,15.35,0,0,1,3.05,1A65.08,65.08,0,0,0,306,75.49" style="fill:none;stroke:#000;stroke-miterlimit:10;stroke-width:0.25px"/><path d="M264.11,74.24l8.51,4.12a17.2,17.2,0,0,0,3,1.24,18.28,18.28,0,0,0,6,.19c5.92-.43,11.94-.5,17.72.87" style="fill:none;stroke:#000;stroke-miterlimit:10;stroke-width:0.25px"/><path d="M246.07,136c4.07-2.35,8.68-4.74,13.24-3.64,2.15.52,4.11,1.8,6.31,2,3.07.24,6.3-1.69,9.09-.4s3.58,5.1,6.31,6.45" style="fill:none;stroke:#000;stroke-miterlimit:10;stroke-width:0.5px"/><path d="M245.94,140a13.15,13.15,0,0,1,4.22,3.72,15.53,15.53,0,0,0,2,2.58,9,9,0,0,0,1.79,1.16,26.85,26.85,0,0,0,7.45,2.86,13,13,0,0,0,7.85-.73c3.65-1.68,6.3-5.47,10.26-6.09" style="fill:none;stroke:#000;stroke-miterlimit:10;stroke-width:0.5px"/><path d="M247.53,138a10,10,0,0,0,7.23,1.48,9.23,9.23,0,0,1,3.15-.38c1.32.22,2.37,1.25,3.64,1.68,2.09.69,4.33-.35,6.53-.39,3.27-.07,6.52,2.06,9.65,1.13" style="fill:none;stroke:#000;stroke-miterlimit:10;stroke-width:0.5px"/><path d="M263.46,90.77a6.34,6.34,0,0,1,1.1,3.81,18.87,18.87,0,0,1-.59,4c-.54,2.43-1.19,5-3.08,6.66" style="fill:none;stroke:#000;stroke-miterlimit:10;stroke-width:0.5px"/></g></g><g id="Moi"><g id="Body-2" data-name="Body"><path d="M680.67,237a708.36,708.36,0,0,1-6,80.41c-.87,6.63-1.87,13.32-4.36,19.53s-7.81,12.48-14.48,11.8c-4.93-.49-8.61-4.6-11.77-8.41-8-9.66-19.65-21.4-28.29-31.43-13.05-7.6-25.56-16.53-34.92-28.38-10.25-13-16.23-28.87-19.9-45-3.24-14.24-4.79-28.79-6.34-43.31-1.82-17.13-4.79-36.43-5.69-53.63,3.38-6.08-1.66-25.13,4-29.07,6.84-4.78,25.78,9,34,10.09,11.44,1.52,21.39,8.34,30.85,14.94l11.12,7.77a87.85,87.85,0,0,1,9.21,7.05c5.44,5,9.55,11.17,13.61,17.31s8.17,12.4,12.27,18.6c6.36,9.64,12.84,19.56,15.34,30.84C680.81,223,680.8,230,680.67,237Z" style="fill:#fefefc"/><path d="M611,120.3a5.85,5.85,0,0,1,5.59,3.29,11.44,11.44,0,0,1,.78,4l.66,9.08c.09,1.25.24,2.63,1.18,3.47a6.08,6.08,0,0,0,3.2,1,13.27,13.27,0,0,1,9.32,6.59l-1,.28A30.35,30.35,0,0,0,627,168.34c-3.46-1.28-5.45-4.87-6.79-8.3s-2.42-7.16-5.07-9.72c-3.78-3.64-9.6-3.89-14.84-3.67a14.83,14.83,0,0,0-5,.82,14.29,14.29,0,0,0-3,1.85,93.8,93.8,0,0,0-21.6,22.44" style="fill:#fefefc;stroke:#000;stroke-miterlimit:10;stroke-width:0.25px"/><path d="M598.41,165.7a49.79,49.79,0,0,0,1.95,23.23c1.05,3.16,2.43,6.23,3.12,9.5a42,42,0,0,1,.69,8.14q.06,4.47-.08,8.95c-.08,2.56-.21,5.12-.07,7.68.68,12.76,7.76,24.2,11.24,36.49a65.89,65.89,0,0,1,2.45,15.6l-.23,0,3,23.85c.76,6.07,1.55,12.26,4.13,17.8,2,4.39,5.12,8.2,8.28,11.86q4.31,5,8.88,9.76c1.75,1.83,3.66,3.7,6.12,4.32,3.76.94,7.72-1.48,9.73-4.79s2.46-7.31,2.7-11.18c1.8-29.61-6.55-58.8-14.83-87.29l-8.08-27.82c-2.58-8.88-5.18-17.82-9.21-26.15A64,64,0,0,0,611,164.24c-.37-.31-6.83-4.32-8.05-4.21S598.41,165.7,598.41,165.7Z" style="fill:#9d95ae;stroke:#000;stroke-miterlimit:10;stroke-width:0.25px"/><path d="M600.67,146.45c-2.31-.22-4.5.95-6.53,2.08a17,17,0,0,0-4.4,3.11,5.74,5.74,0,0,0-1.62,4.94c.59,2.67,3.44,4.06,5.65,5.67a16.65,16.65,0,0,1,4.13,4.35l4.62-2.91a3.16,3.16,0,0,1,1.47-.61,3.23,3.23,0,0,1,1.44.39c1.59.71,3.38,1.36,5,.81s2.75-2.28,3.63-3.86a8.21,8.21,0,0,0,1.24-3.21,6.37,6.37,0,0,0-.84-3.37,14.47,14.47,0,0,0-16.22-7.15" style="fill:#9894a4;stroke:#000;stroke-miterlimit:10;stroke-width:0.25px"/><path d="M630.28,412.87c10.82-20,9.74-44.34,17.46-65.76,1.33-3.68,2.94-7.36,3.07-11.28s-1.29-7.78-2.72-11.46c-12.58-32.28-28.59-63.1-44.56-93.84l-17-32.67c-3.72-7.16-7.44-14.31-11.41-21.33-8.72-15.38-18.68-30.08-26.23-46.06l.49,0a606.92,606.92,0,0,1-64.25,28.56c-10.08,3.8-21.46,8.47-25.11,18.61-1.25,3.47-1.41,7.22-1.56,10.91-1.74,43.41-3.49,86.88-1.62,130.28.42,9.78,1,19.61,3.27,29.14a88.18,88.18,0,0,0,39.13,54.29L497,399.73c11,7.46,18.72,18.74,28.9,27.22,8.93,7.44,19.55,12.59,30.39,16.78,10.14,3.92,21,7.36,28.5,15.25,5.86-5.59,11.79-11.25,16.09-18.11,2.65-4.24,4.64-8.86,7.27-13.12a101.14,101.14,0,0,1,9.52-12.35,34.46,34.46,0,0,0,13.07,9.07L630,422.9S629.39,414.54,630.28,412.87Z" style="fill:#565a68"/><path d="M537.11,136c-2.27,13.49-5,25.38-7.26,38.87a5.37,5.37,0,0,0,.13,3.26c.75,1.52,2.67,2,4.34,2.2q6.43.91,12.94,1.2A58.24,58.24,0,0,0,536,198.86a539.27,539.27,0,0,1,65.78,80.73c6.89,10.36,13.48,21,22,30.07,9.65,10.22,22.2,19.05,25.93,32.61" style="fill:none;stroke:#000;stroke-miterlimit:10;stroke-width:0.25px"/><path d="M499.71,215c7.94,13.78,11.7,29.64,13.23,45.48s.9,31.79.63,47.69c-.06,3.75-.1,7.59,1.16,11.13a53.78,53.78,0,0,0,2.82,5.82,39,39,0,0,1,3.65,23" style="fill:none;stroke:#000;stroke-miterlimit:10;stroke-width:0.25px"/><path d="M691.25,165.39c6.17,10.36,14.77,29.49,19.42,46.19l5.17,18.55a202.32,202.32,0,0,1,4.84,19.94c1.45,8.43,1.82,17,3.24,25.44,1.38,8.26,3.75,16.31,5.72,24.45,1.86,7.7,3.37,15.47,4.88,23.25A55.94,55.94,0,0,1,736,336c-.24,6.14-2.49,12-2.89,18.18-.37,5.6.81,11.16,1.3,16.75A69.28,69.28,0,0,1,729,404.44l.54-.93c-4.12,10.22.54,21.86-1,32.78-7.36-.41-14-4.23-20.82-7.08A83,83,0,0,0,681.6,423a25.39,25.39,0,0,0-10.12.86,46.26,46.26,0,0,0-6.21,3.09c-5.19,2.73-11.13,4.37-16.94,3.58a43,43,0,0,1-8.67-2.44l-12.9-4.63a30.51,30.51,0,0,0,5.63-14.17c.61-4.89,0-9.9.92-14.74.76-4.11,2.55-7.94,4.12-11.82,4.14-10.19,6.86-20.89,9.56-31.55l.47.24c1.64-9.76,7.64-18.31,9.73-28a72.05,72.05,0,0,0,1.22-12.33q.41-9.94.79-19.89c.78-20.31,1.48-40.71-.92-60.89S650.25,190,639.21,173v-.1c-4-9.82-8-18.79-14.51-27.15-3.33-4.3-7.7-2.94-6.84-14.4l-.12-.38a30.33,30.33,0,0,0,16.66,14.62c1.7.61,3.45,1.06,5.2,1.51l10.64,2.74c10.8,2.78,21.61,5.55,32.23,8.95,3.65,1.17,7.8,2.93,8.77,6.64" style="fill:#565a68"/></g><g id="Head-2" data-name="Head"><path d="M566.2,127.75c7.62,11.6,24.71,15.84,28.79,15.84,8.69,0,15.22-7.06,15.22-7.06l1.71-14.6a27.15,27.15,0,0,0-2.79-5.44" style="fill:#62647a;stroke:#000;stroke-miterlimit:10;stroke-width:0.25px"/><path d="M628.49,74.92c-.83,6.48-2,12.91-3.34,19.29a58.34,58.34,0,0,1-2.95,10.69c-3.37,8.22-10,14.59-16.72,20.41-7,6.12-15.51,12.29-24.77,11.06a34.71,34.71,0,0,1-7.26-2,30.84,30.84,0,0,1-5.11-2.21,25.75,25.75,0,0,1-6.92-6.5,74.33,74.33,0,0,1-15.73-39.09c-.39-4.16-.43-8.35-.47-12.53q0-5.74-.1-11.48c0-1,0-2.08,0-3.12a4.81,4.81,0,0,0,1.77-1.58c3.58-4.62,5.29-10.36,6.94-16q1.76-6,3.51-11.92a13.71,13.71,0,0,1,1.22-3.15,11.16,11.16,0,0,1,2.75-2.92C568.54,18.11,577.95,16,587,14a33.81,33.81,0,0,1,8.46-1.1,11.5,11.5,0,0,1,7.77,3c2,2,2.92,5,4.73,7.21,1.57,1.93,3.79,3.34,4.93,5.54,1.22,2.38.93,5.21,1.08,7.87.55,9.81,11.57,14.27,10.56,27.33C624.2,67.82,626.69,71.46,628.49,74.92Z" style="fill:#62647a;stroke:#000;stroke-miterlimit:10;stroke-width:0.25px"/><path d="M628.49,74.92c-1.8-3.46-4.07-7.09-4-11,.28-13.79-10-17.52-10.56-27.33-.14-2.66.14-5.49-1.08-7.87-1.14-2.21-3.37-3.61-4.93-5.54-1.8-2.24-2.68-5.17-4.73-7.21a11.5,11.5,0,0,0-7.77-3A33.81,33.81,0,0,0,587,14c-9,1.95-18.43,4.06-25.65,9.82a11.16,11.16,0,0,0-2.75,2.92,13.71,13.71,0,0,0-1.22,3.15q-1.76,6-3.51,11.92c-1.65,5.61-3.37,11.35-6.94,16a4.81,4.81,0,0,1-1.77,1.58c0-11.77.87-24.16,8.39-33A11.36,11.36,0,0,0,555,25c3.08-5.33,9.28-7.88,15-10.06,7.25-2.75,14.82-5.54,22.55-4.86,10.66.93,19.62,8.29,26.86,16.17,3.22,3.51,6.31,7.28,8,11.75a34.59,34.59,0,0,1,1.73,8.15A119.4,119.4,0,0,1,628.49,74.92Z" style="fill:#ede5dd"/><path d="M598.26,110.67a15.2,15.2,0,0,0-15.09-3.73c-.95.3-2,.69-2.88.19-.63-.36-.94-1.1-1.5-1.57a3.81,3.81,0,0,0-3-.5,15.46,15.46,0,0,0-9.56,5.48" style="fill:none;stroke:#000;stroke-miterlimit:10;stroke-width:0.25px"/><path d="M566.37,113.26a18.81,18.81,0,0,0,9.92,5.65,37.34,37.34,0,0,0,4,.54c1.18.12,2.36.23,3.55.25A21.23,21.23,0,0,0,599,113.53" style="fill:none;stroke:#000;stroke-miterlimit:10;stroke-width:0.25px"/><path d="M567.82,111.14,575,111a1.83,1.83,0,0,1,.91.14,4.25,4.25,0,0,1,.67.6,3.18,3.18,0,0,0,2,.54,107.43,107.43,0,0,0,19.08-.92" style="fill:none;stroke:#000;stroke-miterlimit:10;stroke-width:0.25px"/><path d="M592.44,67a5.6,5.6,0,0,0,3,2.18,16.65,16.65,0,0,0,3.75.62,19.49,19.49,0,0,0,6.56-.16,14.9,14.9,0,0,1,2.19-.53,8.44,8.44,0,0,1,2.42.23l.38.2h.5a5.6,5.6,0,0,1-2.45-1.44c-3.92-3.06-9.47-3.36-14.23-1.92a3.27,3.27,0,0,0-1.74,1" style="fill:#e5dbd3"/><path d="M557.31,66.91a9.83,9.83,0,0,1,4.39-1.64,15.11,15.11,0,0,1,5.43-.06,8.19,8.19,0,0,1,4.68,2.6l-3.42,1.64a4.38,4.38,0,0,1-2.93.51,18.71,18.71,0,0,1-5.4-.93,18.32,18.32,0,0,1-3.26-1.79" style="fill:#e5dbd3"/><g style="clip-path:url(#clip-path-3)"><circle cx="600.69" cy="66.7" r="3.71"/><circle cx="600.87" cy="66.88" r="1.09" style="fill:#fff"/></g><g style="clip-path:url(#clip-path-4)"><circle cx="564.84" cy="66.7" r="3.71"/><circle cx="564.48" cy="66.88" r="1.09" style="fill:#fff"/></g><path d="M576.85,66.27a11.15,11.15,0,0,0,.13,2.93c.24,3-1,5.94-2.24,8.71l-2.23,5c0,.07-.06.18,0,.23s.14-.11.06-.1" style="fill:none;stroke:#000;stroke-miterlimit:10;stroke-width:0.5px"/><path d="M572,84.29c-1,0-1.73.94-2.18,1.84a10.9,10.9,0,0,0-1.09,4,4.17,4.17,0,0,0,.24,2,5.18,5.18,0,0,0,2.47,2.15" style="fill:none;stroke:#000;stroke-miterlimit:10;stroke-width:0.5px"/><path d="M577,91.34a3.77,3.77,0,0,1,1,1,4.53,4.53,0,0,0,3.18,1.47,9,9,0,0,0,3.37-.78" style="fill:none;stroke:#000;stroke-miterlimit:10;stroke-width:0.25px"/><path d="M591.28,93.05a6.15,6.15,0,0,0,2.17-5.27,4.76,4.76,0,0,0-.31-1.3c-.72-1.78-2.6-2.77-4.33-3.6a6.25,6.25,0,0,0,.34-3.81" style="fill:none;stroke:#000;stroke-miterlimit:10;stroke-width:0.5px"/><ellipse cx="587.43" cy="91.34" rx="2.77" ry="1.95"/><ellipse cx="574.74" cy="91.72" rx="2.77" ry="1.95"/><path d="M558.29,57.91a24.61,24.61,0,0,1,11-.23c2.71.67,4.06,2.88,6.55,3.66,1.85.58,2.64-2.32.8-2.89-1.28-.4-2.25-1.9-3.47-2.56a14.52,14.52,0,0,0-4.8-1.42,30,30,0,0,0-10.88.54c-1.89.41-1.09,3.31.8,2.89Z"/><path d="M590.76,60.12a26.13,26.13,0,0,1,10.61-1.83c3.51.19,6.8,1.48,10.32,1.33,1.92-.08,1.93-3.08,0-3-3.93.17-7.75-1.39-11.73-1.35a29.11,29.11,0,0,0-10,2c-1.79.67-1,3.57.8,2.89Z"/></g></g></svg>