<svg id="Kenyatta" xmlns="http://www.w3.org/2000/svg" xmlns:xlink="http://www.w3.org/1999/xlink" viewBox="0 0 492 330"><defs><clipPath id="clip-path"><path d="M232.46,72.47a10.93,10.93,0,0,0,4,4,14.41,14.41,0,0,0,5.86,1.68,17.34,17.34,0,0,0,6.58-.76c-.87-.87-1.33-2.08-2.18-3a8.91,8.91,0,0,0-1.38-1.09A18.78,18.78,0,0,0,243.25,72C239.92,70.29,235.78,70.74,232.46,72.47Z" style="fill:none"/></clipPath><clipPath id="clip-path-2"><path d="M271.17,79.81a28.29,28.29,0,0,1,3-1.73A14,14,0,0,1,276.48,77a8.17,8.17,0,0,1,5.92.57,4.24,4.24,0,0,1,1,.65A23.2,23.2,0,0,1,285,80.45a8,8,0,0,1-4.35,3.13,6.51,6.51,0,0,1-1.85.11,8.9,8.9,0,0,1-2.41-.51,17.71,17.71,0,0,1-5.23-3.36Z" style="fill:none"/></clipPath></defs><title>on_illustration_government-bw</title><g id="Body"><g id="Shirt"><g id="Shirt-2" data-name="Shirt"><path d="M208.65,118.55q42.58,3.27,84.85,9.53c3.6.53,7.74,1.45,9.37,4.71a11.29,11.29,0,0,1,.74,5.46c-1.08,32.38-7.3,64.89-2.68,97,1.43,9.95,3.9,19.73,5,29.72,1.2,11.09.68,22.29.16,33.44l-1.52,32.51c-.18,3.8-.77,8.29-4.14,10.05a11,11,0,0,1-5.06.85q-43.67.34-87.29-2.57c-2.29-.15-4.76-.39-6.45-1.93s-2.16-4-2.49-6.26c-9.17-63.32,13.84-126.8,14.93-190.77.13-7.68-.26-16-5-22" style="fill:#f9f4f0"/></g><path d="M253.55,178.5c-1.7,1.67-14.22,26.5-15.05,36.5S237,231.25,229,347.5c25-.75,44.75,0,44.75,0-1.84-36.5,0-156.75-8.67-171.44" style="fill:#24252d"/><path d="M231.17,156c-.55,1.44,13.91,25.17,24.87,25.17s13.63-16.5,15.13-18.5S272.67,145,263.5,145,235.17,145.5,231.17,156Z" style="fill:#24252d;stroke:#fff;stroke-miterlimit:10;stroke-width:0.5px"/><path d="M249.17,151.21a50.17,50.17,0,0,1,23.24,10.63,27.33,27.33,0,0,1,5.42,5.7,18.86,18.86,0,0,1,3.13,8.73c1.74-3.44,3.79-6.93,4-10.78s2.41-23.33-2.09-25-42.5-.92-42.5-.92l-30.83,2.67,3.76,23.24c.53,3.82,2.3,7.34,4,10.78a18.86,18.86,0,0,1,3.13-8.73,27.33,27.33,0,0,1,5.42-5.7,50.17,50.17,0,0,1,23.24-10.63" style="fill:#f9f4f0"/><path d="M249.17,151.21a50.17,50.17,0,0,0-23.24,10.63,27.33,27.33,0,0,0-5.42,5.7,18.86,18.86,0,0,0-3.13,8.73c-1.74-3.44-3.51-7-4-10.78" style="fill:none;stroke:#000;stroke-miterlimit:10;stroke-width:0.75px"/><path d="M249.17,151.21a50.17,50.17,0,0,1,23.24,10.63,27.33,27.33,0,0,1,5.42,5.7,18.86,18.86,0,0,1,3.13,8.73c1.74-3.44,3.51-7,4-10.78" style="fill:none;stroke:#000;stroke-miterlimit:10;stroke-width:0.75px"/></g><g id="Jacket"><path d="M296.79,122.61,320.26,126l5,.73,33.91,4.93c5.51.8,11.49,1.84,15.22,6,2.55,2.83,3.61,6.67,4.54,10.37q3,11.82,5.28,23.8a17.42,17.42,0,0,0,1.61,5.29,27.81,27.81,0,0,0,2.95,3.78c4.64,5.7,6.14,13.28,9.53,19.81a37.61,37.61,0,0,0,12.79,14.13c6,3.89,13.83,7.08,15.13,14.09a7.72,7.72,0,0,0,.68,2.62,6.08,6.08,0,0,0,2.92,2A33.19,33.19,0,0,1,445,247.8c1.43,2.63,2.5,5.45,4.08,8,2.53,4.06,6.23,7.21,9.57,10.63,18.11,18.55,25.4,45.2,27.81,71a382.48,382.48,0,0,1-63.34-.57c-.52-12.76-11.46-22.44-22.19-29.35s-22.84-13.4-28.4-24.9c-4.23-8.75-5.17-20.73-14.12-24.51a546,546,0,0,0,.91,83.88,213.65,213.65,0,0,1-57.53,3.82c-2.24-.16-4.58-.38-6.49-1.57s-3.21-3.67-2.34-5.74" style="fill:#474a56"/><path d="M197.19,113.72c-8.51-2.78-17.52,1.28-26.16,3.63-14.29,3.88-29.43,3.07-44,5.77-5,.92-10.25,2.49-13.38,6.47-2.44,3.1-3.18,7.17-3.85,11.07l-2.4,14c-.41,2.42-.72,5.22.94,7,1.11,1.21,3,1.85,3.38,3.45.81,3.53-5.87,3.43-7.65,6.58a8.13,8.13,0,0,0-.61,3.51c-.67,9.8-11.32,16-14.22,25.37-1.33,4.31-2.5,10.51-7,10.25a11.05,11.05,0,0,0-2.83-.27c-2.34.48-2.43,3.71-3.1,6s-2.28,4-3.87,5.65L57.21,238.39c-2.62,2.78-5.28,5.6-7.07,9-.84,1.59-1.48,3.27-2.33,4.85a46.48,46.48,0,0,1-4.62,6.47c-14.29,18.12-23.61,39.57-32.77,60.75-1.27,2.92-2.55,6.22-1.41,9.2,1.92,5.05,8.83,5.38,14.21,4.85,10.9-1.09,22.17-2.1,32.59,1.28,3.55,1.15,8.05,2.58,10.52-.22a10,10,0,0,0,1.75-4.39c4.51-18.13,22.93-28.46,36-41.8a29.93,29.93,0,0,0,5.71-7.5c.94-1.91,1.54-4,2.36-5.94a28.55,28.55,0,0,1,13.72-14.53c1.73-.84,3.61-1.56,4.85-3,1.87-2.23,1.7-5.49,2.66-8.24s4.66-5.11,6.61-2.94a5.34,5.34,0,0,1,.94,3.52,394.49,394.49,0,0,1-7.76,87.72L214.48,343l3.74-57.78c.54-8.35,1.08-16.7,1.37-25.06,1.81-52.92.25-107.28-6.48-158.65" style="fill:#474a56"/><path d="M213.89,342.8C211,323,202.5,304.61,196.81,285.47c-4.57-15.35-7.33-31.17-11.57-46.62-4.54-16.54-10.77-32.68-13.36-49.63-1.94-12.72-1.89-26.1-7.54-37.66l.57-1.39a91.67,91.67,0,0,0,17.87-7.13,1.14,1.14,0,0,0,.63-.58c.12-.39-.18-.76-.47-1.06l-9.41-9.69,34-26.28a56.08,56.08,0,0,0,5-4.16" style="fill:#474a56;stroke:#000;stroke-miterlimit:10;stroke-width:0.25px"/><path d="M323.8,142.78l-9.64,10.67a33.41,33.41,0,0,1,15.78,3,4.43,4.43,0,0,1,2,1.43,4.72,4.72,0,0,1,.43,3c-1.95,27-7.89,53.53-13.81,79.94l-13.75,61.36c-2.06,9.18-4.12,18.36-6.81,27.37-.35,1.18-3.78,11.71-5,11.38V340c-1.24.54-3.58-15.64-3.65-17-.43-8.66-.73-17.32-1.15-26-3-62-12.2-124.5-2.24-185.76l-1.16.33c2.06,2,4.83,3.21,7.14,5,1.81,1.38,3.33,3.1,5.11,4.53a69,69,0,0,0,6,3.92,89,89,0,0,1,9.69,7.57l6.16,5.29c1.59,1.37,4.54,2.85,4.91,4.92" style="fill:#474a56;stroke:#000;stroke-miterlimit:10;stroke-width:0.25px"/></g><path d="M125.62,125.35c4.29,4.22,6.62,10.06,8,15.93s1.81,11.9,3,17.79c1.54,7.47,3.92,14.92,8.09,21.31,5,7.61,3.68,35,0,54.07" style="fill:none;stroke:#000;stroke-miterlimit:10;stroke-width:0.25px"/><path d="M249.89,153a1.5,1.5,0,0,0,0-3,1.5,1.5,0,0,0,0,3Z"/></g><g id="Head"><path d="M211.83,97.49c-1.21,1.55-3.09,3.29-4.86,2.43a3.18,3.18,0,0,1-1.55-2.74,23.11,23.11,0,0,1,.28-3.28c.26-3.28-1-6.46-1.84-9.65a35.47,35.47,0,0,1,.8-20.22c.46-1.34,1.29-2.87,2.7-2.92s2.21,1.17,2.89,2.25c0,0,3.16,4.6,5.49,6S211.83,97.49,211.83,97.49Z" style="fill:#62647a"/><path d="M301.32,87.78a1.8,1.8,0,0,0-.19,1.13.91.91,0,0,0,.64.62,126,126,0,0,1-16.18,37.78,96.66,96.66,0,0,1-7.67,10.5c-5.42,6.4-12.14,12.06-20.19,14.41A30.53,30.53,0,0,1,226,142.13a52.8,52.8,0,0,1-5.79-9.78,101.39,101.39,0,0,1-6.67-16.45c-4.34-15.06-3-31.19,0-46.58.84,0,1.1-1.33,1.06-2.24-.31-7.18,2.57-14.07,5.62-20.57a121.64,121.64,0,0,1,11.28-20c1.74-2.4,3.94-4.88,6.89-5.14,2.71-.24,5.17,1.48,7.81,2.09,3,.68,6.06-.06,9.07-.57,3.84-.66,8-.91,11.43.91,1.14.61,2.17,1.43,3.33,2a18,18,0,0,0,4.74,1.34c3.58.67,7.16,1.33,10.77,1.73a15.55,15.55,0,0,1,4.4.86,10.67,10.67,0,0,1,3.89,3.08c3.31,3.88,5.15,8.8,6.35,13.76,2.61,10.78,2.42,22,2.21,33.1A24.3,24.3,0,0,1,301.32,87.78Z" style="fill:#62647a;stroke:#000;stroke-miterlimit:10;stroke-width:0.25px"/><path d="M232.46,72.47a10.93,10.93,0,0,0,4,4,14.41,14.41,0,0,0,5.86,1.68,17.34,17.34,0,0,0,6.58-.76c-.87-.87-1.33-2.08-2.18-3a8.91,8.91,0,0,0-1.38-1.09A18.78,18.78,0,0,0,243.25,72C239.92,70.29,235.78,70.74,232.46,72.47Z" style="fill:#ede3df"/><g style="clip-path:url(#clip-path)"><circle cx="239.75" cy="73.19" r="3.13"/><circle cx="240.36" cy="72.63" r="0.79" style="fill:#fff"/></g><path d="M309.34,70.64A61.12,61.12,0,0,1,307,84.09l-2.87,4.08a3.43,3.43,0,0,1-1.37,1.33,1.47,1.47,0,0,1-.95,0,.91.91,0,0,1-.64-.62,1.8,1.8,0,0,1,.19-1.13,24.3,24.3,0,0,0,1.08-8.07c.21-11.09.4-22.32-2.21-33.1-1.2-5-3-9.88-6.35-13.76A10.67,10.67,0,0,0,290,29.77a15.55,15.55,0,0,0-4.4-.86c-3.61-.4-7.19-1.06-10.77-1.73A18,18,0,0,1,270,25.84c-1.16-.57-2.19-1.39-3.33-2-3.44-1.82-7.59-1.57-11.43-.91-3,.51-6.09,1.25-9.07.57-2.64-.61-5.1-2.33-7.81-2.09-3,.26-5.15,2.74-6.89,5.14a121.64,121.64,0,0,0-11.28,20c-3,6.5-5.93,13.39-5.62,20.57,0,.91-.22,2.2-1.06,2.24h-.17c-.49-.07-.8-.55-1-1a84.62,84.62,0,0,1-4-8.33c-.16-8.49,3.91-17.08,7.92-24.58,3.44-6.45,7.1-13,12.74-17.66,4.31-3.55,9.55-5.79,14.87-7.47,12.32-3.88,26.51-4.77,37.53,2,5.29,3.24,9.47,8,13.27,12.89,4.16,5.37,8,11.06,10.44,17.4a67.28,67.28,0,0,1,3.65,16.37A69.74,69.74,0,0,1,309.34,70.64Z" style="fill:#111010"/><path d="M245.52,90.81a17.22,17.22,0,0,0-2.7,3.76,5.8,5.8,0,0,0-.37,4.5,2.6,2.6,0,0,0,1.44,1.57,5.71,5.71,0,0,0,2,.09c3.28,0,5.89,3,9.15,3.31,2.53.24,5-1.21,7.52-1.12,1,0,1.93.29,2.9.25a4.72,4.72,0,0,0,4.17-6.5" style="fill:none;stroke:#000;stroke-miterlimit:10;stroke-width:0.75px"/><path d="M252.19,65.06l-4.56-3.67a8.94,8.94,0,0,0-7.45-2.45c-2.59,0-5.31.05-7.53,1.38" style="fill:none;stroke:#000;stroke-linecap:round;stroke-miterlimit:10;stroke-width:2px"/><path d="M272.44,68.93a8.38,8.38,0,0,1,5.47-1.57c4.93.08,9.49,2.51,13.81,4.88" style="fill:none;stroke:#000;stroke-linecap:round;stroke-miterlimit:10;stroke-width:2px"/><path d="M210.77,75.37c-.26-.45-.68-1-1.18-.82a1,1,0,0,0-.56.91,2.78,2.78,0,0,0,.2,1.3,4.92,4.92,0,0,1,.5,1.24,3.2,3.2,0,0,1-.87,2,7.29,7.29,0,0,0-1.12,2.68.72.72,0,0,0,.09.64c.18.19.5.14.76.2a1.13,1.13,0,0,1,.77.82,3.32,3.32,0,0,1,0,1.18,3.42,3.42,0,0,1-.87,2.43l.2.47" style="fill:none;stroke:#000;stroke-miterlimit:10;stroke-width:0.25px"/><path d="M230.46,71.5c1.17-1,3.58-4.27,9.63-4.14,3.33,0,6.88,3.3,8.58,5.26" style="fill:none;stroke:#000;stroke-miterlimit:10;stroke-width:0.5px"/><path d="M271.17,77.38c2.08-1.21,3.92-3.87,9.92-3.29,5.42.44,7,4.58,7.75,6" style="fill:none;stroke:#000;stroke-miterlimit:10;stroke-width:0.5px"/><path d="M271.17,79.81a28.29,28.29,0,0,1,3-1.73A14,14,0,0,1,276.48,77a8.17,8.17,0,0,1,5.92.57,4.24,4.24,0,0,1,1,.65A23.2,23.2,0,0,1,285,80.45a8,8,0,0,1-4.35,3.13,6.51,6.51,0,0,1-1.85.11,8.9,8.9,0,0,1-2.41-.51,17.71,17.71,0,0,1-5.23-3.36Z" style="fill:#ede3df"/><g style="clip-path:url(#clip-path-2)"><circle cx="278.94" cy="78.84" r="2.96"/><circle cx="278.63" cy="78.17" r="0.79" style="fill:#fff"/></g><path d="M244.84,48.11a18.32,18.32,0,0,1,6.79,1c3.53,1,7.34,2.2,9.42,5.22a4,4,0,0,0,.89,1.08c1.14.8,2.64-.14,4-.48a13.5,13.5,0,0,1,3.76,0c2.19.08,4.38-.37,6.57-.37a29.55,29.55,0,0,1,5.48.67,40.83,40.83,0,0,1,7.8,2.08,10.25,10.25,0,0,0,4,1.14" style="fill:none;stroke:#000;stroke-miterlimit:10;stroke-width:0.25px"/><path d="M253.55,46.17q5.1,1.45,10.05,3.38a22,22,0,0,0,3.19,1.08,20,20,0,0,0,4,.34c1.17,0,2.35,0,3.52,0a19.67,19.67,0,0,1,4.22-.07,15.35,15.35,0,0,1,3.05,1,65.08,65.08,0,0,0,14.53,3.74" style="fill:none;stroke:#000;stroke-miterlimit:10;stroke-width:0.25px"/><path d="M254.22,54.34l8.51,4.12a17.2,17.2,0,0,0,3,1.24,18.28,18.28,0,0,0,6,.19c5.92-.43,11.94-.5,17.72.87" style="fill:none;stroke:#000;stroke-miterlimit:10;stroke-width:0.25px"/><path d="M236.18,116.06c4.07-2.35,8.68-4.74,13.24-3.64,2.15.52,4.11,1.8,6.31,2,3.07.24,6.3-1.69,9.09-.4s3.58,5.1,6.31,6.45" style="fill:none;stroke:#000;stroke-miterlimit:10;stroke-width:0.5px"/><path d="M236,120.06a13.15,13.15,0,0,1,4.22,3.72,15.53,15.53,0,0,0,2,2.58,9,9,0,0,0,1.79,1.16,26.85,26.85,0,0,0,7.45,2.86,13,13,0,0,0,7.85-.73c3.65-1.68,6.3-5.47,10.26-6.09" style="fill:none;stroke:#000;stroke-miterlimit:10;stroke-width:0.5px"/><path d="M237.63,118.13a10,10,0,0,0,7.23,1.48,9.23,9.23,0,0,1,3.15-.38c1.32.22,2.37,1.25,3.64,1.68,2.09.69,4.33-.35,6.53-.39,3.27-.07,6.52,2.06,9.65,1.13" style="fill:none;stroke:#000;stroke-miterlimit:10;stroke-width:0.5px"/><path d="M253.56,70.87a6.34,6.34,0,0,1,1.1,3.81,18.87,18.87,0,0,1-.59,4c-.54,2.43-1.19,5-3.08,6.66" style="fill:none;stroke:#000;stroke-miterlimit:10;stroke-width:0.5px"/></g></svg>