<svg xmlns="http://www.w3.org/2000/svg" xmlns:xlink="http://www.w3.org/1999/xlink" viewBox="0 0 751.05 349.9"><defs><clipPath id="clip-path"><path d="M145.52,153.79c.68.38,1.49-.14,2.09-.64l4-3.38a3.25,3.25,0,0,1,1.12-.7,3.58,3.58,0,0,1,1.79.13A11.1,11.1,0,0,0,161,149c1.71-.66,3.35-1.93,5.16-1.64,2.44.39,3.93,3.47,6.39,3.46-2.59,1.49-6,1.66-8.89,2.57-1.42.46-2.78,1.12-4.23,1.48a5.66,5.66,0,0,1-4.34-.44,3.62,3.62,0,0,0-1.17-.64,5.5,5.5,0,0,0-1.54.18c-1.54.15-3.75-1.51-5-.61" style="fill:none"/></clipPath><clipPath id="clip-path-2"><path d="M130.85,114.33c2.73,1.48,6.08,1.12,9.09.38q1.5-.37,3-.85a15,15,0,0,0,2.48-1,9.12,9.12,0,0,0,2.31-1.77,11.44,11.44,0,0,1-2.76-1.53c-.93-.49-2-.67-2.9-1.22a4.74,4.74,0,0,0-.73-.41,2.6,2.6,0,0,0-.83-.14,9.75,9.75,0,0,0-6.22,1.95,19.33,19.33,0,0,0-1.63,1.43,6.12,6.12,0,0,0-2,2.8A.28.28,0,0,0,130.85,114.33Z" style="fill:none"/></clipPath><clipPath id="clip-path-3"><path d="M166.67,109.29,168.8,107a10.34,10.34,0,0,1,3.27-2.63,9.58,9.58,0,0,1,2.14-.56c2-.36,4.24-.6,6.09.34a25.72,25.72,0,0,0,2.56,1.5c.76.28,1.77.46,2,1.25a1.26,1.26,0,0,1-.5,1.22,3.39,3.39,0,0,1-1.26.55,37.18,37.18,0,0,1-5.89,1,16.66,16.66,0,0,1-5.27-.07c-.49-.11-1-.25-1.48-.33a5.93,5.93,0,0,0-3.34.43.43.43,0,0,1-.38,0,.33.33,0,0,1,0-.53" style="fill:none"/></clipPath><clipPath id="clip-path-4"><path d="M460.88,154a1.47,1.47,0,0,0,.64,1.31c1.68,1.45,4,1.72,6.25,1.92a13.11,13.11,0,0,0,7.69-1.15c.61-.23,1.37-.76,1.1-1.36-.19-.42-.74-.49-1.17-.63a7,7,0,0,1-1.82-1.23,8.41,8.41,0,0,0-6.4-1.27,21.31,21.31,0,0,0-6.24,2.39Z" style="fill:none"/></clipPath><clipPath id="clip-path-5"><path d="M499.38,156.63c1.53-1.67,3.14-3.4,5.24-4.24a7.58,7.58,0,0,1,9.48,3.43.27.27,0,0,1-.09.42,7.33,7.33,0,0,1-3.92,1.54,21.85,21.85,0,0,1-4.26-.07l-5.27-.43a1.72,1.72,0,0,1-.78-.19C499.55,157,499.32,156.84,499.38,156.63Z" style="fill:none"/></clipPath><clipPath id="clip-path-6"><path d="M499.77,247.08l6.8,53.83-5.4,35c-4.78.07-4.16,58-8.95,58q-17,.24-34,.41c-9.83.09-3.41-24.22-13.25-24.2l-9.55-25.75-6.7-114,.08,0a21,21,0,0,1,5.36-1.11c-1,16,9.58,32.66,22.35,42.25a36.55,36.55,0,0,0,12.09,6.43,18,18,0,0,0,13.38-1.16c4.87-2.7,7.76-8.13,8.63-13.63.86-5.35,0-11.89-1-17.26C495.18,246.64,494.17,246.54,499.77,247.08Z" style="fill:none"/></clipPath></defs><title>on_illustration_media</title><g id="Media"><g id="Editor"><g id="Head-2" data-name="Head"><path d="M132.24,169.72c-.56,2.16.65,4.33,1.42,6.43a32.64,32.64,0,0,1,1.47,8.15l2.28,24.36,1.78,23L229,226.41l-21.44-42.62a81.12,81.12,0,0,1-4.57-38.1Z" style="fill:#62647a"/><path d="M132.12,169.69c-.56,3.46,1.74,6.71,2.33,10.06.83,4.69,1,9.56,1.46,14.3.52,5.62,1.1,11.23,1.54,16.85l1.61,20.76a.13.13,0,0,0,.13.13L169.43,230l48.51-2.83,11.09-.65a.13.13,0,0,0,.11-.19L218.42,205l-7.29-14.48c-1.2-2.39-2.57-4.76-3.59-7.24-4.78-11.66-5.83-25.21-4.4-37.63a.13.13,0,0,0-.16-.12l-62,21.06-8.77,3c-.15.05-.09.29.07.24l54.49-18.5,12.52-4.25a14.57,14.57,0,0,1,3.19-1.08c.13,0,.42-.23.55-.19-.13,0-.65,6.52-.67,7.22-.29,10.16,1,21.48,5.16,30.87,1.25,2.84,2.8,5.58,4.2,8.34l15.5,30.81c.43.85,1.51,2.23,1.61,3.19,0,.38.21,0,.16,0s-.55,0-.64,0c-2.74,0-5.53.32-8.27.48l-68.4,4-10.34.6c-.44,0-1.61.32-2,.12s.23.31,0-.2a8.12,8.12,0,0,1-.18-2.38q-1.62-20.88-3.57-41.72c-.23-2.51-.39-5.05-.83-7.54-.58-3.24-2.87-6.59-2.33-9.93C132.39,169.6,132.15,169.53,132.12,169.69Z"/><path d="M119.14,125.5c-.16.25-.53.12-.82.07a1.52,1.52,0,0,0-1.51.88,4.1,4.1,0,0,0-.34,1.81,14.41,14.41,0,0,0,.29,3.68,25.56,25.56,0,0,0,1.57,4.08c.81,1.9,1.44,3.88,2.06,5.86l1.28,4a43.19,43.19,0,0,1,1.91,7.57,2.28,2.28,0,0,0,.45,1.34c.33.35,1,.35,1.19-.1" style="fill:#62647a;stroke:#000;stroke-miterlimit:10;stroke-width:0.25px"/><path d="M210.5,123.38a14.33,14.33,0,0,0,0,3.07,23.93,23.93,0,0,1-.59,6.85c-.61,2.56-1.63,5-1.72,7.66a23.17,23.17,0,0,1-.1,3,3.18,3.18,0,0,1-1.58,2.42,1.75,1.75,0,0,1-2.44-.95,9.54,9.54,0,0,1,0,2.52c-2.36,10.52-8.57,19.76-15.52,28a61.52,61.52,0,0,1-10.1,10,26.92,26.92,0,0,1-13,5.43c-1.3.13-2.92,0-3.42-1.25l.41-1.94c-1.17,1.8-3.4,2.53-5.46,3.12-3,.88-6.44,1.72-9.17.16a12.07,12.07,0,0,1-3.48-3.63L131,169.25a71.88,71.88,0,0,1-6.56-10.37,53.53,53.53,0,0,1-2.92-7.84,104.76,104.76,0,0,1,4.65-72.1c.68-1.53,1.4-3,2.18-4.52a94.87,94.87,0,0,1,9-8.27,17,17,0,0,1,7.32-4.06c4.64-1.59,9.34-3.19,14.23-3.6,7.12-.58,14.2,1.4,20.93,3.82a20,20,0,0,0,4.88,1.3l.3.3a38.82,38.82,0,0,0,4.11,3.25A39.59,39.59,0,0,1,196,74.7l3,3.94a21.12,21.12,0,0,1,2.09,3.08,21.67,21.67,0,0,1,1.27,3.34l2.69,8.48a35.41,35.41,0,0,1,1.86,7.91,30.45,30.45,0,0,1-.73,8.61c-.11.52-.19,1.6-.3,2.39.87-1.34,3-1.43,4.34-.58a5.14,5.14,0,0,1,2.16,4.08,11.24,11.24,0,0,1-1,4.66A13.93,13.93,0,0,0,210.5,123.38Z" style="fill:#62647a"/><path d="M210.38,123.38c-.17,1.74.1,3.48,0,5.22a26.69,26.69,0,0,1-1.06,6.36,31,31,0,0,0-1.2,5.09c-.06.56-.06,1.1-.08,1.66s0,1,0,1.51q.11,3-3.87,2.15a.13.13,0,0,0-.23.06c.51,5.1-2.67,11.11-5,15.46a88,88,0,0,1-10,14.32c-3.73,4.48-7.73,8.9-12.7,12a26.77,26.77,0,0,1-8.4,3.59c-1.76.39-3.09.73-4.65-.2-1.35-.81-1-1.1-.68-2.42a.13.13,0,0,0-.23-.1c-2.29,3-8.74,4.61-12.34,3.94-4.47-.84-7.16-6.53-9.6-9.94-4.92-6.87-10.43-13.6-14.59-21-4.05-7.17-6-15.75-7.22-23.83a105.26,105.26,0,0,1,4-48.51,99.14,99.14,0,0,1,4.65-11.7c1.91-4,5.48-6.8,8.81-9.65a26,26,0,0,1,5.3-3.92,51.54,51.54,0,0,1,6.46-2.36,45,45,0,0,1,13-2.66,44.42,44.42,0,0,1,13.26,2c2,.56,3.87,1.22,5.78,1.9,1.59.56,3.68.71,5.12,1.57a43.55,43.55,0,0,1,4.1,3.26,31.15,31.15,0,0,1,4.8,4.84c3,3.68,6.6,7.6,8.18,12.15a129.73,129.73,0,0,1,4.33,14.12c1.07,4.8,0,9.32-.54,14.09a.13.13,0,0,0,.21.09c1.65-1.93,4.35-1.08,5.53.86a6,6,0,0,1,.64,4.12c-.29,2-1.34,3.83-1.8,5.83,0,.16.2.22.24.07.78-3.38,4.42-10.78-1.46-12.12-1-.22-1.52.18-2.42.26-.75.06-.46,1-.55-.4-.09-1.56.6-3.32.77-4.9a24.67,24.67,0,0,0,0-5.74c-.46-3.69-1.85-7.25-3-10.78-1-3.13-1.72-6.58-3.54-9.35a59.14,59.14,0,0,0-13.33-14.85c-.69-.52-1.61-1.58-2.37-2s-3-.66-4.12-1a90,90,0,0,0-11.57-3.41A39.62,39.62,0,0,0,149,60.51c-3,.93-6.23,1.76-8.91,3.39a53.28,53.28,0,0,0-7.8,6.47,27.11,27.11,0,0,0-4,4,24,24,0,0,0-1.86,3.78,101.27,101.27,0,0,0-3.87,9.79,105.43,105.43,0,0,0-5.2,40.72,103.25,103.25,0,0,0,3.34,19.92,59.36,59.36,0,0,0,9.2,19.34c4.55,6.42,9.15,12.81,13.74,19.2,1.33,1.85,2.64,3.93,4.83,4.84,2.48,1,5.3.39,7.78-.28a21.49,21.49,0,0,0,3.53-1.18c.91-.43,1.52-1.2,2.34-1.65.39-.22.19-.72,0,.31a3.69,3.69,0,0,0-.2,1,1.71,1.71,0,0,0,.71.93c1.43,1,3.79.41,5.33.06a27.54,27.54,0,0,0,9.16-4.07c6.06-4,10.89-9.91,15.26-15.65A66,66,0,0,0,203,152.08a22.18,22.18,0,0,0,1.22-4.75c0-.1-.06-1.71,0-1.72-.47.22.61.91.49.82,1.18.87,2.62-.25,3.14-1.27.66-1.3.4-2.8.47-4.2a33.82,33.82,0,0,1,1.5-6.78c1-3.67.44-7.12.79-10.8C210.64,123.22,210.39,123.22,210.38,123.38Z"/><path d="M184.71,63.61a20,20,0,0,1-4.88-1.3c-6.73-2.42-13.81-4.4-20.93-3.82-4.89.41-9.59,2-14.23,3.6a17,17,0,0,0-7.32,4.06,94.87,94.87,0,0,0-9,8.27,51.46,51.46,0,0,1,10.42-14.27c5.57-5.17,12.94-9,20.53-8.89H160c4.21.16,8.13,2.11,11.89,4,1.87,1,3.75,1.9,5.54,3a45.06,45.06,0,0,1,5.49,3.94C183.57,62.73,184.17,63.11,184.71,63.61Z"/><g id="Lips"><path d="M142.15,151.81a24.15,24.15,0,0,1,6.4-6.41,11.63,11.63,0,0,1,8.7-1.76,7,7,0,0,0,2,.35,6.48,6.48,0,0,0,2.3-.87,11.7,11.7,0,0,1,14,3.37c.82,1.09,1.44,2.31,2.23,3.42-2,3.12-4.8,5.59-7.58,8a8.6,8.6,0,0,1-2,1.45c-2.37,1.06-5.18-.17-7.69.47-.78.2-1.5.57-2.25.85a9.46,9.46,0,0,1-8.25-.94,18.63,18.63,0,0,1-2.32-1.89c-2.09-1.89-4.18-3.79-6.07-5.87" style="opacity:0.13"/><path d="M142.25,151.87c2.43-3.28,5.34-6.47,9.33-7.77a11.22,11.22,0,0,1,6-.26,4.89,4.89,0,0,0,2.56.09c1.4-.39,2.6-1.25,4.06-1.54a11.82,11.82,0,0,1,5.28.21A11.59,11.59,0,0,1,177,149c1.1,2.73-4.32,6.66-6.25,8.31a8,8,0,0,1-6.39,2.37,14.74,14.74,0,0,0-3.55,0c-1.68.32-3.14,1.25-4.88,1.42a9.57,9.57,0,0,1-5.9-1.43c-3.1-1.93-5.9-5.08-8.36-7.74-.11-.12-.29.06-.18.18,2.62,2.83,5.63,6.33,9.09,8.17,3.21,1.71,5.94,1,9.16,0,3.45-1.08,6.82.66,9.92-1.66a35.53,35.53,0,0,0,8.24-8.57.12.12,0,0,0,0-.13c-2-3-3.57-5.66-7.08-7a11.85,11.85,0,0,0-8.66-.08c-1.6.63-2,1.17-4.21,1-.78-.07-1.53-.36-2.33-.41a11.55,11.55,0,0,0-4.91.88c-3.68,1.47-6.36,4.48-8.67,7.59-.1.13.12.25.22.13Z"/><path d="M145.52,153.79c.68.38,1.49-.14,2.09-.64l4-3.38a3.25,3.25,0,0,1,1.12-.7,3.58,3.58,0,0,1,1.79.13A11.1,11.1,0,0,0,161,149c1.71-.66,3.35-1.93,5.16-1.64,2.44.39,3.93,3.47,6.39,3.46-2.59,1.49-6,1.66-8.89,2.57-1.42.46-2.78,1.12-4.23,1.48a5.66,5.66,0,0,1-4.34-.44,3.62,3.62,0,0,0-1.17-.64,5.5,5.5,0,0,0-1.54.18c-1.54.15-3.75-1.51-5-.61" style="fill:#e5e6ea"/><path d="M145.49,153.91c1.64.27,2.71-1.09,3.89-2.08,1.81-1.52,2.8-2.67,5.54-2.43a27.44,27.44,0,0,0,2.88.3,9.68,9.68,0,0,0,3.21-.58c1.14-.42,2.44-1.44,3.64-1.56,2.18-.22,3.25.78,4.83,2,.55.42,1.36.74,1.84,1.18,0,0,.59.15.6.18.09.24-1.34.66-1.5.72a34.91,34.91,0,0,1-3.81.93c-2.68.58-5.25,2-7.95,2.33-1.93.24-3-.7-4.69-1.17-.8-.22-1.85.18-2.68,0-1.41-.23-2.59-1.14-4-.48-.15.07,0,.28.13.22,1.47-.68,4.27.6,6,.66,1.9.06,3.19,1.31,5.29,1,2.46-.36,4.75-1.65,7.19-2.2a26.81,26.81,0,0,0,6.69-2c.12-.06,0-.22-.06-.23-2.46-.24-3.56-2.61-5.77-3.31-1.87-.59-3.46.48-5.12,1.19a10.87,10.87,0,0,1-6.25.66,6.25,6.25,0,0,0-2.64-.3c-2.44.7-4.38,5.19-7.19,4.73-.16,0-.23.22-.07.24Z"/><g style="clip-path:url(#clip-path)"><path d="M153.44,148.58c0,1.06.08,2.11.15,3.17,0,.49.06,1,.06,1.46q0,.36,0,.72a1,1,0,0,0,.07,1.23c0-.16-.22-.23-.24-.07l0,.23c0,.16.21.23.24.07.49-2.26,0-4.53,0-6.81a.13.13,0,0,0-.25,0Z"/><path d="M157.75,148.7q.09,3.83.25,7.67c0,.16.26.16.25,0q-.16-3.83-.25-7.67a.13.13,0,0,0-.25,0Z"/><path d="M162.91,147.28a62.1,62.1,0,0,0,.24,8.26c0,.16.26.09.24-.07a61.67,61.67,0,0,1-.23-8.19.13.13,0,0,0-.25,0Z"/><path d="M167.11,146.66q.08,2.26.2,4.51a9,9,0,0,0,.28,3,.13.13,0,0,0,.17,0l.07,0a.13.13,0,0,0,.06-.14l0-.06c-.05-.15-.29-.09-.24.07a10.56,10.56,0,0,1,0-1.79q-.06-1-.12-2-.1-1.83-.16-3.67c0-.16-.26-.16-.25,0Z"/><path d="M150.13,149.78a26.64,26.64,0,0,1,.18,6.17c0,.16.24.16.25,0a26.91,26.91,0,0,0-.18-6.23c0-.16-.26-.09-.24.07Z"/></g></g><path d="M198.09,98.36a19.8,19.8,0,0,0-3.94-2.2,17.33,17.33,0,0,0-6.51-.77,68.35,68.35,0,0,0-23.7,4.9c-3.55,1.43-7.1,3.18-10.92,3.28a5.65,5.65,0,0,1-1.74-.17,11.72,11.72,0,0,1-1.51-.65,16.24,16.24,0,0,0-6.83-1.08,59.88,59.88,0,0,0-24.2,5.3l-1,.32v1.42l1.71-.85c1,4.66,1.79,8.28,2,10.43a8.44,8.44,0,0,0,1.41,4c.89,1.39,2.42,1.46,4,1.9,3.41.94,6.8.62,10.33.5a42.36,42.36,0,0,0,8.63-1.46,8.39,8.39,0,0,0,4.51-3.8,21,21,0,0,0,1.53-5.57c.29-1.63.1-2.79,1.21-4.62s5.27-1.26,6.05-.15a61.57,61.57,0,0,0,5,7.54,11.4,11.4,0,0,0,4.12,2.43,20.87,20.87,0,0,0,5,.49,53.67,53.67,0,0,0,11.78-.83,8.55,8.55,0,0,0,5.31-2.26,8.35,8.35,0,0,0,1.73-2.76c1.2-3.46,1.32-7.87,1.11-12.53.91.41,3.52,1.25,4.44,1.66l5.35,2.39,4.31,1.93.66-2.25Zm-47.8,10.21a39.53,39.53,0,0,1-1.07,8,5.49,5.49,0,0,1-.89,2.33,5.32,5.32,0,0,1-2.47,1.51,33.38,33.38,0,0,1-13.61,1.93,26.34,26.34,0,0,1-6.13-1.1,4.27,4.27,0,0,1-2.57-1.68,4.69,4.69,0,0,1-.46-2l-.62-7.23a3.43,3.43,0,0,1,.56-2.75A39.69,39.69,0,0,1,136.4,104c4.05-.42,8.27-1.14,12,.5a4.17,4.17,0,0,1,2,1.41C150.66,106.42,150.31,107.94,150.29,108.57Zm40.25,2.4a6.11,6.11,0,0,1-2.66,4.44,7.76,7.76,0,0,1-2.06.74,41.1,41.1,0,0,1-15,.87,11.21,11.21,0,0,1-4.21-1.19,9.54,9.54,0,0,1-3.27-3.45c-1.77-2.92-3.11-5.55-3-9a45.86,45.86,0,0,1,13.84-4.81c2.68-.47,5.79-1,8.5-1.25a17.74,17.74,0,0,1,4.28-.06,3.64,3.64,0,0,1,3.1,1.75c.76,1.66.49,4.75.51,6.57A32.57,32.57,0,0,1,190.54,111Z"/><g style="opacity:0.62"><path d="M147,97.39c-3.12-2.47-6.18-3.82-10.2-2.74-4.78,1.28-9.25,4.56-13.54,7-1.69.94-.18,3.53,1.51,2.59,3.27-1.83,6.51-3.79,9.86-5.46,3.81-1.9,6.85-1.9,10.23.78,1.5,1.19,3.63-.92,2.12-2.12Z"/></g><g style="opacity:0.62"><path d="M167.14,96.87a14.11,14.11,0,0,1,10.21-5.76c2.3-.17,4,.85,6.15,1.52A46.11,46.11,0,0,0,189.64,94c1.89.33,2.7-2.56.8-2.89a41.76,41.76,0,0,1-8.58-2.31,11.35,11.35,0,0,0-6.37-.44,17.3,17.3,0,0,0-10.94,7c-1.14,1.56,1.46,3.06,2.59,1.51Z"/></g><g id="Nose"><path d="M149.54,124a6.43,6.43,0,0,0-6.55,6c-.15,3,2,6.58,5.38,5.53.31-.1.18-.58-.13-.48-3.66,1.14-5.29-3.52-4.55-6.27a6,6,0,0,1,5.86-4.3.25.25,0,0,0,0-.5Z"/><path d="M148.08,135.51a2.18,2.18,0,0,1-1.23-1.9,1.67,1.67,0,0,1,.4-1.15,2,2,0,0,1,1.5-.54c1.55,0,2.89,1,4.2,1.87s3,1.52,4.38.85a7.27,7.27,0,0,0,2.23-2.27,9.57,9.57,0,0,1,2.67-2.27,3.81,3.81,0,0,1,3.12-.54,1.78,1.78,0,0,1,.94,2.62" style="fill:none;stroke:#000;stroke-miterlimit:10;stroke-width:0.5px"/><path d="M166.12,132.76c3.21,1.93,5.46-1.66,5.76-4.47.17-1.65.23-3.51-.82-4.89a8.34,8.34,0,0,0-2.15-1.8c-1.13-.73-3.69-1.24-4.18-2.44-.12-.29-.6-.17-.48.13.76,1.86,3.21,1.93,4.74,3a5.16,5.16,0,0,1,2.46,4.82c-.05,2.45-1.53,7.39-5.08,5.25a.25.25,0,0,0-.25.43Z"/><ellipse cx="149.2" cy="133.73" rx="2.29" ry="1.8"/><ellipse cx="164.47" cy="131.29" rx="2.43" ry="1.89" transform="translate(-17.97 26.4) rotate(-8.7)"/></g><path d="M130.85,114.33c2.73,1.48,6.08,1.12,9.09.38q1.5-.37,3-.85a15,15,0,0,0,2.48-1,9.12,9.12,0,0,0,2.31-1.77,11.44,11.44,0,0,1-2.76-1.53c-.93-.49-2-.67-2.9-1.22a4.74,4.74,0,0,0-.73-.41,2.6,2.6,0,0,0-.83-.14,9.75,9.75,0,0,0-6.22,1.95,19.33,19.33,0,0,0-1.63,1.43,6.12,6.12,0,0,0-2,2.8A.28.28,0,0,0,130.85,114.33Z" style="fill:#e0d7d7;stroke:#000;stroke-miterlimit:10;stroke-width:0.25px"/><path d="M166.67,109.29,168.8,107a10.34,10.34,0,0,1,3.27-2.63,9.58,9.58,0,0,1,2.14-.56c2-.36,4.24-.6,6.09.34a25.72,25.72,0,0,0,2.56,1.5c.76.28,1.77.46,2,1.25a1.26,1.26,0,0,1-.5,1.22,3.39,3.39,0,0,1-1.26.55,37.18,37.18,0,0,1-5.89,1,16.66,16.66,0,0,1-5.27-.07c-.49-.11-1-.25-1.48-.33a5.93,5.93,0,0,0-3.34.43.43.43,0,0,1-.38,0,.33.33,0,0,1,0-.53" style="fill:#e0d7d7;stroke:#000;stroke-miterlimit:10;stroke-width:0.25px"/><g style="clip-path:url(#clip-path-2)"><circle cx="137.66" cy="111.28" r="3.5"/><circle cx="138.07" cy="111.16" r="1.05" style="fill:#fff"/></g><g style="clip-path:url(#clip-path-3)"><circle cx="176.24" cy="106.4" r="3.5"/><circle cx="175.91" cy="106.28" r="1.05" style="fill:#fff"/></g><path d="M207.08,116.33c.59-.58,1-1.56,1.78-1.63a1.33,1.33,0,0,1,1.27.92,3.37,3.37,0,0,1,.06,1.67c-.45,3.05-1.78,6-1.47,9.1.07.67.22,1.34.26,2a13.73,13.73,0,0,1-.8,4.75,2.38,2.38,0,0,1-.24.61,4.91,4.91,0,0,1-.37.46,2.56,2.56,0,0,0-.43.81,6.12,6.12,0,0,1-.32,1,.86.86,0,0,1-.84.51c-.35-.06-.55-.58-.26-.79" style="fill:none;stroke:#000;stroke-miterlimit:10;stroke-width:0.25px"/><path d="M205.35,115.22q-.32,6.74-1,13.45-.12,1.29-.25,2.58l-.24,2.4-.61,6.13" style="fill:none;stroke:#000;stroke-miterlimit:10;stroke-width:0.25px"/><path d="M157.94,140.07a8,8,0,0,0-1.77-1.47,3,3,0,0,0-2.33-.33,5.69,5.69,0,0,0-1.62,1.07c-2.26,1.77-5.19,2.45-7.61,4a12.79,12.79,0,0,0-5,6.25c-.72,1.92-.94,4.23.24,5.91.84-.7.74-2,1.08-3a6.79,6.79,0,0,1,1.37-2.13l1.61-1.92a17.81,17.81,0,0,1,2.17-2.29,16.65,16.65,0,0,1,3.3-2c2-1,4.06-1.93,6.24-1.76,1.34.11,2.71.63,4,.22a23.13,23.13,0,0,0,2.22-1.18,7.73,7.73,0,0,1,3.86-.29,16.89,16.89,0,0,1,3.59.6c3.91,1.25,6.63,5.24,10.67,5.93a5.58,5.58,0,0,0,0-2.22,10.77,10.77,0,0,0-2.52-4.41,7.89,7.89,0,0,0-2.82-2.47,3.51,3.51,0,0,0-2-.25c-.38.06-.74.2-1.12.23a4.29,4.29,0,0,1-2.1-.55l-3.31-1.51a5.74,5.74,0,0,0-3.43-.76c-1.91.39-2.84,2.49-4,4.09-.16.23-.53.51-.66.37Z" style="opacity:0.13"/><path d="M191.56,172.22h0q-1.48,1.9-3,3.73a61.52,61.52,0,0,1-10.1,10,26.92,26.92,0,0,1-13,5.43c-1.3.13-2.92,0-3.42-1.25l.41-1.94c-1.17,1.8-3.4,2.53-5.46,3.12-3,.88-6.44,1.72-9.17.16a12.07,12.07,0,0,1-3.48-3.63l-9.28-13a15.32,15.32,0,0,1-.42-1.9l.63.11c3.36,0,5.91,2.82,8.5,5a14.77,14.77,0,0,0,6.21,3.2,8.54,8.54,0,0,0,6.74-1.25c.92-.68,1.66-1.57,2.54-2.29a4.16,4.16,0,0,1,3.13-1.11c1.41.21,2.4,1.47,3.64,2.19a7.5,7.5,0,0,0,5.92.34,53.09,53.09,0,0,0,5.58-2.46c4.05-1.78,8.56-2.51,12.32-4.84.56-.36,1.51-.62,1.72,0A.58.58,0,0,1,191.56,172.22Z" style="opacity:0.13"/></g><g id="Shirt"><path d="M174.37,212.8c-4.65,2.62-3.25,3.41-8.51,5.26-7.18,2.53-14.95-1.46-21.12-5.92-2.43-1.76-4.88-3.71-6.14-6.43a19.16,19.16,0,0,1-1.32-6.72l-1.2-16.25c-5.15,3.67-7.42,10.6-12.92,13.72-3.2,1.81-7,2-10.63,2.79-7.34,1.53-21.12,5.73-26.14,11.29-10.64,11.77-12.25,28.89-13.33,44.73-1,15.11.59,79.82-.44,94.93-.19,2.84-.37,5.8.74,8.42,2.59,6.15,17.55,7.26,24.22,7.29,10.36,0,20.68-1.09,31-1.67,53.87-3,119.84,7.43,172.39-4.79,3.83-22.41-1.81-95.13-7.8-117.07a71.12,71.12,0,0,0-4.88-13.62,68.65,68.65,0,0,0-8.09-11.87c-10.51-13-34.14-23.86-49.85-29.55-4.33-1.57-9.13-2.83-12-6.42s-3.11-8.69-4.75-13.06-6.52-8.5-10.61-6.24c0,0,2.79,12,2.6,15.15s-7.14,13.92-8.23,15.17a42.08,42.08,0,0,1-4.17,3.5c-1.25,1.08-3.58,3-4.5,4s-1.22,3-3.86,4.33-5.72,2.63-6.51,3.75S174.37,212.8,174.37,212.8Z" style="fill:#d9dce2"/><path d="M126.75,193.88a49.23,49.23,0,0,0-9.5,24.63,85.58,85.58,0,0,1,5-11.77,3.46,3.46,0,0,1,1.52-1.76c1.15-.48,2.41.35,3.3,1.22,2,1.93,3.47,4.27,5.37,6.26,5.08,5.34,12.46,7.69,18.72,11.59a42.74,42.74,0,0,1,18.42,24.75l-.06-1.65" style="fill:none;stroke:#000;stroke-miterlimit:10;stroke-width:0.5px"/><path d="M177.1,209.71c-5,6.75-7.1,15.12-9.12,23.25-.89,3.6-1.77,7.48-.37,10.92" style="fill:none;stroke:#000;stroke-miterlimit:10;stroke-width:0.5px"/><path d="M169.49,246.88c4.32,22.09-3.23,95.08,2.87,116.74" style="fill:none;stroke:#000;stroke-miterlimit:10;stroke-width:0.5px"/><path d="M217,179.83c3.26,8,4.41,16.29,6.55,24.55,1.09,4.21,2.4,8.35,3.73,12.49.57,1.79,1.12,3.6,1.81,5.35a12.22,12.22,0,0,1,.86,2c.2,1.29.13.28.23.28-.28,0-1.15-.79-1.4-1a46.6,46.6,0,0,0-9.54-4.79c-1.74-.64-3.51-1.1-5.29-1.59a6.7,6.7,0,0,1-3.67-2.34,21.5,21.5,0,0,0-1.53-1.57,33.15,33.15,0,0,1-6.76-8.69c-1.2-2.09-2.64-5.36-5.12-6.23-2.83-1-5.82,2.58-7.7,4.2-3.4,2.93-6.8,5.85-11.23,7a.25.25,0,0,0,.13.48c4.77-1.27,8.39-4.52,12-7.67a21.37,21.37,0,0,1,3.62-2.92c3.18-1.61,4.73.35,6.21,2.66s2.68,4.81,4.26,7.07a36.28,36.28,0,0,0,4.73,4.91c1.81,1.78,2.35,2.9,4.88,3.55a49.44,49.44,0,0,1,16.81,7.79c.22.16.45-.14.34-.34-1.85-3.48-2.89-7.34-4.07-11.08s-2.37-7.69-3.32-11.6c-1.86-7.68-3.06-15.32-6.08-22.68-.12-.29-.6-.17-.48.13Z"/></g></g><g id="Freelancer"><g id="Head-3" data-name="Head"><path d="M471.85,85.9a93.76,93.76,0,0,0-13.56.78,33.79,33.79,0,0,0-7.68,2.24c-11.49,4.57-22.42,12.08-27.91,23.16-4.45,9-4.92,19.53-3.13,29.39s5.68,19.2,9.66,28.4c4.51,10.42,9.22,20.87,16.06,29.93a32.32,32.32,0,0,0,6.75,7c3.74,2.68,8.24,4,12.66,5.31l17,5c5.47,1.6,11.69,3.12,16.58.19s6.43-8.89,8.27-14.17a74,74,0,0,1,7.66-15.7,42,42,0,0,0,4.29-7.43c3.6-9.36-1.86-19.6-2.22-29.63-.12-3.29.33-6.58.32-9.88,0-12.41-6.43-24-14.2-33.64a63.68,63.68,0,0,0-7.4-8c-6-5.29-13.3-8.83-20.5-12.29A4.9,4.9,0,0,0,472,85.9Z" style="fill:#62647a"/><path d="M471.85,85.77c-6.94,0-13.89.2-20.45,2.7a67,67,0,0,0-14.58,7.63c-9.12,6.39-15.68,15.4-17.65,26.49-2.28,12.88,1.23,25.84,5.94,37.76s9.87,24.3,17,35.12c3,4.64,6.49,9.43,11.32,12.36,5.64,3.42,12.55,4.76,18.82,6.59,9.12,2.67,23.17,9.28,30-.87,3.09-4.56,4.15-10.28,6.3-15.29a74,74,0,0,1,4.37-8.57c1.69-2.84,3.76-5.48,5.16-8.49,2.41-5.17,1.88-10.83.81-16.27-.57-2.87-1.28-5.72-1.8-8.6a50.37,50.37,0,0,1-.54-11.92c.75-14-5-26.21-13.57-37a59.19,59.19,0,0,0-15.53-14.17c-2.93-1.8-6-3.38-9.06-4.89-2-1-4.26-2.56-6.57-2.55a.13.13,0,0,0,0,.25c2.46,0,5.06,1.82,7.22,2.9,2.56,1.28,5.1,2.6,7.55,4.07a55.59,55.59,0,0,1,14,11.81c7.75,9.1,14.61,20.13,15.73,32.29.54,5.87-.61,11.71.28,17.58s2.84,11.55,3,17.49a19.72,19.72,0,0,1-1.88,9.3c-1.33,2.72-3.19,5.14-4.75,7.72a76.39,76.39,0,0,0-6.74,14.54c-1.68,4.86-3.27,10.61-8,13.43-5.61,3.36-12.63.92-18.38-.76-6.15-1.8-12.34-3.49-18.45-5.43a29.72,29.72,0,0,1-15-10c-7.63-9.54-12.61-20.92-17.41-32.05-5-11.6-9.87-23.67-10.22-36.47-.37-13.33,4.75-25.4,15.14-33.84a63.58,63.58,0,0,1,16-9.3C457,86.44,464.29,86,471.85,86A.13.13,0,0,0,471.85,85.77Z"/><g id="Hair"><path d="M511,119.76a9.8,9.8,0,0,0-.87-8.79c-1.16-1.78-2.93-3.2-3.7-5.18-.51-1.32-.54-2.79-.95-4.15s-1.43-2.72-2.85-2.81c-.73,0-1.51.26-2.19,0a2.73,2.73,0,0,1-1-1l-2.8-3.66a2.68,2.68,0,0,0-.72-.73c-.95-.56-2.11.2-2.91,1a14.3,14.3,0,0,0-2.62-4.93,2.59,2.59,0,0,0-.75-.69c-1.07-.57-2.3.37-3.15,1.24l-.27-.51c-.6.63-1.73,0-2-.79a10,10,0,0,1-.12-2.58,4.48,4.48,0,0,0-3-3.79,5.17,5.17,0,0,0-4.81.86c-.8.63-1.43,1.48-2.28,2a2.32,2.32,0,0,1-2.83,0,6.88,6.88,0,0,1-.9-1.74,2.88,2.88,0,0,0-3.42-1.27c-1.43.54-2.32,2.2-3.83,2.43-1.06.17-2.07-.44-3.08-.8s-2.37-.37-2.91.56L457,83.29l-5.25.93-1.42.25a10.42,10.42,0,0,0-4.7,1.65c-1.26,1-2,2.49-3.1,3.65a7.67,7.67,0,0,1-5.61,2.34,2.08,2.08,0,0,0-1,.13c-.61.32-.66,1.17-1.09,1.71a3.12,3.12,0,0,1-1.26.78,21.46,21.46,0,0,0-7.94,6.39c-.64.8-1.24,1.62-1.84,2.45l-1.07,1.47-6.26,8.61a3.47,3.47,0,0,0-.9,2.16c0,.57.36,1.11.27,1.67s-.67,1-1.09,1.49a4.06,4.06,0,0,0,.26,5.53c-2,2.37-4.19,5.42-3.08,8.34l0,.43a5.81,5.81,0,0,0-.62,7.58c-1.38.19-2,1.83-2.15,3.22-.19,1.75,0,3.76,1.42,4.86a4.18,4.18,0,0,0-1.44,4,9.94,9.94,0,0,0,1.92,4.06c-1.44,2.19-2.95,4.66-2.51,7.24s2.55,4.47,2.58,7a19.34,19.34,0,0,1-.48,3,3.3,3.3,0,0,0,.68,2.86,2.64,2.64,0,0,1,.61.65,1.61,1.61,0,0,1,0,1,14.25,14.25,0,0,1-.35,1.73c-.21.73-.54,1.43-.7,2.17-.45,2.16.64,4.31,1.71,6.25a52.61,52.61,0,0,0-1.76,13.79c0,2.9.25,5.91-.89,8.58a23.85,23.85,0,0,0-1.45,3.22c-.16.6-.2,1.22-.38,1.82-.4,1.34-1.42,2.41-2,3.7a27.21,27.21,0,0,0-1,4.15c-1.12,4.38-5.13,7.65-6,12.1l-.57.22a29.45,29.45,0,0,0,9.27-1l9-1.92c3.28-.7,6.77-1.51,9.06-4,2-2.12,2.7-5.08,3.66-7.81a15.49,15.49,0,0,1,3.61-6.2,7.27,7.27,0,0,1,6.32-2.07,1.57,1.57,0,0,0,.18.36l5.74.26c-.92-9.72-4.64-18.92-8.31-28l-9.84-24.23c-1.82-4.48-3.66-9.25-3.49-14a10.4,10.4,0,0,1,3.79,1.61l1.12.34a13.08,13.08,0,0,0,4.71,2.5,4.47,4.47,0,0,0,4.76-1.66,5.94,5.94,0,0,0,.66-2.89,29.43,29.43,0,0,0-.26-5.05c-.41-2.89-1-6.48,1.39-8.17.83-.59,1.88-.8,2.76-1.32s1.6-1.6,1.15-2.52c-.31-.66-1.11-1-1.46-1.61-.57-1.05.31-2.3,1.27-3s2.15-1.3,2.51-2.43c.56-1.71-1.09-3.27-2.55-4.32a3.35,3.35,0,0,0,2.18-3.44,2.38,2.38,0,0,0-3.3-1.76,28,28,0,0,0,2.21-6.08c.37-1,1.91,0,2.92-.31.63-.18,1-.85,1.4-1.34,1.78-2,5.15-1,7.62-2.11s3.82-3.9,6.38-4.16c1.24-.13,2.44.41,3.68.47s2.74-.73,2.63-2a3.1,3.1,0,0,0,4.29-.36c.06,1,1.09,1.72,2.09,1.94a30.35,30.35,0,0,1,3,.46,15.69,15.69,0,0,1,3.13,2c1,.66,2.51,1,3.47.24a2.5,2.5,0,0,0,4.1,1.38,11.78,11.78,0,0,0,6.32,3.61c2,.4,4.12.32,5.84,1.35a10.31,10.31,0,0,1,2.33,2.19l5.5,6.41c.79,1.26,1.47,2.15,1.47,2.15s.07-.21.11-.31l.06.08Zm-5-8.2a4.64,4.64,0,0,1,1.2,1.76h0Q506.58,112.43,506,111.56Zm-96.52,51.18a3.64,3.64,0,0,0-1.72,4.53c-.37-.15-.7.28-.83.66a5.19,5.19,0,0,0,0,3.31c-.53-.09-.82.6-.85,1.13a6.47,6.47,0,0,0,.47,2.82,2.71,2.71,0,0,0-.46,3.83c-1.07.93-.93,2.61-.7,4,.1.58.4,1.32,1,1.24a3.14,3.14,0,0,0,.6,4.57,4.77,4.77,0,0,0-.47,2,1.63,1.63,0,0,0,1.13,1.54,3.11,3.11,0,0,0-.21,1.6,1.07,1.07,0,0,0,1.17.88,3.15,3.15,0,0,0,1.61,3.27,2.83,2.83,0,0,1,1.09.68,7,7,0,0,0,.41-3.19,7.82,7.82,0,0,0-1.36-3.58c-.28-.41-.73-.84-1.2-.69l-.2-2.8,0-.57c0-.37-.05-.74-.11-1.1a6.32,6.32,0,0,0-1.19-2.8,6.79,6.79,0,0,0,.25-4.14,1.62,1.62,0,0,1-.08-.5,1.74,1.74,0,0,1,.2-.58,4.36,4.36,0,0,0,.24-2.85,1.83,1.83,0,0,1-.1-.62,1.89,1.89,0,0,1,.23-.62,3.79,3.79,0,0,0,.14-2.9,2.77,2.77,0,0,0,.73-2,1.52,1.52,0,0,1,0-.5,1.38,1.38,0,0,1,.42-.56,4.4,4.4,0,0,0,1.28-2.61m-13.55,65.55a2.59,2.59,0,0,0,1.21,1.77,2.75,2.75,0,0,0,1.1-2.93,2.51,2.51,0,0,0,1.46-1.53,7.44,7.44,0,0,0,.37-2.15,3.67,3.67,0,0,0,1.45-3.74,3.19,3.19,0,0,0,1.4-2.64,1.94,1.94,0,0,1,.07-.8,1.4,1.4,0,0,1,.37-.45,5.08,5.08,0,0,0,1.69-2.36,5.59,5.59,0,0,0,.12-1.51,2.57,2.57,0,0,0,1.27-3.06,2.66,2.66,0,0,0,1.51-3.81,2.81,2.81,0,0,0,1.68-3.23.8.8,0,0,1,0-.52.82.82,0,0,1,.18-.22,2.31,2.31,0,0,0,.64-1.39,2.41,2.41,0,0,1,.07-.57,1.88,1.88,0,0,1,.39-.57,5,5,0,0,0,1.15-3.46,1.76,1.76,0,0,0-.3-1,.79.79,0,0,0-.94-.27l-1.73-.28a4.69,4.69,0,0,0-1,4.08,2.62,2.62,0,0,0-.67,3.14c-1,.66-.91,2.1-.72,3.27a2,2,0,0,0-2,1.55,4.3,4.3,0,0,0,.32,2.69,2.17,2.17,0,0,0-1,3.53,2.78,2.78,0,0,0-1.77,3.57,3,3,0,0,0-1.7,3.73,2.34,2.34,0,0,0-1.34,3.4A2.47,2.47,0,0,0,399,229.8c-.27-.37-1.23.48-1.38.66a2.57,2.57,0,0,0-.5,1.18c-.24,1.14-.92,2.14-.11,3.24a3.93,3.93,0,0,0-1.94,3.28,1.65,1.65,0,0,0,.56,1.41,1.86,1.86,0,0,0,1.68,0,1.68,1.68,0,0,0,.71-.42,1.72,1.72,0,0,0,.33-.93,10.5,10.5,0,0,0,0-2.3,1.82,1.82,0,0,0,.8-1.69,5.37,5.37,0,0,0-.57-1.88m128.58,22.15a3.32,3.32,0,0,0-2.87-3,29.44,29.44,0,0,0-2.22-10.56c-.6-1.43-1.85-3.08-3.32-2.59a4.74,4.74,0,0,0,1.21-4.11c-.39-1.43-2.24-2.44-3.45-1.59a9.89,9.89,0,0,0,1.1-4.66c-.17-1.61-1.43-3.23-3-3.19a5.33,5.33,0,0,0-.66-6.72c-.38-.37-.85-.72-.95-1.24a2.46,2.46,0,0,1,.4-1.44,6.62,6.62,0,0,0-1.54-7.48,13.57,13.57,0,0,0,2.26-5.53,6,6,0,0,0-.17-3.19,2.81,2.81,0,0,0-2.42-1.86,9,9,0,0,0,.33-6,73.13,73.13,0,0,0-4.52,9.61,12.64,12.64,0,0,0,1,2.62,4.91,4.91,0,0,1,.6,1.58c.18,1.48-1.18,2.84-.92,4.3s2,2.41,1.88,3.87a4.79,4.79,0,0,1-.56,1.44,6.92,6.92,0,0,0-2.61-2,9.94,9.94,0,0,0-.73-7.89,35.72,35.72,0,0,1-3.91,8.8,9.23,9.23,0,0,0,1.54,1.82,3.11,3.11,0,0,1,.8.9,4.06,4.06,0,0,1,.21,1.52,4,4,0,0,0,2.52,3.29,8,8,0,0,0-.57,3.71c-2-3.27-3.77-6.55-4-10.3l-1.32.13a11.58,11.58,0,0,1-2.95,2.57,11.11,11.11,0,0,1-2.34,1c-.67,2.69-.37,5.73-.1,8.56.62,6.56.8,13.16.8,19.76,0,2.81.19,6.08,2.49,7.7L515.52,256a15.44,15.44,0,0,1,.45,2.87,1.32,1.32,0,0,0,.27.9c.22.23.73.17.76-.15l2.32.38a5.45,5.45,0,0,0,2.43,1.57L526,258.8A6.82,6.82,0,0,0,527.22,254.51ZM512.1,223.14a4.07,4.07,0,0,0-1.53-1.22,6.21,6.21,0,0,0,.4-1.58,18.07,18.07,0,0,0,1.65,1.63A7.17,7.17,0,0,0,512.1,223.14Zm1.81,9.19a2.72,2.72,0,0,1-.33-.57,2.66,2.66,0,0,1-.15-1,7.73,7.73,0,0,0,.93,1A4,4,0,0,0,513.91,232.33Zm2.48,8.27a2.17,2.17,0,0,0-1.91-.66c.15-.47.3-1,.43-1.46a4.74,4.74,0,0,0,1.84.94C516.61,239.81,516.49,240.2,516.39,240.6Z"/></g><g id="Ear"><path d="M428.8,152.17c-1.47-1.79-3.14-3.7-5.41-4.15a6.2,6.2,0,0,0-6.09,2.85,10.19,10.19,0,0,0-1.33,6.86,30.31,30.31,0,0,0,2,6.84l1.39,3.72c1.24,3.3,2.57,6.73,5.21,9.06a10.87,10.87,0,0,0,7,2.68,4.68,4.68,0,0,0,2.88-.74,2.24,2.24,0,0,0,.81-2.67" style="fill:#62647a;stroke:#000;stroke-miterlimit:10;stroke-width:0.25px"/><path d="M426.18,159.6c-1.32.85-3.28.46-3.92,2.18-.58,1.54.29,4,1,5.34,1.05,1.87,2.56,1.64,4.28,2.44,1.33.61,3.31,2.67,4.81,1.66.13-.09,0-.31-.13-.22-1.59,1.08-3.35-1.47-4.55-1.94-1.55-.6-2.88-.1-4-1.75a8.49,8.49,0,0,1-1.32-4.4c.25-2.75,2.44-2.13,3.94-3.09.13-.09,0-.3-.13-.22Z"/><path d="M427,153.32c-1.24-.86-1.86-2.38-3.3-3a3.7,3.7,0,0,0-3.23.19c-2.74,1.54-2.08,5.48-1.91,8.07,0,.16.26.16.25,0-.17-2.56-.83-6.59,2-7.94,3-1.42,4.1,1.51,6.08,2.87.13.09.26-.13.13-.22Z"/></g><g id="Neck"><path d="M491.18,218.92c-.5,11.68-.5,14.87-1.74,26.5,2.48,4.6,8.17,34.16-10.49,36.21a21.56,21.56,0,0,1-7.84-.9q-5.43-1.43-10.73-3.3a37.72,37.72,0,0,1-9.26-4.41c-4-2.81-13.69-20.14-16.52-24.11-1.74-2.43-.52-10.89-2.26-13.33-.37-.51,1.51-4.22,1.41-4.84a4.18,4.18,0,0,1,.43-2.15,83.11,83.11,0,0,0,5.52-33.5,37.35,37.35,0,0,0-.42-4.46,91.06,91.06,0,0,0,6,9.17,32.21,32.21,0,0,0,6.76,7c3.73,2.68,8.24,4,12.65,5.31l17,5A38.47,38.47,0,0,0,491.18,218.92Z" style="fill:#62647a"/><path d="M491.05,218.92c-.2,4.63-.35,9.26-.63,13.89q-.17,2.79-.42,5.57-.15,1.73-.32,3.46c-.1,1-.57,2.65-.37,3.62.32,1.54,1.14,3.07,1.5,4.64a51.28,51.28,0,0,1,1.14,7.64c.43,5.76.14,12.22-2.86,17.32a12.85,12.85,0,0,1-7,5.77c-5.15,1.73-10.48,0-15.47-1.48-5.2-1.56-11.35-3.14-15.65-6.59-2.26-1.81-3.91-4.52-5.51-6.89-3.65-5.41-7.05-11-10.47-16.58-1.82-3-1.28-6.75-1.61-10.1a24,24,0,0,0-.77-3.37c-.41-1.67.86-3.26,1.23-4.85,1.13-4.94,3.07-9.72,4.15-14.73a83.42,83.42,0,0,0,1.88-16.53c0-.73.22-8.11-.36-8.22.67.13,1.6,2.46,2,3.11q1.36,2.12,2.83,4.16c3.07,4.23,6.53,8,11.32,10.29,5.5,2.62,11.67,3.95,17.5,5.65s11.85,4,18,4.34c.16,0,.16-.24,0-.25-5.18-.26-10.16-2.05-15.09-3.5S466,212.45,461,210.84s-9.26-3.83-12.78-7.67a72.08,72.08,0,0,1-8.85-12.6c-.08-.13-.25,0-.23.1,1.49,10.16.08,21.08-2.74,30.89-.68,2.38-1.57,4.66-2.36,7-.47,1.39-.53,2.74-1,4.12a7.34,7.34,0,0,0-.85,2.73c.07,1,.79,2.15.92,3.25.37,3,0,6.13.84,9,.52,1.75,1.91,3.34,2.86,4.87,3.28,5.28,6.43,10.67,10.06,15.73a23,23,0,0,0,4,4.69c3,2.37,6.87,3.68,10.4,4.9,6.7,2.32,15.07,5.83,22.06,2.78,8.9-3.89,9.63-15.69,8.82-24a51.18,51.18,0,0,0-1.1-6.76c-.34-1.44-1.09-2.87-1.36-4.29-.41-2.11.41-5,.6-7.2q.26-2.93.44-5.87c.27-4.52.42-9.05.61-13.58C491.31,218.76,491.06,218.76,491.05,218.92Z"/></g><path d="M460.88,154a1.47,1.47,0,0,0,.64,1.31c1.68,1.45,4,1.72,6.25,1.92a13.11,13.11,0,0,0,7.69-1.15c.61-.23,1.37-.76,1.1-1.36-.19-.42-.74-.49-1.17-.63a7,7,0,0,1-1.82-1.23,8.41,8.41,0,0,0-6.4-1.27,21.31,21.31,0,0,0-6.24,2.39Z" style="fill:#e8e9ed;stroke:#000;stroke-miterlimit:10;stroke-width:0.25px"/><path d="M499.38,156.63c1.53-1.67,3.14-3.4,5.24-4.24a7.58,7.58,0,0,1,9.48,3.43.27.27,0,0,1-.09.42,7.33,7.33,0,0,1-3.92,1.54,21.85,21.85,0,0,1-4.26-.07l-5.27-.43a1.72,1.72,0,0,1-.78-.19C499.55,157,499.32,156.84,499.38,156.63Z" style="fill:#e8e9ed;stroke:#000;stroke-miterlimit:10;stroke-width:0.25px"/><g style="clip-path:url(#clip-path-4)"><circle cx="467.28" cy="153.6" r="3.36"/><circle cx="467.28" cy="153.18" r="1.33" style="fill:#fff"/></g><g style="clip-path:url(#clip-path-5)"><circle cx="505.48" cy="154" r="3.36"/><circle cx="504.99" cy="154" r="1.33" style="fill:#fff"/></g><path d="M460.78,151.58a15.09,15.09,0,0,1,9.12-2.3,6.74,6.74,0,0,1,3.35,1c1,.68,1.82,1.81,3,1.82" style="fill:none;stroke:#000;stroke-miterlimit:10;stroke-width:0.25px"/><path d="M499.77,153.12a12.38,12.38,0,0,1,8.47-2.95,6.94,6.94,0,0,1,1.32.16c1.29.3,2.49,1.14,3.8,1" style="fill:none;stroke:#000;stroke-miterlimit:10;stroke-width:0.25px"/><g style="opacity:0.5"><path d="M481.6,142.18c-3.23-3.1-9.19-5.3-13.64-4.59-2.78.45-5.33,1.76-8.08,2.34-2.49.52-4.93.86-7.09,2.3-1.06.71-.06,2.45,1,1.73,1.92-1.28,4-1.57,6.23-2a59.55,59.55,0,0,0,6-1.8,15.14,15.14,0,0,1,14.16,3.46c.93.89,2.34-.52,1.41-1.41Z"/></g><g style="opacity:0.5"><path d="M502,146.08c1.23-2,4.46-3.2,6.68-3.36a16.22,16.22,0,0,1,6.29,1.1c1.22.41,1.75-1.52.53-1.93-4.92-1.65-12.05-1.88-15.23,3.17-.69,1.09,1,2.1,1.73,1Z"/></g><path d="M485.77,168.17a2.88,2.88,0,0,0-3.2-.32,6,6,0,0,0-2.35,2.43c-.91,1.54-1.41,3.73-.1,5,1,1,2.67.81,4,.38s2.7-1.08,4.1-.89c1.68.22,3,1.6,4.63,2,2.55.66,5.07-1.06,7.68-1.38a4.73,4.73,0,0,0,2.58-.66,3.55,3.55,0,0,0,.89-1.5c.4-1,.8-2.25.25-3.22s-1.62-1.23-2.53-1.71a8.6,8.6,0,0,1-3.74-4.44,25.57,25.57,0,0,1-1.38-5.74" style="fill:none;stroke:#000;stroke-miterlimit:10;stroke-width:0.5px"/><path d="M471.47,186.79c6.46-1.51,13-3,19.67-2.57,3.32.23,3.73,1,7.06.83a9.81,9.81,0,0,1,3.66.21c1.16.41,2.12,1.65,1.68,2.76" style="fill:none;stroke:#000;stroke-miterlimit:10;stroke-width:0.5px"/><path d="M472.39,188.87a21.32,21.32,0,0,0,11.81,7,41.39,41.39,0,0,0,5.75.68c3.13.21,6.35.38,9.34-.55a6.69,6.69,0,0,0,2.94-1.68,3.22,3.22,0,0,0,.85-3.07c-.48-1.53-2.33-2.31-4-2.33a47.47,47.47,0,0,0-4.95.67c-2.59.25-5.17-.42-7.75-.78-1.83-.26-3.68-.36-5.53-.46l-6.49-.35" style="fill:none;stroke:#000;stroke-miterlimit:10;stroke-width:0.5px"/></g><g id="Shirt-2" data-name="Shirt"><path d="M570.41,373.19c-.37,3.77-.93,7.72-3.25,10.71-2.79,3.6-7.52,5-12,6-15.21,3.24-22.23,3.49-37.77,3.72-53.21.79-106.43,1.58-159.63.28-1.54,0-3.23-.14-4.33-1.21s-1.25-2.77-1.31-4.31a414.65,414.65,0,0,1,5.18-86.27c2.43-14.61,5.74-29.37,13.3-42.1s20-23.29,34.69-25.29c6.41-.87,7.88-.36,10-1.1s11.09-2.18,13.42-3.23a21,21,0,0,1,5.36-1.11c-1,16,9.58,32.66,22.35,42.25a36.55,36.55,0,0,0,12.09,6.43,18,18,0,0,0,13.38-1.16c4.87-2.7,7.76-8.13,8.63-13.63.86-5.35,0-11.89-1-17.26,5.67.76,11.49-6.33,17.11-5.74,9.85,1,19.58,5.94,29.16,8.46s11,11,17.14,18.81c4.15,5.23,5.88,15.31,8,21.65A203.43,203.43,0,0,1,570.41,373.19Z" style="fill:#838daa"/><path d="M433.67,228.59c-1.09,15.2,7.39,29.93,18.36,39.88,5.46,5,12.21,9.73,19.73,10.58A16.57,16.57,0,0,0,488.9,270c3.76-7.4,3.26-17,1.69-25-.13-.63-1.09-.36-1,.27,1.35,6.81,1.84,15-.5,21.61-2.66,7.56-9.22,12.07-17.3,11.14-7.51-.86-14.26-5.79-19.65-10.8a60.19,60.19,0,0,1-12.33-16.08,42.36,42.36,0,0,1-5.17-22.57c0-.64-1-.64-1,0Z"/><path d="M499.77,247.08l6.8,53.83-5.4,35c-4.78.07-4.16,58-8.95,58q-17,.24-34,.41c-9.83.09-3.41-24.22-13.25-24.2l-9.55-25.75-6.7-114,.08,0a21,21,0,0,1,5.36-1.11c-1,16,9.58,32.66,22.35,42.25a36.55,36.55,0,0,0,12.09,6.43,18,18,0,0,0,13.38-1.16c4.87-2.7,7.76-8.13,8.63-13.63.86-5.35,0-11.89-1-17.26C495.18,246.64,494.17,246.54,499.77,247.08Z" style="fill:#f0f1f2"/><g style="clip-path:url(#clip-path-6)"><g style="opacity:0.54"><path d="M419.64,259.24c7.63,2.79,15.92,3.44,23.93,4.43q13.29,1.64,26.62,3,26.66,2.62,53.43,3.9c.32,0,.32-.48,0-.5q-26.26-1.27-52.44-3.8-12.84-1.25-25.64-2.81c-8.61-1-17.57-1.65-25.77-4.65-.3-.11-.43.37-.13.48Z"/><path d="M421.91,269.23c34.54,4.51,69.15,9.51,104,10.18a.25.25,0,0,0,0-.5c-34.88-.67-69.49-5.67-104-10.18-.32,0-.32.46,0,.5Z"/><path d="M423.49,278.77l52.37,6.3c17.2,2.07,34.42,4.6,51.75,5.29.32,0,.32-.49,0-.5-17.32-.69-34.55-3.22-51.75-5.29l-52.37-6.3c-.32,0-.32.46,0,.5Z"/><path d="M423.7,290.3a192.39,192.39,0,0,0,24.65,3.7c8.7.91,17.27,2.22,25.87,3.76,17,3,34.19,3.89,51.38,4.68.32,0,.32-.49,0-.5-17.47-.8-34.94-1.69-52.18-4.83-7.86-1.43-15.7-2.62-23.65-3.46-8.7-.92-17.42-1.8-25.95-3.84-.31-.07-.45.41-.13.48Z"/><path d="M423.07,303.9c35.73-.72,70.38,10.46,106,10.82a.25.25,0,0,0,0-.5c-35.66-.36-70.31-11.54-106-10.82a.25.25,0,0,0,0,.5Z"/><path d="M426.27,314.87c16.39.9,32.88,2.8,49.11,5.28,7.71,1.18,15.21,3.23,22.86,4.71a153.69,153.69,0,0,0,22.87,2.63c.32,0,.32-.49,0-.5a152.83,152.83,0,0,1-24.62-3c-7.63-1.57-15.13-3.5-22.85-4.61-15.69-2.26-31.54-4.15-47.37-5-.32,0-.32.48,0,.5Z"/><path d="M425.94,325.42q25.32,3.1,50.64,6.19c16.73,2,33.49,3.87,50.36,4.13a.25.25,0,0,0,0-.5c-16.86-.26-33.63-2.1-50.36-4.13q-25.32-3.07-50.64-6.19c-.32,0-.32.46,0,.5Z"/><path d="M423.27,337q56.7,5.57,113.66,7.61c.32,0,.32-.49,0-.5q-56.93-2-113.66-7.61c-.32,0-.32.47,0,.5Z"/><path d="M420.78,248.92c17.13,2.24,34.28,4.4,51.38,6.88,16.16,2.34,32.38,5.77,48.78,5.44a.25.25,0,0,0,0-.5c-17,.34-33.85-3.3-50.61-5.7-16.49-2.36-33-4.45-49.55-6.61-.32,0-.32.46,0,.5Z"/><path d="M416,237.89q57.79,9.64,116.28,14c.32,0,.32-.48,0-.5q-58.36-4.35-116.14-14c-.31-.05-.45.43-.13.48Z"/><path d="M425.21,351.4c1.09-2,6-.94,7.82-.83L440,351l13.89.78,26.8,1.5,54.58,3.06c.32,0,.32-.48,0-.5l-58.55-3.28-28.78-1.61L433,350.07c-2.19-.12-6.93-1.4-8.25,1.08-.15.28.28.54.43.25Z"/></g></g><path d="M468.73,421.64c-4.39-38.84-18.37-76.13-22.49-115-1.32-12.46-1.62-25.08-4.31-37.33-2.86-13-8.42-25.74-7.82-39.06,0,0,3-4.62,2.49-5.61s-2.24-1-3.44-.65c-4.11,1.06-7.4,4.31-9.38,8.06s-2.82,8-3.44,12.19c-4.78,32.18,1.7,64.85,8.15,96.74a155.65,155.65,0,0,0,4.16,17.19c3.19,9.84,8.32,19,11.61,28.78,2.11,6.3,3.48,12.9,6.42,18.86,2.12,4.3,5,8.16,7.68,12.15a132.86,132.86,0,0,1,10.08,17.93l.12-17" style="fill:#838daa"/><path d="M469.23,421.64C465.8,391.77,456.87,363,451,333.56c-3.06-15.31-4.47-30.63-5.93-46.15a144.09,144.09,0,0,0-3.48-21.78c-1.78-7.08-4.13-14-5.62-21.18a62.42,62.42,0,0,1-1.37-10.58,10.08,10.08,0,0,1,.19-3.75c.36-.94,1.09-1.82,1.53-2.73s1.13-2,.71-3c-.74-1.71-3.43-1.09-4.72-.67-12.39,4-13,21.57-13.73,32.13-2.11,30.46,4.19,61.12,10.55,90.75a121.1,121.1,0,0,0,7.38,22.89c3.39,7.82,6.72,15.49,9.12,23.68a98.08,98.08,0,0,0,3.48,10.43,62.48,62.48,0,0,0,6.27,10.9A155.4,155.4,0,0,1,468,436.14c.22.47.93.21.93-.25l.12-17a.5.5,0,0,0-1,0l-.12,17,.93-.25A137.52,137.52,0,0,0,458.29,417c-4-5.93-7.71-11.56-10-18.42-2.14-6.51-3.86-13.06-6.51-19.39s-5.79-12.76-8.09-19.38a151.62,151.62,0,0,1-4.94-19.88c-1.49-7.36-3-14.73-4.3-22.12-2.65-14.69-4.76-29.53-5.21-44.47a171.74,171.74,0,0,1,.68-21.81c.67-6.79,1.27-14.57,5-20.49a14.75,14.75,0,0,1,7.61-6.32c1.26-.41,3.34-.73,3.39,1,0,.93-1.21,2.52-1.68,3.31-.79,1.34-.74,2.33-.71,4a59.67,59.67,0,0,0,1.07,10c1.28,6.88,3.46,13.55,5.27,20.3a136.36,136.36,0,0,1,3.85,21.28c1.47,14,2.34,28,4.84,41.87,5.73,31.92,15.91,62.94,19.62,95.24.07.63,1.07.64,1,0Z"/><path d="M487.72,421.48c.86,3.41,5.1,5.18,8.46,4.14s5.72-4.19,6.76-7.54,1-6.94.89-10.45c-.67-30.89-.75-61.95,4-92.48.89-5.74,1.94-11.48,2.12-17.29a102.51,102.51,0,0,0-.84-14.37c-1.37-12.36-3.21-32.48-8.52-43.72-1.25-2.64-3-5.44-5.81-6.16s-5.73,9.71-4.85,12.49a4.89,4.89,0,0,1,.59,2.13c.05,5.27-1,54.74-1.56,82.11l-.46,24.27-1.28,67.63" style="fill:#838daa"/><path d="M487.24,421.61c1.47,4.62,7.15,6,11.09,3.58,5.53-3.39,6.11-10.42,6-16.25-.26-17.37-.6-34.72.1-52.08.35-8.77.94-17.52,1.85-26.25.9-8.55,2.43-17,3.51-25.53,1-8.2.35-16.19-.54-24.36-.69-6.31-1.38-12.62-2.38-18.89a99.69,99.69,0,0,0-4.43-18.76,25.32,25.32,0,0,0-3.64-7.17c-1-1.27-3.13-3.33-5-2.71-3,1-4.12,7.14-4.47,9.74s.62,5.27.59,8c-.24,20.79-.79,41.59-1.21,62.38q-1,47.73-1.82,95.46l-.25,13.43a.5.5,0,0,0,1,0q1.51-79.48,3.08-159,.1-5.18.18-10.37c0-2,.33-4.23-.23-6.13a10.3,10.3,0,0,1,0-5.71c.46-2,1.15-5.13,2.84-6.5,2.73-2.21,5.94,4.11,6.8,6a54.94,54.94,0,0,1,2.94,8.65c3.11,11.79,4.21,24.08,5.47,36.18a92.06,92.06,0,0,1-.56,23.87c-1.19,7.75-2.34,15.48-3.12,23.28A513.58,513.58,0,0,0,503,386.15c0,8.61.65,17.29.33,25.88-.15,4.2-1.09,8.75-4.5,11.57s-9.16,2.37-10.64-2.25c-.19-.61-1.16-.35-1,.27Z"/></g></g></g></svg>