<svg xmlns="http://www.w3.org/2000/svg" xmlns:xlink="http://www.w3.org/1999/xlink" viewBox="0 0 751.05 349.9"><defs><clipPath id="clip-path"><path d="M482,148.94l-.95.2-.78.2-.61.19-.51.16c-.62.2-1.23.44-1.83.69-.32.13-.63.27-.94.42-.57.27-1.14.56-1.7.87l-.85.49c-.56.34-1.11.69-1.66,1.07-.27.18-.55.37-.81.56s-.54.39-.81.6l-.79.61-.78.63-.77.65c-1.52,1.3-3,2.7-4.43,4.14,0,0,0,0-.05.05-1,1-1.91,1.94-2.85,2.91-1.44,1.49-2.86,3-4.29,4.42-8.15,8.17-17.85,15.15-29,18.27-5.4,1.52-11.63,2.47-14.86,7.05a3.55,3.55,0,0,0-.8,2.06,4,4,0,0,0,1.95,2.89l.55.41A35.29,35.29,0,0,1,428,220.16c2.65,14.45-3.93,29-4.37,43.64,0,.09,0,.19,0,.28a40.71,40.71,0,0,1,4.14-9.77c7.17-13,16.95-24.38,24.53-37.15,1.43-2.42,2.79-4.9,4.26-7.31a144.39,144.39,0,0,1,21.71-27.3c8-7.63,6.32-22.81,3.81-33.61Zm114.61,62c-.21-6.59-3.3-12.79-7.16-18.14-.52-.72-1.05-1.43-1.6-2.13-3.51-4.5-7.47-8.65-10.93-13.19-4.15-5.44-7.57-11.41-11.82-16.77s-9.46-10.09-15.88-12.2c-2.22,1.88-7.42-3.87-8.1-.44a68,68,0,0,0-1,9.24c-.29,5-2.69,10.08-3,15.12a46.12,46.12,0,0,0,0,8.31c.33,2.73,3.26,5.38,4,8,1.71,5.66,3.3,11.68,1.87,17.41-1,4.08-3.5,7.62-5.21,11.46a31.48,31.48,0,0,0-2.46,15.63,10,10,0,0,1,.3-3.17c.63-2.39,2.2-4.4,3.73-6.34,4.79-6,10.19-12.48,17.74-14.09a33.39,33.39,0,0,1,10-.08A236.53,236.53,0,0,1,593.69,213c.89.18,2,.31,2.56-.38A2.43,2.43,0,0,0,596.64,210.92Z" style="fill:none"/></clipPath><clipPath id="clip-path-2"><path d="M500.37,122.06c1.16-.16,2.23.49,3.36.78a8.73,8.73,0,0,0,2,.2l5,.14a8.56,8.56,0,0,0,2.79-.26,1.73,1.73,0,0,0,.52-.41c-1.53-.67-2.36-2.36-3.76-3.27a6.54,6.54,0,0,0-5.63-.27,12.55,12.55,0,0,0-5.18,3.41A4.41,4.41,0,0,1,500.37,122.06Z" style="fill:none"/></clipPath><clipPath id="clip-path-3"><path d="M548.58,121.43a8.22,8.22,0,0,0-2.33-2.28,6.53,6.53,0,0,0-3.89-.54,11.52,11.52,0,0,0-7.76,3.92s-.09.28,0,.31c2.41.62,5.69-.17,8.16.05.44,0,.88.1,1.32.11a8.89,8.89,0,0,0,4.5-1.57" style="fill:none"/></clipPath><clipPath id="clip-path-4"><path d="M176.22,87.78a1.35,1.35,0,0,1-.34,1.56,3.16,3.16,0,0,1-1.56.69,11.17,11.17,0,0,1-5.68-.3,22.22,22.22,0,0,1-2.9-1.25,2.5,2.5,0,0,1-1-.75.86.86,0,0,1,.11-1.16,1.2,1.2,0,0,1,.46-.16,30,30,0,0,1,7.54-.19c1.16.07,2.49.23,3.11,1.21C175.93,87.43,176.19,87.73,176.22,87.78Z" style="fill:none"/></clipPath><clipPath id="clip-path-5"><path d="M214.52,88.64a20.49,20.49,0,0,1-5.27,2.24,15,15,0,0,1-6.08-.16,9.9,9.9,0,0,1-3.51-1.27,4.33,4.33,0,0,1-2-3,45.12,45.12,0,0,1,11.1,1.28c1.92.46,3.87,1.06,5.83.39C215.22,88,215,88.37,214.52,88.64Z" style="fill:none"/></clipPath></defs><title>on_illustration_citizens</title><g id="Citizens"><g id="Woman"><g id="Clothing"><path d="M465.5,191.91c7.61-1.29,15.14,1.93,22.52,4.19a93.57,93.57,0,0,0,47.84,1.77c2.35-.53,5.33-.93,6.68,1.07a5.14,5.14,0,0,1,.68,2.71A20.43,20.43,0,0,1,540.85,212c-1.44,2.7-3.53,5.16-4.06,8.17s.51,5.88,1.61,8.63a139.64,139.64,0,0,0,11,21.7c2.83,4.56,6,9,7.53,14.17,1.65,5.38,1.49,11.13,1,16.73-.72,9-2.22,18.25-7,25.9s-13.62,13.38-22.57,12.19c-3.43-.45-6.65-1.86-9.92-3a61.27,61.27,0,0,0-27-2.82c-9,1.09-17.62,4.16-26.54,5.73s-18.65,1.47-26.35-3.3a47.68,47.68,0,0,1-8.28-7.08c-3.64-3.64-7.29-7.33-10-11.71-7.52-12.15-6.67-28-1.6-41.34s13.87-24.9,22-36.65c6.34-9.16,12.61-18.83,21.93-24.94Z" style="fill:#485772"/><path d="M452.31,277a26.2,26.2,0,0,1-4-10.37,1.27,1.27,0,0,1,.19-1.12c.73-.72,2,.85,2.88.3a1.4,1.4,0,0,0,.42-.54l1.68-3.1c.75.11,1.21.86,1.62,1.5s1.07,1.31,1.81,1.13a4.84,4.84,0,0,1,.77-.26c.69-.05,1,.81,1.14,1.49l.75,4.21a3.59,3.59,0,0,1,.07,1.23c-.21,1.22-1.56,1.87-2.25,2.9s-.67,2.47-.94,3.73a7.28,7.28,0,0,1-2.77,4.29c-.18.13-.41.26-.6.15a.56.56,0,0,1-.22-.36,4.32,4.32,0,0,1,.05-2.4" style="fill:#fff"/><path d="M447.62,261.73c-.9-1.42,1.2-3.57.07-4.82-.64-.71-2.09-.73-2.18-1.68-.05-.61.57-1.07.68-1.67s-.36-1.36,0-1.89c.47-.71,1.64-.15,2.4-.53s.76-1.19,1-1.89,1-1.42,1.59-1c.16.12.26.3.43.4.41.23.9-.16,1.15-.55s.52-.88,1-.95a1.39,1.39,0,0,1,.75.19l2.4,1.12a1,1,0,0,1,.41.28,1,1,0,0,1,.1.69c-.29,2.37-1.66,4.45-3,6.44a5.36,5.36,0,0,1-1.66,1.8,5.54,5.54,0,0,0-.93.52c-.67.57-.73,1.74-1.54,2.09a5.93,5.93,0,0,1-.76.18,1.66,1.66,0,0,0-1.12,1.89" style="fill:#fff"/><path d="M464.56,267.91a5.86,5.86,0,0,0,.88-3.09,2.57,2.57,0,0,0-1.84-2.4,2.71,2.71,0,0,1-1.17-.29,1.08,1.08,0,0,1-.3-1.14,3.18,3.18,0,0,1,.63-1.07,2,2,0,0,1-.75-.69.69.69,0,0,1,.19-.91c.3-.16.69,0,1-.1.81-.28.24-1.64.78-2.31s1.48-.26,2.1-.68.76-1.77,1.6-1.87,1.23,1.18,2.05,1.41c.59.17,1.27-.26,1.82,0a1.25,1.25,0,0,1,.56,1c.17,1.55-.91,2.93-1.37,4.42a6.41,6.41,0,0,1-.79,2.13c-.27.34-.64.6-.87,1-.46.71-.3,1.66-.65,2.42a3.88,3.88,0,0,1-.95,1.17q-1.11,1-2.27,2" style="fill:#fff"/><path d="M474.07,274.92c.28-1.75-.49-3.78.58-5.19.71-.92,2.06-1.31,2.47-2.39.09-.25.13-.51.22-.76.37-1,1.59-1.52,2-2.52s-.1-2.25-.67-3.25a4.55,4.55,0,0,0-1.11-1.43,1.62,1.62,0,0,0-1.71-.23,2,2,0,0,0-.84,1.62,6.72,6.72,0,0,1-.26,1.88,1.29,1.29,0,0,1-1.49.86c-.16-.06-.3-.17-.47-.21a1.07,1.07,0,0,0-.83.19,3.41,3.41,0,0,0-1.07,3.81,1.53,1.53,0,0,1,.1.66c-.09.56-.8.79-1,1.3s.15,1.22.57,1.69.92,1,.83,1.63" style="fill:#fff"/><path d="M486.17,267.86a2.88,2.88,0,0,0-.32-3.19,15.79,15.79,0,0,1-1.92-2.82,5.8,5.8,0,0,0,2.09-.73c-1-.54-2.1-1.31-2.07-2.43,0-.63.42-1.24.27-1.85a3.1,3.1,0,0,1-.18-.65c0-.51.57-.82,1.08-.88a3.82,3.82,0,0,0,1.5-.23c.5-.28.71-.87,1-1.35s1-.89,1.43-.57a3,3,0,0,1,.36.35,2.67,2.67,0,0,0,2,.4c.69,0,1.51.11,1.81.73.2.42.1,1,.42,1.32s.7.3,1,.46a1.72,1.72,0,0,1,.59,2.24,5,5,0,0,1-1.78,1.82l-1.76,1.26a1,1,0,0,1-.53,1.75,4.81,4.81,0,0,1-1-.2,1.68,1.68,0,0,0-1.81,1.05,5,5,0,0,0-.17,1.07,4.79,4.79,0,0,1-1.9,3.24" style="fill:#fff"/><path d="M499.75,263.85l1.63-3.78a.93.93,0,0,0,.11-.43c0-.46-.67-.59-1.13-.51s-1,.17-1.3-.21c-.47-.65.69-1.39.67-2.19,0-.55-.55-.92-1-1.24s-.88-.9-.61-1.38a1.5,1.5,0,0,1,.75-.52c2.11-1,3.19-3.48,5.33-4.39a1.31,1.31,0,0,1,.71-.13,2.42,2.42,0,0,1,.78.4,2.17,2.17,0,0,0,2,.07,3.25,3.25,0,0,1,.49,3.51.57.57,0,0,0-.09.31c.05.43.74.12,1.16.24a.67.67,0,0,1,.4.77,2,2,0,0,1-.45.83l-2.52,3.27a1,1,0,0,0-.19.33c-.15.56.66.87.89,1.4a1.13,1.13,0,0,1-.69,1.33,9.74,9.74,0,0,1-1.61.41c-2,.57-3.43,3-5.51,2.71" style="fill:#fff"/><path d="M512.11,247.48c-.7-1-1.54-2.11-2.75-2.29a2.91,2.91,0,0,1-.63-.11.91.91,0,0,1-.54-1c.13-.62.83-.89,1.38-1.21s1-1.07.6-1.53c-.25-.26-.78-.38-.73-.75,0-.18.19-.29.34-.38,1.7-1,3.83-1.11,5.35-2.35.75-.62,1.44-1.53,2.41-1.51s1.49.76,2.29,1.08a4.43,4.43,0,0,1,.83.33,1.69,1.69,0,0,1,.18,2.31,10.93,10.93,0,0,1-1.9,1.73A2.38,2.38,0,0,0,518,244a1.3,1.3,0,0,1-1.28.21c-.44-.12-.84-.35-1.28-.44a2.1,2.1,0,0,0-2.34,2.9" style="fill:#fff"/><path d="M525.56,257.93l-.26-.86a3.28,3.28,0,0,0-.72-1.45,4.85,4.85,0,0,0-2.06-.84c-.72-.23-1.48-.78-1.4-1.53s.81-1.1,1.39-1.51,1.08-1.26.6-1.77c-.22-.23-.58-.31-.75-.58a.8.8,0,0,1,.28-1,4,4,0,0,1,1-.47,14.29,14.29,0,0,0,2.15-1.38,2.93,2.93,0,0,1,2.41-.53,3.61,3.61,0,0,1,.86.47l2.21,1.47c.34.23.72.53.69.93a2.32,2.32,0,0,0,0,.38c0,.45.68.45,1.12.54a1.48,1.48,0,0,1,.62,2.63,8.83,8.83,0,0,1-1.31.6c-.43.22-.81.71-.63,1.16.11.27.41.49.36.78a.71.71,0,0,1-.31.4,2.7,2.7,0,0,1-1.42.7,3.9,3.9,0,0,1-1.59-.49,1.43,1.43,0,0,0-1.57.13c-.35.38-.27,1-.28,1.49s-.28,1.16-.8,1.14" style="fill:#fff"/><path d="M512.44,264a1.77,1.77,0,0,1-1.7-3c-.58-.62-1.19-1.52-.73-2.23a3.94,3.94,0,0,1,.51-.52,10.94,10.94,0,0,0,1.11-2.17,5.69,5.69,0,0,1,2.49-1.91,1.76,1.76,0,0,1,1.12-.28c.43.09.72.47,1.06.75a2.36,2.36,0,0,0,2.78.06,1.86,1.86,0,0,1,0,1.69,1.71,1.71,0,0,0,2,.28,2,2,0,0,1-.19,2.13,4.18,4.18,0,0,1,1.53,1.21,1.43,1.43,0,0,1-.08,1.81c-.44.4-1.19.39-1.52.88s.17,1.53-.09,2.25-1.38.88-2.21.71-1.8-.4-2.44.16a1.77,1.77,0,0,0-.38,1.79,11,11,0,0,0,.81,1.75,1.23,1.23,0,0,1,.06,1.25,1,1,0,0,1-1.35,0,6.07,6.07,0,0,1-.88-1.22,9.58,9.58,0,0,0-2.51-2.06,4,4,0,0,1-1.89-2.54,2.82,2.82,0,0,1,2,.27" style="fill:#fff"/><path d="M520.86,273.36a2.34,2.34,0,0,0,.79-2.26,3.64,3.64,0,0,0-1.32-2.09c-.38-.32-.87-.74-.69-1.21s.62-.46,1-.59c1.84-.65,2.26-3.29,4-4.1a1.26,1.26,0,0,1,.74-.13c.56.1.93.75,1.51.77a3.61,3.61,0,0,0,.86-.22c1-.21,1.8.76,2.12,1.69A7.08,7.08,0,0,0,531,268c.54.57,1.46,1,1.42,1.79s-.9,1.09-1.27,1.72c-.56.92-.1,2.42-1,2.93-.17.09-.39.16-.44.34s.16.4.24.6c.2.52-.51.94-1.06.9s-1.13-.27-1.63,0c0,.46.61.63,1.07.58s1.06-.1,1.26.31c-.1,1.06-1.31,1.61-2.36,1.84s-2.26.47-2.74,1.43c-.26.52-.56,1.33-1.08,1.09a.69.69,0,0,1-.28-.28c-.59-1-.2-2.22.27-3.25s1-2.18.62-3.25a3.47,3.47,0,0,1-2.28.07" style="fill:#fff"/><path d="M539.24,272.92c.47-1.38.88-3.07-.09-4.16a9.74,9.74,0,0,0-2.25-1.36,3.71,3.71,0,0,1-1.52-2,.92.92,0,0,1,0-.72,1.3,1.3,0,0,1,.5-.4c.51-.31.91-1,.58-1.48-.13-.19-.35-.32-.42-.54-.13-.39.31-.74.71-.84s.87-.16,1.1-.51c.41-.63-.32-1.76.35-2.12a1,1,0,0,1,.75,0,7.37,7.37,0,0,1,4.11,2.65,9.63,9.63,0,0,1,1.18,5,7.24,7.24,0,0,1-.36,3.35,5.73,5.73,0,0,0-.38.88c-.11.42,0,.87-.15,1.29a2.2,2.2,0,0,1-1.55,1.44,6.49,6.49,0,0,1-2.2.14" style="fill:#fff"/><path d="M534.11,286a2,2,0,0,1-1.3-1.62c-.15-.71-.1-1.46-.22-2.18a4.51,4.51,0,0,0-1.73-2.83,1.06,1.06,0,0,1-.46-.51c-.12-.46.5-.8,1-.72a7.41,7.41,0,0,0,1.39.35,1.81,1.81,0,0,0,1.44-1.27,10.38,10.38,0,0,1,.74-1.88,1.37,1.37,0,0,1,1.74-.59c.53.33.9,1.23,1.47,1,.2-.09.33-.31.55-.36a.65.65,0,0,1,.45.12,3.09,3.09,0,0,1,1.15,1.21c.45.84.5,1.88,1.08,2.63.44.57,1.19,1,1.3,1.68.2,1.26-1.67,1.86-2.07,3.08a4.9,4.9,0,0,0,.12,2c.07.68-.17,1.54-.85,1.67s-1.35-.68-2.09-.62-1.12,1-1.27,1.73-.42,1.67-1.18,1.82-1.41-.66-1.71-1.4-.62-1.63-1.38-1.86l1.52-.44" style="fill:#fff"/><path d="M442.81,285.23l-1-2.93c-.21-.6-.35-1.41.18-1.74s.95,0,1.44,0a1.93,1.93,0,0,0,2-1.34c-.08-.2-.32-.26-.5-.37-.75-.47-.41-1.61,0-2.4.66-1.27,1.22-3,.25-4-.23-.25-.53-.44-.75-.71a3.71,3.71,0,0,1-.5-2.13,2,2,0,0,0-1-1.87,1.57,1.57,0,0,0-.43.8,7,7,0,0,0-1.86-.87c-.27-.08-.63-.12-.79.11a.78.78,0,0,0-.05.56,2,2,0,0,1-.51,1.88c-.35.28-.89.4-1,.83-.15.62.81,1.17.57,1.76s-.89.41-1.27.73a1.08,1.08,0,0,0-.19,1.21,7.11,7.11,0,0,0,.7,1.11,3.81,3.81,0,0,1,.58,2.29,1.08,1.08,0,0,0,.07.64c.27.45,1.17.33,1.24.85s-1.11.74-1,1.32a.79.79,0,0,0,.37.44,6.9,6.9,0,0,1,2.61,4.09" style="fill:#fff"/><path d="M437.22,292.17a4.21,4.21,0,0,1-.18-3.46c.46-1.15,1.45-2.3,1-3.45a3.89,3.89,0,0,0-.9-1.17,8,8,0,0,1-2-3.75c.06.52-.56.85-1.08.94s-1.15.18-1.37.66c-.3.66.45,1.5.06,2.1a1.78,1.78,0,0,1-.47.41,2.55,2.55,0,0,0-.93,2.63,10.59,10.59,0,0,0,.77,1.66,2,2,0,0,1,.08,1.76,2.82,2.82,0,0,0-.29.5,1,1,0,0,0,.46,1c.32.24.72.39,1,.64,1.4,1.13.55,3.55,1.55,5a5.82,5.82,0,0,1,2-2.45c.38-.28.85-.75.56-1.12" style="fill:#fff"/><path d="M434.22,271.2a5.56,5.56,0,0,1-.3-3.52c.47-1.91,1.94-3.56,1.93-5.53a7.58,7.58,0,0,0-.82-2.9,5.56,5.56,0,0,0-.78-1.41,2.81,2.81,0,0,0-2-1,.6.6,0,0,0-.46.13.66.66,0,0,0-.13.26L430.06,262a1.06,1.06,0,0,1-.34.57,2.68,2.68,0,0,1-.53.2,1.16,1.16,0,0,0-.62.73c-.44,1.34.87,2.67.84,4.09,0,.45-.08,1.05.34,1.21.21.08.44,0,.66,0,.65.09.7,1,.65,1.65a8.43,8.43,0,0,0,1.86,5.89,3.17,3.17,0,0,0,.16-3.58" style="fill:#fff"/><path d="M433.82,253.21a2.61,2.61,0,0,0,.94-3.59,4.63,4.63,0,0,1-.43-.67,1.64,1.64,0,0,1,.41-1.7,2.16,2.16,0,0,0,.48-.59c.2-.49-.14-1.09.1-1.56s1-.49,1.54-.61c1.42-.3,2.23-1.79,3.48-2.52a1.14,1.14,0,0,1,.48-.18,1.9,1.9,0,0,1,.63.13,2.44,2.44,0,0,0,2.23-.52,23,23,0,0,0-.17,4.32,1.48,1.48,0,0,1-.1.8,1.43,1.43,0,0,1-.39.4l-2.14,1.71a3.12,3.12,0,0,0-1.06,1.21,1.07,1.07,0,0,0,.47,1.39,4.41,4.41,0,0,1-1.88,1.07c-.6.16-1.23.2-1.83.37a2.11,2.11,0,0,0-1.43,1.11" style="fill:#fff"/><path d="M470.63,246.85a2.34,2.34,0,0,1-.85-2.43,4.22,4.22,0,0,1,1.52.33,4.54,4.54,0,0,0-1-1.41,1.51,1.51,0,0,1-.36-1.6c.5-.91,2.07-.41,2.76-1.18.35-.39.51-1.11,1-1.09a1,1,0,0,1,.64.4,7.14,7.14,0,0,0,4,2,2.53,2.53,0,0,1,1.25.38c.34.28.43.91,0,1.12-.21.12-.5.08-.67.24-.35.35.24.88.26,1.38a1,1,0,0,1-.25.61,2.55,2.55,0,0,1-3.12.62c-.4-.22-.8-.56-1.24-.45a1.21,1.21,0,0,0-.53.35,6.42,6.42,0,0,0-1.57,2.49c-.19.56-.41,1.26-1,1.39a1.05,1.05,0,0,1-1.06-.54,3.09,3.09,0,0,1-.35-1.21" style="fill:#fff"/><path d="M478.68,255.78a2.09,2.09,0,0,1-1.94-.3c-.37-.28-.64-.81-.39-1.19a2,2,0,0,1,.56-.45,2.45,2.45,0,0,0,.42-2.84,1.21,1.21,0,0,1-.13-.57c0-.36.42-.58.76-.72a14.15,14.15,0,0,1,2.86-.87,2.66,2.66,0,0,1,1.49,0c.71.29,1.1,1.09,1.77,1.46.45.25,1,.29,1.46.52s.86.78.62,1.24a1.28,1.28,0,0,1-.41.41A8.47,8.47,0,0,1,483,254a2.54,2.54,0,0,0-.75.25c-.66.42-.6,1.4-1,2.09a3.38,3.38,0,0,1-1.21,1.11,1.22,1.22,0,0,1-.86.28c-.52-.1-.66-.78-.68-1.31" style="fill:#fff"/><path d="M481.42,277.92a1.45,1.45,0,0,1-1.7-1,6,6,0,0,1-.17-2.17,2.68,2.68,0,0,0-.64-2c-.36-.33-.94-.64-.83-1.11a.89.89,0,0,1,.37-.47c.77-.6,1.71-1,2.45-1.59a2.23,2.23,0,0,0,.78-2.58c1.07.25,1.73,1.27,2.49,2.06s2.11,1.34,2.89.57a7.83,7.83,0,0,1,1.52,2.75,3.83,3.83,0,0,1-.36,3,1.8,1.8,0,0,0-.47,1c0,.45.5.78.5,1.23s-.58.79-1.08.8a6.93,6.93,0,0,0-1.48,0c-1,.24-1.37,1.42-1.49,2.42s-.21,2.15-1,2.75a.89.89,0,0,1-.68.2c-.45-.09-.64-.63-.63-1.08a4.28,4.28,0,0,0,0-1.35c-.26-.85-1.47-1.42-1.2-2.28" style="fill:#fff"/><path d="M472.63,286.16l-2.15-3.89a3.2,3.2,0,0,1-.5-1.34,1.1,1.1,0,0,1,.69-1.14c.25-.07.54,0,.74-.18.57-.45-.43-1.56.11-2,.24-.21.6-.11.91-.07a2.23,2.23,0,0,0,1.43-.31,5,5,0,0,1,2.06-2.65,1.81,1.81,0,0,1,1.52,1.21,7.28,7.28,0,0,0,.3,1.16,3.6,3.6,0,0,0,.94.93,3.67,3.67,0,0,1,.59,4.67,3.39,3.39,0,0,0-.46.74,4.43,4.43,0,0,0-.13.9,2.43,2.43,0,0,1-1.7,2c-.42.12-1,.21-1.06.63,0,.14,0,.3-.09.41s-.32.12-.49.09l-1.75-.31" style="fill:#fff"/><path d="M460.85,284.9a5.74,5.74,0,0,1-1.22-1.07,1.86,1.86,0,0,1-.56-1.42,2.81,2.81,0,0,1,.69-1.17,2.87,2.87,0,0,0,.67-2.06,1.57,1.57,0,0,0-1.48-1.39,5.86,5.86,0,0,0,1.91-3.45c.07-.45.15-1,.57-1.18s.75,0,1.07-.17c.66-.38.12-1.71.82-2a1.07,1.07,0,0,1,.65,0,4.41,4.41,0,0,1,3,1.46c.65,1,.53,2.44,1.5,3.08a4.92,4.92,0,0,1,.76.46,1.54,1.54,0,0,1,0,1.82,5.58,5.58,0,0,0-.88,1.73,4,4,0,0,1-.15,1.12c-.27.56-1.09.84-1.07,1.46a3.24,3.24,0,0,1,.06.53.78.78,0,0,1-.29.44,2.83,2.83,0,0,1-3.09.4,15.2,15.2,0,0,1-.22,3.69l-1.73-1.6" style="fill:#fff"/><path d="M455.79,292.92a3.23,3.23,0,0,1,.25-3,8.86,8.86,0,0,0,1.23-2.89,3.14,3.14,0,0,0-2.17-3.25.83.83,0,0,0-.38,0,1.22,1.22,0,0,0-.47.27,2.25,2.25,0,0,1-2.17.26,3.86,3.86,0,0,0-.76-.31.61.61,0,0,0-.7.3c0,.13,0,.28-.13.39a.51.51,0,0,1-.4.12l-1.61,0c-.36.39,0,1,.23,1.46s.45,1.17,0,1.41c-.21.11-.48.06-.7.14a1,1,0,0,0-.37,1.24c.18.45.53.8.74,1.23a2.19,2.19,0,0,1,0,2,5.52,5.52,0,0,0-.39.73,1.26,1.26,0,0,0,1,1.59c.31,0,.63,0,.94,0a1.64,1.64,0,0,1,1.4,2,3.27,3.27,0,0,0,2.63.32,2.13,2.13,0,0,0,1-2.28" style="fill:#fff"/><path d="M445.85,301.54c-.37-1.15-.71-2.5,0-3.49.26-.38.65-.65.9-1a3,3,0,0,0,.1-2.64c-.31-.86-.8-1.65-1.05-2.53s-.31-2.2-1.14-2.83a3.25,3.25,0,0,0-1.94-.45c-.63,0-1.43.09-1.62.7s.34,1.16.16,1.71-1.15.77-1.33,1.4.57,1.41.18,2c-.18.26-.53.34-.71.59-.29.4,0,.95.22,1.4a4.35,4.35,0,0,1,.44,2.11.51.51,0,0,1-.19.45c-.15.08-.37,0-.49.14a.36.36,0,0,0-.07.3,1.82,1.82,0,0,0,1.26,1.29,7.32,7.32,0,0,1,1.74.73c.38.28.66.69,1,1a1.1,1.1,0,0,0,1.31.13" style="fill:#fff"/><path d="M469.2,302.15c2.94-.2,4.35,4.63,7.06,5.78s7.17-.92,7.52,2a7.26,7.26,0,0,1-.5,3.2c-1.82,5.31-5.69,9.68-9.95,13.33s-9,6.72-13.26,10.36a11.3,11.3,0,0,0-2.75,3.06c-.57,1.05-.82,2.24-1.33,3.33a15.4,15.4,0,0,1-3,3.89,12.56,12.56,0,0,1-2.91,2.49,8.31,8.31,0,0,1-4.43.88,12.38,12.38,0,0,1-10.31-6.85,5.7,5.7,0,0,0-.9-1.55,6.27,6.27,0,0,0-1.44-1,8.83,8.83,0,0,1-3.68-4.19,41.65,41.65,0,0,0-1.48-4.09,15,15,0,0,1-1.49-2.63,5.2,5.2,0,0,1,.81-4.1c.74-1.23,1.73-2.3,2.43-3.55a4.56,4.56,0,0,0,.68-2.16,7.62,7.62,0,0,0-1.12-3.23,14.53,14.53,0,0,1-1.19-3.69,2.83,2.83,0,0,1,0-1.11,4.64,4.64,0,0,1,.65-1.26c1.4-2.4.51-5.4-.1-8.1s-.66-6.09,1.64-7.63a2.07,2.07,0,0,1,1.94-.32,2.35,2.35,0,0,1,.93.89,9.76,9.76,0,0,1,1.32,6.67,31.33,31.33,0,0,0-.71,5.14c.06,1.73,1,3.61,2.63,4.08a4.48,4.48,0,0,0-.77-4.46c1.28.15,1.89-1.53,2-2.81l.43-3.71,5,3.65a41.48,41.48,0,0,0-1.21,11,2.09,2.09,0,0,0,.16.91,1.34,1.34,0,0,0,2.1.13,2.18,2.18,0,0,0,.2-2.33,6.41,6.41,0,0,0-1.56-1.9,5.34,5.34,0,0,0,2.5-5.29,1.51,1.51,0,0,1,0-1c.44-.73,1.53-.05,2,.62l.9-.7a14.06,14.06,0,0,0,2.42,2c.4-1.15-.31-2.35-.91-3.4s-1.08-2.46-.31-3.4a1,1,0,0,0,1.25.11,2.13,2.13,0,0,1,.56-3.25s3.82,1,3.93,1.44.36,3.19.74,3.63a10.67,10.67,0,0,0,2.52,1.18c.12-.37-.44-.53-.83-.62a1.86,1.86,0,0,1-1.36-2.15,8.36,8.36,0,0,0,.31-1c.12-1.2-1.46-2.16-1.15-3.32a.37.37,0,0,1,.15-.24.44.44,0,0,1,.3,0l1.21.21-.15-.54-.43-2.59a1,1,0,0,1,.1-.81c.43-.49,1.26.24,1.87,0,.91-.33.22-2.05,1.06-2.52a1.82,1.82,0,0,0,.91.8c.4.11.92-.22.82-.62.13.47.32,1,.78,1.16a3.25,3.25,0,0,1,.39.11c.62.3.43,1.63,1.12,1.56s.24-1.46.87-1.79c.48-.25.94.43.9,1s-.27,1.11,0,1.59.88.59,1.35.87.76,1.06.27,1.3c-.3.14-.68-.07-1,.08s-.35.69-.11,1a2.66,2.66,0,0,0,1,.61c1.6.79,2.59,2.4,3.49,3.94" style="fill:#fff"/><path d="M468.72,295.88,465.57,289a3.56,3.56,0,0,1-.4-1.31,2.34,2.34,0,0,1,1.56-2.11,5.39,5.39,0,0,1,2.76-.17l4,2.24a4.29,4.29,0,0,0,2.31.76c1.6-.11,2.49-1.85,3.07-3.34a3.86,3.86,0,0,0,5.31-1.11c.89-1.47,1.14-3.84,2.85-4,1.18-.09,2.4,1.12,3.4.49s.77-2.82,2-2.86,1.35,2.3,2.57,2.33c.52,0,.93-.44,1.25-.85l2.84-3.59a14,14,0,0,1,2.19,8.56,7.74,7.74,0,0,0,2.08-6.31c-.09-.67-.4-1.46-1.07-1.57.28-.82,1.55-.82,2.15-.2a3.86,3.86,0,0,1,.78,2.41c.78-1,2.4-.46,3.36.37a8.58,8.58,0,0,1,2.74,8,2.93,2.93,0,0,0,0,1.8,7,7,0,0,0,2.89-5.79,4,4,0,0,0,4.53,2.18l3.8,6.17a8.56,8.56,0,0,0-1.64-6.08,3,3,0,0,1,2.43-.19,10.65,10.65,0,0,1,4.28-3.32,1.45,1.45,0,0,1,.79-.16c.45.08.73.51.94.91a17.08,17.08,0,0,1,1.74,5.33c.77.25.89,1.37.46,2.06a8.7,8.7,0,0,1-1.77,1.66,2,2,0,0,0-.76,2.15c-1-.85-2.69,0-3.17,1.2a6.36,6.36,0,0,0,.18,3.89c.13.51.35,1.11.87,1.23s1.16-.64,1.1-1.31a11.62,11.62,0,0,0-.62-1.88c-.17-.64,0-1.49.63-1.68s1.05.21,1.59.19c1.66,0,2-3.25,3.6-3,.6.09,1,.65,1.32,1.16,1.32,2.05,2.62,4.81,1.13,6.74-.49.64-1.29,1.18-1.27,2a3.44,3.44,0,0,0-1.57,5.13,4.44,4.44,0,0,1,.74,1,2.13,2.13,0,0,1-.29,1.78c-1.55,2.73-5.1,3.41-8.21,3.82a2.77,2.77,0,0,1,.38,2.39L533,313c.25.74,1.42.7,1.9.09a3.07,3.07,0,0,0,.37-2.24,30,30,0,0,0-1.53-6.85c1.48-.2,1.65-2.55,3-3.08a2.44,2.44,0,0,1,2.38.71,12.54,12.54,0,0,0,1.94,1.74,7.9,7.9,0,0,1,1.47.8,2.67,2.67,0,0,1,.33,3c-.41,1-1.12,1.84-1.49,2.84-1.13,3.06.91,7.14-1.4,9.45a6.53,6.53,0,0,1-2.9,1.42,23.86,23.86,0,0,1-7.48,1.26,25.63,25.63,0,0,1-7.82-2c-6.1-2.25-12.29-4.69-17.26-8.88-3.57-3-12.4,3.17-16.52,1A21.33,21.33,0,0,0,480.5,310a44.24,44.24,0,0,1-7.07-1c-2.29-.67-4.51-2.11-5.35-4.34Z" style="fill:#fff"/><rect x="464.21" y="302.63" width="64.05" height="36.96" style="fill:#fff"/><rect x="414.68" y="316.56" width="139.29" height="36.96" style="fill:#fff"/><path d="M490.28,272c-.45-.74.76-1.63.5-2.46-.14-.44-.62-.66-1-.91s-.74-.78-.46-1.15a1.12,1.12,0,0,1,.5-.31,2.93,2.93,0,0,0,1.94-2.17,2,2,0,0,1,.15-.82c.23-.38.75-.44,1.11-.7a3.83,3.83,0,0,0,.85-1.33c.27-.46.85-.86,1.3-.59a1.71,1.71,0,0,1,.51.79c.14.28.43.57.73.48s.33-.29.52-.42a.87.87,0,0,1,1.1.32,4.49,4.49,0,0,1,.49,1.16c.59,1.56,2.09,2.55,3.5,3.43.47-.34,1-1,.54-1.4-.24-.22-.76-.42-.54-.66a2.44,2.44,0,0,0,2.24-1.44c.15-.36.26-.79.61-.95a1.17,1.17,0,0,1,.45-.07c1.32,0,2.93.14,3.49,1.33a6.07,6.07,0,0,1,.3,1.09,7.28,7.28,0,0,0,2.58,3.48,1.19,1.19,0,0,1,.41.5,1.16,1.16,0,0,1-.06.66q-.35,1.21-.75,2.4c-.17.51-.45,1.09-1,1.15-.26,0-.55-.08-.78,0-.51.29,0,1.15-.28,1.64a1,1,0,0,1-.83.33,10.47,10.47,0,0,1-2.47-.15.78.78,0,0,0-.45,0,.75.75,0,0,0-.27.25,4.23,4.23,0,0,0-1.26,3c0,.22.09.49-.07.65s-.65,0-.87-.31q-1.77-2.17-3.46-4.41a16.91,16.91,0,0,0,3.33-.17l-2-.53a.26.26,0,0,1-.24-.36l.57-3.4c-.59-.39-1.3.26-1.7.85a5.4,5.4,0,0,0-.81,1.51A1.83,1.83,0,0,0,499,274a3.58,3.58,0,0,1-3.67-.25,6.38,6.38,0,0,0-.9,2.28c-.28.77-1,1.55-1.81,1.28a4,4,0,0,1-.27-1.6,5.43,5.43,0,0,1-2.31-.8c-.44-.27-.88-.81-.61-1.25.52-.86,2.23.56,2.74-.3a5.63,5.63,0,0,1-2.36-1.08" style="fill:#fff"/><path d="M552.22,194.66c-3.08,6-9.11,9.94-15.08,13.14s-12.31,6.1-16.92,11.07a50.9,50.9,0,0,0-3.95,5c-4.89,6.82-9.83,13.73-12.88,21.55a3,3,0,0,1-.82,1.35,3,3,0,0,1-1.41.47A76.93,76.93,0,0,0,486.61,251a12,12,0,0,0-6.89-4.66,35.82,35.82,0,0,0,7.37-12.56,20.35,20.35,0,0,0-.55-14.33c-1.77-3.87-5-6.91-8.47-9.34s-7.32-4.33-10.94-6.56a16.12,16.12,0,0,1-5.56-4.93c-1.31-2.13-1.62-5.06-.12-7.07Z" style="fill:#fff"/><path d="M551.79,194.41c-3.93,7.33-11.44,11.14-18.51,14.87a65.75,65.75,0,0,0-9.82,6,40.42,40.42,0,0,0-7.87,8.76c-2.54,3.54-5.07,7.09-7.34,10.8-1.09,1.79-2.13,3.61-3.07,5.48s-1.55,4.49-3.19,5.76c-1.87,1.46-5.08,1.45-7.4,2-2.13.52-4.2,1.35-6.33,1.83-1.51.34-1.21.35-2.27-.44-.61-.46-1.11-1.07-1.74-1.53a13.26,13.26,0,0,0-4.4-2.06l.22.84c5.78-6.84,10.44-15.8,7.84-25-2.65-9.35-12.11-13.56-19.75-18.15a20.3,20.3,0,0,1-5.36-4.12,7.52,7.52,0,0,1-1.84-4.43c0-.39.22-2.83.52-3s1.12,0,1.43,0l8.27.28L534,194.54l18.2.62c.64,0,.64-1,0-1l-47.38-1.61-31.47-1.07-9.43-.32c-2.22-.08-3.25-.52-3.85,2.29-.87,4.05,2.14,7.4,5.21,9.53,4.86,3.37,10.42,5.62,15,9.45,4.95,4.17,7.79,9.72,7.3,16.29s-4,12.38-8.2,17.3a.51.51,0,0,0,.22.84,12.09,12.09,0,0,1,6.59,4.43.52.52,0,0,0,.56.23,79.66,79.66,0,0,1,12.71-3.43c1.31-.24,2.91-.19,3.84-1.29s1.33-3,2-4.36c3.41-7.3,8.22-14.07,13.08-20.47,9.08-12,27-13.44,34.33-27C553,194.35,552.09,193.84,551.79,194.41Z"/><path d="M459.41,356.94l-1.51-2.47a5.14,5.14,0,0,0-1.8-2l2.3.23a.67.67,0,0,0,.35,0c.2-.09.26-.34.29-.56a18,18,0,0,0,0-5.42l1.15,1.44a.29.29,0,0,0,.53,0l.82-.84a4.66,4.66,0,0,1,1.22,2.13c.19.76.29,1.7,1,2,.25.12.56.15.72.37a1,1,0,0,1,.15.42,8.5,8.5,0,0,1,.11,3.64,10.81,10.81,0,0,0-.68,2.36c0,.24,0,.53-.22.64s-.38,0-.58,0c-.36,0-.66.31-1,.33s-.79-.47-1-.88-.67-.86-1.12-.7" style="fill:#485772"/><path d="M484.95,359.78l-.12-1.37a1.52,1.52,0,0,0-.2-.75,1.74,1.74,0,0,0-.53-.43,6.12,6.12,0,0,1-2.5-3.2c-.07-.22-.09-.53.12-.62a.49.49,0,0,1,.4.09q1.24.69,2.45,1.44l-.32-2.91a1,1,0,0,0,1,.48,1.1,1.1,0,0,0,.83-.78,4.54,4.54,0,0,0,0-1.11,1,1,0,0,1,.5-.93c.42.49.45,1.44,1.09,1.48.42,0,.71-.42,1.09-.6a1.26,1.26,0,0,1,1.31.27,3.69,3.69,0,0,1,.79,1.17l.7,1.4a1.41,1.41,0,0,0,.28.42,4.31,4.31,0,0,0,.47.3c.65.46.58,1.43.43,2.22a1.61,1.61,0,0,1-.19.6,2.67,2.67,0,0,1-.52.49c-1,.84-.91,2.31-.79,3.57-.63.21-1.27-.28-1.92-.4a7.93,7.93,0,0,0-1.88.16c-.63,0-1.39-.23-1.5-.86" style="fill:#485772"/><path d="M501.39,354.94a2.22,2.22,0,0,0,.56-1.57,2.2,2.2,0,0,0-.42-.83l-1.21-1.73a1,1,0,0,1-.23-.56c0-.69,1.24-.63,1.52-1.27a1.88,1.88,0,0,0,0-.92c0-.31.12-.71.43-.71a1.89,1.89,0,0,1,.41.13c.42.1.79-.33.87-.76s0-.87.07-1.29a.62.62,0,0,1,.3-.46.59.59,0,0,1,.7.34c.14.25.17.55.3.8a1.28,1.28,0,0,0,1.9.39c.12-.1.24-.23.39-.22s.28.21.34.37a19.78,19.78,0,0,1,.79,2.7,1,1,0,0,0,.27.6,2.17,2.17,0,0,0,.61.24c.76.32.77,1.41.44,2.17a4.82,4.82,0,0,1-1.28,1.75,1.43,1.43,0,0,0-.49.58c-.16.51.35,1.1.08,1.56s-.87.31-1.32.13a11.6,11.6,0,0,1-3-1.85" style="fill:#485772"/><path d="M535.32,234.34a7.45,7.45,0,0,1-.08-.84l.5,0a6.87,6.87,0,0,0,.08.78Z"/><path d="M427,334.71a22.3,22.3,0,0,1-1.56,8.71c-1.84,4.67-2.71,8.67-2.44,15.83a125.53,125.53,0,0,0,2.44,17.29H376.24c-4.25-3.49-6.38-8.94-7.59-14.31s-1.68-10.91-3.45-16.12c-2.2-6.48-6.44-13-4.53-19.62.89-3.07,3-5.59,4.72-8.29,5.26-8.38,6.4-18.62,7.45-28.46a78.2,78.2,0,0,1,2.52-14.61c1.33-4.36,3.4-8.45,5.12-12.66,4.64-11.41,6.69-23.69,10.8-35.3,4.06-11.45,12-23.35,22.67-29.1l.55.41A35.29,35.29,0,0,1,428,220.16c2.65,14.45-3.93,29-4.37,43.64,0,.09,0,.19,0,.28v0c-.3,11.94,3.42,23.57,5.78,35.28S432.65,324.08,427,334.71Z" style="fill:#70788c"/><path d="M425.73,376.79H376.15l-.07-.06c-3.65-3-6.16-7.72-7.68-14.45-.44-2-.79-4-1.12-5.9a67.89,67.89,0,0,0-2.32-10.2c-.54-1.58-1.21-3.21-1.86-4.77-2-4.89-4.14-10-2.67-15a22.81,22.81,0,0,1,3.4-6.32c.45-.66.92-1.35,1.35-2,5.29-8.42,6.42-19,7.41-28.35a78.56,78.56,0,0,1,2.53-14.66,79.47,79.47,0,0,1,3.41-8.68c.57-1.31,1.17-2.66,1.72-4a166.72,166.72,0,0,0,6.14-19.6c1.39-5.18,2.83-10.54,4.65-15.69,4.66-13.15,13.18-24.08,22.79-29.24l.14-.08.13.1.54.41a35.53,35.53,0,0,1,13.59,21.84c1.59,8.7-.17,17.57-1.87,26.14a107.88,107.88,0,0,0-2.5,17.55s0,.09,0,.15,0,.09,0,.13c-.22,8.92,1.83,17.81,3.82,26.4.67,2.9,1.36,5.9,2,8.85,3.09,15.26,2.33,26.53-2.4,35.44a23,23,0,0,1-1.58,8.74c-1.74,4.43-2.7,8.42-2.42,15.73a126.2,126.2,0,0,0,2.43,17.25Zm-49.4-.5h48.78a123.8,123.8,0,0,1-2.38-17c-.28-7.4.69-11.45,2.46-15.93a22.29,22.29,0,0,0,1.54-8.6v-.07l0-.06c4.7-8.81,5.46-20,2.39-35.16-.59-2.95-1.29-5.94-2-8.84-2-8.62-4.05-17.53-3.83-26.5,0-.06,0-.11,0-.17s0-.09,0-.13a108.17,108.17,0,0,1,2.51-17.64c1.69-8.53,3.45-17.35,1.87-26a35,35,0,0,0-13.39-21.52l-.42-.31c-9.44,5.13-17.81,15.92-22.41,28.89-1.81,5.13-3.25,10.47-4.64,15.65a167.25,167.25,0,0,1-6.16,19.66c-.55,1.35-1.15,2.7-1.72,4a79.24,79.24,0,0,0-3.39,8.63,78,78,0,0,0-2.51,14.56c-1,9.4-2.14,20-7.49,28.57-.44.69-.91,1.38-1.36,2a22.4,22.4,0,0,0-3.33,6.18c-1.42,4.87.65,9.85,2.65,14.66.66,1.58,1.33,3.21,1.88,4.81a68.07,68.07,0,0,1,2.34,10.27c.34,1.93.68,3.93,1.12,5.87C370.37,368.75,372.81,373.37,376.33,376.29Z"/><polygon points="535.34 234.49 535.34 234.45 535.84 234.45 535.34 234.49"/><path d="M631.37,350.73l-97.48,2.32c2.35-12.42,4-20.39,6.83-32.71a81.92,81.92,0,0,0,1-8.87c1.66-23.26,4.51-47.38-3.71-69.21a39,39,0,0,1-2.43-7.81.77.77,0,0,1,0-.15c0-.27-.06-.54-.08-.81a2.46,2.46,0,0,1,0-.26,10,10,0,0,1,.3-3.17c.63-2.39,2.2-4.4,3.73-6.34,4.79-6,10.19-12.48,17.74-14.09a33.39,33.39,0,0,1,10-.08A236.53,236.53,0,0,1,593.69,213c.89.18,2,.31,2.56-.38a2.43,2.43,0,0,0,.39-1.68c-.21-6.59-3.3-12.79-7.16-18.14-.52-.72-1.05-1.43-1.6-2.13,10.72.34,20,7.34,28.29,14.23,3.15,2.63,6.32,5.35,8.55,8.8,2.91,4.51,4,9.91,5.44,15.07,2.28,8.09,5.63,15.94,6.65,24.28.69,5.68.28,11.44.55,17.15.29,6.35,1.42,12.63,2.09,18.95C641.61,309.47,638.48,331.55,631.37,350.73Z" style="fill:#70788c"/><path d="M533.59,353.31l.06-.3c2.37-12.53,4-20.49,6.83-32.72a82.67,82.67,0,0,0,1-8.83q.23-3.27.49-6.55c1.6-21,3.25-42.82-4.18-62.55l-.4-1.07a32.71,32.71,0,0,1-2-6.8,1,1,0,0,1,0-.19c0-.25-.06-.52-.08-.79a2.39,2.39,0,0,1,0-.28,10.19,10.19,0,0,1,.31-3.23c.65-2.47,2.31-4.57,3.78-6.43,5.21-6.57,10.5-12.61,17.88-14.18,3.33-.71,6.78-.39,10.1-.08a236.64,236.64,0,0,1,26.45,3.43c.87.18,1.83.28,2.32-.3a2.2,2.2,0,0,0,.33-1.51c-.18-5.65-2.57-11.71-7.11-18-.57-.79-1.09-1.48-1.59-2.12l-.33-.42.54,0c10.83.34,20.36,7.55,28.44,14.29,3.42,2.85,6.42,5.49,8.6,8.86,2.43,3.76,3.6,8.17,4.74,12.44.24.9.48,1.8.73,2.7.72,2.55,1.56,5.12,2.37,7.6,1.76,5.4,3.59,11,4.29,16.71a89.54,89.54,0,0,1,.44,10.62c0,2.15,0,4.37.11,6.55.19,4.09.73,8.23,1.26,12.23.29,2.2.59,4.47.83,6.71,2.12,20-.75,41.9-8.09,61.71l-.06.16h-.17Zm28.1-143.85a21,21,0,0,0-4.4.42c-7.22,1.54-12.44,7.5-17.6,14-1.43,1.82-3.06,3.88-3.68,6.25a9.72,9.72,0,0,0-.29,3.09,2,2,0,0,0,0,.24c0,.27,0,.54.08.8a.75.75,0,0,0,0,.14,32.43,32.43,0,0,0,2,6.7l.4,1.07c7.47,19.84,5.81,41.66,4.21,62.77q-.25,3.28-.49,6.55a83.17,83.17,0,0,1-1,8.9c-2.78,12.13-4.43,20.05-6.77,32.4l97-2.31c7.27-19.7,10.12-41.47,8-61.33-.24-2.23-.54-4.5-.83-6.69-.53-4-1.08-8.16-1.27-12.27-.1-2.19-.11-4.42-.11-6.57a89.23,89.23,0,0,0-.44-10.56c-.69-5.68-2.51-11.24-4.27-16.62-.81-2.49-1.65-5.07-2.37-7.62-.25-.9-.49-1.8-.73-2.71-1.13-4.23-2.29-8.6-4.68-12.3-2.14-3.31-5.12-5.92-8.5-8.74-7.88-6.57-17.15-13.59-27.6-14.15.41.53.82,1.09,1.27,1.71,4.6,6.38,7,12.52,7.21,18.28a2.66,2.66,0,0,1-.45,1.85c-.66.77-1.79.67-2.8.46a236.16,236.16,0,0,0-26.39-3.43C565.41,209.63,563.55,209.46,561.69,209.46Z"/><path d="M478.25,182.55a144.39,144.39,0,0,0-21.71,27.3c-1.47,2.41-2.83,4.89-4.26,7.31-7.58,12.77-17.36,24.16-24.53,37.15a40.71,40.71,0,0,0-4.14,9.77c0-.09,0-.19,0-.28.44-14.68,7-29.19,4.37-43.64a35.29,35.29,0,0,0-13.49-21.68l-.55-.41a4,4,0,0,1-1.95-2.89,3.55,3.55,0,0,1,.8-2.06c3.23-4.58,9.46-5.53,14.86-7.05,11.11-3.12,20.81-10.1,29-18.27,1.43-1.43,2.85-2.93,4.29-4.42.94-1,1.89-1.95,2.85-2.91,0,0,0,0,.05-.05,1.44-1.44,2.91-2.84,4.43-4.14l.77-.65.78-.63.79-.61c.27-.21.54-.4.81-.6s.54-.38.81-.56c.55-.38,1.1-.73,1.66-1.07l.85-.49c.56-.31,1.13-.6,1.7-.87.31-.15.62-.29.94-.42.6-.25,1.21-.49,1.83-.69l.51-.16.61-.19.78-.2.95-.2h0C484.57,159.73,486.29,174.92,478.25,182.55Z" style="fill:#70788c"/><path d="M423.36,266.12v-2s0-.1,0-.15,0-.09,0-.13a108.17,108.17,0,0,1,2.51-17.64c1.69-8.53,3.45-17.35,1.87-26a35,35,0,0,0-13.39-21.52l-.55-.41a4.28,4.28,0,0,1-2-3.08,3.7,3.7,0,0,1,.85-2.21c2.79-4,7.73-5.24,12.51-6.48.84-.22,1.67-.43,2.49-.66,9.85-2.77,19.56-8.89,28.85-18.21,1-1,2.08-2.12,3.09-3.17l1.2-1.25c.94-1,1.89-2,2.85-2.91l.07-.07c1.66-1.66,3.07-3,4.43-4.14l.27-.23.5-.42.78-.63.55-.43.25-.19.53-.4.28-.21c.27-.19.55-.38.82-.57.5-.35,1-.69,1.67-1.08l.64-.37.22-.12c.53-.29,1.11-.59,1.72-.88.31-.15.63-.29,1-.43.5-.21,1.16-.48,1.85-.7l.47-.15.66-.2.4-.1.38-.1.22,0,.68-.14,0,0h.33l0,.19c2.62,11.28,4.08,26.3-3.88,33.85l-.17-.18.17.18A144.41,144.41,0,0,0,456.75,210c-.87,1.42-1.71,2.89-2.52,4.31-.58,1-1.15,2-1.74,3-3.48,5.87-7.5,11.54-11.38,17A216.82,216.82,0,0,0,428,254.44a39.56,39.56,0,0,0-4.12,9.71Zm40.59-105.49c-1,1-1.93,2-2.86,2.92l-1.2,1.25c-1,1.05-2.06,2.14-3.09,3.18-9.35,9.38-19.13,15.54-29.07,18.33-.82.23-1.65.45-2.5.67-4.69,1.22-9.54,2.47-12.23,6.29a3.24,3.24,0,0,0-.75,1.91,3.87,3.87,0,0,0,1.85,2.7l.54.41a35.53,35.53,0,0,1,13.59,21.84c1.59,8.7-.17,17.57-1.87,26.14A120.7,120.7,0,0,0,424,262a45.56,45.56,0,0,1,3.58-7.81A217.24,217.24,0,0,1,440.71,234c3.87-5.47,7.88-11.13,11.35-17,.58-1,1.16-2,1.73-3,.82-1.42,1.66-2.89,2.53-4.32a145,145,0,0,1,21.75-27.36h0c7.73-7.34,6.35-22,3.79-33.14l-.53.11-.21,0-.38.1-.38.1-.59.18-.51.16c-.67.22-1.33.48-1.82.68-.32.13-.62.27-.93.42-.6.28-1.17.58-1.69.86l-.22.12-.62.36c-.62.38-1.15.72-1.65,1.06-.27.18-.55.37-.81.56l-.28.21-.52.39-.25.19-.54.42-.78.63-.49.42-.27.23c-1.36,1.16-2.76,2.47-4.42,4.13Z"/><path d="M596.25,212.6c-.59.69-1.67.56-2.56.38a236.53,236.53,0,0,0-26.42-3.43,33.39,33.39,0,0,0-10,.08c-7.55,1.61-12.95,8.05-17.74,14.09-1.53,1.94-3.1,3.95-3.73,6.34a10,10,0,0,0-.3,3.17,31.48,31.48,0,0,1,2.46-15.63c1.71-3.84,4.18-7.38,5.21-11.46,1.43-5.73-.16-11.75-1.87-17.41-.79-2.63-3.72-5.28-4-8a46.12,46.12,0,0,1,0-8.31c.29-5,2.69-10.08,3-15.12a68,68,0,0,1,1-9.24c.68-3.43,5.88,2.32,8.1.44,6.42,2.11,11.66,6.9,15.88,12.2s7.67,11.33,11.82,16.77c3.46,4.54,7.42,8.69,10.93,13.19.55.7,1.08,1.41,1.6,2.13,3.86,5.35,6.95,11.55,7.16,18.14A2.43,2.43,0,0,1,596.25,212.6Z" style="fill:#70788c"/><path d="M535.22,233.26a31.58,31.58,0,0,1,2.48-15.75c.6-1.34,1.3-2.66,2-3.94a34.41,34.41,0,0,0,3.22-7.48c1.4-5.61-.16-11.61-1.87-17.28a14.16,14.16,0,0,0-1.88-3.46,11.6,11.6,0,0,1-2.18-4.59,46.45,46.45,0,0,1,0-8.35,38.76,38.76,0,0,1,1.5-7.61,38.35,38.35,0,0,0,1.48-7.51,69,69,0,0,1,1-9.27,1.56,1.56,0,0,1,.76-1.17c.82-.42,2.07.17,3.38.78,1.54.72,3.13,1.47,4,.69l.11-.09.13,0c5.67,1.86,10.9,5.88,16,12.28,2.27,2.87,4.34,6,6.34,8.93,1.75,2.61,3.55,5.31,5.49,7.84,1.82,2.38,3.81,4.7,5.73,6.94,1.73,2,3.53,4.11,5.19,6.24.51.65,1,1.34,1.6,2.14,4.6,6.38,7,12.52,7.21,18.28a2.66,2.66,0,0,1-.45,1.85h0c-.66.77-1.79.67-2.8.46a236.16,236.16,0,0,0-26.39-3.43c-3.29-.3-6.69-.62-10,.08-7.22,1.54-12.44,7.5-17.6,14-1.43,1.82-3.06,3.88-3.68,6.25a9.72,9.72,0,0,0-.29,3.09Zm7.09-86.07a.93.93,0,0,0-.42.09,1.08,1.08,0,0,0-.49.83,68.5,68.5,0,0,0-1,9.21,38.76,38.76,0,0,1-1.5,7.61,38.35,38.35,0,0,0-1.48,7.51,46.08,46.08,0,0,0,0,8.26,11.24,11.24,0,0,0,2.1,4.37,14.78,14.78,0,0,1,1.94,3.59c1.73,5.73,3.3,11.81,1.87,17.54a34.73,34.73,0,0,1-3.27,7.59c-.67,1.27-1.37,2.59-2,3.91a30.2,30.2,0,0,0-2.57,12.08,19.12,19.12,0,0,1,3.72-6.21c5.21-6.57,10.5-12.61,17.88-14.18,3.33-.71,6.78-.39,10.1-.08a236.64,236.64,0,0,1,26.45,3.43c.87.18,1.83.28,2.32-.3a2.2,2.2,0,0,0,.33-1.51c-.18-5.65-2.57-11.71-7.11-18-.57-.79-1.09-1.48-1.59-2.12-1.66-2.13-3.45-4.21-5.18-6.23-1.93-2.25-3.92-4.57-5.75-7-1.94-2.55-3.75-5.25-5.5-7.87-2-3-4.05-6.05-6.31-8.9-5-6.27-10.11-10.23-15.63-12.08-1.17.84-2.92,0-4.47-.71A7.39,7.39,0,0,0,542.31,147.19Z"/><g style="clip-path:url(#clip-path)"><path d="M549.19,148.6l-.15-.05v-.13l0-.12.21.08Z"/><path d="M587.88,190.78h-.5v-.25h.5Z"/><path d="M549.33,148.59l-.16-.19a1.69,1.69,0,0,0,.39-.48l.22.13A1.92,1.92,0,0,1,549.33,148.59Z"/><path d="M446.8,218.37c-1.65-1.88-2.36-4.35-3-6.74-.22-.77-.45-1.57-.71-2.33a25.41,25.41,0,0,0-6.94-10.62c-.71-.65-1.47-1.27-2.21-1.86a31.38,31.38,0,0,1-3.52-3.17,29.43,29.43,0,0,1-4.8-8.33l.23-.1a28.74,28.74,0,0,0,4.76,8.25,31.12,31.12,0,0,0,3.5,3.15c.74.6,1.5,1.22,2.22,1.87a25.66,25.66,0,0,1,7,10.73c.26.77.49,1.57.71,2.34.68,2.36,1.38,4.8,3,6.64Z"/><path d="M449.41,213.15A66.51,66.51,0,0,0,440,199.44c-.55-.62-1.12-1.23-1.67-1.83a47.09,47.09,0,0,1-4.53-5.43c-.27-.4-.54-.82-.79-1.22a21.74,21.74,0,0,0-1.79-2.55c-.44-.51-.94-1-1.43-1.47a11.92,11.92,0,0,1-2.4-2.87l.22-.12a11.73,11.73,0,0,0,2.36,2.8c.49.47,1,1,1.44,1.48a21.83,21.83,0,0,1,1.81,2.58c.25.4.52.82.79,1.22a46.94,46.94,0,0,0,4.51,5.4c.55.6,1.12,1.22,1.67,1.83A66.77,66.77,0,0,1,449.64,213Z"/><path d="M452.33,210.39a65,65,0,0,0-5.78-8.73c-1.57-2-3.27-3.92-4.91-5.77l-2.52-2.85a65.7,65.7,0,0,0-9.32-9.21l.15-.2a65.84,65.84,0,0,1,9.36,9.25l2.52,2.85c1.64,1.85,3.34,3.77,4.92,5.78a65.13,65.13,0,0,1,5.8,8.76Z"/><path d="M456,208.2c-3.18-5-6.46-10.08-10.83-14.18-.64-.6-1.32-1.19-2-1.76a39.26,39.26,0,0,1-3.59-3.41c-.31-.35-.61-.71-.9-1.06-.44-.53-.89-1.07-1.37-1.57a12.73,12.73,0,0,0-4.36-2.91l.09-.23a13,13,0,0,1,4.44,3c.49.5.94,1.05,1.38,1.58.29.35.59.71.89,1.05a39.05,39.05,0,0,0,3.57,3.39c.66.57,1.33,1.16,2,1.77,4.39,4.12,7.68,9.26,10.87,14.23Z"/><path d="M457.83,204.34l-6.48-7.94a34.25,34.25,0,0,0-9.32-8.55,37.78,37.78,0,0,1-6.64-5.42l.19-.17a37.61,37.61,0,0,0,6.6,5.39,34.48,34.48,0,0,1,9.37,8.6l6.48,7.94Z"/><path d="M459.23,200.53a35.67,35.67,0,0,1-6.59-7.48c-.18-.3-.34-.6-.51-.9A17.17,17.17,0,0,0,451,190.3c-1.53-2.08-3.92-3.32-6.23-4.52l-1.57-.83a42.76,42.76,0,0,1-6-4l.15-.2a42.65,42.65,0,0,0,6,4l1.57.83c2.33,1.21,4.75,2.46,6.31,4.59a17.16,17.16,0,0,1,1.15,1.88c.17.3.33.6.51.89a35.53,35.53,0,0,0,6.55,7.42Z"/><path d="M460.57,197.9,455,190.61a15.4,15.4,0,0,0-5.68-5.28l-9.56-5.68.13-.21,9.56,5.68a15.62,15.62,0,0,1,5.76,5.34l5.58,7.29Z"/><path d="M464.5,195.49l-3.36-4.59a57.38,57.38,0,0,0-4.5-5.64A13.54,13.54,0,0,0,454,183a19.28,19.28,0,0,0-4.55-1.84c-2.24-.69-4.55-1.41-6.12-3.18l.19-.17c1.52,1.72,3.7,2.39,6,3.11a19.51,19.51,0,0,1,4.61,1.87,13.79,13.79,0,0,1,2.7,2.3,57.67,57.67,0,0,1,4.52,5.65l3.37,4.6Z"/><path d="M466.51,196.45a51.33,51.33,0,0,0-3.28-8.6,18.27,18.27,0,0,0-2.76-4.34c-2.55-2.78-6.28-4-9.88-5.17-1.64-.53-3.33-1.08-4.91-1.78l.1-.23c1.56.69,3.25,1.24,4.88,1.77,3.63,1.18,7.39,2.4,10,5.23a18.44,18.44,0,0,1,2.81,4.4,51.54,51.54,0,0,1,3.3,8.64Z"/><path d="M469.63,197.94c-.46-3.58-2-6.9-3.54-10.12-1.9-4-4.27-9.06-8.66-11.6a17.47,17.47,0,0,0-8.28-2v-.25a17.71,17.71,0,0,1,8.4,2.08c4.46,2.58,6.84,7.64,8.76,11.71,1.52,3.23,3.1,6.57,3.56,10.19Z"/><path d="M471.68,195.2a39.23,39.23,0,0,0-3.75-12.88,22.9,22.9,0,0,0-9-9.72,19.07,19.07,0,0,0-7.45-2.31l0-.25a19.29,19.29,0,0,1,7.54,2.34,23.16,23.16,0,0,1,9.12,9.82,39.49,39.49,0,0,1,3.78,13Z"/><path d="M473.61,193.56a61.44,61.44,0,0,0-3.76-14.33,22.17,22.17,0,0,0-3.21-5.91,13.61,13.61,0,0,0-10.36-4.9h-.52v-.25a13.85,13.85,0,0,1,11.08,5,22.38,22.38,0,0,1,3.25,6,61.71,61.71,0,0,1,3.78,14.39Z"/><path d="M476.1,192.44a100.54,100.54,0,0,0-3.42-16.31,18.83,18.83,0,0,0-1.21-3.25,20.71,20.71,0,0,0-4.88-5.6,9.53,9.53,0,0,0-1.93-1.47A9.65,9.65,0,0,0,461,165a11.15,11.15,0,0,1-3.44-.66l.1-.23a11,11,0,0,0,3.36.64,7.39,7.39,0,0,1,5.76,2.33,21.25,21.25,0,0,1,4.94,5.67,19.2,19.2,0,0,1,1.23,3.29,100.85,100.85,0,0,1,3.43,16.35Z"/><path d="M477.75,188.29a135.08,135.08,0,0,0-4.17-18,12.29,12.29,0,0,0-1.24-3,13,13,0,0,0-2.47-2.65,14.84,14.84,0,0,0-3.46-2.52c-.37-.17-.77-.33-1.16-.47a5.32,5.32,0,0,1-3-2l.22-.12a5.15,5.15,0,0,0,2.89,1.9c.39.15.8.3,1.18.48a15,15,0,0,1,3.52,2.56,13.2,13.2,0,0,1,2.51,2.7,12.4,12.4,0,0,1,1.27,3.09,135,135,0,0,1,4.17,18Z"/><path d="M479.85,183.06a63.93,63.93,0,0,0-2.57-13.48,17.84,17.84,0,0,0-3.14-6.49,18.43,18.43,0,0,0-7-4.55l.1-.23a18.65,18.65,0,0,1,7.05,4.61,18.06,18.06,0,0,1,3.18,6.58A64.15,64.15,0,0,1,480.1,183Z"/><path d="M481.32,179.36a44.59,44.59,0,0,1-1.49-6.67c-.11-.73-.19-1.48-.28-2.2a29.35,29.35,0,0,0-1.29-6.53c-1.37-3.79-4.3-6.89-6.88-9.62l.18-.17c2.6,2.75,5.55,5.87,6.94,9.71a29.46,29.46,0,0,1,1.3,6.59c.09.72.17,1.47.28,2.2a44.51,44.51,0,0,0,1.48,6.63Z"/><path d="M483.74,174.48c-.14-1.35-.25-2.73-.36-4.07a67.39,67.39,0,0,0-1-8.57c-1-4.78-3-8.57-5.83-11l.16-.19c2.86,2.43,4.9,6.27,5.91,11.1a67.53,67.53,0,0,1,1,8.6c.1,1.33.21,2.71.35,4.06Z"/><path d="M528.29,166.79c-.09-1.92,1.77-3.19,3.6-4.17,2.72-1.46,5.4-3.06,8-4.76l1.36-.91a51,51,0,0,1,5.72-3.49,15.69,15.69,0,0,1,8.08-1.86l0,.25a15.36,15.36,0,0,0-8,1.84,50.72,50.72,0,0,0-5.7,3.47l-1.36.91c-2.58,1.7-5.27,3.31-8,4.77-1.76.95-3.55,2.16-3.47,3.94Z"/><path d="M530.82,171.26l-.23-.11a25.13,25.13,0,0,1,8.87-10.38A46.33,46.33,0,0,1,548,156.6C552,155,556,153.54,560.14,154l0,.25c-4.07-.47-8,.94-12,2.56A46.21,46.21,0,0,0,539.6,161,24.89,24.89,0,0,0,530.82,171.26Z"/><path d="M531.45,175.32l-.24-.07c.74-2.69,2.75-4.8,4.52-6.67a38.87,38.87,0,0,1,4.82-4.52,35.16,35.16,0,0,1,6.14-3.45c4.7-2.2,10.22-4.52,15.93-4.27v.25c-5.67-.27-11.14,2.06-15.82,4.24a34.92,34.92,0,0,0-6.1,3.42,38.74,38.74,0,0,0-4.79,4.49C534.16,170.6,532.17,172.69,531.45,175.32Z"/><path d="M532,179.64l-.22-.12a29.31,29.31,0,0,1,4.62-6.31,58.7,58.7,0,0,1,9-7.16,46.75,46.75,0,0,1,5.22-3.3c4.86-2.5,10.34-3.2,15.63-3.87l0,.25c-5.27.67-10.72,1.37-15.55,3.85a46.32,46.32,0,0,0-5.2,3.29,58.53,58.53,0,0,0-8.93,7.13A29.11,29.11,0,0,0,532,179.64Z"/><path d="M533.22,182.41l-.24-.08c.61-1.81,2.08-3.09,3.79-4.45,2.73-2.18,5.49-4.35,8.16-6.45,1.38-1.09,2.81-2.21,4.32-3.18,6-3.86,13.44-5.26,20-6.49l0,.25c-6.52,1.23-13.91,2.62-19.9,6.46-1.5,1-2.92,2.08-4.3,3.17-2.67,2.1-5.42,4.27-8.15,6.44C535.26,179.41,533.82,180.66,533.22,182.41Z"/><path d="M533.84,185.69l-.23-.1c1-2.26,3.15-3.87,4.88-5.16,4.25-3.19,8.58-6.41,12.77-9.52a24.74,24.74,0,0,1,12.53-5.5l8.49-1.89.05.24-8.49,1.89a24.51,24.51,0,0,0-12.43,5.45c-4.2,3.12-8.53,6.34-12.78,9.53C536.94,181.9,534.82,183.49,533.84,185.69Z"/><path d="M534.37,187.23l-.15-.2c6.43-4.75,13.1-9.32,19.84-13.61a34.11,34.11,0,0,1,9-4.48,35.73,35.73,0,0,1,4.42-.83l6.9-1,0,.25-6.88,1a35.79,35.79,0,0,0-4.4.83,33.39,33.39,0,0,0-8.92,4.45C547.47,177.91,540.8,182.49,534.37,187.23Z"/><path d="M535.83,193.46l-.22-.11a23.46,23.46,0,0,1,5.55-7.35c.76-.67,1.58-1.31,2.37-1.92s1.49-1.16,2.2-1.77c.45-.39.89-.8,1.31-1.2.62-.58,1.25-1.17,1.92-1.71a34.59,34.59,0,0,1,4.07-2.68,34,34,0,0,1,16.11-6l8.86-1.35,0,.25L569.19,171a33.73,33.73,0,0,0-16,6,34.55,34.55,0,0,0-4,2.66c-.66.53-1.3,1.12-1.91,1.7-.43.4-.87.81-1.32,1.2-.72.62-1.48,1.21-2.21,1.78s-1.6,1.24-2.36,1.91A23.21,23.21,0,0,0,535.83,193.46Z"/><path d="M535.58,195.74l-.19-.17a139.76,139.76,0,0,1,14.42-13.12,53.26,53.26,0,0,1,4.44-3.41c7.25-4.8,16.33-5.71,24.35-6.52l0,.25c-8,.8-17,1.72-24.23,6.48a52.74,52.74,0,0,0-4.41,3.39A139.67,139.67,0,0,0,535.58,195.74Z"/><path d="M535.21,198.25l-.16-.19c7-6,14.39-11.81,21.9-17.19a14.49,14.49,0,0,1,6.6-3.07c5.21-1.24,10.52-2.33,15.78-3.23l0,.25c-5.26.9-10.56,2-15.77,3.22a18.91,18.91,0,0,0-3.09.94,18.43,18.43,0,0,0-3.42,2.09C549.59,186.45,542.22,192.23,535.21,198.25Z"/><path d="M535.63,199.19l-.15-.2c6.22-4.52,12.58-9.1,18.9-13.62a23.52,23.52,0,0,1,10.71-4.93,127.55,127.55,0,0,1,16-3.18l0,.25a127.37,127.37,0,0,0-16,3.18,23.31,23.31,0,0,0-10.62,4.89C548.21,190.09,541.85,194.67,535.63,199.19Z"/><path d="M534.49,199.54l-.12-.22,14.49-8.2c2.82-1.6,5.74-3.25,8.77-4.6,8.51-3.78,17.83-5.16,26.85-6.5l0,.25c-9,1.33-18.31,2.71-26.79,6.48-3,1.34-5.93,3-8.75,4.59Z"/><path d="M534.67,200.39l-.11-.23c1.43-.67,2.84-1.31,4.29-2L557,189.94c1.39-.63,2.83-1.29,4.3-1.81a55.61,55.61,0,0,1,6.46-1.73l18.53-4.17.05.24-18.53,4.17a55.08,55.08,0,0,0-6.43,1.72c-1.46.52-2.9,1.17-4.28,1.8L539,198.43C537.51,199.09,536.1,199.73,534.67,200.39Z"/><path d="M532.3,203l-.1-.23L547.46,196c3.91-1.75,7.94-3.56,12.05-5a122.94,122.94,0,0,1,18.16-4.75c3-.59,6.13-1.14,9.19-1.61l0,.25c-3.05.48-6.14,1-9.18,1.61a122.59,122.59,0,0,0-18.13,4.74c-4.1,1.46-8.13,3.27-12,5Z"/><path d="M532.3,207l-.21-.13a5.89,5.89,0,0,1,2.44-1.94c7.66-4.09,15.58-8.32,24-11.19,8.61-3,17.84-4.5,26-5.86l0,.25c-8.13,1.36-17.35,2.91-25.94,5.85-8.36,2.87-16.27,7.09-23.92,11.17A5.71,5.71,0,0,0,532.3,207Z"/><path d="M533.3,210.83l-.21-.13a9.87,9.87,0,0,1,3.26-3,104.49,104.49,0,0,1,34.78-14.66A187.42,187.42,0,0,1,590,190.16l0,.25a187.22,187.22,0,0,0-18.82,2.92A104.25,104.25,0,0,0,536.48,208,9.66,9.66,0,0,0,533.3,210.83Z"/><path d="M529.84,214.51l-.17-.18c3.31-3.21,7.6-5.42,11.39-7.37,8.18-4.2,17.45-9,27.24-11.36a92.25,92.25,0,0,1,22.16-2.27H591v.25h-.54a92.07,92.07,0,0,0-22.1,2.26c-9.77,2.39-19,7.14-27.19,11.34C537.4,209.13,533.12,211.33,529.84,214.51Z"/><path d="M527.29,214.85l-.15-.2a30.29,30.29,0,0,1,7.8-3.76c.8-.29,1.62-.6,2.42-.92,1.75-.7,3.49-1.51,5.17-2.29l2.48-1.14c14.25-6.41,30.94-10,49.62-10.67v.25c-18.65.67-35.31,4.25-49.53,10.65l-2.47,1.14c-1.68.78-3.42,1.6-5.18,2.29-.8.32-1.62.62-2.42.92A30.05,30.05,0,0,0,527.29,214.85Z"/><path d="M524.85,218.24l-.12-.22c4.2-2.26,9.18-4.88,14.35-7.15,4.84-2.12,9.88-4,14.76-5.74,1.88-.69,3.83-1.4,5.78-2A54.48,54.48,0,0,1,570.7,201a109.17,109.17,0,0,1,10.93-.19,92.57,92.57,0,0,0,12.84-.39l0,.25a92.49,92.49,0,0,1-12.87.39,108.6,108.6,0,0,0-10.91.19,54.07,54.07,0,0,0-11,2.11c-2,.59-3.89,1.3-5.77,2-4.88,1.78-9.92,3.62-14.75,5.74C534,213.36,529,216,524.85,218.24Z"/></g><path d="M580,258.93a24.85,24.85,0,0,0-1.5-6c-.25-.74-.51-1.5-.74-2.26a67.62,67.62,0,0,1-1.52-6.67,42.51,42.51,0,0,0-2.82-10.09c-.1-.22-.19-.26-.19-.25l-.06-.5c.19,0,.48,0,.71.53a42.9,42.9,0,0,1,2.86,10.21,67.23,67.23,0,0,0,1.51,6.62c.23.75.48,1.5.73,2.25a25.19,25.19,0,0,1,1.53,6.17Z"/><path d="M571.41,359.14l-.47-.17c6.63-17.91,7.41-37.35,7.62-54.17,0-2.79.05-5.59.07-8.39.1-15.36.21-31.25,3.21-46.54.22-1.11.45-2.21.68-3.32a73.13,73.13,0,0,0,1.77-11.33l.5,0a73.62,73.62,0,0,1-1.78,11.4c-.23,1.1-.46,2.21-.68,3.31-3,15.25-3.1,31.11-3.2,46.45,0,2.8,0,5.59-.07,8.39C578.86,321.67,578.07,341.16,571.41,359.14Z"/><path d="M588.4,324.22l-.48-.14c8.24-27.08,15.71-54.77,22.21-82.3l.49.12C604.11,269.43,596.64,297.13,588.4,324.22Z"/><path d="M412.62,353.44c-3.13-18.21-3-37-2.84-55.22.11-13.78.22-28-1.09-41.95-.07-.74-.14-1.48-.22-2.22-.27-2.72-.55-5.54-.62-8.32a55.59,55.59,0,0,1,5.55-25.5l.45.22a55.09,55.09,0,0,0-5.5,25.27c.07,2.76.34,5.57.62,8.28q.11,1.11.22,2.22c1.31,13.94,1.2,28.2,1.09,42-.14,18.17-.29,37,2.83,55.13Z"/><path d="M398.79,268.57c-4.47-6.5-9.53-13.86-11.64-22.08l.48-.12c2.08,8.13,6.91,15.14,11.57,21.92Z"/><path d="M401.47,296.87A28,28,0,0,1,378.88,277l.48-.13a27.46,27.46,0,0,0,22.18,19.48Z"/><path d="M374.34,315.67l-.17-.47a322.3,322.3,0,0,1,31.53-9.25l.12.49A321.62,321.62,0,0,0,374.34,315.67Z"/><path d="M402,323.41l-7.08-2.8a18.56,18.56,0,0,0-4.13-1.27,18.8,18.8,0,0,0-7.29.92l-7,1.85-.13-.48,7-1.85c2.31-.61,4.93-1.31,7.49-.94a18.91,18.91,0,0,1,4.24,1.3l7.08,2.8Z"/><rect x="390.37" y="336.83" width="11.29" height="0.5" transform="translate(-112.79 229.52) rotate(-28.47)"/></g><g id="Head-8" data-name="Head"><path d="M491.26,148.87c10.67-1.26,21.38,1.19,32,2.51,5.5.68,11.23,1,16.43-.85-2,5.45-2.19,11.36-2.36,17.16-.11,3.67-.2,7.43,1,10.89.66,1.82,1.67,3.49,2.46,5.26,1.79,4,2.41,8.41,2.86,12.76a4.27,4.27,0,0,1-.15,2.15,4.16,4.16,0,0,1-1.1,1.34,57.92,57.92,0,0,1-27.11,13.76c-4.39.9-9.49,1.67-11.8,5.52-.59,1-1.29,2.32-2.43,2.14-.83-.13-1.27-1-1.68-1.76a15.31,15.31,0,0,0-3.42-3.9,96.82,96.82,0,0,0-13.94-9.58l-13-7.88a3.4,3.4,0,0,1-1.33-1.16,2.89,2.89,0,0,1,.1-2.41c1.22-3,4-5.16,6.17-7.59a31.38,31.38,0,0,0,7.2-15.44,59.15,59.15,0,0,0,.23-17.2c-.26-2.31-.64-4.74-2.1-6.54Z" style="fill:#62647a"/><path d="M501.35,221.64l-.23,0c-.83-.13-1.29-.95-1.68-1.67l-.09-.16a15.39,15.39,0,0,0-3.39-3.87A97,97,0,0,0,482,206.37l-13-7.88a3.54,3.54,0,0,1-1.37-1.21,2.94,2.94,0,0,1,.1-2.52,18.2,18.2,0,0,1,4.4-5.77c.6-.6,1.22-1.22,1.79-1.86a31.18,31.18,0,0,0,7.17-15.38,58.2,58.2,0,0,0,.23-17.16c-.26-2.29-.63-4.68-2.08-6.48l-.18-.22.29,0,11.92.84c8.21-1,16.56.27,24.64,1.47,2.43.36,4.95.73,7.42,1,5.44.67,11.19,1,16.38-.84l.25-.09-.09.25c-2,5.48-2.18,11.4-2.35,17.12-.1,3.45-.22,7.36,1,10.84a29.59,29.59,0,0,0,1.47,3.22c.33.66.68,1.34,1,2,1.85,4.15,2.45,8.78,2.87,12.8a4.32,4.32,0,0,1-.16,2.21,4.25,4.25,0,0,1-1.13,1.38A57.73,57.73,0,0,1,515.39,214l-.93.19c-4.06.82-8.67,1.74-10.79,5.27l-.13.22C503,220.54,502.36,221.64,501.35,221.64ZM479.6,148.17c1.35,1.82,1.71,4.15,2,6.38a58.45,58.45,0,0,1-.23,17.23,31.43,31.43,0,0,1-7.23,15.51c-.58.64-1.2,1.26-1.8,1.87a18,18,0,0,0-4.34,5.69,2.71,2.71,0,0,0-.11,2.31,3.31,3.31,0,0,0,1.28,1.12l13,7.88a97.2,97.2,0,0,1,14,9.59,15.62,15.62,0,0,1,3.45,3.93l.09.16c.37.67.79,1.43,1.5,1.54,1,.15,1.61-.92,2.17-1.86l.13-.22c2.18-3.62,6.84-4.56,11-5.38l.93-.19A57.49,57.49,0,0,0,542.39,200a4.06,4.06,0,0,0,1.07-1.3,4.14,4.14,0,0,0,.14-2.09c-.41-4-1-8.6-2.85-12.72-.3-.68-.65-1.36-1-2a29.27,29.27,0,0,1-1.48-3.25c-1.27-3.52-1.15-7.46-1.05-10.93.17-5.66.34-11.5,2.28-17-5.17,1.8-10.86,1.43-16.24.76-2.47-.31-5-.68-7.42-1-8.06-1.2-16.4-2.44-24.58-1.47h0Z"/><path d="M554.49,118.67a2,2,0,0,1,3.26,1.24,5,5,0,0,1-.54,3.71c-.22.37-.48.71-.71,1.07a5.74,5.74,0,0,0-.81,2.38" style="fill:#62647a"/><path d="M555.82,127.09l-.25,0a5.9,5.9,0,0,1,.83-2.43c.11-.17.22-.34.34-.51s.26-.37.37-.56a4.87,4.87,0,0,0,.53-3.61,2.15,2.15,0,0,0-.85-1.37,2.29,2.29,0,0,0-2.23.21l-.13-.21a2.08,2.08,0,0,1,3.45,1.32,5.12,5.12,0,0,1-.56,3.8c-.12.2-.25.39-.38.58s-.23.33-.33.5A5.65,5.65,0,0,0,555.82,127.09Z"/><path d="M481,148.86c-5.19-17.12-4.47-35.44-2.61-53.23.74-7.12,1.94-14.57,6.46-20.12.45-.55.48-.25,1.38-.49,4.66-1.26,9.28-2.65,14-3.8S510,69,514.95,69.66a42.09,42.09,0,0,1,5.17,1.18c6.77,1.85,13.8,3.82,19.1,8.43,3.72,3.23,7.6,7.16,8.72,12a2.84,2.84,0,0,0,1.4,1.79c3.93,7.64,3.57,16.36,5.16,24.81,1.39,7.37,2.76,15.06.67,22.26-1.08,3.71-3,7.12-4.14,10.82-.7,2.35-1,4.79-1.62,7.17a38.62,38.62,0,0,1-9.17,17,11.74,11.74,0,0,1-2.82,2.14c-2.65,1.52-5.36,2.94-8,4.41a28,28,0,0,1-7.64,3.26,18.75,18.75,0,0,1-7.86-.25c-7.92-1.77-14.76-6.93-19.9-13.21s-8.73-13.65-12-21.07C481.65,149.77,481.17,149.43,481,148.86Z" style="fill:#62647a"/><path d="M518.61,185.3a21.82,21.82,0,0,1-4.75-.56c-9.23-2.06-16-8.35-20-13.25-4.86-5.94-8.33-12.73-12-21.09a4.09,4.09,0,0,0-.44-.61,2.6,2.6,0,0,1-.54-.89h0c-5.36-17.69-4.33-36.86-2.61-53.28.71-6.78,1.85-14.49,6.49-20.19a.86.86,0,0,1,.76-.42,3.2,3.2,0,0,0,.68-.11c1.62-.44,3.27-.9,4.86-1.35,3-.84,6.05-1.7,9.11-2.45,4.78-1.17,9.86-2.26,14.8-1.56a42.34,42.34,0,0,1,5.19,1.18c6.43,1.75,13.72,3.74,19.15,8.45,3.69,3.21,7.62,7.14,8.76,12a2.72,2.72,0,0,0,1.33,1.71l0,0,0,0c2.73,5.3,3.41,11.24,4.08,17,.3,2.59.61,5.26,1.1,7.87,1.32,7,2.81,14.94.67,22.32a48.31,48.31,0,0,1-2.1,5.5,49.37,49.37,0,0,0-2,5.33c-.42,1.42-.72,2.89-1,4.32-.19.94-.38,1.91-.61,2.85a38.66,38.66,0,0,1-9.2,17,11.81,11.81,0,0,1-2.85,2.17c-1.77,1-3.59,2-5.35,3l-2.68,1.46a28.09,28.09,0,0,1-7.67,3.27A15.55,15.55,0,0,1,518.61,185.3ZM511.72,69.57a48.94,48.94,0,0,0-11.5,1.77c-3,.75-6.13,1.61-9.1,2.45-1.59.45-3.24.91-4.86,1.35a3.54,3.54,0,0,1-.72.12c-.26,0-.34,0-.59.33-4.59,5.64-5.73,13.31-6.43,20.06-3.06,29.21-.4,43.28,2.6,53.18h0a2.41,2.41,0,0,0,.49.8,4.29,4.29,0,0,1,.47.66c3.71,8.36,7.17,15.13,12,21,4,4.88,10.66,11.12,19.83,13.17a18.64,18.64,0,0,0,7.81.25,27.91,27.91,0,0,0,7.6-3.25L532,180c1.76-1,3.58-1.94,5.35-3a11.55,11.55,0,0,0,2.79-2.12,38.41,38.41,0,0,0,9.14-16.92c.23-.94.42-1.91.61-2.84.29-1.43.59-2.91,1-4.34a49.5,49.5,0,0,1,2.05-5.36A48.28,48.28,0,0,0,555,140c2.13-7.32.64-15.23-.67-22.2-.49-2.62-.8-5.3-1.1-7.89-.69-6-1.34-11.61-4-16.85a2.94,2.94,0,0,1-1.42-1.86c-1.12-4.81-5-8.71-8.68-11.88-5.39-4.67-12.65-6.65-19.05-8.4a42.16,42.16,0,0,0-5.16-1.18A22.94,22.94,0,0,0,511.72,69.57Z"/><path d="M474.58,116.31c4.75-6.86,9.36-13.91,15.44-19.62A56.27,56.27,0,0,1,527.91,81.6a26,26,0,0,1,11.65,2.19c4.81,2.37,8.22,6.93,10.47,11.8a40.05,40.05,0,0,1,3.62,18.7,4.1,4.1,0,0,0,.45,2.67c.84,1.15,2.66,1,3.88.28,2.22-1.31,3.35-3.92,3.7-6.47a67.22,67.22,0,0,0,.08-7.71c.09-5,1.54-9.92,1.15-14.89-.79-10.24-9.17-19.15-8.33-29.38a8.43,8.43,0,0,0,0-3.11,6.6,6.6,0,0,0-2.38-2.95c-5.68-4.7-12-9-19.17-10.58a56.41,56.41,0,0,0-12.61-.81c-9.53.1-19.23.22-28.33,3.06a37.65,37.65,0,0,1-7.18,1.92c-2,.21-4.73.5-5,2.51a5.55,5.55,0,0,1-.12,1.24c-.23.62-.92.91-1.54,1.16a37.18,37.18,0,0,0-14.42,10.18A9.48,9.48,0,0,0,462.08,64a11.77,11.77,0,0,0-.59,3.83A71.7,71.7,0,0,1,454.57,95c-.91,1.89-2.3,4-4.4,4a2,2,0,0,1-2,2.32,19,19,0,0,0,6.92,3,28.54,28.54,0,0,1-9.81,24.56l2.33-1.55a14.66,14.66,0,0,1,1.31,3.24,8.59,8.59,0,0,0,.64,2.13c.22.39.49.75.71,1.14a11.42,11.42,0,0,1,.64,1.4l.85,2.1,1.56,3.87c.91-2.3.83-6,3.21-6.68,1.2-.33,1.33-7.72,1.7-7.84s6.5,8.73,11.13,10.12c.5,1.51,2,5.64,5.89,7.51.48,1.13,1.58,4.88,4.09,5.75s1.51-.5,2-.87-2.33-8.43-2.33-8.43S468.48,125.11,474.58,116.31Z" style="fill:#8aa3b5"/><path d="M480.56,150.58a4,4,0,0,1-1.29-.3c-2.28-.79-3.41-3.74-4-5.32l-.19-.49c-2.65-1.32-4.68-3.91-5.89-7.5-3.42-1.11-7.5-6-9.7-8.61-.44-.53-.87-1-1.12-1.3-.08.4-.16,1.18-.23,1.89-.34,3.24-.65,5.55-1.52,5.79-1.54.42-2,2.35-2.4,4.21a16.3,16.3,0,0,1-.65,2.32l-.23.58-2.65-6.55a11.3,11.3,0,0,0-.62-1.37c-.1-.18-.22-.36-.33-.53s-.26-.4-.38-.61a6,6,0,0,1-.54-1.66c0-.18-.08-.35-.12-.52a14.44,14.44,0,0,0-1.16-2.94l-2.1,1.4-.3-.4a28.48,28.48,0,0,0,9.75-24.16,19.33,19.33,0,0,1-6.83-3l-.7-.49.86,0a1.79,1.79,0,0,0,1.73-2l-.06-.3h.31c1.56,0,2.93-1.26,4.17-3.86a71.85,71.85,0,0,0,6.88-27v-.24a11.19,11.19,0,0,1,.6-3.67,9.75,9.75,0,0,1,1.78-2.66A37.41,37.41,0,0,1,478.14,51c.63-.25,1.21-.51,1.39-1a2.08,2.08,0,0,0,.08-.69,4.21,4.21,0,0,1,0-.5c.28-2.22,3.13-2.52,5.21-2.73a27.16,27.16,0,0,0,5.6-1.41l1.53-.5c9.21-2.87,19-3,28.4-3.07a56.68,56.68,0,0,1,12.66.82c7.73,1.68,14.36,6.57,19.27,10.63a6.74,6.74,0,0,1,2.46,3.07,7,7,0,0,1,.09,2.7c0,.17,0,.33,0,.5-.45,5.52,1.87,10.78,4.11,15.87,1.9,4.31,3.87,8.78,4.23,13.47a41.09,41.09,0,0,1-.55,8.6,55.51,55.51,0,0,0-.61,6.32c0,.91,0,1.83,0,2.73a30.65,30.65,0,0,1-.12,5c-.41,3-1.8,5.46-3.82,6.65-1.36.8-3.3.89-4.21-.35a4.27,4.27,0,0,1-.5-2.82,39.81,39.81,0,0,0-3.59-18.6c-1.79-3.88-5-9.05-10.35-11.68-3-1.48-6.6-2.17-11.36-2.17h-.18a56,56,0,0,0-37.72,15c-5.44,5.11-9.77,11.4-14,17.48l-1.45,2.1h0c-3.08,4.45-1.72,10.76,0,15.28a47.94,47.94,0,0,0,4.49,8.87l0,.06c2.9,8.23,2.41,8.59,2.25,8.71s-.09.2-.11.35a.79.79,0,0,1-.86.86Zm-22.29-24.17c.22,0,.47.3,1.6,1.64,2.19,2.62,6.28,7.5,9.58,8.49l.12,0,0,.12c1.17,3.56,3.17,6.11,5.76,7.37l.08,0,0,.09c.07.15.14.35.23.59.58,1.5,1.65,4.3,3.71,5,.93.34,1.24.29,1.34.23s.11-.18.14-.39a1,1,0,0,1,.26-.65c.11-.58-1.1-4.56-2.37-8.15-.64-1-10.5-15.95-4.44-24.69h0l1.44-2.09c4.2-6.1,8.55-12.42,14-17.57a56.49,56.49,0,0,1,38.06-15.16h.18c4.83,0,8.51.71,11.58,2.22,5.44,2.69,8.76,8,10.58,11.92a40.28,40.28,0,0,1,3.64,18.81,3.89,3.89,0,0,0,.4,2.51c.74,1,2.39.9,3.55.21,1.88-1.11,3.19-3.4,3.58-6.29a30.13,30.13,0,0,0,.12-4.92c0-.9-.06-1.84,0-2.76a56,56,0,0,1,.61-6.37,40.74,40.74,0,0,0,.54-8.49c-.36-4.61-2.3-9-4.19-13.31-2.27-5.15-4.61-10.47-4.15-16.11,0-.17,0-.34,0-.51a6.63,6.63,0,0,0-.07-2.5,6.37,6.37,0,0,0-2.3-2.83c-4.87-4-11.44-8.87-19.06-10.53a56.24,56.24,0,0,0-12.55-.81c-9.4.1-19.12.2-28.26,3l-1.53.49a27.57,27.57,0,0,1-5.7,1.44c-1.91.2-4.54.47-4.76,2.3a3.64,3.64,0,0,0,0,.44,2.45,2.45,0,0,1-.11.86,2.61,2.61,0,0,1-1.68,1.3A36.91,36.91,0,0,0,464,61.58a9.34,9.34,0,0,0-1.69,2.52,10.84,10.84,0,0,0-.56,3.51v.24a72.37,72.37,0,0,1-6.93,27.24c-1.27,2.64-2.69,4-4.35,4.13a2.26,2.26,0,0,1-.56,1.53,2.32,2.32,0,0,1-1,.7,18.83,18.83,0,0,0,6.3,2.58l.18,0,0,.18A28.65,28.65,0,0,1,447.64,127l.07,0,.13.23a14.7,14.7,0,0,1,1.34,3.3c0,.18.08.36.13.54a5.54,5.54,0,0,0,.49,1.53c.11.2.24.39.36.58s.24.37.35.56a11.61,11.61,0,0,1,.65,1.43l2.16,5.36c.15-.5.28-1.05.41-1.63.46-2,.93-4.07,2.75-4.58.61-.17,1-3.67,1.15-5.36.22-2.08.27-2.39.54-2.48Z"/><path d="M479.32,139.05c.29,1.93-1.08,2.85-3,2.7-2.13-.17-3.78-2-4.66-3.79a28.32,28.32,0,0,1-1.64-5.5,39.92,39.92,0,0,0-2.6-7.29c-1-2.17-2.27-4.62-1.39-6.85s4-3.29,6.49-2.56c1.71.5,4,1.85,4.84,3.54" style="fill:#62647a"/><path d="M476.72,141.89l-.42,0c-2.8-.23-4.35-3-4.76-3.86a21.06,21.06,0,0,1-1.37-4.37c-.09-.39-.18-.77-.28-1.16a40,40,0,0,0-2.59-7.26l-.14-.3c-1-2.09-2.11-4.47-1.25-6.65.78-2,3.54-3.55,6.64-2.64,1.86.55,4.15,2,4.92,3.61l-.23.11c-.74-1.58-3-2.94-4.76-3.48-2.31-.68-5.41.16-6.33,2.49-.82,2.08.27,4.4,1.24,6.45l.14.3a40.2,40.2,0,0,1,2.61,7.31c.1.38.19.77.28,1.16a20.92,20.92,0,0,0,1.35,4.32c.39.82,1.89,3.51,4.55,3.72a2.91,2.91,0,0,0,2.43-.7,2.15,2.15,0,0,0,.46-1.85l.25,0a2.39,2.39,0,0,1-.52,2.06A2.94,2.94,0,0,1,476.72,141.89Z"/><path d="M470.18,126.67h-.25a6.63,6.63,0,0,0-.6-2.76c-.09-.19-.18-.38-.28-.57a3.7,3.7,0,0,1-.62-2.46A3.05,3.05,0,0,1,470,119a4.34,4.34,0,0,1,1-.48,5.59,5.59,0,0,1,3.37.5,1.46,1.46,0,0,1,.84.68.54.54,0,0,1,0,.45l-.22-.11a.29.29,0,0,0,0-.24,1.25,1.25,0,0,0-.7-.54,5.24,5.24,0,0,0-3.22-.5,4.14,4.14,0,0,0-1,.46,2.83,2.83,0,0,0-1.47,1.67,3.53,3.53,0,0,0,.6,2.29c.1.19.2.39.29.58A6.87,6.87,0,0,1,470.18,126.67Z"/><path d="M476.58,131.77a7.46,7.46,0,0,0-.94-.89,6.67,6.67,0,0,1-1.08-1.06c-1-1.37-.88-3.24-.64-5,.1-.75.32-1.65,1.06-1.92l.08.23c-.62.22-.81,1-.9,1.72-.23,1.74-.38,3.55.59,4.84a6.51,6.51,0,0,0,1,1,7.52,7.52,0,0,1,1,.92Z"/><path d="M533.26,133.68a12,12,0,0,0-.55-3.89,12.55,12.55,0,0,0-.88-1.73,8,8,0,0,1-1.19-2.86l.5-.07a7.53,7.53,0,0,0,1.13,2.68,12.74,12.74,0,0,1,.91,1.8,12.53,12.53,0,0,1,.59,4.05Z"/><path d="M535.56,143.83l-.49-.09,0-.13a3.72,3.72,0,0,1,1.42-2.8,3.21,3.21,0,0,0,.73-2.43,2.26,2.26,0,0,0-.53-1.17,5.85,5.85,0,0,0-2.42-1.85l.19-.46a6.36,6.36,0,0,1,2.63,2,2.72,2.72,0,0,1,.64,1.43c.08.91-.22,2.42-1,2.89a3.3,3.3,0,0,0-1.2,2.47Z"/><path d="M530.29,143.51c-.1-.51.41-.9.86-1.17l3-1.76a2.06,2.06,0,0,1,1.57-.37,6,6,0,0,1-2.1,2A28,28,0,0,1,530.29,143.51Z"/><path d="M523.42,143.6a6.2,6.2,0,0,0-2.15-2.44,5.28,5.28,0,0,0-2.94-1.28c-.93-.06-2,.38-2.21,1.3C516.12,141.18,519.84,144.33,523.42,143.6Z"/><path d="M513.66,140l-.28-.41a2.35,2.35,0,0,0,.64-.85,3.54,3.54,0,0,1,.58-.85,3.49,3.49,0,0,1,1.86-.77l3.13-.61.1.49-3.13.61a3,3,0,0,0-1.61.64,3.13,3.13,0,0,0-.5.73A2.75,2.75,0,0,1,513.66,140Z"/><path d="M520.83,135.67l-.47-.17c.48-1.34.93-2.7,1.34-4l.48.15C521.76,133,521.31,134.32,520.83,135.67Z"/><path d="M500.37,122.06c1.16-.16,2.23.49,3.36.78a8.73,8.73,0,0,0,2,.2l5,.14a8.56,8.56,0,0,0,2.79-.26,1.73,1.73,0,0,0,.52-.41c-1.53-.67-2.36-2.36-3.76-3.27a6.54,6.54,0,0,0-5.63-.27,12.55,12.55,0,0,0-5.18,3.41A4.41,4.41,0,0,1,500.37,122.06Z" style="fill:#e8e8e8"/><path d="M511.35,123.44h-.65l-5-.14a9,9,0,0,1-2-.21c-.36-.09-.72-.22-1.06-.35a4.67,4.67,0,0,0-2.21-.43h0a4.08,4.08,0,0,0-.86.29.25.25,0,0,1-.29-.39,12.78,12.78,0,0,1,5.28-3.48c1.32-.45,3.83-1,5.85.3a9.09,9.09,0,0,1,1.67,1.54,6.42,6.42,0,0,0,2.06,1.71.25.25,0,0,1,.09.4,1.85,1.85,0,0,1-.63.48A7.38,7.38,0,0,1,511.35,123.44Zm-10.61-1.66a6.05,6.05,0,0,1,2,.48c.33.12.68.24,1,.33a8.56,8.56,0,0,0,1.89.19l5,.14a8.36,8.36,0,0,0,2.71-.25.63.63,0,0,0,.17-.11,7.9,7.9,0,0,1-1.9-1.67,8.74,8.74,0,0,0-1.57-1.46c-1.84-1.2-4.18-.67-5.42-.25a12.31,12.31,0,0,0-4.35,2.61Z"/><path d="M548.58,121.43a8.22,8.22,0,0,0-2.33-2.28,6.53,6.53,0,0,0-3.89-.54,11.52,11.52,0,0,0-7.76,3.92s-.09.28,0,.31c2.41.62,5.69-.17,8.16.05.44,0,.88.1,1.32.11a8.89,8.89,0,0,0,4.5-1.57" style="fill:#e8e8e8"/><path d="M536.91,123.33a9.62,9.62,0,0,1-2.37-.25l-.1,0-.08-.12a.62.62,0,0,1,0-.48l0-.08a11.77,11.77,0,0,1,7.93-4,6.66,6.66,0,0,1,4,.57,8.47,8.47,0,0,1,2.41,2.34l.16.2-.2.15a9.19,9.19,0,0,1-4.66,1.62c-.32,0-.63,0-.95-.07l-.39,0a22.06,22.06,0,0,0-3.33.07C538.58,123.27,537.73,123.33,536.91,123.33Zm-2.08-.69a16.46,16.46,0,0,0,4.54.08,22.29,22.29,0,0,1,3.41-.07l.39,0c.3,0,.6.06.91.07h.07a8.9,8.9,0,0,0,4.07-1.37,7.45,7.45,0,0,0-2.1-2,6.21,6.21,0,0,0-3.74-.51A11.3,11.3,0,0,0,534.83,122.64Z"/><g style="opacity:0.2"><path d="M519.78,116h-.06a30.15,30.15,0,0,1-6.38-1.3c-2.64-.74-5.14-1.45-7.67-1.18a21.06,21.06,0,0,0-2.29.42l-5.55,1.22a1,1,0,0,1-.43-2l5.55-1.22a22.58,22.58,0,0,1,2.51-.45c2.92-.3,5.72.48,8.42,1.25a28.24,28.24,0,0,0,6,1.23,1,1,0,0,1-.06,2Z"/></g><g style="opacity:0.2"><path d="M534.64,115.1a1,1,0,0,1-.47-1.88c2.36-1.26,5-1.51,7.77-1.67a32.33,32.33,0,0,1,5.61,0,35.27,35.27,0,0,1,3.64.68,1,1,0,0,1,.76,1.19,1,1,0,0,1-1.19.76,33.6,33.6,0,0,0-3.44-.64,31.1,31.1,0,0,0-5.27,0,16.69,16.69,0,0,0-6.94,1.43A1,1,0,0,1,534.64,115.1Z"/></g><g style="clip-path:url(#clip-path-2)"><circle cx="508.82" cy="120.63" r="3.06"/><circle cx="509.27" cy="120.39" r="1.08" style="fill:#fff"/></g><g style="clip-path:url(#clip-path-3)"><circle cx="543.03" cy="120.63" r="3.06"/><circle cx="543.48" cy="120.39" r="1.08" style="fill:#fff"/></g><path d="M525.51,156.13l-.27-.41a12,12,0,0,0-1.87-1.85,2.28,2.28,0,0,0-.81-.47,2.45,2.45,0,0,0-1,0c-1.08.19-2.18.46-3.25.71a24.33,24.33,0,0,1-7,1l-.91-.07a6,6,0,0,0-3.41.32l-.24-.44a6.35,6.35,0,0,1,3.7-.38l.9.07a23.39,23.39,0,0,0,6.83-1c1.07-.26,2.18-.53,3.28-.72a2.84,2.84,0,0,1,1.2,0,2.69,2.69,0,0,1,1,.56,12.43,12.43,0,0,1,2,1.95v0a8.56,8.56,0,0,1,4.89-1.72,6.62,6.62,0,0,1,2.71.78l.3.15a6.05,6.05,0,0,0,.93.42,5.78,5.78,0,0,0,2.18.14c1.25-.08,2.51-.19,3.75-.34l.06.5c-1.24.15-2.51.26-3.77.34a6.23,6.23,0,0,1-2.37-.17,6.55,6.55,0,0,1-1-.46L533,155a6.12,6.12,0,0,0-2.5-.73c-1.74-.09-3.08.69-4.81,1.78Z"/><path d="M527.51,166.07a9.22,9.22,0,0,1-2.09-.24l-.66-.17c-.29-.08-.57-.16-.86-.21a13.38,13.38,0,0,0-3.56-.05,11.25,11.25,0,0,1-4.37-.25,8,8,0,0,1-2.22-1.2,27.53,27.53,0,0,1-3.16-2.86,21.69,21.69,0,0,0-3.91-3.35l.26-.43a22.06,22.06,0,0,1,4,3.42,27.18,27.18,0,0,0,3.1,2.81,7.51,7.51,0,0,0,2.08,1.13,10.69,10.69,0,0,0,4.18.22A13.71,13.71,0,0,1,524,165c.3.06.6.14.89.22l.64.17a8.91,8.91,0,0,0,6.51-1,18.09,18.09,0,0,0,3.93-3.57,19.48,19.48,0,0,1,3.83-3.53l.27.42a19.12,19.12,0,0,0-3.73,3.44,18.44,18.44,0,0,1-4,3.66A9.41,9.41,0,0,1,527.51,166.07Z"/><path d="M525.41,159a4.51,4.51,0,0,1-1.58-.26,7.56,7.56,0,0,1-.74-.33l-.51-.24a8,8,0,0,0-4-.34l-1.14.15a18.2,18.2,0,0,1-3.09.26,17.58,17.58,0,0,1-2.59-.34,29.43,29.43,0,0,1-4-.94l.16-.47a28.87,28.87,0,0,0,3.95.92,17.12,17.12,0,0,0,2.52.34,17.73,17.73,0,0,0,3-.25l1.16-.16a8.44,8.44,0,0,1,4.28.38l.54.25a7,7,0,0,0,.69.31,6.21,6.21,0,0,0,3.79-.17l.6-.18a10.55,10.55,0,0,1,3.4-.61c.28,0,.55,0,.83.08l.57.07a13.9,13.9,0,0,0,5.76-1.22l.17.47a14.09,14.09,0,0,1-6,1.25l-.59-.07c-.26,0-.52-.07-.79-.08a10,10,0,0,0-3.23.59l-.61.18A9.31,9.31,0,0,1,525.41,159Z"/><path d="M471.92,97.18a8,8,0,0,1-1.67-.2,8.64,8.64,0,0,1-5.18-3.07,12.93,12.93,0,0,1-1.54-3.1,27.17,27.17,0,0,1-1.7-5.46,23.41,23.41,0,0,1-.23-3.79c0-2.39.12-4.8.33-7.16l.25,0c-.21,2.35-.32,4.75-.33,7.13a23.17,23.17,0,0,0,.23,3.75,27,27,0,0,0,1.68,5.41,12.72,12.72,0,0,0,1.51,3,8.39,8.39,0,0,0,5,3,6.17,6.17,0,0,0,2.57.1,8.37,8.37,0,0,0,2.6-1.22l7.34-4.53a16.77,16.77,0,0,0,5-4.11c.28-.38.52-.8.76-1.2s.48-.82.76-1.2a17.81,17.81,0,0,1,2.68-2.78c1.51-1.35,2.93-2.63,3.48-4.47l.24.07c-.57,1.91-2.09,3.27-3.56,4.59a17.68,17.68,0,0,0-2.64,2.73c-.27.38-.51.79-.75,1.19s-.49.83-.77,1.22a16.94,16.94,0,0,1-5.12,4.18l-7.34,4.53a8.68,8.68,0,0,1-2.68,1.25A4.89,4.89,0,0,1,471.92,97.18Z"/><path d="M474.6,80.4l-.37,0a5,5,0,0,1-1.51-.56A63.52,63.52,0,0,1,462,73.57l.15-.2a63.37,63.37,0,0,0,10.7,6.22,4.81,4.81,0,0,0,1.44.53,3.58,3.58,0,0,0,2.11-.47,6.41,6.41,0,0,0,2.86-2.7,10.67,10.67,0,0,0,.88-3.3,15.94,15.94,0,0,1,.5-2.4A10.91,10.91,0,0,1,482,68.44a8.79,8.79,0,0,1,3.59-3.32,11.62,11.62,0,0,1,4.29-.71l.52,0A88.38,88.38,0,0,0,500,63.26a89.69,89.69,0,0,1,9.48-1.13l.71,0a15.21,15.21,0,0,0,4.22-.56l.08.24a15.4,15.4,0,0,1-4.29.58l-.71,0A89.43,89.43,0,0,0,500,63.51a88.66,88.66,0,0,1-9.58,1.13l-.52,0a11.45,11.45,0,0,0-4.2.69,8.56,8.56,0,0,0-3.49,3.23,10.67,10.67,0,0,0-1.4,2.75,15.69,15.69,0,0,0-.49,2.36,10.87,10.87,0,0,1-.9,3.38,6.67,6.67,0,0,1-3,2.81A4.24,4.24,0,0,1,474.6,80.4Z"/><path d="M517.13,61.69a11.69,11.69,0,0,0-3.21-3.92A23.57,23.57,0,0,0,511,55.94a33.12,33.12,0,0,0-8-3.68,11.08,11.08,0,0,0-8.52.92l-.13-.21A11.33,11.33,0,0,1,503,52a33.28,33.28,0,0,1,8.11,3.7,23.71,23.71,0,0,1,2.92,1.86,12,12,0,0,1,3.28,4Z"/><path d="M500.17,76c-.88,0-1.76-.07-2.62-.13l-.88-.06a101.8,101.8,0,0,0-10.47,0l-3.85.14v-.25l3.85-.14a103.16,103.16,0,0,1,10.5,0l.88.06a22.93,22.93,0,0,0,4,.07,23.24,23.24,0,0,0,2.84-.53,13.55,13.55,0,0,1,4.8-.52l0,.25a13.48,13.48,0,0,0-4.71.52,23.45,23.45,0,0,1-2.87.54A13.61,13.61,0,0,1,500.17,76Z"/><path d="M542.89,80.61a6.83,6.83,0,0,0-2.58-1.71l-5.73-2.65a33.39,33.39,0,0,0-7.46-2.75,27.53,27.53,0,0,0-8.06-.11,76,76,0,0,0-23.83,6.49l-.1-.23A76.18,76.18,0,0,1,519,73.14a27.64,27.64,0,0,1,8.13.11A33.64,33.64,0,0,1,534.68,76l5.73,2.65a7,7,0,0,1,2.67,1.78Z"/><path d="M559,87.12a18.79,18.79,0,0,0-1.81-5.36,18.8,18.8,0,0,0-1.11-1.63,17.4,17.4,0,0,1-1.22-1.82,17.37,17.37,0,0,1-1.11-2.65,21.27,21.27,0,0,0-.85-2.14,19,19,0,0,0-1.06-1.84c-1.76-2.78-3.8-5.58-6.73-7.19-2.56-1.4-5.62-1.75-8.32-2.07a9.29,9.29,0,0,0-3.58.06l-.07-.24a9.42,9.42,0,0,1,3.67-.06c2.72.31,5.81.67,8.41,2.09,3,1.63,5,4.46,6.82,7.27a18.68,18.68,0,0,1,1.07,1.87,21.27,21.27,0,0,1,.86,2.17,17.24,17.24,0,0,0,1.09,2.61A17.25,17.25,0,0,0,556.28,80a19,19,0,0,1,1.13,1.65,19,19,0,0,1,1.84,5.43Z"/><path d="M552.4,60.82a14,14,0,0,1-4.15-1.57l-.86-.43a31.05,31.05,0,0,0-13.54-3.12h-.59v-.25a31.21,31.21,0,0,1,14.24,3.14l.87.43a13.83,13.83,0,0,0,4.07,1.55Z"/><path d="M544.74,72.06a27.15,27.15,0,0,1-7.5-1.83,27.29,27.29,0,0,1-5.07-3.31l.15-.2a27.07,27.07,0,0,0,5,3.28,27,27,0,0,0,7.44,1.81Z"/><path d="M552.32,83.5a46.65,46.65,0,0,1-11.15-9.43l.19-.16a46.42,46.42,0,0,0,11.09,9.38Z"/><path d="M489.09,72l0-.25a74,74,0,0,1,12-.2l.42,0a15.71,15.71,0,0,0,4.22-.09l.05.24a15.9,15.9,0,0,1-4.29.09l-.42,0A74,74,0,0,0,489.09,72Z"/><path d="M502.73,69.73A31.8,31.8,0,0,1,495.34,68a2,2,0,0,1-1-.61l.2-.15a1.79,1.79,0,0,0,.86.52,31.57,31.57,0,0,0,7.33,1.76Z"/><path d="M484.59,58.93a4.67,4.67,0,0,1-3.79-1.64l.2-.15a4.67,4.67,0,0,0,4.2,1.51,14.75,14.75,0,0,0,3.95-1.2l.58-.24a10.22,10.22,0,0,1,4.71-1l0,.25a10.15,10.15,0,0,0-4.59,1l-.58.23a14.88,14.88,0,0,1-4,1.21A6.07,6.07,0,0,1,484.59,58.93Z"/><path d="M485.9,61.44a12.78,12.78,0,0,1-3.35-.41l.06-.24c2.61.71,5.39.33,8.07,0a22.08,22.08,0,0,1,7.77-.14l-.05.24a21.82,21.82,0,0,0-7.68.15A36,36,0,0,1,485.9,61.44Z"/><path d="M504.18,60.22l-.23-.11a1.47,1.47,0,0,0,0-1.1,4.53,4.53,0,0,0-.61-1,8.16,8.16,0,0,0-3.09-2.85l.13-.21a8.4,8.4,0,0,1,3.16,2.91,4.75,4.75,0,0,1,.64,1.08A1.68,1.68,0,0,1,504.18,60.22Z"/><path d="M466.53,113.44A65.58,65.58,0,0,1,467,98.31l.25,0a65.26,65.26,0,0,0-.44,15.07Z"/><path d="M471.81,104.09a.16.16,0,0,1-.11,0s-.12-.15,0-.35l3-4.44.21.14-3,4.42.06,0a.19.19,0,0,1-.08.22Zm0-.25h0s0,.08,0,.08l.09,0v-.05Z"/><path d="M472.34,111.68l-.2-.15a29.08,29.08,0,0,0,2.46-4.42c.28-.58.57-1.19.87-1.77A37.6,37.6,0,0,1,479.61,99a75.35,75.35,0,0,1,7.55-7.72l.17.18a75.17,75.17,0,0,0-7.53,7.7,37.31,37.31,0,0,0-4.11,6.32c-.3.58-.59,1.18-.87,1.76A29.34,29.34,0,0,1,472.34,111.68Z"/><path d="M492.37,89.57l-.2-.15c1.68-2.28,4.31-3.54,6.85-4.76.92-.44,1.87-.9,2.76-1.39.68-.38,1.36-.8,2-1.21.46-.29.91-.57,1.37-.84a34.21,34.21,0,0,1,18.1-4.72v.25a33.89,33.89,0,0,0-18,4.69l-1.37.84c-.66.41-1.33.84-2,1.22-.9.5-1.85,1-2.77,1.4C496.61,86.09,494,87.34,492.37,89.57Z"/><path d="M555.24,96a13.16,13.16,0,0,0-2.94-5,35.24,35.24,0,0,0-4.36-3.92l.16-.2a35.38,35.38,0,0,1,4.38,3.95,13.4,13.4,0,0,1,3,5.08Z"/><path d="M556.43,109.66l-.2-.14a9.28,9.28,0,0,0,1.26-4.32c0-.32.08-.64.13-1a43.2,43.2,0,0,1,1.12-4.95,28.9,28.9,0,0,0,1.29-7.2h.25a29.12,29.12,0,0,1-1.3,7.26,42.91,42.91,0,0,0-1.12,4.92c0,.31-.09.63-.13,1A9.46,9.46,0,0,1,556.43,109.66Z"/><path d="M554.39,90.48a6.38,6.38,0,0,1-1.71-1.65,11,11,0,0,0-.91-1,10.65,10.65,0,0,0-.94-.77c-.22-.17-.45-.34-.66-.52a3.64,3.64,0,0,1-1.24-1.71l.24-.07a3.4,3.4,0,0,0,1.17,1.59c.21.18.44.35.65.51a10.68,10.68,0,0,1,1,.79,11.1,11.1,0,0,1,.93,1.06,6.11,6.11,0,0,0,1.64,1.59Z"/><path d="M493.19,48.71l-.11-.22A38.61,38.61,0,0,1,496.77,47a42.36,42.36,0,0,1,10.75-2.87,38.21,38.21,0,0,1,6.93.22,31.07,31.07,0,0,1,6,1.06,11.83,11.83,0,0,1,5.27,3.11l-.18.17a11.59,11.59,0,0,0-5.16-3,31,31,0,0,0-6-1,37.47,37.47,0,0,0-6.88-.22,42.12,42.12,0,0,0-10.69,2.86A38.42,38.42,0,0,0,493.19,48.71Z"/><path d="M525.27,55a21,21,0,0,0-6.52-5.54,10.15,10.15,0,0,0-6.91-1.44l-.05-.24a10.38,10.38,0,0,1,7.08,1.46,21.29,21.29,0,0,1,6.6,5.6Z"/><path d="M477,67.46a28,28,0,0,1-3.75-5.94,6.88,6.88,0,0,1-.66-2,2.8,2.8,0,0,1,.46-2.06l.2.15a2.56,2.56,0,0,0-.42,1.88,6.66,6.66,0,0,0,.64,1.92,27.81,27.81,0,0,0,3.71,5.88Z"/><path d="M478.46,66a15.19,15.19,0,0,1-3.14-4.5,3.47,3.47,0,0,1-.44-1.15,3,3,0,0,1,.42-1.72l.22.11a2.82,2.82,0,0,0-.39,1.58,3.24,3.24,0,0,0,.41,1.06,15,15,0,0,0,3.08,4.43Z"/><path d="M457.75,109.1c-.39-2.18.87-4.32,1.88-6,1.54-2.62,3-5.3,4.38-8l.22.11c-1.37,2.69-2.84,5.38-4.38,8-1,1.68-2.23,3.78-1.85,5.87Z"/><path d="M463.24,126.13a10.8,10.8,0,0,1-4.32-6.53,14.61,14.61,0,0,1,.52-7.87l.24.08a14.36,14.36,0,0,0-.51,7.74,10.54,10.54,0,0,0,4.21,6.38Z"/><path d="M464,124.4c-2.23-4.61-2.28-10-2.12-13.57h.25c-.16,3.59-.12,8.9,2.09,13.45Z"/><path d="M520.05,64.09a14.83,14.83,0,0,0-3.73-9l-.13-.16a4.66,4.66,0,0,1-1.26-2.2l.25,0a4.45,4.45,0,0,0,1.2,2.08l.13.16a15.08,15.08,0,0,1,3.79,9.2Z"/><path d="M523.58,70.85l-.2-.15a5.8,5.8,0,0,0,1.19-4.12,11.81,11.81,0,0,0-1.29-3.76A11.66,11.66,0,0,1,522,58.86a2.66,2.66,0,0,1,.18-1.36,1.37,1.37,0,0,1,1.12-.83v.25a1.12,1.12,0,0,0-.9.69,2.4,2.4,0,0,0-.16,1.24,11.44,11.44,0,0,0,1.3,3.86,12,12,0,0,1,1.32,3.84A6.06,6.06,0,0,1,523.58,70.85Z"/><path d="M516.53,70.05l-.23-.1a11.1,11.1,0,0,0,.76-5.51l.25,0A11.35,11.35,0,0,1,516.53,70.05Z"/><path d="M533.4,50.08A10.56,10.56,0,0,0,523,43.56l0-.25A10.82,10.82,0,0,1,533.63,50Z"/><path d="M538.91,52l-.24-.05a6.89,6.89,0,0,0-2.27-6.52l.16-.19A7.14,7.14,0,0,1,538.91,52Z"/><path d="M541.39,52.73l-.18-.18a3.85,3.85,0,0,0,.62-4.41L542,48A4.1,4.1,0,0,1,541.39,52.73Z"/><path d="M537.23,72.36c-2.48-.37-4.58-1.94-6.42-3.32a6.58,6.58,0,0,1-1.38-1.25,6.51,6.51,0,0,1-.7-1.31,7.57,7.57,0,0,0-.56-1.09l.21-.14a7.65,7.65,0,0,1,.58,1.13,4.73,4.73,0,0,0,2,2.46c1.83,1.37,3.89,2.92,6.31,3.27Z"/><path d="M523.75,144c.51.26.8,1,1.32,1.26a3.17,3.17,0,0,0,2.68.18c.72-.31,1.08-1.39,1.84-1.53.16,0,.09-.27-.07-.24a1.39,1.39,0,0,0-.87.52c-.62.65-.86,1.16-1.85,1.22a2.59,2.59,0,0,1-2-.73c-.32-.31-.49-.68-.89-.89-.14-.07-.27.14-.13.22Z"/></g></g><g id="Man-2" data-name="Man"><g id="Body-5" data-name="Body"><path d="M237.89,155.46c2.92,5.93,9.52,8.92,15.62,11.46l28.05,11.67a85.13,85.13,0,0,1,12.6,6.07c16.14,10.09,23.72,29.94,25.15,48.92.53,7.07.36,14.2,1.23,21.24,1.33,10.83,5,21.2,7.49,31.83,1.52,6.61,2.55,13.36,4.9,19.72,2,5.4,4.93,10.45,6.62,16,3.11,10.12,1.82,21,.51,31.5,0,1.34,1.24,9.07,1.42,10.09,1,5.73-10.87,24.5-10.87,24.5V400h-279c-6.7-18.53-7.48-38.79-5.13-58.36s7.71-38.63,13.06-57.59L68,254c5.71-20.27,11.79-41.24,25.44-57.27,12.73-14.94,30.91-24.17,49.34-30.94,10.84-4,22.46-7.29,33.83-5.26Z" style="fill:#e6edee"/><path d="M330.86,400.29H51.46l-.06-.17c-6.06-16.76-7.79-36.43-5.14-58.47,2.35-19.63,7.8-39,13.06-57.63l8.48-30.1c5.42-19.22,11.56-41,25.49-57.37,10.87-12.76,26.58-22.61,49.44-31,10.25-3.77,22.3-7.34,33.93-5.28L238,155.2l.08.15c2.8,5.68,8.92,8.61,15.49,11.34l28.05,11.67a85.61,85.61,0,0,1,12.64,6.09c14.39,9,23.6,26.9,25.27,49.11.22,2.87.32,5.79.42,8.61.15,4.15.3,8.43.81,12.61.86,7,2.77,14,4.61,20.72,1,3.62,2,7.37,2.87,11.08.41,1.78.79,3.59,1.15,5.34a100.38,100.38,0,0,0,3.74,14.34c.86,2.31,1.9,4.6,2.92,6.81a75.9,75.9,0,0,1,3.71,9.16c3.18,10.35,1.76,21.64.52,31.61,0,1.26,1.21,8.81,1.41,10,1,5.65-10,23.23-10.87,24.61Zm-279-.5H330.36V388.35l0-.06c.12-.19,11.77-18.75,10.84-24.32-.14-.86-1.37-8.75-1.42-10.13,1.24-10,2.65-21.2-.5-31.44a75.42,75.42,0,0,0-3.69-9.1c-1-2.22-2.07-4.52-2.93-6.85A100.57,100.57,0,0,1,328.93,292c-.37-1.75-.74-3.57-1.15-5.34-.85-3.71-1.88-7.45-2.87-11.06-1.85-6.75-3.76-13.73-4.63-20.79-.51-4.2-.67-8.5-.81-12.66-.1-2.82-.2-5.74-.42-8.59-1.66-22.05-10.78-39.81-25-48.73a85.27,85.27,0,0,0-12.56-6.05l-28.05-11.67c-6.6-2.75-12.77-5.69-15.67-11.43l-61.09,5.05h0c-11.52-2.05-23.5,1.5-33.7,5.25-22.78,8.37-38.42,18.17-49.23,30.87-13.87,16.28-20,38-25.39,57.18l-8.48,30.1c-5.26,18.66-10.7,38-13,57.55C44.13,363.6,45.83,383.13,51.81,399.79Z"/><path d="M130,201.84a13.31,13.31,0,0,0,11.34-3.42c2.94-2.8,4.57-6.94,8-9.07,1.28-.79,2.82-1.3,3.69-2.53a3.86,3.86,0,0,0,.37-.65A10.29,10.29,0,0,0,154,184c1.94-9.67,5.77-18.84,9.57-27.93a25.07,25.07,0,0,1,3.06-5.82c2.28-3,5.72-4.72,9.05-6.4l.48.51.18,0c1,0,1.22-1.77.32-2.34s-2.19-.2-3.23.22c-3.83,1.53-7.73,3.18-10.72,6a32.51,32.51,0,0,0-4.66,6q-6,9.32-11.45,19a108.23,108.23,0,0,1-5.71,9.62C136.65,189,130.76,194.51,130,201.84Z" style="fill:#e6edee"/><path d="M132.17,202.29a12.82,12.82,0,0,1-2.26-.2l-.23,0,0-.23c.61-5.64,4.23-10.26,7.72-14.72,1.09-1.4,2.22-2.84,3.24-4.29a93.12,93.12,0,0,0,5-8.39l.67-1.21c3.58-6.44,7.43-12.85,11.46-19.05a32.73,32.73,0,0,1,4.7-6.07c2.95-2.8,6.79-4.47,10.8-6.07,1.13-.46,2.43-.84,3.45-.2a1.7,1.7,0,0,1,.6,1.89,1.13,1.13,0,0,1-1.27.89H176l-.41-.44c-3.09,1.56-6.55,3.34-8.8,6.25a25,25,0,0,0-3,5.76c-3.75,9-7.62,18.22-9.56,27.88l0,.15a9.65,9.65,0,0,1-.59,2.09,4,4,0,0,1-.39.69,7.07,7.07,0,0,1-2.66,2c-.37.19-.75.39-1.1.61a17.62,17.62,0,0,0-4.79,5.12,27.28,27.28,0,0,1-3.2,3.92A13.59,13.59,0,0,1,132.17,202.29Zm-1.94-.65a13.06,13.06,0,0,0,10.89-3.39,26.9,26.9,0,0,0,3.14-3.85,18.25,18.25,0,0,1,4.93-5.25c.37-.23.75-.43,1.13-.63a6.6,6.6,0,0,0,2.49-1.83,3.55,3.55,0,0,0,.35-.61,9.3,9.3,0,0,0,.55-2l0-.15c1.95-9.71,5.83-19,9.58-28a25.38,25.38,0,0,1,3.09-5.88c2.36-3.05,6-4.87,9.13-6.47l.17-.08.55.58c.4,0,.59-.41.63-.55a1.21,1.21,0,0,0-.38-1.33c-.84-.52-2-.17-3,.24-4,1.58-7.76,3.23-10.64,6a32.37,32.37,0,0,0-4.62,6c-4,6.2-7.87,12.6-11.44,19l-.67,1.21a93.92,93.92,0,0,1-5.05,8.43c-1,1.46-2.16,2.91-3.25,4.31C134.42,191.75,130.91,196.24,130.23,201.64Z"/><path d="M216,295.39l-.46-.19c6.25-14.91,9.64-33.5,11.88-48a35.46,35.46,0,0,0,.34-11.55l-.06-.65c-.46-5.08-.74-10.25-.84-15.35a20.9,20.9,0,0,1,.59-6.46c.77-2.55,2.46-4.93,5.31-7.5a78.14,78.14,0,0,1,10.46-7.53c2.34-1.5,4.76-3,7-4.72a58.82,58.82,0,0,0,11.46-11.26l.4.3a59.35,59.35,0,0,1-11.55,11.36c-2.27,1.69-4.7,3.24-7,4.74a77.68,77.68,0,0,0-10.4,7.48c-2.78,2.51-4.42,4.82-5.16,7.28a20.19,20.19,0,0,0-.57,6.3c.1,5.09.38,10.24.84,15.31l.06.64a35.91,35.91,0,0,1-.34,11.66C225.63,261.8,222.24,280.43,216,295.39Z"/><path d="M222.06,334.94c-3.23-6.4-4.55-13.19-5.41-19l.49-.07c.86,5.76,2.17,12.5,5.37,18.83Z"/><path d="M153.14,186.21c0-.11,0-.22,0-.32s0-.25-.05-.37l.5-.06c0,.12,0,.24.05.36s0,.22,0,.33Z"/><path d="M224.9,404.41a205.48,205.48,0,0,1-1.36-42.6q.1-1.38.21-2.77c.56-7.12,1.14-14.49-1-21.31l.48-.15c2.15,6.91,1.57,14.33,1,21.5q-.11,1.39-.21,2.77a205,205,0,0,0,1.35,42.5Z"/><path d="M216.95,319.27l-.5,0c.09-1.19.16-2.32.2-3.33l.5,0C217.11,316.94,217,318.07,216.95,319.27Z"/><polygon points="176.11 144.49 175.14 142.82 175.57 142.57 176.54 144.24 176.11 144.49"/><path d="M231.61,142.7c8.81,4.35,14.65,12.88,20.1,21.05,3.29,4.94,6.64,10,7.94,15.8a8.72,8.72,0,0,1-.2,5.57c6.36,2.14,11.25,7.54,17.66,9.51a18.11,18.11,0,0,0,12-.5c-16.56-11.67-25.24-31.95-41.31-44.28a25.48,25.48,0,0,0-9.63-5Z" style="fill:#e6edee"/><path d="M282.37,195.66a18.19,18.19,0,0,1-5.33-.8,36.36,36.36,0,0,1-9.12-4.85,37.86,37.86,0,0,0-8.55-4.65l-.26-.09.12-.25a8.27,8.27,0,0,0,.19-5.41c-1.31-5.82-4.81-11.08-7.91-15.72-4.91-7.37-11-16.53-20-21l.19-.46,6.51,2.14a25.34,25.34,0,0,1,9.71,5c7.77,6,13.91,13.9,19.85,21.57,6.35,8.2,12.91,16.68,21.45,22.71l.38.26-.43.17A18.22,18.22,0,0,1,282.37,195.66ZM259.78,185a39.44,39.44,0,0,1,8.41,4.62,35.93,35.93,0,0,0,9,4.79,17.75,17.75,0,0,0,11.35-.33c-8.42-6-14.9-14.43-21.18-22.54-5.92-7.65-12-15.55-19.76-21.48a24.9,24.9,0,0,0-9.54-5l-4-1.32c7.84,4.81,13.35,13.08,17.86,19.84,3.12,4.68,6.65,10,8,15.89A9,9,0,0,1,259.78,185Z"/><path d="M153.39,186.17c1.12,6.45,5.9,13.12,10.39,17.8q8.3,8.66,16.34,17.54A143.81,143.81,0,0,1,191,234.57c10.51,14.82,15.52,32.73,20.36,50.24.92,3.34,1.84,6.68,2.55,10.07,1.43,6.9,2,14.05,3,21a97,97,0,0,0-.33-13.77,247.75,247.75,0,0,0-18.91-78.33c-4.68-11-10.21-21.81-17.78-31.1-3.27-4-7.07-8.08-7.81-13.21a17.89,17.89,0,0,1,.42-6.39c1.5-6.71,10.68-16.57,15.92-21l-12.08-7.72-.18,0-.48-.51c-3.33,1.68-6.77,3.45-9.05,6.4a25.07,25.07,0,0,0-3.06,5.82c-3.8,9.09-7.63,18.26-9.57,27.93A10.29,10.29,0,0,1,153.39,186.17Z" style="fill:#d8d8d8"/><path d="M216.65,316c-.37-2.5-.69-5.06-1-7.54-.55-4.45-1.12-9.05-2-13.48-.71-3.37-1.63-6.74-2.54-10-4.8-17.37-9.75-35.28-20.33-50.21a143.08,143.08,0,0,0-10.82-13c-5.17-5.72-10.67-11.62-16.34-17.54-2.7-2.81-9.11-10.18-10.46-17.93v-.08l0-.07a9.32,9.32,0,0,0,.55-2l0-.15c1.95-9.71,5.83-19,9.58-28a25.34,25.34,0,0,1,3.09-5.88c2.36-3.05,6-4.87,9.13-6.47l.17-.08.55.58h.13l.06,0,12.36,7.9-.26.22c-5.73,4.87-14.42,14.58-15.83,20.89a17.36,17.36,0,0,0-.42,6.3C173,184,176,187.64,179,191.2l1.11,1.35c6.54,8,12.2,17.93,17.82,31.16a247,247,0,0,1,18.93,78.41,98,98,0,0,1,.33,13.8Zm-63-129.75C155,193.79,161.3,201,164,203.8c5.67,5.92,11.17,11.82,16.35,17.54a143.61,143.61,0,0,1,10.86,13.08c10.63,15,15.6,33,20.4,50.32.91,3.32,1.85,6.7,2.55,10.08.92,4.44,1.49,9.06,2,13.52.19,1.52.38,3.06.58,4.61a94.66,94.66,0,0,0-.42-10.79,246.5,246.5,0,0,0-18.89-78.26c-5.6-13.19-11.23-23.05-17.74-31l-1.11-1.35c-3-3.62-6.08-7.36-6.75-12a17.86,17.86,0,0,1,.42-6.48c1.49-6.68,10.33-16.28,15.74-20.95l-11.74-7.5-.14,0H176l-.41-.44c-3.09,1.56-6.55,3.34-8.8,6.25a25,25,0,0,0-3,5.76c-3.75,9-7.62,18.22-9.56,27.88l0,.15A10,10,0,0,1,153.65,186.2Z"/><path d="M232.72,206l.18-.17c5.28-4.77,11.75-8,17.46-12.24a58.82,58.82,0,0,0,9.16-8.47l-.07,0a8.69,8.69,0,0,0,.2-5.57c-1.3-5.79-4.65-10.87-7.94-15.81-3.54-5.3-7.24-10.76-11.81-15.13a41,41,0,0,0,.22,6.07c.69,6,3.05,11.66,3.48,17.64C244.44,184.25,237.7,195.06,232.72,206Z" style="fill:#d8d8d8"/><path d="M231.9,207.2l.58-1.28c.92-2,1.91-4.07,2.87-6,4.26-8.78,8.67-17.86,8-27.53a55.47,55.47,0,0,0-1.79-9.41,64.47,64.47,0,0,1-1.69-8.22,41.19,41.19,0,0,1-.22-6.11l0-.56.41.39c4.74,4.53,8.68,10.43,11.85,15.17s6.65,10,8,15.89a9.1,9.1,0,0,1-.08,5.4h.29l-.4.41a59.09,59.09,0,0,1-9.2,8.51c-2.27,1.69-4.69,3.24-7,4.74a77.75,77.75,0,0,0-10.4,7.49l-.09.08-.08.08Zm8.23-58a39.52,39.52,0,0,0,.23,5.46,64.22,64.22,0,0,0,1.68,8.16,55.77,55.77,0,0,1,1.8,9.49c.69,9.8-3.75,18.94-8,27.79-.79,1.62-1.6,3.29-2.37,4.94a84.37,84.37,0,0,1,9.75-6.91c2.34-1.49,4.75-3,7-4.72a58.62,58.62,0,0,0,8.93-8.22l.08-.18a8.26,8.26,0,0,0,.18-5.41c-1.31-5.82-4.81-11.08-7.9-15.73S244.65,153.63,240.13,149.19Z"/><path d="M211,331.91l1.67.35a2.18,2.18,0,0,1,1.85,1.5,5.73,5.73,0,0,1,.77,1.9A4.11,4.11,0,0,1,213.9,339a3.77,3.77,0,0,1-1,.77,4.1,4.1,0,0,1-3.71-.51,3.72,3.72,0,0,1-1.19-1,3.5,3.5,0,0,1-.52-1.29,4.81,4.81,0,0,1,.44-3.52A3,3,0,0,1,211,332" style="fill:#706e6e"/><path d="M234.85,227.52a7.86,7.86,0,0,1,2,.8,3.44,3.44,0,0,1,1.43,1.58,3.54,3.54,0,0,1,.19,1.77,4.07,4.07,0,0,1-.82,2.05,2.86,2.86,0,0,1-1.9,1.08,3.32,3.32,0,0,1-1.64-.31,4.2,4.2,0,0,1-1.89-1.57,3.15,3.15,0,0,1-.43-2.39,3.4,3.4,0,0,1,.42-1,4.45,4.45,0,0,1,2.51-1.91" style="fill:#706e6e"/><path d="M225.57,281.67a7.86,7.86,0,0,1,2-.75,3.44,3.44,0,0,1,2.12.21,3.54,3.54,0,0,1,1.33,1.19,4.07,4.07,0,0,1,.76,2.07,2.86,2.86,0,0,1-.69,2.07,3.32,3.32,0,0,1-1.42.87,4.2,4.2,0,0,1-2.46.1,3.15,3.15,0,0,1-1.92-1.49,3.4,3.4,0,0,1-.33-1,4.45,4.45,0,0,1,.58-3.1" style="fill:#706e6e"/><path d="M266.33,265.33l-.24-.08a316.31,316.31,0,0,0,14.12-60l.25,0A316.48,316.48,0,0,1,266.33,265.33Z"/><path d="M307.87,335.28l-.24-.05a496.46,496.46,0,0,0,10-65l.25,0A496.78,496.78,0,0,1,307.87,335.28Z"/><path d="M295.87,281.34l-.19-.16a237.24,237.24,0,0,0,16.29-22l.21.14A237.27,237.27,0,0,1,295.87,281.34Z"/><polygon points="295.67 270.75 295.46 270.61 306.98 254.83 307.18 254.98 295.67 270.75"/><path d="M304.18,252.3l-.21-.14A59.11,59.11,0,0,0,313,231l.07-.33a10.89,10.89,0,0,1,1.38-4l.21.14a10.73,10.73,0,0,0-1.34,3.92l-.07.33A59.35,59.35,0,0,1,304.18,252.3Z"/><path d="M130.13,259.07a69.58,69.58,0,0,1-7.62-24.58c-.34-3-.5-6-.65-9a83.47,83.47,0,0,0-1.66-14.87l.24-.06a83.81,83.81,0,0,1,1.67,14.92c.15,2.95.31,6,.65,9A69.32,69.32,0,0,0,130.35,259Z"/><path d="M199.94,254.39c5.5,31.73.35,64.18,5.63,95.93,0,.16.27.09.24-.07-5.28-31.75-.13-64.2-5.63-95.93,0-.16-.27-.09-.24.07Z"/><path d="M236.61,264.52l-.23-.1a302.6,302.6,0,0,0,18.23-60.26l.25,0A302.89,302.89,0,0,1,236.61,264.52Z"/><path d="M115.38,320c-2.85-17.33-3.79-35.19-4.7-52.46-1-18.68-2-38-5.44-56.67l.25,0c3.44,18.7,4.46,38,5.44,56.71.91,17.26,1.85,35.11,4.7,52.43Z"/><path d="M111.87,351.33l-.25,0c3.09-22.49-.7-45.39-4.36-67.54-2-11.86-4-24.13-5-36.23l.25,0c1,12.09,3,24.35,4.95,36.21C111.17,305.88,115,328.8,111.87,351.33Z"/><path d="M98.47,271.92c-4-11.54-8.45-24.62-7.32-37.7l.25,0c-1.12,13,3.36,26.08,7.31,37.59Z"/></g><g id="Head-9" data-name="Head"><g id="Neck"><path d="M171.49,179.22c.57,2.86,2.53,5.22,4.34,7.51a123.39,123.39,0,0,1,11.85,18c2,3.7,3.27,6.82,5.88,10.07-.2-.25.19.26,0,0,1.45,3,2.8,6,4.09,9a248,248,0,0,1,18.27,71c6-14.42,9.33-32.26,11.71-47.64a50.41,50.41,0,0,0,.64-5.61,54.61,54.61,0,0,0-.36-6.64q-.69-7.65-.84-15.33c0-.15,0-.29,0-.44-.26.52.18-.33-.09.18,2.14-3.94,3-7,4.76-11.12,5-11.72,12.76-23.19,11.85-35.91-.43-6-2.78-11.69-3.48-17.65a59.33,59.33,0,0,1,.21-12.32,378.24,378.24,0,0,1,5.49-38.17l-6.19-1c-12.56,1.82-25.26,3.69-37,8.48-6.18,2.52-12.33,6.12-15.61,11.94-2.24,4-2.91,8.61-3.55,13.13L180.59,157a2.94,2.94,0,0,1-.7,1.81c-.8.75-2.08.38-3.17.5-3,.33-4,4.07-4.35,7.05l-.84,7.63A17.23,17.23,0,0,0,171.49,179.22Z" style="fill:#62647a"/><path d="M171.25,179.28c.73,3,2.55,5.25,4.41,7.62,2.48,3.16,4.84,6.42,7,9.81q3,4.7,5.62,9.67c.75,1.45,1.47,2.93,2.28,4.35.4.71.82,1.41,1.27,2.09q.47.71,1,1.38a.9.9,0,0,0,.88.34c-.21-.25-.55.11-.35.35l.09.11c.17.22.56-.07.39-.3l0-.06a.25.25,0,0,0-.43.25,243.09,243.09,0,0,1,22.33,79.94.25.25,0,0,0,.49.07c4.82-11.79,7.66-24.3,9.91-36.8,1.08-6,2.63-12.31,2.44-18.41-.2-6.85-1.19-13.64-1.19-20.51,0-.24-.35-.36-.47-.13l-.08.18c-.14.29.28.54.43.25l.09-.17c.14-.29-.27-.54-.43-.25l-.09.17.43.25a99.92,99.92,0,0,0,4.07-9.47c1.51-3.75,3.3-7.37,5.06-11,3.07-6.35,6.19-12.89,7.23-19.94s-1.05-13.58-2.52-20.46c-1.79-8.35-.49-17,.48-25.36q1.7-14.58,4.53-29a.25.25,0,0,0-.17-.31c-1.93-.3-3.93-.8-5.89-.91a18.57,18.57,0,0,0-3.65.42c-2.61.38-5.22.78-7.82,1.21-9.59,1.6-19.27,3.7-28.17,7.74-7.5,3.4-13.57,8.52-15.75,16.71-1.24,4.66-1.66,9.57-2.34,14.33l-1.09,7.69-.54,3.85a9.48,9.48,0,0,1-.27,1.92,3.73,3.73,0,0,1-3,2.1c-1.33.29-2.25.31-3.23,1.41a8.86,8.86,0,0,0-1.74,4,65.69,65.69,0,0,0-.83,6.68,31.62,31.62,0,0,0-.35,8.17c0,.32.53.18.48-.13a25.42,25.42,0,0,1,.21-6.6c.27-2.44.42-4.94.85-7.35a8.54,8.54,0,0,1,1.78-4.41c1.55-1.64,3.16-.67,4.89-1.44a2.27,2.27,0,0,0,1.26-1.64,47.4,47.4,0,0,0,1-6.91l1.84-13c.6-4.22,1.11-8.59,2.89-12.51a22.4,22.4,0,0,1,8-9.08c6.71-4.57,15-7,22.78-8.82,4.07-1,8.19-1.72,12.32-2.4,3.37-.55,7.3-1.73,10.69-1.42,1,.09,1.92.3,2.87.44.32.05,2.35.09,2.56.39.05.08-.62,2.27-.67,2.54q-.31,1.66-.61,3.32-.6,3.32-1.13,6.66-2,12.65-3.21,25.42a56.9,56.9,0,0,0-.09,13.22c.53,3.75,1.65,7.37,2.47,11.06,2.19,9.9-.36,18.83-4.5,27.83-1.87,4.05-3.92,8-5.74,12.09s-3.28,8.61-5.44,12.69c-.15.28.27.53.43.25l.09-.17-.43-.25-.09.17.43.25-.38.14,0,1a12.57,12.57,0,0,0,.05,1.92q.07,2.16.18,4.31c.15,2.87.37,5.74.62,8.61a63.29,63.29,0,0,1-1,16.23,258.8,258.8,0,0,1-6.31,29.47q-1,3.32-2,6.6c-.28.83-1.93,6.19-2.24,6.2,0,0-2-14.27-2.13-15.29a248.72,248.72,0,0,0-7.44-31.25,232.34,232.34,0,0,0-12.73-32.73l-.43.25,0,.05c.21.25.55-.11.35-.35-4.27-5.51-6.86-12.27-10.64-18.14q-2.8-4.34-5.95-8.44c-2.14-2.78-4.57-5.36-5.42-8.86C171.66,178.84,171.17,179,171.25,179.28Z"/></g><g id="Face"><path d="M177.1,42.66a93.54,93.54,0,0,1,11.32-4.56,41.24,41.24,0,0,1,9.76-2.17,36.39,36.39,0,0,1,7.46.31,58.38,58.38,0,0,1,10.7,2.45,55.65,55.65,0,0,1,29.59,22.95,50.23,50.23,0,0,1,6.67,36.66c-.57,2.64-1.36,5.22-2.14,7.8-3.35,11-7.15,22.7-16.32,29.56a72,72,0,0,1-6.9,4.77,72.86,72.86,0,0,1-11.34,3.71,89,89,0,0,0-11.44,3.9c-3.89,1.66-7.75,3.72-12,4a22.24,22.24,0,0,1-8.87-1.52,31.56,31.56,0,0,1-10.89-6.27c-4.39-4-7.17-9.5-9.36-15-3.72-9.4-6-19.77-3.73-29.61.71-3.05,1.85-6,2.13-9.15.2-2.28-.06-4.57,0-6.86a53.23,53.23,0,0,1,2.2-12.48,19.68,19.68,0,0,1,2.27-6c1.14-1.74,2.81-3.08,3.92-4.83,1.42-2.24,1.81-5,2.55-7.5s2.06-5.19,4.48-6.26Z" style="fill:#62647a"/><path d="M191.41,152.33a23.59,23.59,0,0,1-7.88-1.57,31.75,31.75,0,0,1-11-6.33c-4.78-4.39-7.55-10.39-9.42-15.13-4.52-11.42-5.74-21.15-3.75-29.76.24-1,.53-2.06.81-3.07a33.75,33.75,0,0,0,1.31-6,33.71,33.71,0,0,0,0-4.17c0-.87-.06-1.78,0-2.67A53.45,53.45,0,0,1,163.69,71,20.1,20.1,0,0,1,166,65a20,20,0,0,1,1.94-2.38,18.54,18.54,0,0,0,2-2.45,18.54,18.54,0,0,0,2-5.45c.17-.67.34-1.33.53-2,.95-3.25,2.45-5.39,4.47-6.35l-.07-3.87.14-.07a94.27,94.27,0,0,1,11.35-4.58,42.05,42.05,0,0,1,9.82-2.18,36.68,36.68,0,0,1,7.52.31,58.75,58.75,0,0,1,10.75,2.46A56.26,56.26,0,0,1,246.14,61.5a50.34,50.34,0,0,1,6.7,36.85c-.56,2.64-1.37,5.25-2.14,7.79-3.09,10.1-6.92,22.62-16.42,29.72l-.18.13a67.7,67.7,0,0,1-6.76,4.67A66.34,66.34,0,0,1,217,144.1l-1,.28a88.37,88.37,0,0,0-11.4,3.89l-2,.9c-3.19,1.42-6.49,2.89-10,3.13Q192,152.33,191.41,152.33ZM177.35,42.82l.07,3.87-.15.07c-2,.87-3.42,2.92-4.34,6.11-.19.65-.36,1.31-.52,2a18.88,18.88,0,0,1-2.06,5.6,18.84,18.84,0,0,1-2,2.52,19.65,19.65,0,0,0-1.89,2.32,19.42,19.42,0,0,0-2.24,5.91A53.1,53.1,0,0,0,162,83.6c0,.88,0,1.78,0,2.65a34.16,34.16,0,0,1,0,4.23,34.06,34.06,0,0,1-1.33,6.14c-.28,1-.57,2-.81,3-2,8.51-.75,18.15,3.72,29.46,1.86,4.69,4.59,10.63,9.29,14.95a31.26,31.26,0,0,0,10.8,6.22,21.77,21.77,0,0,0,8.77,1.5c3.44-.24,6.7-1.69,9.85-3.09l2-.9a88.77,88.77,0,0,1,11.47-3.91l1-.28a65.85,65.85,0,0,0,10.27-3.42,69.24,69.24,0,0,0,6.67-4.61l.18-.13c9.38-7,13.18-19.44,16.23-29.43.78-2.56,1.58-5.16,2.14-7.78a49.84,49.84,0,0,0-6.64-36.48,55.76,55.76,0,0,0-29.45-22.84,58.3,58.3,0,0,0-10.65-2.44,36.12,36.12,0,0,0-7.41-.31,41.64,41.64,0,0,0-9.7,2.16A93.76,93.76,0,0,0,177.35,42.82Z"/></g><path d="M210.28,42.16a24.82,24.82,0,0,1,9.5,3.51l9.17,6c4,2.61,8,5.26,11.27,8.76s5.67,8,5.77,12.75c.05,2.77-.67,5.51-.75,8.28s.66,5.82,2.93,7.43c1.56,1.1,3.55,1.33,5.33,2a10.78,10.78,0,0,1,5.24,4.35c.33.54.7,1.16,1.33,1.26a1.94,1.94,0,0,0,1.45-.63,23,23,0,0,0,4.86-5.75,2.85,2.85,0,0,0,.51-1.39,3.22,3.22,0,0,0-.67-1.65,6.34,6.34,0,0,1-1.27-4.34c.38-2.1,2.45-3.35,4-4.8s2.65-4.16,1-5.55c-1-.85-2.56-.75-3.51-1.63-1.38-1.28-.56-3.6.59-5.09s2.63-3.09,2.33-4.95a8.85,8.85,0,0,0-.93-2.24c-1-2.25-1-4.82-1.33-7.28-.45-3.9-1.92-8-5.24-10.09-1.66-1-3.64-1.48-5.31-2.51s-3.07-3-2.44-4.86a10.86,10.86,0,0,0,.56-1.45c.25-1.37-1.09-2.58-2.45-2.86a19,19,0,0,0-4.16.07c-3.75.06-7.2-2.11-9.87-4.74s-4.81-5.76-7.5-8.38a7,7,0,0,0,.82,7.59,4.69,4.69,0,0,1-5.9-1.37A9.85,9.85,0,0,0,224,20.26c-1-.76-2.36-.66-3.49-1.16s-1.71-2.44-.53-2.81L209.53,15a6.14,6.14,0,0,0-1.85,0A6,6,0,0,0,205.46,16c-2.22,1.49-4.77,3.1-7.37,2.49a33.72,33.72,0,0,0-3.35-1.11c-2-.25-3.83,1.13-5.06,2.72s-2.11,3.45-3.54,4.85-3.75,2.23-5.46,1.18l-1-2.59a4.36,4.36,0,0,0-2.18,4.19,3.7,3.7,0,0,1,0,1.53c-.45,1.39-2.53,1-3.83,1.71a2.47,2.47,0,0,0-.75,3.6,12.12,12.12,0,0,1-3.92.77c1.82,4.19-1.21,8.88-1.14,13.44,0,1.43.33,3-.39,4.21-.82,1.41-2.8,2.08-3.08,3.69-.16.94.33,1.94,0,2.83A4.36,4.36,0,0,1,163.07,61c-2.56,2.28-2.8,6.12-2.85,9.55,0,1.11.2,2.53,1.28,2.77.86.19,1.66-.6,2-1.43s.28-1.75.58-2.59c.61-1.7,2.33-2.67,3.7-3.84,3.75-3.21,5.12-8.34,7.85-12.45a26.12,26.12,0,0,1,13.73-10c5.47-1.8,15.41-2.13,17.09-1.72A39.21,39.21,0,0,0,210.28,42.16Z"/><g id="Ear"><path d="M248.54,92a15,15,0,0,1,5.64-2.22A5.61,5.61,0,0,1,259.55,92a6.55,6.55,0,0,1,.33,5.33c-.52,1.76-1.37,3.42-1.73,5.22-.31,1.55-.25,3.16-.6,4.7a17.38,17.38,0,0,1-2,4.54,42,42,0,0,1-4.63,7,10.44,10.44,0,0,1-6,3.84,6.71,6.71,0,0,1-7-9.57" style="fill:#62647a"/><path d="M244,122.94a7,7,0,0,1-6.32-10l.45.22a6.46,6.46,0,0,0,6.78,9.22c2-.31,4-1.57,5.86-3.76a41.68,41.68,0,0,0,4.6-7,17.38,17.38,0,0,0,2-4.47,17.7,17.7,0,0,0,.32-2.44,15.05,15.05,0,0,1,1.28-5.39c.26-.69.53-1.39.74-2.1.43-1.45.72-3.52-.3-5.12a5.33,5.33,0,0,0-5.13-2.07,14.88,14.88,0,0,0-5.55,2.19l-.25-.43a15.27,15.27,0,0,1,5.74-2.25,5.81,5.81,0,0,1,5.61,2.29c1.12,1.76.82,4,.36,5.53-.21.73-.49,1.45-.75,2.14a14.6,14.6,0,0,0-1.25,5.26,18.28,18.28,0,0,1-.33,2.51,17.82,17.82,0,0,1-2,4.61,42.22,42.22,0,0,1-4.66,7c-2,2.28-4,3.6-6.16,3.92A6.52,6.52,0,0,1,244,122.94Z"/><path d="M258.15,96.9l-.25,0a7.18,7.18,0,0,0,0-2.12,2.34,2.34,0,0,0-1.1-1.66,3.31,3.31,0,0,0-2.19-.08,23.08,23.08,0,0,0-5.39,1.85l-.11-.22a23.33,23.33,0,0,1,5.45-1.87,3.51,3.51,0,0,1,2.35.1,2.56,2.56,0,0,1,1.23,1.83A7.41,7.41,0,0,1,258.15,96.9Z"/><path d="M251.29,107.87l-.22-.11a2.61,2.61,0,0,0,.16-.45,6.6,6.6,0,0,0-.31-4.55,4.86,4.86,0,0,0-3.49-2.75l0-.25a5.12,5.12,0,0,1,3.68,2.89,6.86,6.86,0,0,1,.32,4.72A2.85,2.85,0,0,1,251.29,107.87Z"/><path d="M249.16,109.24l-.12,0a.78.78,0,0,1-.52-.53,2.33,2.33,0,0,1-.06-.4,1.22,1.22,0,0,0-.12-.53.57.57,0,0,0-.42-.26.94.94,0,0,0-.76.23,2.61,2.61,0,0,0-.62,1.33l-.24-.06a2.8,2.8,0,0,1,.69-1.46,1.22,1.22,0,0,1,1-.29.82.82,0,0,1,.6.38,1.43,1.43,0,0,1,.15.64,2,2,0,0,0,0,.36.53.53,0,0,0,.34.35.16.16,0,0,0,.17,0l.18.17A.4.4,0,0,1,249.16,109.24Z"/></g><path d="M214.52,88.64a20.49,20.49,0,0,1-5.27,2.24,15,15,0,0,1-6.08-.16,9.9,9.9,0,0,1-3.51-1.27,4.33,4.33,0,0,1-2-3,45.12,45.12,0,0,1,11.1,1.28c1.92.46,3.87,1.06,5.83.39C215.22,88,215,88.37,214.52,88.64Z" style="fill:#e2e0e1"/><path d="M206.81,91.26a18.64,18.64,0,0,1-3.68-.41,10,10,0,0,1-3.55-1.29,4.46,4.46,0,0,1-2.09-3.11l0-.14h.69a45.44,45.44,0,0,1,10.59,1.29l.54.13c1.71.42,3.48.86,5.23.27.22,0,.51-.06.57.13s-.37.54-.51.62h0l-.1.05a20.27,20.27,0,0,1-5.21,2.2A11.56,11.56,0,0,1,206.81,91.26Zm-9.06-4.7a4.27,4.27,0,0,0,2,2.79,9.82,9.82,0,0,0,3.47,1.25,14.64,14.64,0,0,0,6,.16,20,20,0,0,0,5.14-2.18l.09-.05a1.14,1.14,0,0,0,.38-.31.84.84,0,0,0-.26,0c-1.8.61-3.6.16-5.35-.27l-.53-.13A45.31,45.31,0,0,0,197.76,86.56Z"/><path d="M176.22,87.78a1.35,1.35,0,0,1-.34,1.56,3.16,3.16,0,0,1-1.56.69,11.17,11.17,0,0,1-5.68-.3,22.22,22.22,0,0,1-2.9-1.25,2.5,2.5,0,0,1-1-.75.86.86,0,0,1,.11-1.16,1.2,1.2,0,0,1,.46-.16,30,30,0,0,1,7.54-.19c1.16.07,2.49.23,3.11,1.21C175.93,87.43,176.19,87.73,176.22,87.78Z" style="fill:#e2e0e1"/><path d="M172.06,90.39a11.23,11.23,0,0,1-3.45-.54,22.37,22.37,0,0,1-2.9-1.25,2.69,2.69,0,0,1-1.1-.8,1,1,0,0,1,.14-1.33,1.29,1.29,0,0,1,.51-.18,30.25,30.25,0,0,1,7.58-.19c1.29.08,2.58.29,3.21,1.27a3.79,3.79,0,0,1,.29.36h0a1.47,1.47,0,0,1-.36,1.71,3.28,3.28,0,0,1-1.62.72A11.14,11.14,0,0,1,172.06,90.39Zm-2.9-4.19a20,20,0,0,0-3.86.33,1.09,1.09,0,0,0-.41.14.74.74,0,0,0-.08,1,2.42,2.42,0,0,0,1,.71,22.21,22.21,0,0,0,2.89,1.25,11,11,0,0,0,5.61.3,3.06,3.06,0,0,0,1.5-.65,1.23,1.23,0,0,0,.31-1.41s-.16-.2-.27-.33c-.58-.9-1.8-1.09-3-1.17S170.38,86.2,169.16,86.2Z"/><path d="M214.89,86.53c-3.81-3.52-6.24-4.74-9.62-4.81H205c-3.83,0-7,1.67-8.38,4.51l-.22-.11c1.47-2.92,4.68-4.64,8.6-4.64h.3c3.88.09,6.43,1.78,9.78,4.88Z"/><path d="M176,84.53c-2.41-2.5-4.1-3.71-6.66-3.44a4,4,0,0,0-1.91.65,6.1,6.1,0,0,0-1.08,1.1,4.28,4.28,0,0,1-1.66,1.41l-.09-.23a4,4,0,0,0,1.55-1.34,6.24,6.24,0,0,1,1.13-1.14,4.26,4.26,0,0,1,2-.7c2.64-.29,4.45,1,6.87,3.51Z"/><g style="clip-path:url(#clip-path-4)"><circle cx="168.77" cy="87.51" r="3.06"/><circle cx="168.7" cy="87.51" r="1.08" style="fill:#fff"/></g><g style="clip-path:url(#clip-path-5)"><circle cx="202.19" cy="88.12" r="3.67"/><circle cx="202.61" cy="88.12" r="1.08" style="fill:#fff"/></g><g style="opacity:0.30000000000000004"><path d="M194.22,79.71c1.56-1.74,4.84-2.41,7.07-2.84a14.35,14.35,0,0,1,7.17.21c2.21.72,4.11,2.2,6.21,3.19a57.57,57.57,0,0,0,6.31,2.4c1.22.41,1.75-1.52.53-1.93A46.17,46.17,0,0,1,212.84,77a16.11,16.11,0,0,0-6.65-2.43,20,20,0,0,0-7.11.75c-2.18.59-4.72,1.22-6.27,3-.86,1,.55,2.37,1.41,1.41Z"/></g><g style="opacity:0.30000000000000004"><path d="M177.75,79.75c-1.3-2.4-4.83-4-7.18-5.15s-5-1.52-7.46-.1a1,1,0,0,0,1,1.73c2.35-1.37,4.69-.4,6.84.86,1.55.91,4.18,2,5.06,3.66.61,1.13,2.34.12,1.73-1Z"/></g><path d="M171.1,107.23c-1.73-1.13-1.92-3.69-1.1-5.5A13.44,13.44,0,0,1,172.95,98l.73-.74a55.77,55.77,0,0,0,7.17-10l.43.26A56.21,56.21,0,0,1,174,97.57l-.74.75a13.09,13.09,0,0,0-2.85,3.62c-.74,1.63-.59,3.9.91,4.88Z"/><path d="M178.31,107.86l-.37,0a3,3,0,0,1-2-1.18,2,2,0,0,1-.36-1.62l.49.11a1.49,1.49,0,0,0,.28,1.21,2.47,2.47,0,0,0,1.69,1,6.56,6.56,0,0,0,3.42-1l1.86-.93a5.33,5.33,0,0,1,1.49-.57,4.6,4.6,0,0,1,2.19.3,2.59,2.59,0,0,1,1.39.9,1.31,1.31,0,0,1,.16,1.06l0,.13a3.67,3.67,0,0,0,1.71-.42c1.31-.76,1.56-2.64,1.05-4a10.32,10.32,0,0,0-2.92-3.68l.34-.37a10.69,10.69,0,0,1,3,3.87c.58,1.57.27,3.72-1.27,4.62a4.82,4.82,0,0,1-2.54.49.25.25,0,0,1-.1-.48.45.45,0,0,0,.24-.3.81.81,0,0,0-.1-.65,2.13,2.13,0,0,0-1.13-.71,4,4,0,0,0-1.94-.28,4.84,4.84,0,0,0-1.35.52l-1.86.93A7.67,7.67,0,0,1,178.31,107.86Z"/><path d="M182.37,106.67a1.17,1.17,0,0,0,.78.63,8.57,8.57,0,0,0,1,.2c.51.1,1,.3,1.52.36a6.07,6.07,0,0,0,1.6-.13,3,3,0,0,0,.52-.13,1.52,1.52,0,0,0,.4-.22,1,1,0,0,0,0-1.15,2.37,2.37,0,0,0-1.27-.83,4.44,4.44,0,0,0-2.11-.3,5.8,5.8,0,0,0-1.45.55l-1,.49a.55.55,0,0,0-.11.23A.49.49,0,0,0,182.37,106.67Z"/><path d="M198.71,121.46a6.61,6.61,0,0,0-3.33-4.78,16.55,16.55,0,0,0-5.84-1.91,37.29,37.29,0,0,0-12.93-.43c-1.42.24-2.84.59-4.22.94a45.29,45.29,0,0,1-5,1.06l-.07-.5a44.76,44.76,0,0,0,4.93-1c1.39-.35,2.82-.71,4.26-1a37.86,37.86,0,0,1,13.1.43,17.4,17.4,0,0,1,6,2,7.11,7.11,0,0,1,3.57,5.15Z"/><path d="M197.3,122.81c-7.71-.93-15.69-1.9-23.59-1.77h-.3a12.5,12.5,0,0,1-5.95-.85l.22-.45a12.15,12.15,0,0,0,5.71.79h.3c7.94-.13,15.93.84,23.66,1.77Z"/><path d="M186.23,129.18a51.83,51.83,0,0,1-5.35-.37l-8.19-.86c-1.68-.18-3.78-.39-5.32-1.63a4.14,4.14,0,0,1-1.5-3,2.75,2.75,0,0,1,.85-2.17l.34.37a2.26,2.26,0,0,0-.68,1.78,3.68,3.68,0,0,0,1.32,2.64c1.42,1.14,3.44,1.35,5.05,1.52l8.19.86c3.2.33,6.5.68,9.67-.12a27.78,27.78,0,0,0,7-3.24l.25.43a28.15,28.15,0,0,1-7.13,3.3A18.42,18.42,0,0,1,186.23,129.18Z"/></g></g></g></svg>